<svg xmlns="http://www.w3.org/2000/svg" viewBox="0 0 728.12 137.46"><defs><style>.cls-1{fill:#ff8b00;}.cls-2{fill:#fff;}</style></defs><g id="レイヤー_2" data-name="レイヤー 2"><g id="レイヤー_1-2" data-name="レイヤー 1"><path class="cls-1" d="M69.92,100.52c25.21,24.91,52.62,20.22,62.12,17.54A73.6,73.6,0,1,0,2.68,93C15.81,86.94,46.16,77,69.92,100.52Z"/><rect class="cls-1" x="7.74" y="98.74" width="50.33" height="7.74" rx="3.87"/><rect class="cls-1" x="15.49" y="114.23" width="61.95" height="7.74" rx="3.87"/><rect class="cls-1" x="30.97" y="129.72" width="65.82" height="7.74" rx="3.87"/><path class="cls-2" d="M197.87,34.26a4.77,4.77,0,0,1,4.83-4.72h31.8c22.72,0,40.07,4.91,40.07,20.3,0,7.58-5.68,15.39-15.1,17.84v.56c12,2.12,20.78,8.36,20.78,19.52,0,16.61-18.54,24.31-42.91,24.31H202.7a4.77,4.77,0,0,1-4.83-4.72Zm35,28.85c14.06,0,20.19-4.24,20.19-10.82,0-7.25-6.58-10.15-19.89-10.15h-8.32A4.79,4.79,0,0,0,220,46.86V58.39a4.78,4.78,0,0,0,4.84,4.72Zm2.54,36.25c15.11,0,23.33-4,23.33-12.61,0-8-8.07-11.37-23.33-11.37H224.83A4.78,4.78,0,0,0,220,80.1V94.64a4.79,4.79,0,0,0,4.84,4.72Z"/><path class="cls-2" d="M331.34,29.54h12.47a4.77,4.77,0,0,1,4.83,4.72v73.09a4.77,4.77,0,0,1-4.83,4.72H331.34a4.77,4.77,0,0,1-4.83-4.72V34.26A4.77,4.77,0,0,1,331.34,29.54Z"/><path class="cls-2" d="M400.61,29.54h15.26a4.87,4.87,0,0,1,3.93,2L456,82.7a2,2,0,0,0,3.67-1.13l-.24-47.31a4.78,4.78,0,0,1,4.84-4.72h11.26a4.78,4.78,0,0,1,4.84,4.72v73.09a4.78,4.78,0,0,1-4.84,4.72H460.48a4.88,4.88,0,0,1-4-2L420.38,60a2,2,0,0,0-3.66,1.14c0,5.81,0,10.71,0,17.83v28.4a4.77,4.77,0,0,1-4.83,4.72H400.61a4.77,4.77,0,0,1-4.83-4.72V34.26A4.77,4.77,0,0,1,400.61,29.54Z"/><path class="cls-2" d="M535.17,29.54h12.46a4.78,4.78,0,0,1,4.84,4.72V65.34h.44l35.22-34.42a4.93,4.93,0,0,1,3.42-1.38h10.56a4.7,4.7,0,0,1,3.39,8.08L583.19,59.05a4.64,4.64,0,0,0-.43,6.26l31.09,39.15a4.71,4.71,0,0,1-3.81,7.61h-12.1a4.88,4.88,0,0,1-3.86-1.88l-23.8-30.86a4.91,4.91,0,0,0-7.24-.54l-9.12,8.69a4.68,4.68,0,0,0-1.45,3.38v16.49a4.78,4.78,0,0,1-4.84,4.72H535.17a4.77,4.77,0,0,1-4.83-4.72V34.26A4.77,4.77,0,0,1,535.17,29.54Z"/><path class="cls-2" d="M651.7,97.45,657,92.68a4.89,4.89,0,0,1,5.72-.58,51.2,51.2,0,0,0,25.15,7.26c11.51,0,17.64-3.68,17.64-9.48,0-6.14-6.72-8-16.59-11.16L674.14,74c-11.21-3.46-22.42-10.15-22.42-22.19C651.72,38.35,667.57,28,690,28a61.82,61.82,0,0,1,29.37,7.15,4.65,4.65,0,0,1,.91,7.52l-4.19,3.88a4.93,4.93,0,0,1-5.65.67A42.11,42.11,0,0,0,690,42.14c-9.71,0-16,3.24-16,8.7,0,5.91,7.92,8,17.34,10.82l14.5,4.57c13.46,4.13,22.28,10.49,22.28,22.42,0,13.49-15.1,25-40.67,25A73.5,73.5,0,0,1,652.54,105,4.65,4.65,0,0,1,651.7,97.45Z"/></g></g></svg>