<svg xmlns="http://www.w3.org/2000/svg" viewBox="0 0 44 44"><defs><style>.cls-1{fill:#004897;}.cls-2{fill:#fff;stroke:#000;stroke-linecap:round;stroke-linejoin:round;stroke-width:2px;}</style></defs><g id="レイヤー_2" data-name="レイヤー 2"><g id="レイヤー_1-2" data-name="レイヤー 1"><circle class="cls-1" cx="22" cy="22" r="21"/><path d="M22,2A20,20,0,1,1,2,22,20,20,0,0,1,22,2m0-2A22,22,0,1,0,44,22,22,22,0,0,0,22,0Z"/><path class="cls-2" d="M34.18,21.53,15.81,13a1.38,1.38,0,0,0-2,1.24V31.33a1.38,1.38,0,0,0,2,1.25L34.18,24A1.37,1.37,0,0,0,34.18,21.53Z"/></g></g></svg>