<svg xmlns="http://www.w3.org/2000/svg" width="638.75" height="393.29" viewBox="0 0 638.75 393.29"><defs><style>.cls-1{opacity:0.2;}.cls-14,.cls-2,.cls-22,.cls-29,.cls-30,.cls-32,.cls-33,.cls-36,.cls-37{font-size:27.68px;}.cls-13,.cls-14,.cls-2,.cls-21,.cls-22,.cls-27{fill:#231815;}.cls-13,.cls-14,.cls-2,.cls-21,.cls-22,.cls-29,.cls-30,.cls-31,.cls-32,.cls-33,.cls-34,.cls-35,.cls-36,.cls-37{font-family:KozGoPr6N-Regular-83pv-RKSJ-H, Kozuka Gothic Pr6N;}.cls-2,.cls-29,.cls-30{letter-spacing:0.25em;}.cls-3{letter-spacing:0.18em;}.cls-4{letter-spacing:0.22em;}.cls-5{letter-spacing:0.23em;}.cls-6{letter-spacing:-0.23em;}.cls-7{letter-spacing:0.23em;}.cls-8{letter-spacing:0.25em;}.cls-9{letter-spacing:0.24em;}.cls-10{letter-spacing:0.15em;}.cls-11{letter-spacing:0.18em;}.cls-12{letter-spacing:-0.23em;}.cls-13,.cls-31{font-size:32.16px;letter-spacing:0.25em;}.cls-14,.cls-32,.cls-33{letter-spacing:0.16em;}.cls-15{letter-spacing:0.02em;}.cls-16{letter-spacing:0.22em;}.cls-17{letter-spacing:0.19em;}.cls-18{letter-spacing:0.09em;}.cls-19{letter-spacing:0.08em;}.cls-20{letter-spacing:0.14em;}.cls-21,.cls-34,.cls-35{font-size:70.13px;letter-spacing:0.1em;}.cls-22,.cls-36,.cls-37{letter-spacing:0.23em;}.cls-23{letter-spacing:0.06em;}.cls-24{letter-spacing:0.16em;}.cls-25{letter-spacing:0.21em;}.cls-26{letter-spacing:0.14em;}.cls-28,.cls-29,.cls-30,.cls-32,.cls-33,.cls-34,.cls-35,.cls-36,.cls-37{isolation:isolate;}.cls-29,.cls-31,.cls-32,.cls-34,.cls-35,.cls-36{fill:#fff;}.cls-30,.cls-33,.cls-37{fill:none;}.cls-30,.cls-31,.cls-33,.cls-34,.cls-35,.cls-37{stroke:#fff;}.cls-31{stroke-width:0.75px;}.cls-34{stroke-miterlimit:10;}.cls-38{fill:#ff8300;}</style></defs><g id="レイヤー_2" data-name="レイヤー 2"><g id="レイヤー_1-2" data-name="レイヤー 1"><g id="グループ_445" data-name="グループ 445"><g class="cls-1"><g id="私たちは_" data-name="私たちは "><g id="私たちは_2" data-name="私たちは 2"><text class="cls-2" transform="translate(7.55 32.16) rotate(-0.11)">私<tspan class="cls-3" x="34.6" y="0">た</tspan><tspan class="cls-4" x="67.27" y="0">ち</tspan><tspan class="cls-5" x="101.04" y="0">は</tspan><tspan class="cls-6" x="135.09" y="0">、</tspan></text><text class="cls-2" transform="translate(7.55 32.16) rotate(-0.11)">私<tspan class="cls-3" x="34.6" y="0">た</tspan><tspan class="cls-4" x="67.27" y="0">ち</tspan><tspan class="cls-5" x="101.04" y="0">は</tspan><tspan class="cls-6" x="135.09" y="0">、</tspan></text></g></g><g id="世の中に隠れた価値を徹底的に探求し_" data-name="世の中に隠れた価値を徹底的に探求し "><g id="世の中に_を徹底的に探求し_" data-name="世の中に を徹底的に探求し "><text class="cls-2" transform="translate(7.74 135.83) rotate(-0.11)"><tspan xml:space="preserve">世の中の              </tspan><tspan class="cls-7" x="325.59" y="0" xml:space="preserve"> を</tspan><tspan class="cls-8" x="372.45" y="0">徹底的</tspan><tspan class="cls-9" x="476.26" y="0">に</tspan><tspan x="510.58" y="0">探</tspan><tspan class="cls-10" x="545.18" y="0">求</tspan><tspan class="cls-11" x="577.02" y="0">し</tspan><tspan class="cls-12" x="609.68" y="0">、</tspan></text><text class="cls-2" transform="translate(7.74 135.83) rotate(-0.11)"><tspan xml:space="preserve">世の中の              </tspan><tspan class="cls-7" x="325.59" y="0" xml:space="preserve"> を</tspan><tspan class="cls-8" x="372.45" y="0">徹底的</tspan><tspan class="cls-9" x="476.26" y="0">に</tspan><tspan x="510.58" y="0">探</tspan><tspan class="cls-10" x="545.18" y="0">求</tspan><tspan class="cls-11" x="577.02" y="0">し</tspan><tspan class="cls-12" x="609.68" y="0">、</tspan></text></g><g id="隠れた価値"><text class="cls-13" transform="matrix(1, 0, 0, 1, 147.63, 133.63)">隠れた価値</text><text class="cls-13" transform="matrix(1, 0, 0, 1, 147.63, 133.63)">隠れた価値</text><text class="cls-13" transform="matrix(1, 0, 0, 1, 147.63, 133.63)">隠れた価値</text><text class="cls-13" transform="matrix(1, 0, 0, 1, 147.63, 133.63)">隠れた価値</text><text class="cls-13" transform="matrix(1, 0, 0, 1, 147.63, 133.63)">隠れた価値</text><text class="cls-13" transform="matrix(1, 0, 0, 1, 147.63, 133.63)">隠れた価値</text></g></g><g id="ネットマーケティング業界に"><text class="cls-14" transform="translate(7.63 244.02) rotate(-0.11)">ネ<tspan class="cls-15" x="32.11" y="0">ッ</tspan><tspan class="cls-11" x="60.35" y="0">ト</tspan><tspan class="cls-9" x="93.01" y="0">マ</tspan><tspan class="cls-16" x="127.34" y="0">ー</tspan><tspan class="cls-17" x="161.11" y="0">ケ</tspan><tspan class="cls-18" x="194.05" y="0">テ</tspan><tspan class="cls-19" x="224.22" y="0">ィ</tspan><tspan class="cls-20" x="254.12" y="0">ン</tspan><tspan class="cls-8" x="285.68" y="0">グ業界</tspan><tspan class="cls-9" x="389.48" y="0">に</tspan></text><text class="cls-14" transform="translate(7.63 244.02) rotate(-0.11)">ネ<tspan class="cls-15" x="32.11" y="0">ッ</tspan><tspan class="cls-11" x="60.35" y="0">ト</tspan><tspan class="cls-9" x="93.01" y="0">マ</tspan><tspan class="cls-16" x="127.34" y="0">ー</tspan><tspan class="cls-17" x="161.11" y="0">ケ</tspan><tspan class="cls-18" x="194.05" y="0">テ</tspan><tspan class="cls-19" x="224.22" y="0">ィ</tspan><tspan class="cls-20" x="254.12" y="0">ン</tspan><tspan class="cls-8" x="285.68" y="0">グ業界</tspan><tspan class="cls-9" x="389.48" y="0">に</tspan></text></g><g id="革命"><text class="cls-21" transform="translate(7.68 369.51) rotate(-0.11)">革命</text><text class="cls-21" transform="translate(7.68 369.51) rotate(-0.11)">革命</text></g><g id="を起こします_" data-name="を起こします "><text class="cls-22" transform="translate(169.39 373.16) rotate(-0.11)">を<tspan class="cls-11" x="34.05" y="0">起</tspan><tspan class="cls-23" x="66.71" y="0">こ</tspan><tspan class="cls-24" x="96.06" y="0">し</tspan><tspan class="cls-25" x="128.17" y="0">ま</tspan><tspan class="cls-26" x="161.66" y="0">す</tspan><tspan class="cls-6" x="193.22" y="0">。</tspan></text><text class="cls-22" transform="translate(169.39 373.16) rotate(-0.11)">を<tspan class="cls-11" x="34.05" y="0">起</tspan><tspan class="cls-23" x="66.71" y="0">こ</tspan><tspan class="cls-24" x="96.06" y="0">し</tspan><tspan class="cls-25" x="128.17" y="0">ま</tspan><tspan class="cls-26" x="161.66" y="0">す</tspan><tspan class="cls-6" x="193.22" y="0">。</tspan></text></g><circle id="楕円形_71" data-name="楕円形 71" class="cls-27" cx="43.31" cy="293.68" r="3.64"/><circle id="楕円形_72" data-name="楕円形 72" class="cls-27" cx="120.32" cy="293.92" r="3.64"/><circle id="楕円形_73" data-name="楕円形 73" class="cls-27" cx="162.67" cy="91.82" r="3.64"/><circle id="楕円形_74" data-name="楕円形 74" class="cls-27" cx="202.58" cy="92.09" r="3.64"/><circle id="楕円形_75" data-name="楕円形 75" class="cls-27" cx="242.49" cy="91.64" r="3.64"/><circle id="楕円形_76" data-name="楕円形 76" class="cls-27" cx="282.39" cy="91.91" r="3.64"/><circle id="楕円形_77" data-name="楕円形 77" class="cls-27" cx="322.3" cy="92.06" r="3.64"/><g id="私たちは_2-2" data-name="私たちは "><g id="私たちは_2-3" data-name="私たちは 2"><text class="cls-2" transform="translate(6.55 31.16) rotate(-0.11)">私<tspan class="cls-3" x="34.6" y="0">た</tspan><tspan class="cls-4" x="67.27" y="0">ち</tspan><tspan class="cls-5" x="101.04" y="0">は</tspan><tspan class="cls-6" x="135.09" y="0">、</tspan></text><text class="cls-2" transform="translate(6.55 31.16) rotate(-0.11)">私<tspan class="cls-3" x="34.6" y="0">た</tspan><tspan class="cls-4" x="67.27" y="0">ち</tspan><tspan class="cls-5" x="101.04" y="0">は</tspan><tspan class="cls-6" x="135.09" y="0">、</tspan></text></g></g><g id="世の中に隠れた価値を徹底的に探求し_2" data-name="世の中に隠れた価値を徹底的に探求し "><g id="世の中に_を徹底的に探求し_2" data-name="世の中に を徹底的に探求し "><text class="cls-2" transform="translate(6.74 134.83) rotate(-0.11)"><tspan xml:space="preserve">世の中の              </tspan><tspan class="cls-7" x="325.59" y="0" xml:space="preserve"> を</tspan><tspan class="cls-8" x="372.45" y="0">徹底的</tspan><tspan class="cls-9" x="476.26" y="0">に</tspan><tspan x="510.58" y="0">探</tspan><tspan class="cls-10" x="545.18" y="0">求</tspan><tspan class="cls-11" x="577.02" y="0">し</tspan><tspan class="cls-12" x="609.68" y="0">、</tspan></text><text class="cls-2" transform="translate(6.74 134.83) rotate(-0.11)"><tspan xml:space="preserve">世の中の              </tspan><tspan class="cls-7" x="325.59" y="0" xml:space="preserve"> を</tspan><tspan class="cls-8" x="372.45" y="0">徹底的</tspan><tspan class="cls-9" x="476.26" y="0">に</tspan><tspan x="510.58" y="0">探</tspan><tspan class="cls-10" x="545.18" y="0">求</tspan><tspan class="cls-11" x="577.02" y="0">し</tspan><tspan class="cls-12" x="609.68" y="0">、</tspan></text></g><g id="隠れた価値-2" data-name="隠れた価値"><text class="cls-13" transform="matrix(1, 0, 0, 1, 146.63, 132.63)">隠れた価値</text><text class="cls-13" transform="matrix(1, 0, 0, 1, 146.63, 132.63)">隠れた価値</text><text class="cls-13" transform="matrix(1, 0, 0, 1, 146.63, 132.63)">隠れた価値</text><text class="cls-13" transform="matrix(1, 0, 0, 1, 146.63, 132.63)">隠れた価値</text><text class="cls-13" transform="matrix(1, 0, 0, 1, 146.63, 132.63)">隠れた価値</text><text class="cls-13" transform="matrix(1, 0, 0, 1, 146.63, 132.63)">隠れた価値</text></g></g><g id="ネットマーケティング業界に-2" data-name="ネットマーケティング業界に"><text class="cls-14" transform="translate(6.63 243.02) rotate(-0.11)">ネ<tspan class="cls-15" x="32.11" y="0">ッ</tspan><tspan class="cls-11" x="60.35" y="0">ト</tspan><tspan class="cls-9" x="93.01" y="0">マ</tspan><tspan class="cls-16" x="127.34" y="0">ー</tspan><tspan class="cls-17" x="161.11" y="0">ケ</tspan><tspan class="cls-18" x="194.05" y="0">テ</tspan><tspan class="cls-19" x="224.22" y="0">ィ</tspan><tspan class="cls-20" x="254.12" y="0">ン</tspan><tspan class="cls-8" x="285.68" y="0">グ業界</tspan><tspan class="cls-9" x="389.48" y="0">に</tspan></text><text class="cls-14" transform="translate(6.63 243.02) rotate(-0.11)">ネ<tspan class="cls-15" x="32.11" y="0">ッ</tspan><tspan class="cls-11" x="60.35" y="0">ト</tspan><tspan class="cls-9" x="93.01" y="0">マ</tspan><tspan class="cls-16" x="127.34" y="0">ー</tspan><tspan class="cls-17" x="161.11" y="0">ケ</tspan><tspan class="cls-18" x="194.05" y="0">テ</tspan><tspan class="cls-19" x="224.22" y="0">ィ</tspan><tspan class="cls-20" x="254.12" y="0">ン</tspan><tspan class="cls-8" x="285.68" y="0">グ業界</tspan><tspan class="cls-9" x="389.48" y="0">に</tspan></text></g><g id="革命-2" data-name="革命"><text class="cls-21" transform="translate(6.68 368.51) rotate(-0.11)">革命</text><text class="cls-21" transform="translate(6.68 368.51) rotate(-0.11)">革命</text></g><g id="を起こします_2" data-name="を起こします "><text class="cls-22" transform="translate(168.39 372.16) rotate(-0.11)">を<tspan class="cls-11" x="34.05" y="0">起</tspan><tspan class="cls-23" x="66.71" y="0">こ</tspan><tspan class="cls-24" x="96.06" y="0">し</tspan><tspan class="cls-25" x="128.17" y="0">ま</tspan><tspan class="cls-26" x="161.66" y="0">す</tspan><tspan class="cls-6" x="193.22" y="0">。</tspan></text><text class="cls-22" transform="translate(168.39 372.16) rotate(-0.11)">を<tspan class="cls-11" x="34.05" y="0">起</tspan><tspan class="cls-23" x="66.71" y="0">こ</tspan><tspan class="cls-24" x="96.06" y="0">し</tspan><tspan class="cls-25" x="128.17" y="0">ま</tspan><tspan class="cls-26" x="161.66" y="0">す</tspan><tspan class="cls-6" x="193.22" y="0">。</tspan></text></g><circle id="楕円形_71-2" data-name="楕円形 71" class="cls-27" cx="42.31" cy="292.68" r="3.64"/><circle id="楕円形_72-2" data-name="楕円形 72" class="cls-27" cx="119.32" cy="292.92" r="3.64"/><circle id="楕円形_73-2" data-name="楕円形 73" class="cls-27" cx="161.67" cy="90.82" r="3.64"/><circle id="楕円形_74-2" data-name="楕円形 74" class="cls-27" cx="201.58" cy="91.09" r="3.64"/><circle id="楕円形_75-2" data-name="楕円形 75" class="cls-27" cx="241.49" cy="90.64" r="3.64"/><circle id="楕円形_76-2" data-name="楕円形 76" class="cls-27" cx="281.39" cy="90.91" r="3.64"/><circle id="楕円形_77-2" data-name="楕円形 77" class="cls-27" cx="321.3" cy="91.06" r="3.64"/><g id="私たちは_3" data-name="私たちは "><g id="私たちは_2-4" data-name="私たちは 2"><text class="cls-2" transform="translate(5.55 30.16) rotate(-0.11)">私<tspan class="cls-3" x="34.6" y="0">た</tspan><tspan class="cls-4" x="67.27" y="0">ち</tspan><tspan class="cls-5" x="101.04" y="0">は</tspan><tspan class="cls-6" x="135.09" y="0">、</tspan></text><text class="cls-2" transform="translate(5.55 30.16) rotate(-0.11)">私<tspan class="cls-3" x="34.6" y="0">た</tspan><tspan class="cls-4" x="67.27" y="0">ち</tspan><tspan class="cls-5" x="101.04" y="0">は</tspan><tspan class="cls-6" x="135.09" y="0">、</tspan></text></g></g><g id="世の中に隠れた価値を徹底的に探求し_3" data-name="世の中に隠れた価値を徹底的に探求し "><g id="世の中に_を徹底的に探求し_3" data-name="世の中に を徹底的に探求し "><text class="cls-2" transform="translate(5.74 133.83) rotate(-0.11)"><tspan xml:space="preserve">世の中の              </tspan><tspan class="cls-7" x="325.59" y="0" xml:space="preserve"> を</tspan><tspan class="cls-8" x="372.45" y="0">徹底的</tspan><tspan class="cls-9" x="476.26" y="0">に</tspan><tspan x="510.58" y="0">探</tspan><tspan class="cls-10" x="545.18" y="0">求</tspan><tspan class="cls-11" x="577.02" y="0">し</tspan><tspan class="cls-12" x="609.68" y="0">、</tspan></text><text class="cls-2" transform="translate(5.74 133.83) rotate(-0.11)"><tspan xml:space="preserve">世の中の              </tspan><tspan class="cls-7" x="325.59" y="0" xml:space="preserve"> を</tspan><tspan class="cls-8" x="372.45" y="0">徹底的</tspan><tspan class="cls-9" x="476.26" y="0">に</tspan><tspan x="510.58" y="0">探</tspan><tspan class="cls-10" x="545.18" y="0">求</tspan><tspan class="cls-11" x="577.02" y="0">し</tspan><tspan class="cls-12" x="609.68" y="0">、</tspan></text></g><g id="隠れた価値-3" data-name="隠れた価値"><text class="cls-13" transform="matrix(1, 0, 0, 1, 145.63, 131.63)">隠れた価値</text><text class="cls-13" transform="matrix(1, 0, 0, 1, 145.63, 131.63)">隠れた価値</text><text class="cls-13" transform="matrix(1, 0, 0, 1, 145.63, 131.63)">隠れた価値</text><text class="cls-13" transform="matrix(1, 0, 0, 1, 145.63, 131.63)">隠れた価値</text><text class="cls-13" transform="matrix(1, 0, 0, 1, 145.63, 131.63)">隠れた価値</text><text class="cls-13" transform="matrix(1, 0, 0, 1, 145.63, 131.63)">隠れた価値</text></g></g><g id="ネットマーケティング業界に-3" data-name="ネットマーケティング業界に"><text class="cls-14" transform="translate(5.63 242.02) rotate(-0.11)">ネ<tspan class="cls-15" x="32.11" y="0">ッ</tspan><tspan class="cls-11" x="60.35" y="0">ト</tspan><tspan class="cls-9" x="93.01" y="0">マ</tspan><tspan class="cls-16" x="127.34" y="0">ー</tspan><tspan class="cls-17" x="161.11" y="0">ケ</tspan><tspan class="cls-18" x="194.05" y="0">テ</tspan><tspan class="cls-19" x="224.22" y="0">ィ</tspan><tspan class="cls-20" x="254.12" y="0">ン</tspan><tspan class="cls-8" x="285.68" y="0">グ業界</tspan><tspan class="cls-9" x="389.48" y="0">に</tspan></text><text class="cls-14" transform="translate(5.63 242.02) rotate(-0.11)">ネ<tspan class="cls-15" x="32.11" y="0">ッ</tspan><tspan class="cls-11" x="60.35" y="0">ト</tspan><tspan class="cls-9" x="93.01" y="0">マ</tspan><tspan class="cls-16" x="127.34" y="0">ー</tspan><tspan class="cls-17" x="161.11" y="0">ケ</tspan><tspan class="cls-18" x="194.05" y="0">テ</tspan><tspan class="cls-19" x="224.22" y="0">ィ</tspan><tspan class="cls-20" x="254.12" y="0">ン</tspan><tspan class="cls-8" x="285.68" y="0">グ業界</tspan><tspan class="cls-9" x="389.48" y="0">に</tspan></text></g><g id="革命-3" data-name="革命"><text class="cls-21" transform="translate(5.68 367.51) rotate(-0.11)">革命</text><text class="cls-21" transform="translate(5.68 367.51) rotate(-0.11)">革命</text></g><g id="を起こします_3" data-name="を起こします "><text class="cls-22" transform="translate(167.39 371.16) rotate(-0.11)">を<tspan class="cls-11" x="34.05" y="0">起</tspan><tspan class="cls-23" x="66.71" y="0">こ</tspan><tspan class="cls-24" x="96.06" y="0">し</tspan><tspan class="cls-25" x="128.17" y="0">ま</tspan><tspan class="cls-26" x="161.66" y="0">す</tspan><tspan class="cls-6" x="193.22" y="0">。</tspan></text><text class="cls-22" transform="translate(167.39 371.16) rotate(-0.11)">を<tspan class="cls-11" x="34.05" y="0">起</tspan><tspan class="cls-23" x="66.71" y="0">こ</tspan><tspan class="cls-24" x="96.06" y="0">し</tspan><tspan class="cls-25" x="128.17" y="0">ま</tspan><tspan class="cls-26" x="161.66" y="0">す</tspan><tspan class="cls-6" x="193.22" y="0">。</tspan></text></g><circle id="楕円形_71-3" data-name="楕円形 71" class="cls-27" cx="41.31" cy="291.68" r="3.64"/><circle id="楕円形_72-3" data-name="楕円形 72" class="cls-27" cx="118.32" cy="291.92" r="3.64"/><circle id="楕円形_73-3" data-name="楕円形 73" class="cls-27" cx="160.67" cy="89.82" r="3.64"/><circle id="楕円形_74-3" data-name="楕円形 74" class="cls-27" cx="200.58" cy="90.09" r="3.64"/><circle id="楕円形_75-3" data-name="楕円形 75" class="cls-27" cx="240.49" cy="89.64" r="3.64"/><circle id="楕円形_76-3" data-name="楕円形 76" class="cls-27" cx="280.39" cy="89.91" r="3.64"/><circle id="楕円形_77-3" data-name="楕円形 77" class="cls-27" cx="320.3" cy="90.06" r="3.64"/><g id="私たちは_4" data-name="私たちは "><g id="私たちは_2-5" data-name="私たちは 2"><text class="cls-2" transform="translate(4.55 29.16) rotate(-0.11)">私<tspan class="cls-3" x="34.6" y="0">た</tspan><tspan class="cls-4" x="67.27" y="0">ち</tspan><tspan class="cls-5" x="101.04" y="0">は</tspan><tspan class="cls-6" x="135.09" y="0">、</tspan></text><text class="cls-2" transform="translate(4.55 29.16) rotate(-0.11)">私<tspan class="cls-3" x="34.6" y="0">た</tspan><tspan class="cls-4" x="67.27" y="0">ち</tspan><tspan class="cls-5" x="101.04" y="0">は</tspan><tspan class="cls-6" x="135.09" y="0">、</tspan></text></g></g><g id="世の中に隠れた価値を徹底的に探求し_4" data-name="世の中に隠れた価値を徹底的に探求し "><g id="世の中に_を徹底的に探求し_4" data-name="世の中に を徹底的に探求し "><text class="cls-2" transform="translate(4.74 132.83) rotate(-0.11)"><tspan xml:space="preserve">世の中の              </tspan><tspan class="cls-7" x="325.59" y="0" xml:space="preserve"> を</tspan><tspan class="cls-8" x="372.45" y="0">徹底的</tspan><tspan class="cls-9" x="476.26" y="0">に</tspan><tspan x="510.58" y="0">探</tspan><tspan class="cls-10" x="545.18" y="0">求</tspan><tspan class="cls-11" x="577.02" y="0">し</tspan><tspan class="cls-12" x="609.68" y="0">、</tspan></text><text class="cls-2" transform="translate(4.74 132.83) rotate(-0.11)"><tspan xml:space="preserve">世の中の              </tspan><tspan class="cls-7" x="325.59" y="0" xml:space="preserve"> を</tspan><tspan class="cls-8" x="372.45" y="0">徹底的</tspan><tspan class="cls-9" x="476.26" y="0">に</tspan><tspan x="510.58" y="0">探</tspan><tspan class="cls-10" x="545.18" y="0">求</tspan><tspan class="cls-11" x="577.02" y="0">し</tspan><tspan class="cls-12" x="609.68" y="0">、</tspan></text></g><g id="隠れた価値-4" data-name="隠れた価値"><text class="cls-13" transform="matrix(1, 0, 0, 1, 144.63, 130.63)">隠れた価値</text><text class="cls-13" transform="matrix(1, 0, 0, 1, 144.63, 130.63)">隠れた価値</text><text class="cls-13" transform="matrix(1, 0, 0, 1, 144.63, 130.63)">隠れた価値</text><text class="cls-13" transform="matrix(1, 0, 0, 1, 144.63, 130.63)">隠れた価値</text><text class="cls-13" transform="matrix(1, 0, 0, 1, 144.63, 130.63)">隠れた価値</text><text class="cls-13" transform="matrix(1, 0, 0, 1, 144.63, 130.63)">隠れた価値</text></g></g><g id="ネットマーケティング業界に-4" data-name="ネットマーケティング業界に"><text class="cls-14" transform="translate(4.63 241.02) rotate(-0.11)">ネ<tspan class="cls-15" x="32.11" y="0">ッ</tspan><tspan class="cls-11" x="60.35" y="0">ト</tspan><tspan class="cls-9" x="93.01" y="0">マ</tspan><tspan class="cls-16" x="127.34" y="0">ー</tspan><tspan class="cls-17" x="161.11" y="0">ケ</tspan><tspan class="cls-18" x="194.05" y="0">テ</tspan><tspan class="cls-19" x="224.22" y="0">ィ</tspan><tspan class="cls-20" x="254.12" y="0">ン</tspan><tspan class="cls-8" x="285.68" y="0">グ業界</tspan><tspan class="cls-9" x="389.48" y="0">に</tspan></text><text class="cls-14" transform="translate(4.63 241.02) rotate(-0.11)">ネ<tspan class="cls-15" x="32.11" y="0">ッ</tspan><tspan class="cls-11" x="60.35" y="0">ト</tspan><tspan class="cls-9" x="93.01" y="0">マ</tspan><tspan class="cls-16" x="127.34" y="0">ー</tspan><tspan class="cls-17" x="161.11" y="0">ケ</tspan><tspan class="cls-18" x="194.05" y="0">テ</tspan><tspan class="cls-19" x="224.22" y="0">ィ</tspan><tspan class="cls-20" x="254.12" y="0">ン</tspan><tspan class="cls-8" x="285.68" y="0">グ業界</tspan><tspan class="cls-9" x="389.48" y="0">に</tspan></text></g><g id="革命-4" data-name="革命"><text class="cls-21" transform="translate(4.68 366.51) rotate(-0.11)">革命</text><text class="cls-21" transform="translate(4.68 366.51) rotate(-0.11)">革命</text></g><g id="を起こします_4" data-name="を起こします "><text class="cls-22" transform="translate(166.39 370.16) rotate(-0.11)">を<tspan class="cls-11" x="34.05" y="0">起</tspan><tspan class="cls-23" x="66.71" y="0">こ</tspan><tspan class="cls-24" x="96.06" y="0">し</tspan><tspan class="cls-25" x="128.17" y="0">ま</tspan><tspan class="cls-26" x="161.66" y="0">す</tspan><tspan class="cls-6" x="193.22" y="0">。</tspan></text><text class="cls-22" transform="translate(166.39 370.16) rotate(-0.11)">を<tspan class="cls-11" x="34.05" y="0">起</tspan><tspan class="cls-23" x="66.71" y="0">こ</tspan><tspan class="cls-24" x="96.06" y="0">し</tspan><tspan class="cls-25" x="128.17" y="0">ま</tspan><tspan class="cls-26" x="161.66" y="0">す</tspan><tspan class="cls-6" x="193.22" y="0">。</tspan></text></g><circle id="楕円形_71-4" data-name="楕円形 71" class="cls-27" cx="40.31" cy="290.68" r="3.64"/><circle id="楕円形_72-4" data-name="楕円形 72" class="cls-27" cx="117.32" cy="290.92" r="3.64"/><circle id="楕円形_73-4" data-name="楕円形 73" class="cls-27" cx="159.67" cy="88.82" r="3.64"/><circle id="楕円形_74-4" data-name="楕円形 74" class="cls-27" cx="199.58" cy="89.09" r="3.64"/><circle id="楕円形_75-4" data-name="楕円形 75" class="cls-27" cx="239.49" cy="88.64" r="3.64"/><circle id="楕円形_76-4" data-name="楕円形 76" class="cls-27" cx="279.39" cy="88.91" r="3.64"/><circle id="楕円形_77-4" data-name="楕円形 77" class="cls-27" cx="319.3" cy="89.06" r="3.64"/><g id="私たちは_5" data-name="私たちは "><g id="私たちは_2-6" data-name="私たちは 2"><text class="cls-2" transform="translate(3.55 28.16) rotate(-0.11)">私<tspan class="cls-3" x="34.6" y="0">た</tspan><tspan class="cls-4" x="67.27" y="0">ち</tspan><tspan class="cls-5" x="101.04" y="0">は</tspan><tspan class="cls-6" x="135.09" y="0">、</tspan></text><text class="cls-2" transform="translate(3.55 28.16) rotate(-0.11)">私<tspan class="cls-3" x="34.6" y="0">た</tspan><tspan class="cls-4" x="67.27" y="0">ち</tspan><tspan class="cls-5" x="101.04" y="0">は</tspan><tspan class="cls-6" x="135.09" y="0">、</tspan></text></g></g><g id="世の中に隠れた価値を徹底的に探求し_5" data-name="世の中に隠れた価値を徹底的に探求し "><g id="世の中に_を徹底的に探求し_5" data-name="世の中に を徹底的に探求し "><text class="cls-2" transform="translate(3.74 131.83) rotate(-0.11)"><tspan xml:space="preserve">世の中の              </tspan><tspan class="cls-7" x="325.59" y="0" xml:space="preserve"> を</tspan><tspan class="cls-8" x="372.45" y="0">徹底的</tspan><tspan class="cls-9" x="476.26" y="0">に</tspan><tspan x="510.58" y="0">探</tspan><tspan class="cls-10" x="545.18" y="0">求</tspan><tspan class="cls-11" x="577.02" y="0">し</tspan><tspan class="cls-12" x="609.68" y="0">、</tspan></text><text class="cls-2" transform="translate(3.74 131.83) rotate(-0.11)"><tspan xml:space="preserve">世の中の              </tspan><tspan class="cls-7" x="325.59" y="0" xml:space="preserve"> を</tspan><tspan class="cls-8" x="372.45" y="0">徹底的</tspan><tspan class="cls-9" x="476.26" y="0">に</tspan><tspan x="510.58" y="0">探</tspan><tspan class="cls-10" x="545.18" y="0">求</tspan><tspan class="cls-11" x="577.02" y="0">し</tspan><tspan class="cls-12" x="609.68" y="0">、</tspan></text></g><g id="隠れた価値-5" data-name="隠れた価値"><text class="cls-13" transform="matrix(1, 0, 0, 1, 143.63, 129.63)">隠れた価値</text><text class="cls-13" transform="matrix(1, 0, 0, 1, 143.63, 129.63)">隠れた価値</text><text class="cls-13" transform="matrix(1, 0, 0, 1, 143.63, 129.63)">隠れた価値</text><text class="cls-13" transform="matrix(1, 0, 0, 1, 143.63, 129.63)">隠れた価値</text><text class="cls-13" transform="matrix(1, 0, 0, 1, 143.63, 129.63)">隠れた価値</text><text class="cls-13" transform="matrix(1, 0, 0, 1, 143.63, 129.63)">隠れた価値</text></g></g><g id="ネットマーケティング業界に-5" data-name="ネットマーケティング業界に"><text class="cls-14" transform="translate(3.63 240.02) rotate(-0.11)">ネ<tspan class="cls-15" x="32.11" y="0">ッ</tspan><tspan class="cls-11" x="60.35" y="0">ト</tspan><tspan class="cls-9" x="93.01" y="0">マ</tspan><tspan class="cls-16" x="127.34" y="0">ー</tspan><tspan class="cls-17" x="161.11" y="0">ケ</tspan><tspan class="cls-18" x="194.05" y="0">テ</tspan><tspan class="cls-19" x="224.22" y="0">ィ</tspan><tspan class="cls-20" x="254.12" y="0">ン</tspan><tspan class="cls-8" x="285.68" y="0">グ業界</tspan><tspan class="cls-9" x="389.48" y="0">に</tspan></text><text class="cls-14" transform="translate(3.63 240.02) rotate(-0.11)">ネ<tspan class="cls-15" x="32.11" y="0">ッ</tspan><tspan class="cls-11" x="60.35" y="0">ト</tspan><tspan class="cls-9" x="93.01" y="0">マ</tspan><tspan class="cls-16" x="127.34" y="0">ー</tspan><tspan class="cls-17" x="161.11" y="0">ケ</tspan><tspan class="cls-18" x="194.05" y="0">テ</tspan><tspan class="cls-19" x="224.22" y="0">ィ</tspan><tspan class="cls-20" x="254.12" y="0">ン</tspan><tspan class="cls-8" x="285.68" y="0">グ業界</tspan><tspan class="cls-9" x="389.48" y="0">に</tspan></text></g><g id="革命-5" data-name="革命"><text class="cls-21" transform="translate(3.68 365.51) rotate(-0.11)">革命</text><text class="cls-21" transform="translate(3.68 365.51) rotate(-0.11)">革命</text></g><g id="を起こします_5" data-name="を起こします "><text class="cls-22" transform="translate(165.39 369.16) rotate(-0.11)">を<tspan class="cls-11" x="34.05" y="0">起</tspan><tspan class="cls-23" x="66.71" y="0">こ</tspan><tspan class="cls-24" x="96.06" y="0">し</tspan><tspan class="cls-25" x="128.17" y="0">ま</tspan><tspan class="cls-26" x="161.66" y="0">す</tspan><tspan class="cls-6" x="193.22" y="0">。</tspan></text><text class="cls-22" transform="translate(165.39 369.16) rotate(-0.11)">を<tspan class="cls-11" x="34.05" y="0">起</tspan><tspan class="cls-23" x="66.71" y="0">こ</tspan><tspan class="cls-24" x="96.06" y="0">し</tspan><tspan class="cls-25" x="128.17" y="0">ま</tspan><tspan class="cls-26" x="161.66" y="0">す</tspan><tspan class="cls-6" x="193.22" y="0">。</tspan></text></g><circle id="楕円形_71-5" data-name="楕円形 71" class="cls-27" cx="39.31" cy="289.68" r="3.64"/><circle id="楕円形_72-5" data-name="楕円形 72" class="cls-27" cx="116.32" cy="289.92" r="3.64"/><circle id="楕円形_73-5" data-name="楕円形 73" class="cls-27" cx="158.67" cy="87.82" r="3.64"/><circle id="楕円形_74-5" data-name="楕円形 74" class="cls-27" cx="198.58" cy="88.09" r="3.64"/><circle id="楕円形_75-5" data-name="楕円形 75" class="cls-27" cx="238.49" cy="87.64" r="3.64"/><circle id="楕円形_76-5" data-name="楕円形 76" class="cls-27" cx="278.39" cy="87.91" r="3.64"/><circle id="楕円形_77-5" data-name="楕円形 77" class="cls-27" cx="318.3" cy="88.06" r="3.64"/><g id="私たちは_6" data-name="私たちは "><g id="私たちは_2-7" data-name="私たちは 2"><text class="cls-2" transform="translate(2.55 27.16) rotate(-0.11)">私<tspan class="cls-3" x="34.6" y="0">た</tspan><tspan class="cls-4" x="67.27" y="0">ち</tspan><tspan class="cls-5" x="101.04" y="0">は</tspan><tspan class="cls-6" x="135.09" y="0">、</tspan></text><text class="cls-2" transform="translate(2.55 27.16) rotate(-0.11)">私<tspan class="cls-3" x="34.6" y="0">た</tspan><tspan class="cls-4" x="67.27" y="0">ち</tspan><tspan class="cls-5" x="101.04" y="0">は</tspan><tspan class="cls-6" x="135.09" y="0">、</tspan></text></g></g><g id="世の中に隠れた価値を徹底的に探求し_6" data-name="世の中に隠れた価値を徹底的に探求し "><g id="世の中に_を徹底的に探求し_6" data-name="世の中に を徹底的に探求し "><text class="cls-2" transform="translate(2.74 130.83) rotate(-0.11)"><tspan xml:space="preserve">世の中の              </tspan><tspan class="cls-7" x="325.59" y="0" xml:space="preserve"> を</tspan><tspan class="cls-8" x="372.45" y="0">徹底的</tspan><tspan class="cls-9" x="476.26" y="0">に</tspan><tspan x="510.58" y="0">探</tspan><tspan class="cls-10" x="545.18" y="0">求</tspan><tspan class="cls-11" x="577.02" y="0">し</tspan><tspan class="cls-12" x="609.68" y="0">、</tspan></text><text class="cls-2" transform="translate(2.74 130.83) rotate(-0.11)"><tspan xml:space="preserve">世の中の              </tspan><tspan class="cls-7" x="325.59" y="0" xml:space="preserve"> を</tspan><tspan class="cls-8" x="372.45" y="0">徹底的</tspan><tspan class="cls-9" x="476.26" y="0">に</tspan><tspan x="510.58" y="0">探</tspan><tspan class="cls-10" x="545.18" y="0">求</tspan><tspan class="cls-11" x="577.02" y="0">し</tspan><tspan class="cls-12" x="609.68" y="0">、</tspan></text></g><g id="隠れた価値-6" data-name="隠れた価値"><text class="cls-13" transform="matrix(1, 0, 0, 1, 142.63, 128.63)">隠れた価値</text><text class="cls-13" transform="matrix(1, 0, 0, 1, 142.63, 128.63)">隠れた価値</text><text class="cls-13" transform="matrix(1, 0, 0, 1, 142.63, 128.63)">隠れた価値</text><text class="cls-13" transform="matrix(1, 0, 0, 1, 142.63, 128.63)">隠れた価値</text><text class="cls-13" transform="matrix(1, 0, 0, 1, 142.63, 128.63)">隠れた価値</text><text class="cls-13" transform="matrix(1, 0, 0, 1, 142.63, 128.63)">隠れた価値</text></g></g><g id="ネットマーケティング業界に-6" data-name="ネットマーケティング業界に"><text class="cls-14" transform="translate(2.63 239.02) rotate(-0.11)">ネ<tspan class="cls-15" x="32.11" y="0">ッ</tspan><tspan class="cls-11" x="60.35" y="0">ト</tspan><tspan class="cls-9" x="93.01" y="0">マ</tspan><tspan class="cls-16" x="127.34" y="0">ー</tspan><tspan class="cls-17" x="161.11" y="0">ケ</tspan><tspan class="cls-18" x="194.05" y="0">テ</tspan><tspan class="cls-19" x="224.22" y="0">ィ</tspan><tspan class="cls-20" x="254.12" y="0">ン</tspan><tspan class="cls-8" x="285.68" y="0">グ業界</tspan><tspan class="cls-9" x="389.48" y="0">に</tspan></text><text class="cls-14" transform="translate(2.63 239.02) rotate(-0.11)">ネ<tspan class="cls-15" x="32.11" y="0">ッ</tspan><tspan class="cls-11" x="60.35" y="0">ト</tspan><tspan class="cls-9" x="93.01" y="0">マ</tspan><tspan class="cls-16" x="127.34" y="0">ー</tspan><tspan class="cls-17" x="161.11" y="0">ケ</tspan><tspan class="cls-18" x="194.05" y="0">テ</tspan><tspan class="cls-19" x="224.22" y="0">ィ</tspan><tspan class="cls-20" x="254.12" y="0">ン</tspan><tspan class="cls-8" x="285.68" y="0">グ業界</tspan><tspan class="cls-9" x="389.48" y="0">に</tspan></text></g><g id="革命-6" data-name="革命"><text class="cls-21" transform="translate(2.68 364.51) rotate(-0.11)">革命</text><text class="cls-21" transform="translate(2.68 364.51) rotate(-0.11)">革命</text></g><g id="を起こします_6" data-name="を起こします "><text class="cls-22" transform="translate(164.39 368.16) rotate(-0.11)">を<tspan class="cls-11" x="34.05" y="0">起</tspan><tspan class="cls-23" x="66.71" y="0">こ</tspan><tspan class="cls-24" x="96.06" y="0">し</tspan><tspan class="cls-25" x="128.17" y="0">ま</tspan><tspan class="cls-26" x="161.66" y="0">す</tspan><tspan class="cls-6" x="193.22" y="0">。</tspan></text><text class="cls-22" transform="translate(164.39 368.16) rotate(-0.11)">を<tspan class="cls-11" x="34.05" y="0">起</tspan><tspan class="cls-23" x="66.71" y="0">こ</tspan><tspan class="cls-24" x="96.06" y="0">し</tspan><tspan class="cls-25" x="128.17" y="0">ま</tspan><tspan class="cls-26" x="161.66" y="0">す</tspan><tspan class="cls-6" x="193.22" y="0">。</tspan></text></g><circle id="楕円形_71-6" data-name="楕円形 71" class="cls-27" cx="38.31" cy="288.68" r="3.64"/><circle id="楕円形_72-6" data-name="楕円形 72" class="cls-27" cx="115.32" cy="288.92" r="3.64"/><circle id="楕円形_73-6" data-name="楕円形 73" class="cls-27" cx="157.67" cy="86.82" r="3.64"/><circle id="楕円形_74-6" data-name="楕円形 74" class="cls-27" cx="197.58" cy="87.09" r="3.64"/><circle id="楕円形_75-6" data-name="楕円形 75" class="cls-27" cx="237.49" cy="86.64" r="3.64"/><circle id="楕円形_76-6" data-name="楕円形 76" class="cls-27" cx="277.39" cy="86.91" r="3.64"/><circle id="楕円形_77-6" data-name="楕円形 77" class="cls-27" cx="317.3" cy="87.06" r="3.64"/><g id="私たちは_7" data-name="私たちは "><g id="私たちは_2-8" data-name="私たちは 2"><text class="cls-2" transform="translate(1.55 26.16) rotate(-0.11)">私<tspan class="cls-3" x="34.6" y="0">た</tspan><tspan class="cls-4" x="67.27" y="0">ち</tspan><tspan class="cls-5" x="101.04" y="0">は</tspan><tspan class="cls-6" x="135.09" y="0">、</tspan></text><text class="cls-2" transform="translate(1.55 26.16) rotate(-0.11)">私<tspan class="cls-3" x="34.6" y="0">た</tspan><tspan class="cls-4" x="67.27" y="0">ち</tspan><tspan class="cls-5" x="101.04" y="0">は</tspan><tspan class="cls-6" x="135.09" y="0">、</tspan></text></g></g><g id="世の中に隠れた価値を徹底的に探求し_7" data-name="世の中に隠れた価値を徹底的に探求し "><g id="世の中に_を徹底的に探求し_7" data-name="世の中に を徹底的に探求し "><text class="cls-2" transform="translate(1.74 129.83) rotate(-0.11)"><tspan xml:space="preserve">世の中の              </tspan><tspan class="cls-7" x="325.59" y="0" xml:space="preserve"> を</tspan><tspan class="cls-8" x="372.45" y="0">徹底的</tspan><tspan class="cls-9" x="476.26" y="0">に</tspan><tspan x="510.58" y="0">探</tspan><tspan class="cls-10" x="545.18" y="0">求</tspan><tspan class="cls-11" x="577.02" y="0">し</tspan><tspan class="cls-12" x="609.68" y="0">、</tspan></text><text class="cls-2" transform="translate(1.74 129.83) rotate(-0.11)"><tspan xml:space="preserve">世の中の              </tspan><tspan class="cls-7" x="325.59" y="0" xml:space="preserve"> を</tspan><tspan class="cls-8" x="372.45" y="0">徹底的</tspan><tspan class="cls-9" x="476.26" y="0">に</tspan><tspan x="510.58" y="0">探</tspan><tspan class="cls-10" x="545.18" y="0">求</tspan><tspan class="cls-11" x="577.02" y="0">し</tspan><tspan class="cls-12" x="609.68" y="0">、</tspan></text></g><g id="隠れた価値-7" data-name="隠れた価値"><text class="cls-13" transform="matrix(1, 0, 0, 1, 141.63, 127.63)">隠れた価値</text><text class="cls-13" transform="matrix(1, 0, 0, 1, 141.63, 127.63)">隠れた価値</text><text class="cls-13" transform="matrix(1, 0, 0, 1, 141.63, 127.63)">隠れた価値</text><text class="cls-13" transform="matrix(1, 0, 0, 1, 141.63, 127.63)">隠れた価値</text><text class="cls-13" transform="matrix(1, 0, 0, 1, 141.63, 127.63)">隠れた価値</text><text class="cls-13" transform="matrix(1, 0, 0, 1, 141.63, 127.63)">隠れた価値</text></g></g><g id="ネットマーケティング業界に-7" data-name="ネットマーケティング業界に"><text class="cls-14" transform="translate(1.63 238.02) rotate(-0.11)">ネ<tspan class="cls-15" x="32.11" y="0">ッ</tspan><tspan class="cls-11" x="60.35" y="0">ト</tspan><tspan class="cls-9" x="93.01" y="0">マ</tspan><tspan class="cls-16" x="127.34" y="0">ー</tspan><tspan class="cls-17" x="161.11" y="0">ケ</tspan><tspan class="cls-18" x="194.05" y="0">テ</tspan><tspan class="cls-19" x="224.22" y="0">ィ</tspan><tspan class="cls-20" x="254.12" y="0">ン</tspan><tspan class="cls-8" x="285.68" y="0">グ業界</tspan><tspan class="cls-9" x="389.48" y="0">に</tspan></text><text class="cls-14" transform="translate(1.63 238.02) rotate(-0.11)">ネ<tspan class="cls-15" x="32.11" y="0">ッ</tspan><tspan class="cls-11" x="60.35" y="0">ト</tspan><tspan class="cls-9" x="93.01" y="0">マ</tspan><tspan class="cls-16" x="127.34" y="0">ー</tspan><tspan class="cls-17" x="161.11" y="0">ケ</tspan><tspan class="cls-18" x="194.05" y="0">テ</tspan><tspan class="cls-19" x="224.22" y="0">ィ</tspan><tspan class="cls-20" x="254.12" y="0">ン</tspan><tspan class="cls-8" x="285.68" y="0">グ業界</tspan><tspan class="cls-9" x="389.48" y="0">に</tspan></text></g><g id="革命-7" data-name="革命"><text class="cls-21" transform="translate(1.68 363.51) rotate(-0.11)">革命</text><text class="cls-21" transform="translate(1.68 363.51) rotate(-0.11)">革命</text></g><g id="を起こします_7" data-name="を起こします "><text class="cls-22" transform="translate(163.39 367.16) rotate(-0.11)">を<tspan class="cls-11" x="34.05" y="0">起</tspan><tspan class="cls-23" x="66.71" y="0">こ</tspan><tspan class="cls-24" x="96.06" y="0">し</tspan><tspan class="cls-25" x="128.17" y="0">ま</tspan><tspan class="cls-26" x="161.66" y="0">す</tspan><tspan class="cls-6" x="193.22" y="0">。</tspan></text><text class="cls-22" transform="translate(163.39 367.16) rotate(-0.11)">を<tspan class="cls-11" x="34.05" y="0">起</tspan><tspan class="cls-23" x="66.71" y="0">こ</tspan><tspan class="cls-24" x="96.06" y="0">し</tspan><tspan class="cls-25" x="128.17" y="0">ま</tspan><tspan class="cls-26" x="161.66" y="0">す</tspan><tspan class="cls-6" x="193.22" y="0">。</tspan></text></g><circle id="楕円形_71-7" data-name="楕円形 71" class="cls-27" cx="37.31" cy="287.68" r="3.64"/><circle id="楕円形_72-7" data-name="楕円形 72" class="cls-27" cx="114.32" cy="287.92" r="3.64"/><circle id="楕円形_73-7" data-name="楕円形 73" class="cls-27" cx="156.67" cy="85.82" r="3.64"/><circle id="楕円形_74-7" data-name="楕円形 74" class="cls-27" cx="196.58" cy="86.09" r="3.64"/><circle id="楕円形_75-7" data-name="楕円形 75" class="cls-27" cx="236.49" cy="85.64" r="3.64"/><circle id="楕円形_76-7" data-name="楕円形 76" class="cls-27" cx="276.39" cy="85.91" r="3.64"/><circle id="楕円形_77-7" data-name="楕円形 77" class="cls-27" cx="316.3" cy="86.06" r="3.64"/><g id="私たちは_8" data-name="私たちは "><g id="私たちは_2-9" data-name="私たちは 2"><text class="cls-2" transform="translate(0.55 25.16) rotate(-0.11)">私<tspan class="cls-3" x="34.6" y="0">た</tspan><tspan class="cls-4" x="67.27" y="0">ち</tspan><tspan class="cls-5" x="101.04" y="0">は</tspan><tspan class="cls-6" x="135.09" y="0">、</tspan></text><text class="cls-2" transform="translate(0.55 25.16) rotate(-0.11)">私<tspan class="cls-3" x="34.6" y="0">た</tspan><tspan class="cls-4" x="67.27" y="0">ち</tspan><tspan class="cls-5" x="101.04" y="0">は</tspan><tspan class="cls-6" x="135.09" y="0">、</tspan></text></g></g><g id="世の中に隠れた価値を徹底的に探求し_8" data-name="世の中に隠れた価値を徹底的に探求し "><g id="世の中に_を徹底的に探求し_8" data-name="世の中に を徹底的に探求し "><text class="cls-2" transform="translate(0.74 128.83) rotate(-0.11)"><tspan xml:space="preserve">世の中の              </tspan><tspan class="cls-7" x="325.59" y="0" xml:space="preserve"> を</tspan><tspan class="cls-8" x="372.45" y="0">徹底的</tspan><tspan class="cls-9" x="476.26" y="0">に</tspan><tspan x="510.58" y="0">探</tspan><tspan class="cls-10" x="545.18" y="0">求</tspan><tspan class="cls-11" x="577.02" y="0">し</tspan><tspan class="cls-12" x="609.68" y="0">、</tspan></text><text class="cls-2" transform="translate(0.74 128.83) rotate(-0.11)"><tspan xml:space="preserve">世の中の              </tspan><tspan class="cls-7" x="325.59" y="0" xml:space="preserve"> を</tspan><tspan class="cls-8" x="372.45" y="0">徹底的</tspan><tspan class="cls-9" x="476.26" y="0">に</tspan><tspan x="510.58" y="0">探</tspan><tspan class="cls-10" x="545.18" y="0">求</tspan><tspan class="cls-11" x="577.02" y="0">し</tspan><tspan class="cls-12" x="609.68" y="0">、</tspan></text></g><g id="隠れた価値-8" data-name="隠れた価値"><text class="cls-13" transform="matrix(1, 0, 0, 1, 140.63, 126.63)">隠れた価値</text><text class="cls-13" transform="matrix(1, 0, 0, 1, 140.63, 126.63)">隠れた価値</text><text class="cls-13" transform="matrix(1, 0, 0, 1, 140.63, 126.63)">隠れた価値</text><text class="cls-13" transform="matrix(1, 0, 0, 1, 140.63, 126.63)">隠れた価値</text><text class="cls-13" transform="matrix(1, 0, 0, 1, 140.63, 126.63)">隠れた価値</text><text class="cls-13" transform="matrix(1, 0, 0, 1, 140.63, 126.63)">隠れた価値</text></g></g><g id="ネットマーケティング業界に-8" data-name="ネットマーケティング業界に"><text class="cls-14" transform="translate(0.63 237.02) rotate(-0.11)">ネ<tspan class="cls-15" x="32.11" y="0">ッ</tspan><tspan class="cls-11" x="60.35" y="0">ト</tspan><tspan class="cls-9" x="93.01" y="0">マ</tspan><tspan class="cls-16" x="127.34" y="0">ー</tspan><tspan class="cls-17" x="161.11" y="0">ケ</tspan><tspan class="cls-18" x="194.05" y="0">テ</tspan><tspan class="cls-19" x="224.22" y="0">ィ</tspan><tspan class="cls-20" x="254.12" y="0">ン</tspan><tspan class="cls-8" x="285.68" y="0">グ業界</tspan><tspan class="cls-9" x="389.48" y="0">に</tspan></text><text class="cls-14" transform="translate(0.63 237.02) rotate(-0.11)">ネ<tspan class="cls-15" x="32.11" y="0">ッ</tspan><tspan class="cls-11" x="60.35" y="0">ト</tspan><tspan class="cls-9" x="93.01" y="0">マ</tspan><tspan class="cls-16" x="127.34" y="0">ー</tspan><tspan class="cls-17" x="161.11" y="0">ケ</tspan><tspan class="cls-18" x="194.05" y="0">テ</tspan><tspan class="cls-19" x="224.22" y="0">ィ</tspan><tspan class="cls-20" x="254.12" y="0">ン</tspan><tspan class="cls-8" x="285.68" y="0">グ業界</tspan><tspan class="cls-9" x="389.48" y="0">に</tspan></text></g><g id="革命-8" data-name="革命"><text class="cls-21" transform="translate(0.68 362.51) rotate(-0.11)">革命</text><text class="cls-21" transform="translate(0.68 362.51) rotate(-0.11)">革命</text></g><g id="を起こします_8" data-name="を起こします "><text class="cls-22" transform="translate(162.39 366.16) rotate(-0.11)">を<tspan class="cls-11" x="34.05" y="0">起</tspan><tspan class="cls-23" x="66.71" y="0">こ</tspan><tspan class="cls-24" x="96.06" y="0">し</tspan><tspan class="cls-25" x="128.17" y="0">ま</tspan><tspan class="cls-26" x="161.66" y="0">す</tspan><tspan class="cls-6" x="193.22" y="0">。</tspan></text><text class="cls-22" transform="translate(162.39 366.16) rotate(-0.11)">を<tspan class="cls-11" x="34.05" y="0">起</tspan><tspan class="cls-23" x="66.71" y="0">こ</tspan><tspan class="cls-24" x="96.06" y="0">し</tspan><tspan class="cls-25" x="128.17" y="0">ま</tspan><tspan class="cls-26" x="161.66" y="0">す</tspan><tspan class="cls-6" x="193.22" y="0">。</tspan></text></g><circle id="楕円形_71-8" data-name="楕円形 71" class="cls-27" cx="36.31" cy="286.68" r="3.64"/><circle id="楕円形_72-8" data-name="楕円形 72" class="cls-27" cx="113.32" cy="286.92" r="3.64"/><circle id="楕円形_73-8" data-name="楕円形 73" class="cls-27" cx="155.67" cy="84.82" r="3.64"/><circle id="楕円形_74-8" data-name="楕円形 74" class="cls-27" cx="195.58" cy="85.09" r="3.64"/><circle id="楕円形_75-8" data-name="楕円形 75" class="cls-27" cx="235.49" cy="84.64" r="3.64"/><circle id="楕円形_76-8" data-name="楕円形 76" class="cls-27" cx="275.39" cy="84.91" r="3.64"/><circle id="楕円形_77-8" data-name="楕円形 77" class="cls-27" cx="315.3" cy="85.06" r="3.64"/></g><g id="私たちは_9" data-name="私たちは "><g id="私たちは_2-10" data-name="私たちは 2" class="cls-28"><text class="cls-29" transform="translate(0.55 25.16) rotate(-0.11)">私<tspan class="cls-3" x="34.6" y="0">た</tspan><tspan class="cls-4" x="67.27" y="0">ち</tspan><tspan class="cls-5" x="101.04" y="0">は</tspan><tspan class="cls-6" x="135.09" y="0">、</tspan></text><text class="cls-30" transform="translate(0.55 25.16) rotate(-0.11)">私<tspan class="cls-3" x="34.6" y="0">た</tspan><tspan class="cls-4" x="67.27" y="0">ち</tspan><tspan class="cls-5" x="101.04" y="0">は</tspan><tspan class="cls-6" x="135.09" y="0">、</tspan></text></g></g><g id="世の中に隠れた価値を徹底的に探求し_9" data-name="世の中に隠れた価値を徹底的に探求し "><g id="世の中に_を徹底的に探求し_9" data-name="世の中に を徹底的に探求し " class="cls-28"><text class="cls-29" transform="translate(0.74 128.83) rotate(-0.11)"><tspan xml:space="preserve">世の中の              </tspan><tspan class="cls-7" x="325.59" y="0" xml:space="preserve"> を</tspan><tspan class="cls-8" x="372.45" y="0">徹底的</tspan><tspan class="cls-9" x="476.26" y="0">に</tspan><tspan x="510.58" y="0">探</tspan><tspan class="cls-10" x="545.18" y="0">求</tspan><tspan class="cls-11" x="577.02" y="0">し</tspan><tspan class="cls-12" x="609.68" y="0">、</tspan></text><text class="cls-30" transform="translate(0.74 128.83) rotate(-0.11)"><tspan xml:space="preserve">世の中の              </tspan><tspan class="cls-7" x="325.59" y="0" xml:space="preserve"> を</tspan><tspan class="cls-8" x="372.45" y="0">徹底的</tspan><tspan class="cls-9" x="476.26" y="0">に</tspan><tspan x="510.58" y="0">探</tspan><tspan class="cls-10" x="545.18" y="0">求</tspan><tspan class="cls-11" x="577.02" y="0">し</tspan><tspan class="cls-12" x="609.68" y="0">、</tspan></text></g><g id="隠れた価値-9" data-name="隠れた価値"><text class="cls-31" transform="matrix(1, 0, 0, 1, 140.63, 126.63)">隠れた価値</text><text class="cls-31" transform="matrix(1, 0, 0, 1, 140.63, 126.63)">隠れた価値</text></g></g><g id="ネットマーケティング業界に-9" data-name="ネットマーケティング業界に" class="cls-28"><text class="cls-32" transform="translate(0.63 237.02) rotate(-0.11)">ネ<tspan class="cls-15" x="32.11" y="0">ッ</tspan><tspan class="cls-11" x="60.35" y="0">ト</tspan><tspan class="cls-9" x="93.01" y="0">マ</tspan><tspan class="cls-16" x="127.34" y="0">ー</tspan><tspan class="cls-17" x="161.11" y="0">ケ</tspan><tspan class="cls-18" x="194.05" y="0">テ</tspan><tspan class="cls-19" x="224.22" y="0">ィ</tspan><tspan class="cls-20" x="254.12" y="0">ン</tspan><tspan class="cls-8" x="285.68" y="0">グ業界</tspan><tspan class="cls-9" x="389.48" y="0">に</tspan></text><text class="cls-33" transform="translate(0.63 237.02) rotate(-0.11)">ネ<tspan class="cls-15" x="32.11" y="0">ッ</tspan><tspan class="cls-11" x="60.35" y="0">ト</tspan><tspan class="cls-9" x="93.01" y="0">マ</tspan><tspan class="cls-16" x="127.34" y="0">ー</tspan><tspan class="cls-17" x="161.11" y="0">ケ</tspan><tspan class="cls-18" x="194.05" y="0">テ</tspan><tspan class="cls-19" x="224.22" y="0">ィ</tspan><tspan class="cls-20" x="254.12" y="0">ン</tspan><tspan class="cls-8" x="285.68" y="0">グ業界</tspan><tspan class="cls-9" x="389.48" y="0">に</tspan></text></g><g id="革命-9" data-name="革命" class="cls-28"><text class="cls-34" transform="translate(0.68 362.51) rotate(-0.11)">革命</text><text class="cls-35" transform="translate(0.68 362.51) rotate(-0.11)">革命</text></g><g id="を起こします_9" data-name="を起こします " class="cls-28"><text class="cls-36" transform="translate(162.39 366.16) rotate(-0.11)">を<tspan class="cls-11" x="34.05" y="0">起</tspan><tspan class="cls-23" x="66.71" y="0">こ</tspan><tspan class="cls-24" x="96.06" y="0">し</tspan><tspan class="cls-25" x="128.17" y="0">ま</tspan><tspan class="cls-26" x="161.66" y="0">す</tspan><tspan class="cls-6" x="193.22" y="0">。</tspan></text><text class="cls-37" transform="translate(162.39 366.16) rotate(-0.11)">を<tspan class="cls-11" x="34.05" y="0">起</tspan><tspan class="cls-23" x="66.71" y="0">こ</tspan><tspan class="cls-24" x="96.06" y="0">し</tspan><tspan class="cls-25" x="128.17" y="0">ま</tspan><tspan class="cls-26" x="161.66" y="0">す</tspan><tspan class="cls-6" x="193.22" y="0">。</tspan></text></g><circle id="楕円形_71-9" data-name="楕円形 71" class="cls-38" cx="36.31" cy="286.68" r="3.64"/><circle id="楕円形_72-9" data-name="楕円形 72" class="cls-38" cx="113.32" cy="286.92" r="3.64"/><circle id="楕円形_73-9" data-name="楕円形 73" class="cls-38" cx="155.67" cy="84.82" r="3.64"/><circle id="楕円形_74-9" data-name="楕円形 74" class="cls-38" cx="195.58" cy="85.09" r="3.64"/><circle id="楕円形_75-9" data-name="楕円形 75" class="cls-38" cx="235.49" cy="84.64" r="3.64"/><circle id="楕円形_76-9" data-name="楕円形 76" class="cls-38" cx="275.39" cy="84.91" r="3.64"/><circle id="楕円形_77-9" data-name="楕円形 77" class="cls-38" cx="315.3" cy="85.06" r="3.64"/></g></g></g></svg>