<svg xmlns="http://www.w3.org/2000/svg" width="1151.67" height="341.96" viewBox="0 0 1151.67 341.96"><defs><style>.cls-1{opacity:0.2;}.cls-11,.cls-19,.cls-2,.cls-27,.cls-28,.cls-30,.cls-31,.cls-34,.cls-35{font-size:40.54px;}.cls-10,.cls-11,.cls-18,.cls-19,.cls-2,.cls-25{fill:#231816;}.cls-10,.cls-11,.cls-18,.cls-19,.cls-2,.cls-27,.cls-28,.cls-29,.cls-30,.cls-31,.cls-32,.cls-33,.cls-34,.cls-35{font-family:KozGoPr6N-Regular-83pv-RKSJ-H, Kozuka Gothic Pr6N;}.cls-17,.cls-2,.cls-27,.cls-28{letter-spacing:0.25em;}.cls-3{letter-spacing:0.18em;}.cls-4{letter-spacing:0.22em;}.cls-19,.cls-34,.cls-35,.cls-5{letter-spacing:0.23em;}.cls-6{letter-spacing:-0.23em;}.cls-7{letter-spacing:0.23em;}.cls-8{letter-spacing:0.24em;}.cls-9{letter-spacing:0.15em;}.cls-10,.cls-29{font-size:58.68px;letter-spacing:0.22em;}.cls-11,.cls-30,.cls-31{letter-spacing:0.16em;}.cls-12{letter-spacing:0.02em;}.cls-13{letter-spacing:0.19em;}.cls-14{letter-spacing:0.09em;}.cls-15{letter-spacing:0.08em;}.cls-16{letter-spacing:0.14em;}.cls-18,.cls-32,.cls-33{font-size:85.35px;letter-spacing:0.1em;}.cls-20{letter-spacing:0.06em;}.cls-21{letter-spacing:0.16em;}.cls-22{letter-spacing:0.21em;}.cls-23{letter-spacing:0.14em;}.cls-24{letter-spacing:-0.23em;}.cls-26,.cls-27,.cls-28,.cls-29,.cls-30,.cls-31,.cls-32,.cls-33,.cls-34,.cls-35{isolation:isolate;}.cls-27,.cls-29,.cls-30,.cls-32,.cls-33,.cls-34{fill:#fff;}.cls-28,.cls-31,.cls-35{fill:none;}.cls-28,.cls-29,.cls-31,.cls-32,.cls-33,.cls-35{stroke:#fff;}.cls-29,.cls-32{stroke-miterlimit:10;}.cls-29{stroke-width:0.5px;}.cls-36{fill:#ff8300;}</style></defs><g id="レイヤー_2" data-name="レイヤー 2"><g id="レイヤー_1-2" data-name="レイヤー 1"><g id="グループ_445" data-name="グループ 445"><g class="cls-1"><g id="私たちは_" data-name="私たちは "><g id="私たちは_2" data-name="私たちは 2"><text class="cls-2" transform="translate(7.57 43.61) rotate(-0.11)">私<tspan class="cls-3" x="50.68" y="0">た</tspan><tspan class="cls-4" x="98.52" y="0">ち</tspan><tspan class="cls-5" x="147.98" y="0">は</tspan><tspan class="cls-6" x="197.84" y="0">、</tspan></text><text class="cls-2" transform="translate(7.57 43.61) rotate(-0.11)">私<tspan class="cls-3" x="50.68" y="0">た</tspan><tspan class="cls-4" x="98.52" y="0">ち</tspan><tspan class="cls-5" x="147.98" y="0">は</tspan><tspan class="cls-6" x="197.84" y="0">、</tspan></text></g></g><g id="世の中に隠れた価値を徹底的に探求し_" data-name="世の中に隠れた価値を徹底的に探求し "><g id="世の中に_を徹底的に探求し_" data-name="世の中に を徹底的に探求し "><text class="cls-2" transform="translate(7.85 191.52) rotate(-0.11)"><tspan xml:space="preserve">世の中の                 </tspan><tspan class="cls-7" x="535.58" y="0" xml:space="preserve"> を</tspan><tspan x="604.21" y="0">徹底的</tspan><tspan class="cls-8" x="756.24" y="0">に</tspan><tspan x="806.52" y="0">探</tspan><tspan class="cls-9" x="857.19" y="0">求</tspan><tspan class="cls-3" x="903.81" y="0">し</tspan><tspan class="cls-6" x="951.65" y="0">、</tspan></text><text class="cls-2" transform="translate(7.85 191.52) rotate(-0.11)"><tspan xml:space="preserve">世の中の                 </tspan><tspan class="cls-7" x="535.58" y="0" xml:space="preserve"> を</tspan><tspan x="604.21" y="0">徹底的</tspan><tspan class="cls-8" x="756.24" y="0">に</tspan><tspan x="806.52" y="0">探</tspan><tspan class="cls-9" x="857.19" y="0">求</tspan><tspan class="cls-3" x="903.81" y="0">し</tspan><tspan class="cls-6" x="951.65" y="0">、</tspan></text></g><g id="隠れた価値"><text class="cls-10" transform="translate(208.29 189.4) rotate(-0.11)">隠れた価値</text><text class="cls-10" transform="translate(208.29 189.4) rotate(-0.11)">隠れた価値</text></g></g><g id="ネットマーケティング業界に"><text class="cls-11" transform="translate(7.69 322.07) rotate(-0.11)">ネ<tspan class="cls-12" x="47.03" y="0">ッ</tspan><tspan class="cls-3" x="88.38" y="0">ト</tspan><tspan class="cls-8" x="136.22" y="0">マ</tspan><tspan class="cls-4" x="186.49" y="0">ー</tspan><tspan class="cls-13" x="235.95" y="0">ケ</tspan><tspan class="cls-14" x="284.2" y="0">テ</tspan><tspan class="cls-15" x="328.39" y="0">ィ</tspan><tspan class="cls-16" x="372.17" y="0">ン</tspan><tspan class="cls-17" x="418.39" y="0">グ業界</tspan><tspan class="cls-8" x="570.42" y="0">に</tspan></text><text class="cls-11" transform="translate(7.69 322.07) rotate(-0.11)">ネ<tspan class="cls-12" x="47.03" y="0">ッ</tspan><tspan class="cls-3" x="88.38" y="0">ト</tspan><tspan class="cls-8" x="136.22" y="0">マ</tspan><tspan class="cls-4" x="186.49" y="0">ー</tspan><tspan class="cls-13" x="235.95" y="0">ケ</tspan><tspan class="cls-14" x="284.2" y="0">テ</tspan><tspan class="cls-15" x="328.39" y="0">ィ</tspan><tspan class="cls-16" x="372.17" y="0">ン</tspan><tspan class="cls-17" x="418.39" y="0">グ業界</tspan><tspan class="cls-8" x="570.42" y="0">に</tspan></text></g><g id="革命"><text class="cls-18" transform="translate(639.2 313.02) rotate(-0.11)">革命</text><text class="cls-18" transform="translate(639.2 313.02) rotate(-0.11)">革命</text></g><g id="を起こします_" data-name="を起こします "><text class="cls-19" transform="translate(837.44 320.49) rotate(-0.11)">を<tspan class="cls-3" x="49.87" y="0">起</tspan><tspan class="cls-20" x="97.7" y="0">こ</tspan><tspan class="cls-21" x="140.68" y="0">し</tspan><tspan class="cls-22" x="187.71" y="0">ま</tspan><tspan class="cls-23" x="236.76" y="0">す</tspan><tspan class="cls-24" x="282.98" y="0">。</tspan></text><text class="cls-19" transform="translate(837.44 320.49) rotate(-0.11)">を<tspan class="cls-3" x="49.87" y="0">起</tspan><tspan class="cls-20" x="97.7" y="0">こ</tspan><tspan class="cls-21" x="140.68" y="0">し</tspan><tspan class="cls-22" x="187.71" y="0">ま</tspan><tspan class="cls-23" x="236.76" y="0">す</tspan><tspan class="cls-24" x="282.98" y="0">。</tspan></text></g><circle id="楕円形_71" data-name="楕円形 71" class="cls-25" cx="682.62" cy="223.23" r="5.33"/><circle id="楕円形_72" data-name="楕円形 72" class="cls-25" cx="774.9" cy="223.59" r="5.33"/><circle id="楕円形_73" data-name="楕円形 73" class="cls-25" cx="234.75" cy="123.96" r="5.33"/><circle id="楕円形_74" data-name="楕円形 74" class="cls-25" cx="307.63" cy="124.36" r="5.33"/><circle id="楕円形_75" data-name="楕円形 75" class="cls-25" cx="380.51" cy="123.68" r="5.33"/><circle id="楕円形_76" data-name="楕円形 76" class="cls-25" cx="453.39" cy="124.08" r="5.33"/><circle id="楕円形_77" data-name="楕円形 77" class="cls-25" cx="526.27" cy="123.77" r="5.33"/><g id="私たちは_2-2" data-name="私たちは "><g id="私たちは_2-3" data-name="私たちは 2"><text class="cls-2" transform="translate(6.57 42.61) rotate(-0.11)">私<tspan class="cls-3" x="50.68" y="0">た</tspan><tspan class="cls-4" x="98.52" y="0">ち</tspan><tspan class="cls-5" x="147.98" y="0">は</tspan><tspan class="cls-6" x="197.84" y="0">、</tspan></text><text class="cls-2" transform="translate(6.57 42.61) rotate(-0.11)">私<tspan class="cls-3" x="50.68" y="0">た</tspan><tspan class="cls-4" x="98.52" y="0">ち</tspan><tspan class="cls-5" x="147.98" y="0">は</tspan><tspan class="cls-6" x="197.84" y="0">、</tspan></text></g></g><g id="世の中に隠れた価値を徹底的に探求し_2" data-name="世の中に隠れた価値を徹底的に探求し "><g id="世の中に_を徹底的に探求し_2" data-name="世の中に を徹底的に探求し "><text class="cls-2" transform="translate(6.85 190.52) rotate(-0.11)"><tspan xml:space="preserve">世の中の                 </tspan><tspan class="cls-7" x="535.58" y="0" xml:space="preserve"> を</tspan><tspan x="604.21" y="0">徹底的</tspan><tspan class="cls-8" x="756.24" y="0">に</tspan><tspan x="806.52" y="0">探</tspan><tspan class="cls-9" x="857.19" y="0">求</tspan><tspan class="cls-3" x="903.81" y="0">し</tspan><tspan class="cls-6" x="951.65" y="0">、</tspan></text><text class="cls-2" transform="translate(6.85 190.52) rotate(-0.11)"><tspan xml:space="preserve">世の中の                 </tspan><tspan class="cls-7" x="535.58" y="0" xml:space="preserve"> を</tspan><tspan x="604.21" y="0">徹底的</tspan><tspan class="cls-8" x="756.24" y="0">に</tspan><tspan x="806.52" y="0">探</tspan><tspan class="cls-9" x="857.19" y="0">求</tspan><tspan class="cls-3" x="903.81" y="0">し</tspan><tspan class="cls-6" x="951.65" y="0">、</tspan></text></g><g id="隠れた価値-2" data-name="隠れた価値"><text class="cls-10" transform="translate(207.29 188.4) rotate(-0.11)">隠れた価値</text><text class="cls-10" transform="translate(207.29 188.4) rotate(-0.11)">隠れた価値</text></g></g><g id="ネットマーケティング業界に-2" data-name="ネットマーケティング業界に"><text class="cls-11" transform="translate(6.69 321.07) rotate(-0.11)">ネ<tspan class="cls-12" x="47.03" y="0">ッ</tspan><tspan class="cls-3" x="88.38" y="0">ト</tspan><tspan class="cls-8" x="136.22" y="0">マ</tspan><tspan class="cls-4" x="186.49" y="0">ー</tspan><tspan class="cls-13" x="235.95" y="0">ケ</tspan><tspan class="cls-14" x="284.2" y="0">テ</tspan><tspan class="cls-15" x="328.39" y="0">ィ</tspan><tspan class="cls-16" x="372.17" y="0">ン</tspan><tspan class="cls-17" x="418.39" y="0">グ業界</tspan><tspan class="cls-8" x="570.42" y="0">に</tspan></text><text class="cls-11" transform="translate(6.69 321.07) rotate(-0.11)">ネ<tspan class="cls-12" x="47.03" y="0">ッ</tspan><tspan class="cls-3" x="88.38" y="0">ト</tspan><tspan class="cls-8" x="136.22" y="0">マ</tspan><tspan class="cls-4" x="186.49" y="0">ー</tspan><tspan class="cls-13" x="235.95" y="0">ケ</tspan><tspan class="cls-14" x="284.2" y="0">テ</tspan><tspan class="cls-15" x="328.39" y="0">ィ</tspan><tspan class="cls-16" x="372.17" y="0">ン</tspan><tspan class="cls-17" x="418.39" y="0">グ業界</tspan><tspan class="cls-8" x="570.42" y="0">に</tspan></text></g><g id="革命-2" data-name="革命"><text class="cls-18" transform="translate(638.2 312.02) rotate(-0.11)">革命</text><text class="cls-18" transform="translate(638.2 312.02) rotate(-0.11)">革命</text></g><g id="を起こします_2" data-name="を起こします "><text class="cls-19" transform="translate(836.44 319.49) rotate(-0.11)">を<tspan class="cls-3" x="49.87" y="0">起</tspan><tspan class="cls-20" x="97.7" y="0">こ</tspan><tspan class="cls-21" x="140.68" y="0">し</tspan><tspan class="cls-22" x="187.71" y="0">ま</tspan><tspan class="cls-23" x="236.76" y="0">す</tspan><tspan class="cls-24" x="282.98" y="0">。</tspan></text><text class="cls-19" transform="translate(836.44 319.49) rotate(-0.11)">を<tspan class="cls-3" x="49.87" y="0">起</tspan><tspan class="cls-20" x="97.7" y="0">こ</tspan><tspan class="cls-21" x="140.68" y="0">し</tspan><tspan class="cls-22" x="187.71" y="0">ま</tspan><tspan class="cls-23" x="236.76" y="0">す</tspan><tspan class="cls-24" x="282.98" y="0">。</tspan></text></g><circle id="楕円形_71-2" data-name="楕円形 71" class="cls-25" cx="681.62" cy="222.23" r="5.33"/><circle id="楕円形_72-2" data-name="楕円形 72" class="cls-25" cx="773.9" cy="222.59" r="5.33"/><circle id="楕円形_73-2" data-name="楕円形 73" class="cls-25" cx="233.75" cy="122.96" r="5.33"/><circle id="楕円形_74-2" data-name="楕円形 74" class="cls-25" cx="306.63" cy="123.36" r="5.33"/><circle id="楕円形_75-2" data-name="楕円形 75" class="cls-25" cx="379.51" cy="122.68" r="5.33"/><circle id="楕円形_76-2" data-name="楕円形 76" class="cls-25" cx="452.39" cy="123.08" r="5.33"/><circle id="楕円形_77-2" data-name="楕円形 77" class="cls-25" cx="525.27" cy="122.77" r="5.33"/><g id="私たちは_3" data-name="私たちは "><g id="私たちは_2-4" data-name="私たちは 2"><text class="cls-2" transform="translate(5.57 41.61) rotate(-0.11)">私<tspan class="cls-3" x="50.68" y="0">た</tspan><tspan class="cls-4" x="98.52" y="0">ち</tspan><tspan class="cls-5" x="147.98" y="0">は</tspan><tspan class="cls-6" x="197.84" y="0">、</tspan></text><text class="cls-2" transform="translate(5.57 41.61) rotate(-0.11)">私<tspan class="cls-3" x="50.68" y="0">た</tspan><tspan class="cls-4" x="98.52" y="0">ち</tspan><tspan class="cls-5" x="147.98" y="0">は</tspan><tspan class="cls-6" x="197.84" y="0">、</tspan></text></g></g><g id="世の中に隠れた価値を徹底的に探求し_3" data-name="世の中に隠れた価値を徹底的に探求し "><g id="世の中に_を徹底的に探求し_3" data-name="世の中に を徹底的に探求し "><text class="cls-2" transform="translate(5.85 189.52) rotate(-0.11)"><tspan xml:space="preserve">世の中の                 </tspan><tspan class="cls-7" x="535.58" y="0" xml:space="preserve"> を</tspan><tspan x="604.21" y="0">徹底的</tspan><tspan class="cls-8" x="756.24" y="0">に</tspan><tspan x="806.52" y="0">探</tspan><tspan class="cls-9" x="857.19" y="0">求</tspan><tspan class="cls-3" x="903.81" y="0">し</tspan><tspan class="cls-6" x="951.65" y="0">、</tspan></text><text class="cls-2" transform="translate(5.85 189.52) rotate(-0.11)"><tspan xml:space="preserve">世の中の                 </tspan><tspan class="cls-7" x="535.58" y="0" xml:space="preserve"> を</tspan><tspan x="604.21" y="0">徹底的</tspan><tspan class="cls-8" x="756.24" y="0">に</tspan><tspan x="806.52" y="0">探</tspan><tspan class="cls-9" x="857.19" y="0">求</tspan><tspan class="cls-3" x="903.81" y="0">し</tspan><tspan class="cls-6" x="951.65" y="0">、</tspan></text></g><g id="隠れた価値-3" data-name="隠れた価値"><text class="cls-10" transform="translate(206.29 187.4) rotate(-0.11)">隠れた価値</text><text class="cls-10" transform="translate(206.29 187.4) rotate(-0.11)">隠れた価値</text></g></g><g id="ネットマーケティング業界に-3" data-name="ネットマーケティング業界に"><text class="cls-11" transform="translate(5.69 320.07) rotate(-0.11)">ネ<tspan class="cls-12" x="47.03" y="0">ッ</tspan><tspan class="cls-3" x="88.38" y="0">ト</tspan><tspan class="cls-8" x="136.22" y="0">マ</tspan><tspan class="cls-4" x="186.49" y="0">ー</tspan><tspan class="cls-13" x="235.95" y="0">ケ</tspan><tspan class="cls-14" x="284.2" y="0">テ</tspan><tspan class="cls-15" x="328.39" y="0">ィ</tspan><tspan class="cls-16" x="372.17" y="0">ン</tspan><tspan class="cls-17" x="418.39" y="0">グ業界</tspan><tspan class="cls-8" x="570.42" y="0">に</tspan></text><text class="cls-11" transform="translate(5.69 320.07) rotate(-0.11)">ネ<tspan class="cls-12" x="47.03" y="0">ッ</tspan><tspan class="cls-3" x="88.38" y="0">ト</tspan><tspan class="cls-8" x="136.22" y="0">マ</tspan><tspan class="cls-4" x="186.49" y="0">ー</tspan><tspan class="cls-13" x="235.95" y="0">ケ</tspan><tspan class="cls-14" x="284.2" y="0">テ</tspan><tspan class="cls-15" x="328.39" y="0">ィ</tspan><tspan class="cls-16" x="372.17" y="0">ン</tspan><tspan class="cls-17" x="418.39" y="0">グ業界</tspan><tspan class="cls-8" x="570.42" y="0">に</tspan></text></g><g id="革命-3" data-name="革命"><text class="cls-18" transform="translate(637.2 311.02) rotate(-0.11)">革命</text><text class="cls-18" transform="translate(637.2 311.02) rotate(-0.11)">革命</text></g><g id="を起こします_3" data-name="を起こします "><text class="cls-19" transform="translate(835.44 318.49) rotate(-0.11)">を<tspan class="cls-3" x="49.87" y="0">起</tspan><tspan class="cls-20" x="97.7" y="0">こ</tspan><tspan class="cls-21" x="140.68" y="0">し</tspan><tspan class="cls-22" x="187.71" y="0">ま</tspan><tspan class="cls-23" x="236.76" y="0">す</tspan><tspan class="cls-24" x="282.98" y="0">。</tspan></text><text class="cls-19" transform="translate(835.44 318.49) rotate(-0.11)">を<tspan class="cls-3" x="49.87" y="0">起</tspan><tspan class="cls-20" x="97.7" y="0">こ</tspan><tspan class="cls-21" x="140.68" y="0">し</tspan><tspan class="cls-22" x="187.71" y="0">ま</tspan><tspan class="cls-23" x="236.76" y="0">す</tspan><tspan class="cls-24" x="282.98" y="0">。</tspan></text></g><circle id="楕円形_71-3" data-name="楕円形 71" class="cls-25" cx="680.62" cy="221.23" r="5.33"/><circle id="楕円形_72-3" data-name="楕円形 72" class="cls-25" cx="772.9" cy="221.59" r="5.33"/><circle id="楕円形_73-3" data-name="楕円形 73" class="cls-25" cx="232.75" cy="121.96" r="5.33"/><circle id="楕円形_74-3" data-name="楕円形 74" class="cls-25" cx="305.63" cy="122.36" r="5.33"/><circle id="楕円形_75-3" data-name="楕円形 75" class="cls-25" cx="378.51" cy="121.68" r="5.33"/><circle id="楕円形_76-3" data-name="楕円形 76" class="cls-25" cx="451.39" cy="122.08" r="5.33"/><circle id="楕円形_77-3" data-name="楕円形 77" class="cls-25" cx="524.27" cy="121.77" r="5.33"/><g id="私たちは_4" data-name="私たちは "><g id="私たちは_2-5" data-name="私たちは 2"><text class="cls-2" transform="translate(4.57 40.61) rotate(-0.11)">私<tspan class="cls-3" x="50.68" y="0">た</tspan><tspan class="cls-4" x="98.52" y="0">ち</tspan><tspan class="cls-5" x="147.98" y="0">は</tspan><tspan class="cls-6" x="197.84" y="0">、</tspan></text><text class="cls-2" transform="translate(4.57 40.61) rotate(-0.11)">私<tspan class="cls-3" x="50.68" y="0">た</tspan><tspan class="cls-4" x="98.52" y="0">ち</tspan><tspan class="cls-5" x="147.98" y="0">は</tspan><tspan class="cls-6" x="197.84" y="0">、</tspan></text></g></g><g id="世の中に隠れた価値を徹底的に探求し_4" data-name="世の中に隠れた価値を徹底的に探求し "><g id="世の中に_を徹底的に探求し_4" data-name="世の中に を徹底的に探求し "><text class="cls-2" transform="translate(4.85 188.52) rotate(-0.11)"><tspan xml:space="preserve">世の中の                 </tspan><tspan class="cls-7" x="535.58" y="0" xml:space="preserve"> を</tspan><tspan x="604.21" y="0">徹底的</tspan><tspan class="cls-8" x="756.24" y="0">に</tspan><tspan x="806.52" y="0">探</tspan><tspan class="cls-9" x="857.19" y="0">求</tspan><tspan class="cls-3" x="903.81" y="0">し</tspan><tspan class="cls-6" x="951.65" y="0">、</tspan></text><text class="cls-2" transform="translate(4.85 188.52) rotate(-0.11)"><tspan xml:space="preserve">世の中の                 </tspan><tspan class="cls-7" x="535.58" y="0" xml:space="preserve"> を</tspan><tspan x="604.21" y="0">徹底的</tspan><tspan class="cls-8" x="756.24" y="0">に</tspan><tspan x="806.52" y="0">探</tspan><tspan class="cls-9" x="857.19" y="0">求</tspan><tspan class="cls-3" x="903.81" y="0">し</tspan><tspan class="cls-6" x="951.65" y="0">、</tspan></text></g><g id="隠れた価値-4" data-name="隠れた価値"><text class="cls-10" transform="translate(205.29 186.4) rotate(-0.11)">隠れた価値</text><text class="cls-10" transform="translate(205.29 186.4) rotate(-0.11)">隠れた価値</text></g></g><g id="ネットマーケティング業界に-4" data-name="ネットマーケティング業界に"><text class="cls-11" transform="translate(4.69 319.07) rotate(-0.11)">ネ<tspan class="cls-12" x="47.03" y="0">ッ</tspan><tspan class="cls-3" x="88.38" y="0">ト</tspan><tspan class="cls-8" x="136.22" y="0">マ</tspan><tspan class="cls-4" x="186.49" y="0">ー</tspan><tspan class="cls-13" x="235.95" y="0">ケ</tspan><tspan class="cls-14" x="284.2" y="0">テ</tspan><tspan class="cls-15" x="328.39" y="0">ィ</tspan><tspan class="cls-16" x="372.17" y="0">ン</tspan><tspan class="cls-17" x="418.39" y="0">グ業界</tspan><tspan class="cls-8" x="570.42" y="0">に</tspan></text><text class="cls-11" transform="translate(4.69 319.07) rotate(-0.11)">ネ<tspan class="cls-12" x="47.03" y="0">ッ</tspan><tspan class="cls-3" x="88.38" y="0">ト</tspan><tspan class="cls-8" x="136.22" y="0">マ</tspan><tspan class="cls-4" x="186.49" y="0">ー</tspan><tspan class="cls-13" x="235.95" y="0">ケ</tspan><tspan class="cls-14" x="284.2" y="0">テ</tspan><tspan class="cls-15" x="328.39" y="0">ィ</tspan><tspan class="cls-16" x="372.17" y="0">ン</tspan><tspan class="cls-17" x="418.39" y="0">グ業界</tspan><tspan class="cls-8" x="570.42" y="0">に</tspan></text></g><g id="革命-4" data-name="革命"><text class="cls-18" transform="translate(636.2 310.02) rotate(-0.11)">革命</text><text class="cls-18" transform="translate(636.2 310.02) rotate(-0.11)">革命</text></g><g id="を起こします_4" data-name="を起こします "><text class="cls-19" transform="translate(834.44 317.49) rotate(-0.11)">を<tspan class="cls-3" x="49.87" y="0">起</tspan><tspan class="cls-20" x="97.7" y="0">こ</tspan><tspan class="cls-21" x="140.68" y="0">し</tspan><tspan class="cls-22" x="187.71" y="0">ま</tspan><tspan class="cls-23" x="236.76" y="0">す</tspan><tspan class="cls-24" x="282.98" y="0">。</tspan></text><text class="cls-19" transform="translate(834.44 317.49) rotate(-0.11)">を<tspan class="cls-3" x="49.87" y="0">起</tspan><tspan class="cls-20" x="97.7" y="0">こ</tspan><tspan class="cls-21" x="140.68" y="0">し</tspan><tspan class="cls-22" x="187.71" y="0">ま</tspan><tspan class="cls-23" x="236.76" y="0">す</tspan><tspan class="cls-24" x="282.98" y="0">。</tspan></text></g><circle id="楕円形_71-4" data-name="楕円形 71" class="cls-25" cx="679.62" cy="220.23" r="5.33"/><circle id="楕円形_72-4" data-name="楕円形 72" class="cls-25" cx="771.9" cy="220.59" r="5.33"/><circle id="楕円形_73-4" data-name="楕円形 73" class="cls-25" cx="231.75" cy="120.96" r="5.33"/><circle id="楕円形_74-4" data-name="楕円形 74" class="cls-25" cx="304.63" cy="121.36" r="5.33"/><circle id="楕円形_75-4" data-name="楕円形 75" class="cls-25" cx="377.51" cy="120.68" r="5.33"/><circle id="楕円形_76-4" data-name="楕円形 76" class="cls-25" cx="450.39" cy="121.08" r="5.33"/><circle id="楕円形_77-4" data-name="楕円形 77" class="cls-25" cx="523.27" cy="120.77" r="5.33"/><g id="私たちは_5" data-name="私たちは "><g id="私たちは_2-6" data-name="私たちは 2"><text class="cls-2" transform="translate(3.57 39.61) rotate(-0.11)">私<tspan class="cls-3" x="50.68" y="0">た</tspan><tspan class="cls-4" x="98.52" y="0">ち</tspan><tspan class="cls-5" x="147.98" y="0">は</tspan><tspan class="cls-6" x="197.84" y="0">、</tspan></text><text class="cls-2" transform="translate(3.57 39.61) rotate(-0.11)">私<tspan class="cls-3" x="50.68" y="0">た</tspan><tspan class="cls-4" x="98.52" y="0">ち</tspan><tspan class="cls-5" x="147.98" y="0">は</tspan><tspan class="cls-6" x="197.84" y="0">、</tspan></text></g></g><g id="世の中に隠れた価値を徹底的に探求し_5" data-name="世の中に隠れた価値を徹底的に探求し "><g id="世の中に_を徹底的に探求し_5" data-name="世の中に を徹底的に探求し "><text class="cls-2" transform="translate(3.85 187.52) rotate(-0.11)"><tspan xml:space="preserve">世の中の                 </tspan><tspan class="cls-7" x="535.58" y="0" xml:space="preserve"> を</tspan><tspan x="604.21" y="0">徹底的</tspan><tspan class="cls-8" x="756.24" y="0">に</tspan><tspan x="806.52" y="0">探</tspan><tspan class="cls-9" x="857.19" y="0">求</tspan><tspan class="cls-3" x="903.81" y="0">し</tspan><tspan class="cls-6" x="951.65" y="0">、</tspan></text><text class="cls-2" transform="translate(3.85 187.52) rotate(-0.11)"><tspan xml:space="preserve">世の中の                 </tspan><tspan class="cls-7" x="535.58" y="0" xml:space="preserve"> を</tspan><tspan x="604.21" y="0">徹底的</tspan><tspan class="cls-8" x="756.24" y="0">に</tspan><tspan x="806.52" y="0">探</tspan><tspan class="cls-9" x="857.19" y="0">求</tspan><tspan class="cls-3" x="903.81" y="0">し</tspan><tspan class="cls-6" x="951.65" y="0">、</tspan></text></g><g id="隠れた価値-5" data-name="隠れた価値"><text class="cls-10" transform="translate(204.29 185.4) rotate(-0.11)">隠れた価値</text><text class="cls-10" transform="translate(204.29 185.4) rotate(-0.11)">隠れた価値</text></g></g><g id="ネットマーケティング業界に-5" data-name="ネットマーケティング業界に"><text class="cls-11" transform="translate(3.69 318.07) rotate(-0.11)">ネ<tspan class="cls-12" x="47.03" y="0">ッ</tspan><tspan class="cls-3" x="88.38" y="0">ト</tspan><tspan class="cls-8" x="136.22" y="0">マ</tspan><tspan class="cls-4" x="186.49" y="0">ー</tspan><tspan class="cls-13" x="235.95" y="0">ケ</tspan><tspan class="cls-14" x="284.2" y="0">テ</tspan><tspan class="cls-15" x="328.39" y="0">ィ</tspan><tspan class="cls-16" x="372.17" y="0">ン</tspan><tspan class="cls-17" x="418.39" y="0">グ業界</tspan><tspan class="cls-8" x="570.42" y="0">に</tspan></text><text class="cls-11" transform="translate(3.69 318.07) rotate(-0.11)">ネ<tspan class="cls-12" x="47.03" y="0">ッ</tspan><tspan class="cls-3" x="88.38" y="0">ト</tspan><tspan class="cls-8" x="136.22" y="0">マ</tspan><tspan class="cls-4" x="186.49" y="0">ー</tspan><tspan class="cls-13" x="235.95" y="0">ケ</tspan><tspan class="cls-14" x="284.2" y="0">テ</tspan><tspan class="cls-15" x="328.39" y="0">ィ</tspan><tspan class="cls-16" x="372.17" y="0">ン</tspan><tspan class="cls-17" x="418.39" y="0">グ業界</tspan><tspan class="cls-8" x="570.42" y="0">に</tspan></text></g><g id="革命-5" data-name="革命"><text class="cls-18" transform="translate(635.2 309.02) rotate(-0.11)">革命</text><text class="cls-18" transform="translate(635.2 309.02) rotate(-0.11)">革命</text></g><g id="を起こします_5" data-name="を起こします "><text class="cls-19" transform="translate(833.44 316.49) rotate(-0.11)">を<tspan class="cls-3" x="49.87" y="0">起</tspan><tspan class="cls-20" x="97.7" y="0">こ</tspan><tspan class="cls-21" x="140.68" y="0">し</tspan><tspan class="cls-22" x="187.71" y="0">ま</tspan><tspan class="cls-23" x="236.76" y="0">す</tspan><tspan class="cls-24" x="282.98" y="0">。</tspan></text><text class="cls-19" transform="translate(833.44 316.49) rotate(-0.11)">を<tspan class="cls-3" x="49.87" y="0">起</tspan><tspan class="cls-20" x="97.7" y="0">こ</tspan><tspan class="cls-21" x="140.68" y="0">し</tspan><tspan class="cls-22" x="187.71" y="0">ま</tspan><tspan class="cls-23" x="236.76" y="0">す</tspan><tspan class="cls-24" x="282.98" y="0">。</tspan></text></g><circle id="楕円形_71-5" data-name="楕円形 71" class="cls-25" cx="678.62" cy="219.23" r="5.33"/><circle id="楕円形_72-5" data-name="楕円形 72" class="cls-25" cx="770.9" cy="219.59" r="5.33"/><circle id="楕円形_73-5" data-name="楕円形 73" class="cls-25" cx="230.75" cy="119.96" r="5.33"/><circle id="楕円形_74-5" data-name="楕円形 74" class="cls-25" cx="303.63" cy="120.36" r="5.33"/><circle id="楕円形_75-5" data-name="楕円形 75" class="cls-25" cx="376.51" cy="119.68" r="5.33"/><circle id="楕円形_76-5" data-name="楕円形 76" class="cls-25" cx="449.39" cy="120.08" r="5.33"/><circle id="楕円形_77-5" data-name="楕円形 77" class="cls-25" cx="522.27" cy="119.77" r="5.33"/><g id="私たちは_6" data-name="私たちは "><g id="私たちは_2-7" data-name="私たちは 2"><text class="cls-2" transform="translate(2.57 38.61) rotate(-0.11)">私<tspan class="cls-3" x="50.68" y="0">た</tspan><tspan class="cls-4" x="98.52" y="0">ち</tspan><tspan class="cls-5" x="147.98" y="0">は</tspan><tspan class="cls-6" x="197.84" y="0">、</tspan></text><text class="cls-2" transform="translate(2.57 38.61) rotate(-0.11)">私<tspan class="cls-3" x="50.68" y="0">た</tspan><tspan class="cls-4" x="98.52" y="0">ち</tspan><tspan class="cls-5" x="147.98" y="0">は</tspan><tspan class="cls-6" x="197.84" y="0">、</tspan></text></g></g><g id="世の中に隠れた価値を徹底的に探求し_6" data-name="世の中に隠れた価値を徹底的に探求し "><g id="世の中に_を徹底的に探求し_6" data-name="世の中に を徹底的に探求し "><text class="cls-2" transform="translate(2.85 186.52) rotate(-0.11)"><tspan xml:space="preserve">世の中の                 </tspan><tspan class="cls-7" x="535.58" y="0" xml:space="preserve"> を</tspan><tspan x="604.21" y="0">徹底的</tspan><tspan class="cls-8" x="756.24" y="0">に</tspan><tspan x="806.52" y="0">探</tspan><tspan class="cls-9" x="857.19" y="0">求</tspan><tspan class="cls-3" x="903.81" y="0">し</tspan><tspan class="cls-6" x="951.65" y="0">、</tspan></text><text class="cls-2" transform="translate(2.85 186.52) rotate(-0.11)"><tspan xml:space="preserve">世の中の                 </tspan><tspan class="cls-7" x="535.58" y="0" xml:space="preserve"> を</tspan><tspan x="604.21" y="0">徹底的</tspan><tspan class="cls-8" x="756.24" y="0">に</tspan><tspan x="806.52" y="0">探</tspan><tspan class="cls-9" x="857.19" y="0">求</tspan><tspan class="cls-3" x="903.81" y="0">し</tspan><tspan class="cls-6" x="951.65" y="0">、</tspan></text></g><g id="隠れた価値-6" data-name="隠れた価値"><text class="cls-10" transform="translate(203.29 184.4) rotate(-0.11)">隠れた価値</text><text class="cls-10" transform="translate(203.29 184.4) rotate(-0.11)">隠れた価値</text></g></g><g id="ネットマーケティング業界に-6" data-name="ネットマーケティング業界に"><text class="cls-11" transform="translate(2.69 317.07) rotate(-0.11)">ネ<tspan class="cls-12" x="47.03" y="0">ッ</tspan><tspan class="cls-3" x="88.38" y="0">ト</tspan><tspan class="cls-8" x="136.22" y="0">マ</tspan><tspan class="cls-4" x="186.49" y="0">ー</tspan><tspan class="cls-13" x="235.95" y="0">ケ</tspan><tspan class="cls-14" x="284.2" y="0">テ</tspan><tspan class="cls-15" x="328.39" y="0">ィ</tspan><tspan class="cls-16" x="372.17" y="0">ン</tspan><tspan class="cls-17" x="418.39" y="0">グ業界</tspan><tspan class="cls-8" x="570.42" y="0">に</tspan></text><text class="cls-11" transform="translate(2.69 317.07) rotate(-0.11)">ネ<tspan class="cls-12" x="47.03" y="0">ッ</tspan><tspan class="cls-3" x="88.38" y="0">ト</tspan><tspan class="cls-8" x="136.22" y="0">マ</tspan><tspan class="cls-4" x="186.49" y="0">ー</tspan><tspan class="cls-13" x="235.95" y="0">ケ</tspan><tspan class="cls-14" x="284.2" y="0">テ</tspan><tspan class="cls-15" x="328.39" y="0">ィ</tspan><tspan class="cls-16" x="372.17" y="0">ン</tspan><tspan class="cls-17" x="418.39" y="0">グ業界</tspan><tspan class="cls-8" x="570.42" y="0">に</tspan></text></g><g id="革命-6" data-name="革命"><text class="cls-18" transform="translate(634.2 308.02) rotate(-0.11)">革命</text><text class="cls-18" transform="translate(634.2 308.02) rotate(-0.11)">革命</text></g><g id="を起こします_6" data-name="を起こします "><text class="cls-19" transform="translate(832.44 315.49) rotate(-0.11)">を<tspan class="cls-3" x="49.87" y="0">起</tspan><tspan class="cls-20" x="97.7" y="0">こ</tspan><tspan class="cls-21" x="140.68" y="0">し</tspan><tspan class="cls-22" x="187.71" y="0">ま</tspan><tspan class="cls-23" x="236.76" y="0">す</tspan><tspan class="cls-24" x="282.98" y="0">。</tspan></text><text class="cls-19" transform="translate(832.44 315.49) rotate(-0.11)">を<tspan class="cls-3" x="49.87" y="0">起</tspan><tspan class="cls-20" x="97.7" y="0">こ</tspan><tspan class="cls-21" x="140.68" y="0">し</tspan><tspan class="cls-22" x="187.71" y="0">ま</tspan><tspan class="cls-23" x="236.76" y="0">す</tspan><tspan class="cls-24" x="282.98" y="0">。</tspan></text></g><circle id="楕円形_71-6" data-name="楕円形 71" class="cls-25" cx="677.62" cy="218.23" r="5.33"/><circle id="楕円形_72-6" data-name="楕円形 72" class="cls-25" cx="769.9" cy="218.59" r="5.33"/><circle id="楕円形_73-6" data-name="楕円形 73" class="cls-25" cx="229.75" cy="118.96" r="5.33"/><circle id="楕円形_74-6" data-name="楕円形 74" class="cls-25" cx="302.63" cy="119.36" r="5.33"/><circle id="楕円形_75-6" data-name="楕円形 75" class="cls-25" cx="375.51" cy="118.68" r="5.33"/><circle id="楕円形_76-6" data-name="楕円形 76" class="cls-25" cx="448.39" cy="119.08" r="5.33"/><circle id="楕円形_77-6" data-name="楕円形 77" class="cls-25" cx="521.27" cy="118.77" r="5.33"/><g id="私たちは_7" data-name="私たちは "><g id="私たちは_2-8" data-name="私たちは 2"><text class="cls-2" transform="translate(1.57 37.61) rotate(-0.11)">私<tspan class="cls-3" x="50.68" y="0">た</tspan><tspan class="cls-4" x="98.52" y="0">ち</tspan><tspan class="cls-5" x="147.98" y="0">は</tspan><tspan class="cls-6" x="197.84" y="0">、</tspan></text><text class="cls-2" transform="translate(1.57 37.61) rotate(-0.11)">私<tspan class="cls-3" x="50.68" y="0">た</tspan><tspan class="cls-4" x="98.52" y="0">ち</tspan><tspan class="cls-5" x="147.98" y="0">は</tspan><tspan class="cls-6" x="197.84" y="0">、</tspan></text></g></g><g id="世の中に隠れた価値を徹底的に探求し_7" data-name="世の中に隠れた価値を徹底的に探求し "><g id="世の中に_を徹底的に探求し_7" data-name="世の中に を徹底的に探求し "><text class="cls-2" transform="translate(1.85 185.52) rotate(-0.11)"><tspan xml:space="preserve">世の中の                 </tspan><tspan class="cls-7" x="535.58" y="0" xml:space="preserve"> を</tspan><tspan x="604.21" y="0">徹底的</tspan><tspan class="cls-8" x="756.24" y="0">に</tspan><tspan x="806.52" y="0">探</tspan><tspan class="cls-9" x="857.19" y="0">求</tspan><tspan class="cls-3" x="903.81" y="0">し</tspan><tspan class="cls-6" x="951.65" y="0">、</tspan></text><text class="cls-2" transform="translate(1.85 185.52) rotate(-0.11)"><tspan xml:space="preserve">世の中の                 </tspan><tspan class="cls-7" x="535.58" y="0" xml:space="preserve"> を</tspan><tspan x="604.21" y="0">徹底的</tspan><tspan class="cls-8" x="756.24" y="0">に</tspan><tspan x="806.52" y="0">探</tspan><tspan class="cls-9" x="857.19" y="0">求</tspan><tspan class="cls-3" x="903.81" y="0">し</tspan><tspan class="cls-6" x="951.65" y="0">、</tspan></text></g><g id="隠れた価値-7" data-name="隠れた価値"><text class="cls-10" transform="translate(202.29 183.4) rotate(-0.11)">隠れた価値</text><text class="cls-10" transform="translate(202.29 183.4) rotate(-0.11)">隠れた価値</text></g></g><g id="ネットマーケティング業界に-7" data-name="ネットマーケティング業界に"><text class="cls-11" transform="translate(1.69 316.07) rotate(-0.11)">ネ<tspan class="cls-12" x="47.03" y="0">ッ</tspan><tspan class="cls-3" x="88.38" y="0">ト</tspan><tspan class="cls-8" x="136.22" y="0">マ</tspan><tspan class="cls-4" x="186.49" y="0">ー</tspan><tspan class="cls-13" x="235.95" y="0">ケ</tspan><tspan class="cls-14" x="284.2" y="0">テ</tspan><tspan class="cls-15" x="328.39" y="0">ィ</tspan><tspan class="cls-16" x="372.17" y="0">ン</tspan><tspan class="cls-17" x="418.39" y="0">グ業界</tspan><tspan class="cls-8" x="570.42" y="0">に</tspan></text><text class="cls-11" transform="translate(1.69 316.07) rotate(-0.11)">ネ<tspan class="cls-12" x="47.03" y="0">ッ</tspan><tspan class="cls-3" x="88.38" y="0">ト</tspan><tspan class="cls-8" x="136.22" y="0">マ</tspan><tspan class="cls-4" x="186.49" y="0">ー</tspan><tspan class="cls-13" x="235.95" y="0">ケ</tspan><tspan class="cls-14" x="284.2" y="0">テ</tspan><tspan class="cls-15" x="328.39" y="0">ィ</tspan><tspan class="cls-16" x="372.17" y="0">ン</tspan><tspan class="cls-17" x="418.39" y="0">グ業界</tspan><tspan class="cls-8" x="570.42" y="0">に</tspan></text></g><g id="革命-7" data-name="革命"><text class="cls-18" transform="translate(633.2 307.02) rotate(-0.11)">革命</text><text class="cls-18" transform="translate(633.2 307.02) rotate(-0.11)">革命</text></g><g id="を起こします_7" data-name="を起こします "><text class="cls-19" transform="translate(831.44 314.49) rotate(-0.11)">を<tspan class="cls-3" x="49.87" y="0">起</tspan><tspan class="cls-20" x="97.7" y="0">こ</tspan><tspan class="cls-21" x="140.68" y="0">し</tspan><tspan class="cls-22" x="187.71" y="0">ま</tspan><tspan class="cls-23" x="236.76" y="0">す</tspan><tspan class="cls-24" x="282.98" y="0">。</tspan></text><text class="cls-19" transform="translate(831.44 314.49) rotate(-0.11)">を<tspan class="cls-3" x="49.87" y="0">起</tspan><tspan class="cls-20" x="97.7" y="0">こ</tspan><tspan class="cls-21" x="140.68" y="0">し</tspan><tspan class="cls-22" x="187.71" y="0">ま</tspan><tspan class="cls-23" x="236.76" y="0">す</tspan><tspan class="cls-24" x="282.98" y="0">。</tspan></text></g><circle id="楕円形_71-7" data-name="楕円形 71" class="cls-25" cx="676.62" cy="217.23" r="5.33"/><circle id="楕円形_72-7" data-name="楕円形 72" class="cls-25" cx="768.9" cy="217.59" r="5.33"/><circle id="楕円形_73-7" data-name="楕円形 73" class="cls-25" cx="228.75" cy="117.96" r="5.33"/><circle id="楕円形_74-7" data-name="楕円形 74" class="cls-25" cx="301.63" cy="118.36" r="5.33"/><circle id="楕円形_75-7" data-name="楕円形 75" class="cls-25" cx="374.51" cy="117.68" r="5.33"/><circle id="楕円形_76-7" data-name="楕円形 76" class="cls-25" cx="447.39" cy="118.08" r="5.33"/><circle id="楕円形_77-7" data-name="楕円形 77" class="cls-25" cx="520.27" cy="117.77" r="5.33"/><g id="私たちは_8" data-name="私たちは "><g id="私たちは_2-9" data-name="私たちは 2"><text class="cls-2" transform="translate(0.57 36.61) rotate(-0.11)">私<tspan class="cls-3" x="50.68" y="0">た</tspan><tspan class="cls-4" x="98.52" y="0">ち</tspan><tspan class="cls-5" x="147.98" y="0">は</tspan><tspan class="cls-6" x="197.84" y="0">、</tspan></text><text class="cls-2" transform="translate(0.57 36.61) rotate(-0.11)">私<tspan class="cls-3" x="50.68" y="0">た</tspan><tspan class="cls-4" x="98.52" y="0">ち</tspan><tspan class="cls-5" x="147.98" y="0">は</tspan><tspan class="cls-6" x="197.84" y="0">、</tspan></text></g></g><g id="世の中に隠れた価値を徹底的に探求し_8" data-name="世の中に隠れた価値を徹底的に探求し "><g id="世の中に_を徹底的に探求し_8" data-name="世の中に を徹底的に探求し "><text class="cls-2" transform="translate(0.85 184.52) rotate(-0.11)"><tspan xml:space="preserve">世の中の                 </tspan><tspan class="cls-7" x="535.58" y="0" xml:space="preserve"> を</tspan><tspan x="604.21" y="0">徹底的</tspan><tspan class="cls-8" x="756.24" y="0">に</tspan><tspan x="806.52" y="0">探</tspan><tspan class="cls-9" x="857.19" y="0">求</tspan><tspan class="cls-3" x="903.81" y="0">し</tspan><tspan class="cls-6" x="951.65" y="0">、</tspan></text><text class="cls-2" transform="translate(0.85 184.52) rotate(-0.11)"><tspan xml:space="preserve">世の中の                 </tspan><tspan class="cls-7" x="535.58" y="0" xml:space="preserve"> を</tspan><tspan x="604.21" y="0">徹底的</tspan><tspan class="cls-8" x="756.24" y="0">に</tspan><tspan x="806.52" y="0">探</tspan><tspan class="cls-9" x="857.19" y="0">求</tspan><tspan class="cls-3" x="903.81" y="0">し</tspan><tspan class="cls-6" x="951.65" y="0">、</tspan></text></g><g id="隠れた価値-8" data-name="隠れた価値"><text class="cls-10" transform="translate(201.29 182.4) rotate(-0.11)">隠れた価値</text><text class="cls-10" transform="translate(201.29 182.4) rotate(-0.11)">隠れた価値</text></g></g><g id="ネットマーケティング業界に-8" data-name="ネットマーケティング業界に"><text class="cls-11" transform="translate(0.69 315.07) rotate(-0.11)">ネ<tspan class="cls-12" x="47.03" y="0">ッ</tspan><tspan class="cls-3" x="88.38" y="0">ト</tspan><tspan class="cls-8" x="136.22" y="0">マ</tspan><tspan class="cls-4" x="186.49" y="0">ー</tspan><tspan class="cls-13" x="235.95" y="0">ケ</tspan><tspan class="cls-14" x="284.2" y="0">テ</tspan><tspan class="cls-15" x="328.39" y="0">ィ</tspan><tspan class="cls-16" x="372.17" y="0">ン</tspan><tspan class="cls-17" x="418.39" y="0">グ業界</tspan><tspan class="cls-8" x="570.42" y="0">に</tspan></text><text class="cls-11" transform="translate(0.69 315.07) rotate(-0.11)">ネ<tspan class="cls-12" x="47.03" y="0">ッ</tspan><tspan class="cls-3" x="88.38" y="0">ト</tspan><tspan class="cls-8" x="136.22" y="0">マ</tspan><tspan class="cls-4" x="186.49" y="0">ー</tspan><tspan class="cls-13" x="235.95" y="0">ケ</tspan><tspan class="cls-14" x="284.2" y="0">テ</tspan><tspan class="cls-15" x="328.39" y="0">ィ</tspan><tspan class="cls-16" x="372.17" y="0">ン</tspan><tspan class="cls-17" x="418.39" y="0">グ業界</tspan><tspan class="cls-8" x="570.42" y="0">に</tspan></text></g><g id="革命-8" data-name="革命"><text class="cls-18" transform="translate(632.2 306.02) rotate(-0.11)">革命</text><text class="cls-18" transform="translate(632.2 306.02) rotate(-0.11)">革命</text></g><g id="を起こします_8" data-name="を起こします "><text class="cls-19" transform="translate(830.44 313.49) rotate(-0.11)">を<tspan class="cls-3" x="49.87" y="0">起</tspan><tspan class="cls-20" x="97.7" y="0">こ</tspan><tspan class="cls-21" x="140.68" y="0">し</tspan><tspan class="cls-22" x="187.71" y="0">ま</tspan><tspan class="cls-23" x="236.76" y="0">す</tspan><tspan class="cls-24" x="282.98" y="0">。</tspan></text><text class="cls-19" transform="translate(830.44 313.49) rotate(-0.11)">を<tspan class="cls-3" x="49.87" y="0">起</tspan><tspan class="cls-20" x="97.7" y="0">こ</tspan><tspan class="cls-21" x="140.68" y="0">し</tspan><tspan class="cls-22" x="187.71" y="0">ま</tspan><tspan class="cls-23" x="236.76" y="0">す</tspan><tspan class="cls-24" x="282.98" y="0">。</tspan></text></g><circle id="楕円形_71-8" data-name="楕円形 71" class="cls-25" cx="675.62" cy="216.23" r="5.33"/><circle id="楕円形_72-8" data-name="楕円形 72" class="cls-25" cx="767.9" cy="216.59" r="5.33"/><circle id="楕円形_73-8" data-name="楕円形 73" class="cls-25" cx="227.75" cy="116.96" r="5.33"/><circle id="楕円形_74-8" data-name="楕円形 74" class="cls-25" cx="300.63" cy="117.36" r="5.33"/><circle id="楕円形_75-8" data-name="楕円形 75" class="cls-25" cx="373.51" cy="116.68" r="5.33"/><circle id="楕円形_76-8" data-name="楕円形 76" class="cls-25" cx="446.39" cy="117.08" r="5.33"/><circle id="楕円形_77-8" data-name="楕円形 77" class="cls-25" cx="519.27" cy="116.77" r="5.33"/></g><g id="私たちは_9" data-name="私たちは "><g id="私たちは_2-10" data-name="私たちは 2" class="cls-26"><text class="cls-27" transform="translate(0.57 36.61) rotate(-0.11)">私<tspan class="cls-3" x="50.68" y="0">た</tspan><tspan class="cls-4" x="98.52" y="0">ち</tspan><tspan class="cls-5" x="147.98" y="0">は</tspan><tspan class="cls-6" x="197.84" y="0">、</tspan></text><text class="cls-28" transform="translate(0.57 36.61) rotate(-0.11)">私<tspan class="cls-3" x="50.68" y="0">た</tspan><tspan class="cls-4" x="98.52" y="0">ち</tspan><tspan class="cls-5" x="147.98" y="0">は</tspan><tspan class="cls-6" x="197.84" y="0">、</tspan></text></g></g><g id="世の中に隠れた価値を徹底的に探求し_9" data-name="世の中に隠れた価値を徹底的に探求し "><g id="世の中に_を徹底的に探求し_9" data-name="世の中に を徹底的に探求し " class="cls-26"><text class="cls-27" transform="translate(0.85 184.52) rotate(-0.11)"><tspan xml:space="preserve">世の中の                 </tspan><tspan class="cls-7" x="535.58" y="0" xml:space="preserve"> を</tspan><tspan x="604.21" y="0">徹底的</tspan><tspan class="cls-8" x="756.24" y="0">に</tspan><tspan x="806.52" y="0">探</tspan><tspan class="cls-9" x="857.19" y="0">求</tspan><tspan class="cls-3" x="903.81" y="0">し</tspan><tspan class="cls-6" x="951.65" y="0">、</tspan></text><text class="cls-28" transform="translate(0.85 184.52) rotate(-0.11)"><tspan xml:space="preserve">世の中の                 </tspan><tspan class="cls-7" x="535.58" y="0" xml:space="preserve"> を</tspan><tspan x="604.21" y="0">徹底的</tspan><tspan class="cls-8" x="756.24" y="0">に</tspan><tspan x="806.52" y="0">探</tspan><tspan class="cls-9" x="857.19" y="0">求</tspan><tspan class="cls-3" x="903.81" y="0">し</tspan><tspan class="cls-6" x="951.65" y="0">、</tspan></text></g><g id="隠れた価値-9" data-name="隠れた価値" class="cls-26"><text class="cls-29" transform="translate(201.29 182.4) rotate(-0.11)">隠れた価値</text><text class="cls-29" transform="translate(201.29 182.4) rotate(-0.11)">隠れた価値</text></g></g><g id="ネットマーケティング業界に-9" data-name="ネットマーケティング業界に" class="cls-26"><text class="cls-30" transform="translate(0.69 315.07) rotate(-0.11)">ネ<tspan class="cls-12" x="47.03" y="0">ッ</tspan><tspan class="cls-3" x="88.38" y="0">ト</tspan><tspan class="cls-8" x="136.22" y="0">マ</tspan><tspan class="cls-4" x="186.49" y="0">ー</tspan><tspan class="cls-13" x="235.95" y="0">ケ</tspan><tspan class="cls-14" x="284.2" y="0">テ</tspan><tspan class="cls-15" x="328.39" y="0">ィ</tspan><tspan class="cls-16" x="372.17" y="0">ン</tspan><tspan class="cls-17" x="418.39" y="0">グ業界</tspan><tspan class="cls-8" x="570.42" y="0">に</tspan></text><text class="cls-31" transform="translate(0.69 315.07) rotate(-0.11)">ネ<tspan class="cls-12" x="47.03" y="0">ッ</tspan><tspan class="cls-3" x="88.38" y="0">ト</tspan><tspan class="cls-8" x="136.22" y="0">マ</tspan><tspan class="cls-4" x="186.49" y="0">ー</tspan><tspan class="cls-13" x="235.95" y="0">ケ</tspan><tspan class="cls-14" x="284.2" y="0">テ</tspan><tspan class="cls-15" x="328.39" y="0">ィ</tspan><tspan class="cls-16" x="372.17" y="0">ン</tspan><tspan class="cls-17" x="418.39" y="0">グ業界</tspan><tspan class="cls-8" x="570.42" y="0">に</tspan></text></g><g id="革命-9" data-name="革命" class="cls-26"><text class="cls-32" transform="translate(632.2 306.02) rotate(-0.11)">革命</text><text class="cls-33" transform="translate(632.2 306.02) rotate(-0.11)">革命</text></g><g id="を起こします_9" data-name="を起こします " class="cls-26"><text class="cls-34" transform="translate(830.44 313.49) rotate(-0.11)">を<tspan class="cls-3" x="49.87" y="0">起</tspan><tspan class="cls-20" x="97.7" y="0">こ</tspan><tspan class="cls-21" x="140.68" y="0">し</tspan><tspan class="cls-22" x="187.71" y="0">ま</tspan><tspan class="cls-23" x="236.76" y="0">す</tspan><tspan class="cls-24" x="282.98" y="0">。</tspan></text><text class="cls-35" transform="translate(830.44 313.49) rotate(-0.11)">を<tspan class="cls-3" x="49.87" y="0">起</tspan><tspan class="cls-20" x="97.7" y="0">こ</tspan><tspan class="cls-21" x="140.68" y="0">し</tspan><tspan class="cls-22" x="187.71" y="0">ま</tspan><tspan class="cls-23" x="236.76" y="0">す</tspan><tspan class="cls-24" x="282.98" y="0">。</tspan></text></g><circle id="楕円形_71-9" data-name="楕円形 71" class="cls-36" cx="675.62" cy="216.23" r="5.33"/><circle id="楕円形_72-9" data-name="楕円形 72" class="cls-36" cx="767.9" cy="216.59" r="5.33"/><circle id="楕円形_73-9" data-name="楕円形 73" class="cls-36" cx="227.75" cy="116.96" r="5.33"/><circle id="楕円形_74-9" data-name="楕円形 74" class="cls-36" cx="300.63" cy="117.36" r="5.33"/><circle id="楕円形_75-9" data-name="楕円形 75" class="cls-36" cx="373.51" cy="116.68" r="5.33"/><circle id="楕円形_76-9" data-name="楕円形 76" class="cls-36" cx="446.39" cy="117.08" r="5.33"/><circle id="楕円形_77-9" data-name="楕円形 77" class="cls-36" cx="519.27" cy="116.77" r="5.33"/></g></g></g></svg>