<svg xmlns="http://www.w3.org/2000/svg" xmlns:xlink="http://www.w3.org/1999/xlink" viewBox="0 0 320.81 334.21"><defs><style>.cls-1,.cls-12,.cls-16,.cls-17,.cls-3,.cls-5,.cls-6{fill:none;}.cls-10,.cls-11,.cls-2{fill:#ff8b00;}.cls-10,.cls-11,.cls-12,.cls-13,.cls-15,.cls-17,.cls-18,.cls-19,.cls-20,.cls-21,.cls-3,.cls-4,.cls-5,.cls-6,.cls-7,.cls-8,.cls-9{stroke:#000;}.cls-12,.cls-13,.cls-16,.cls-3,.cls-4,.cls-5,.cls-6,.cls-7,.cls-8,.cls-9{stroke-linecap:round;}.cls-12,.cls-13,.cls-3,.cls-4,.cls-5,.cls-6,.cls-7,.cls-8,.cls-9{stroke-linejoin:round;}.cls-10,.cls-17,.cls-18,.cls-19,.cls-20,.cls-21,.cls-3,.cls-7,.cls-8{stroke-width:2px;}.cls-4{fill:#ffee7b;}.cls-4,.cls-6{stroke-width:1.5px;}.cls-14,.cls-15,.cls-8{fill:#fff;}.cls-9{stroke-width:5px;}.cls-10,.cls-11,.cls-15,.cls-16,.cls-17,.cls-18,.cls-19,.cls-20,.cls-21{stroke-miterlimit:10;}.cls-12,.cls-13{stroke-width:0.75px;}.cls-13{fill:#ff9833;}.cls-16{stroke:#cbcbcb;}.cls-18{fill:url(#_6_dpi_50_6);}.cls-19{fill:url(#_6_dpi_50_6-3);}.cls-20{fill:url(#_6_dpi_50_6-5);}.cls-21{fill:url(#_6_dpi_50_6-7);}</style><pattern id="_6_dpi_50_6" data-name="6 dpi 50% 6" width="48" height="48" patternTransform="translate(34.01 15.02) rotate(-73) scale(0.1)" patternUnits="userSpaceOnUse" viewBox="0 0 48 48"><rect class="cls-1" width="48" height="48"/><circle class="cls-2" cx="24" cy="48" r="6"/><circle class="cls-2" cx="48" cy="48" r="6"/><circle class="cls-2" cx="24" cy="24" r="6"/><circle class="cls-2" cx="48" cy="24" r="6"/><circle class="cls-2" cx="36" cy="36" r="6"/><circle class="cls-2" cx="12" cy="36" r="6"/><circle class="cls-2" cx="36" cy="12" r="6"/><circle class="cls-2" cx="12" cy="12" r="6"/><circle class="cls-2" cy="48" r="6"/><circle class="cls-2" cy="24" r="6"/><circle class="cls-2" cx="24" r="6"/><circle class="cls-2" cx="48" r="6"/><circle class="cls-2" r="6"/></pattern><pattern id="_6_dpi_50_6-3" data-name="6 dpi 50% 6" width="48" height="48" patternTransform="translate(36.53 55.8) rotate(17) scale(0.1)" patternUnits="userSpaceOnUse" viewBox="0 0 48 48"><rect class="cls-1" width="48" height="48"/><circle class="cls-2" cx="24" cy="48" r="6"/><circle class="cls-2" cx="48" cy="48" r="6"/><circle class="cls-2" cx="24" cy="24" r="6"/><circle class="cls-2" cx="48" cy="24" r="6"/><circle class="cls-2" cx="36" cy="36" r="6"/><circle class="cls-2" cx="12" cy="36" r="6"/><circle class="cls-2" cx="36" cy="12" r="6"/><circle class="cls-2" cx="12" cy="12" r="6"/><circle class="cls-2" cy="48" r="6"/><circle class="cls-2" cy="24" r="6"/><circle class="cls-2" cx="24" r="6"/><circle class="cls-2" cx="48" r="6"/><circle class="cls-2" r="6"/></pattern><pattern id="_6_dpi_50_6-5" data-name="6 dpi 50% 6" width="48" height="48" patternTransform="matrix(-0.03, 0.09, -0.09, -0.03, 43.82, 54.12)" patternUnits="userSpaceOnUse" viewBox="0 0 48 48"><rect class="cls-1" width="48" height="48"/><circle class="cls-2" cx="24" cy="48" r="6"/><circle class="cls-2" cx="48" cy="48" r="6"/><circle class="cls-2" cx="24" cy="24" r="6"/><circle class="cls-2" cx="48" cy="24" r="6"/><circle class="cls-2" cx="36" cy="36" r="6"/><circle class="cls-2" cx="12" cy="36" r="6"/><circle class="cls-2" cx="36" cy="12" r="6"/><circle class="cls-2" cx="12" cy="12" r="6"/><circle class="cls-2" cy="48" r="6"/><circle class="cls-2" cy="24" r="6"/><circle class="cls-2" cx="24" r="6"/><circle class="cls-2" cx="48" r="6"/><circle class="cls-2" r="6"/></pattern><pattern id="_6_dpi_50_6-7" data-name="6 dpi 50% 6" width="48" height="48" patternTransform="translate(41.3 13.34) rotate(-163) scale(0.1)" patternUnits="userSpaceOnUse" viewBox="0 0 48 48"><rect class="cls-1" width="48" height="48"/><circle class="cls-2" cx="24" cy="48" r="6"/><circle class="cls-2" cx="48" cy="48" r="6"/><circle class="cls-2" cx="24" cy="24" r="6"/><circle class="cls-2" cx="48" cy="24" r="6"/><circle class="cls-2" cx="36" cy="36" r="6"/><circle class="cls-2" cx="12" cy="36" r="6"/><circle class="cls-2" cx="36" cy="12" r="6"/><circle class="cls-2" cx="12" cy="12" r="6"/><circle class="cls-2" cy="48" r="6"/><circle class="cls-2" cy="24" r="6"/><circle class="cls-2" cx="24" r="6"/><circle class="cls-2" cx="48" r="6"/><circle class="cls-2" r="6"/></pattern></defs><g id="レイヤー_2" data-name="レイヤー 2"><g id="レイヤー_1-2" data-name="レイヤー 1"><path d="M139.74,107.21v2.2h-1.16v-2.2h-2.85v-1.07h2.85v-1H136.2v-4.68h5.94v4.68h-2.4v1h2.79v1.07Zm-3.14-6.94a7.64,7.64,0,0,0-.84-2.17l1-.31a7.17,7.17,0,0,1,.91,2.11Zm.6,2.12h1.45v-1H137.2Zm0,1.86h1.45v-1H137.2Zm1.47-4.29a10,10,0,0,0-.54-2.21l1-.23a8.54,8.54,0,0,1,.61,2.17Zm2.43,1.46h-1.43v1h1.43Zm0,1.84h-1.43v1h1.43Zm1.56-5.35a24.73,24.73,0,0,1-1.39,2.49l-1-.32a13.66,13.66,0,0,0,1.13-2.53Zm4.67,5a13.44,13.44,0,0,1-1.82,3.53c.3,1,.64,1.56,1,1.58s.41-.65.5-1.86a3.73,3.73,0,0,0,.88.68c-.29,2.07-.85,2.61-1.38,2.59-.82,0-1.43-.73-1.89-1.94a9.61,9.61,0,0,1-2.46,2,3.56,3.56,0,0,0-.87-.86,8.64,8.64,0,0,0,3-2.33,28.88,28.88,0,0,1-.59-3.94l-1.28.16-.14-1.13,1.33-.16c-.08-1.13-.15-2.32-.19-3.6h1.16c0,1.21.07,2.37.14,3.46l2.9-.35.15,1.12-2.94.36c.09,1.05.22,2,.37,2.83a11.64,11.64,0,0,0,1.24-2.62Zm-.78-2.49a8.77,8.77,0,0,0-1.37-2.21l.91-.48a8.87,8.87,0,0,1,1.43,2.14Z"/><path d="M161.46,99.15a9.73,9.73,0,0,1-2.12,3.32,9.15,9.15,0,0,0,2.95,1.66,4.74,4.74,0,0,0-.78,1l-.27-.12v4.33h-1.17V109h-3.19v.41h-1.14v-4.3a5.11,5.11,0,0,1-.48.22,3.47,3.47,0,0,0-.38-.56v2.07h-3.44v1.12h-.91V98.24h4.35v2.63a8.9,8.9,0,0,0,2.43-3.42l1.13.33a10.9,10.9,0,0,1-.49,1h2.52l.21-.06Zm-10,.15v2.57h.84V99.3Zm0,6.46h.84v-2.88h-.84Zm2.49-6.46h-.87v2.57h.87Zm0,6.46v-2.88h-.87v2.88Zm.95-1.55a11.06,11.06,0,0,0,2.86-1.75,11,11,0,0,1-1.19-1.59,8.56,8.56,0,0,1-1.12,1.13,7.17,7.17,0,0,0-.55-.54Zm5.64.47a10.65,10.65,0,0,1-2-1.43,13,13,0,0,1-2,1.43Zm-.45,3.21v-2.14h-3.19v2.14Zm-2.73-8.06-.12.17a9,9,0,0,0,1.3,1.7,8,8,0,0,0,1.37-1.87Z"/><path d="M169.3,100.6h-5v-1h5Zm-.47,8.11H166v.55h-1v-4.37h3.91Zm0-6.57a3,3,0,0,0,1.37-2.71V97.88h4.17v3.06c0,.29,0,.35.21.35h.51c.19,0,.24-.17.27-1.37a2.6,2.6,0,0,0,1,.44c-.08,1.55-.38,2-1.13,2h-.83c-.9,0-1.17-.3-1.17-1.36V99h-1.88v.48a3.94,3.94,0,0,1-1.63,3.5,4.72,4.72,0,0,0-.88-.77v.17h-3.9v-.94h3.9Zm-3.9,1h3.9v1h-3.9Zm3.87-4.26H165v-1h3.81Zm-2.85,7v1.87h1.82v-1.87Zm9.68-2.56a8.39,8.39,0,0,1-2.1,3.8,8.65,8.65,0,0,0,2.84,1.27,4.92,4.92,0,0,0-.77,1,8.57,8.57,0,0,1-3-1.52,9.85,9.85,0,0,1-3.14,1.52,3.94,3.94,0,0,0-.65-1.06,8.77,8.77,0,0,0,2.89-1.28A9.24,9.24,0,0,1,170,104.5l1.08-.34a7,7,0,0,0,1.49,2.17,6.39,6.39,0,0,0,1.5-2.18h-4.65V103h5.18l.22,0Z"/><path d="M183.82,100.6h-5.19v-1h5.19Zm-.53,8.11h-3v.55h-1.06v-4.37h4.07Zm-4-7.31h4.09v.94h-4.09Zm0,1.73h4.09v1h-4.09Zm4.1-4.26h-4v-1h4Zm-3.06,7v1.87h1.93v-1.87Zm10.43-2.81H187.9v6.36h-1.22v-6.36h-2.9v-1.19h2.9V97.53h1.22v4.33h2.81Z"/><circle class="cls-3" cx="162.37" cy="63.06" r="62.06"/><path class="cls-4" d="M185.44,32.06s.24-1.28,2.14-1.67a4.8,4.8,0,0,0,3.76-5.17,5.29,5.29,0,0,0-3.45-5l.05,0a5.28,5.28,0,0,0-5.89,1.34,4.77,4.77,0,0,0-.71,6.34,2.46,2.46,0,0,1,.46,2.68"/><rect class="cls-3" x="180.47" y="33.07" width="4.66" height="0.93" rx="0.47" transform="translate(24.52 -63.87) rotate(21.21)"/><rect class="cls-3" x="180.81" y="32.2" width="4.66" height="0.93" rx="0.47" transform="matrix(0.93, 0.36, -0.36, 0.93, 24.23, -64.05)"/><rect class="cls-3" x="181.14" y="31.33" width="4.66" height="0.93" rx="0.47" transform="translate(23.94 -64.23) rotate(21.21)"/><path class="cls-3" d="M183.42,34.28a.93.93,0,0,1-1.7-.65"/><path class="cls-5" d="M183.93,28.53s-1.5-2.58.37-3.85,3,2,1.47,2.32-1-2,.76-2,1.7,3-1.19,4"/><line class="cls-6" x1="189.54" y1="18.25" x2="191.34" y2="15.55"/><line class="cls-6" x1="186.54" y1="14.35" x2="186.54" y2="17.65"/><line class="cls-6" x1="191.94" y1="20.65" x2="194.64" y2="19.15"/><path class="cls-3" d="M175.47,53.75a13.2,13.2,0,0,1-13,12.08h-1.72a13.21,13.21,0,0,1-13-12.19"/><path class="cls-7" d="M176.35,47.46a18.45,18.45,0,0,0,1-6.63c-.36-7.28-7-13.7-14.76-13.7h-1.94a15.13,15.13,0,0,0-15.38,15.55c.47,5,2.13,5.49,2.82,6,0,0-.23-1.68.94-5.26l.09-.09a9.13,9.13,0,0,0,8.52,4.74s-1.54-3.46-.37-5.13c2.5,3.22,5.56,4.09,9.61,4.29a5.27,5.27,0,0,1-.66-4.29c2,2.73,6.59,4.54,10.12,4.54"/><circle class="cls-3" cx="156.18" cy="52.92" r="3.56"/><circle class="cls-3" cx="167.36" cy="52.92" r="3.56"/><line class="cls-3" x1="159.74" y1="52.92" x2="163.8" y2="52.92"/><path class="cls-3" d="M147.32,53.64a3.24,3.24,0,0,1-2.38-1.22,4.67,4.67,0,0,1-1-2.54,3.75,3.75,0,0,1,.22-1.76,2.14,2.14,0,0,1,1.22-1.23,1.52,1.52,0,0,1,1.63.4"/><path class="cls-3" d="M175.69,53.64a3.28,3.28,0,0,0,2.39-1.22,4.66,4.66,0,0,0,1-2.54,3.62,3.62,0,0,0-.21-1.76,2.16,2.16,0,0,0-1.23-1.23,1.52,1.52,0,0,0-1.63.4"/><path class="cls-3" d="M155.59,68.68A17.46,17.46,0,0,0,144.37,80h34.55a17.46,17.46,0,0,0-11-11.3"/><path d="M160.07,71.52s.62,1.21,1.5,1.21,1.81-1.21,1.81-1.21l.11-1.89h-3.4Z"/><path d="M162.61,72.21A15.56,15.56,0,0,1,163.1,80h-2.53a15.49,15.49,0,0,1,.48-7.83Z"/><polygon class="cls-8" points="157.88 66.08 155.38 68.76 159.36 72.28 161.87 69.63 157.88 66.08"/><polygon class="cls-8" points="165.57 66.08 168.07 68.76 164.1 72.28 161.59 69.63 165.57 66.08"/><path d="M232.53,209.87c0-.2,0-.46,0-.76H225.9c-.57,0-1.27,0-1.68.06v-1.59c.41,0,1,.08,1.63.08h6.71v-6.25H226c-.55,0-1.26,0-1.63,0v-1.54c.49,0,1.16.08,1.63.08h7c.38,0,.87,0,1.12,0,0,.31,0,.82,0,1.18v7.24c0,.49,0,1.18.06,1.49Z"/><path d="M244.46,206.63a13.39,13.39,0,0,0,4.86-5.28l.85,1.53a14.44,14.44,0,0,1-4.92,5.07,15.51,15.51,0,0,1-5.36,2.09l-.94-1.45A14.55,14.55,0,0,0,244.46,206.63Zm-.48-4.48-1.11,1.14a29.57,29.57,0,0,0-3.5-3l1-1.1A28.08,28.08,0,0,1,244,202.15Z"/><path d="M263.89,202.75c.3,0,.83,0,1.18-.07v1.44c-.32,0-.81,0-1.18,0h-3.6a8.63,8.63,0,0,1-.87,3.74,6.85,6.85,0,0,1-2.78,2.61l-1.29-1a5.84,5.84,0,0,0,2.59-2.09,6.56,6.56,0,0,0,.84-3.31h-4c-.42,0-.88,0-1.27,0v-1.44c.39,0,.84.07,1.27.07Zm-7.41-2.22c-.46,0-1,0-1.37,0v-1.45a10,10,0,0,0,1.37.1h5.65a9.61,9.61,0,0,0,1.4-.1v1.45c-.45,0-1,0-1.4,0Z"/><path d="M274.56,206.63a13.39,13.39,0,0,0,4.86-5.28l.85,1.53a14.49,14.49,0,0,1-4.91,5.07A15.65,15.65,0,0,1,270,210l-.94-1.45A14.55,14.55,0,0,0,274.56,206.63Zm-.48-4.48L273,203.29a29.57,29.57,0,0,0-3.5-3l1-1.1A28.08,28.08,0,0,1,274.08,202.15Z"/><path d="M286.47,203.69l-1.42.52a34.58,34.58,0,0,0-1.58-3.89l1.4-.51C285.26,200.64,286.13,202.75,286.47,203.69Zm8.6-3.74a7,7,0,0,0-.29.93,15.47,15.47,0,0,1-2.34,5.26,12.35,12.35,0,0,1-5.51,4.06L285.71,209a11.28,11.28,0,0,0,5.51-3.67,12.83,12.83,0,0,0,2.21-5.81Zm-4.88,2.72-1.38.49a35,35,0,0,0-1.4-3.74l1.36-.46C289.1,199.64,289.94,201.83,290.19,202.67Z"/><path d="M251.22,214.26a19,19,0,0,1-1.17,2.46v8h-1.11v-6.22a10.14,10.14,0,0,1-1,1.15,6.21,6.21,0,0,0-.61-1.13,13.2,13.2,0,0,0,2.81-4.55Zm3.56,2.6v1.5H258v1h-3.21v1.57h3.37v1h-3.37v2.73h-1.12v-7.83H253a12.53,12.53,0,0,1-1.6,2.37,7.78,7.78,0,0,0-.85-.74,12.48,12.48,0,0,0,2.54-4.48l1,.28c-.19.51-.39,1-.61,1.52h4.74v1.05Z"/><path d="M270.16,217.9a13.44,13.44,0,0,1-2.06,4c.41,1,.87,1.61,1.36,1.61.31,0,.45-.6.52-2.12a2.8,2.8,0,0,0,.94.61c-.17,2.08-.57,2.63-1.54,2.63s-1.55-.66-2.08-1.77a10.72,10.72,0,0,1-2.23,1.81,5.17,5.17,0,0,0-.8-.9,9.19,9.19,0,0,0,2.57-2.06,22.93,22.93,0,0,1-.84-4.86h-3.77v1.43h3v.42c-.06,2.56-.12,3.57-.36,3.9a1,1,0,0,1-.76.38,8.34,8.34,0,0,1-1.39,0,2.66,2.66,0,0,0-.3-1c.49.05.95.06,1.14.06a.43.43,0,0,0,.36-.14,7.81,7.81,0,0,0,.24-2.62h-1.89c0,1.67-.21,4-1.25,5.55a4.72,4.72,0,0,0-.92-.75,9.3,9.3,0,0,0,1-5v-3.33h4.84c0-.62-.05-1.25-.05-1.88H267c0,.64,0,1.26,0,1.88h2.27a12.15,12.15,0,0,0-1.85-1.24l.66-.68a12.63,12.63,0,0,1,2,1.31l-.56.61h1.2v1.07h-3.7a22.44,22.44,0,0,0,.57,3.73,12,12,0,0,0,1.35-2.94Z"/><circle class="cls-3" cx="257.75" cy="170.18" r="62.06"/><path class="cls-7" d="M275,170a8.63,8.63,0,0,0,8-.25s-4-4.77-2.39-15.91a19.15,19.15,0,0,0-19.09-19.1h-.8a19.16,19.16,0,0,0-19.1,19.1h0c1.59,11.14-2.43,15.91-2.43,15.91a8.63,8.63,0,0,0,8,.25"/><path class="cls-8" d="M277.4,154.67a4,4,0,0,1,0,8h0c0,8.86-7.65,15.72-16.51,15.72h0a15.83,15.83,0,0,1-16.11-15.72h-.4a4,4,0,0,1,0-8l7.56-13.53,19.1.8Z"/><path class="cls-9" d="M279,156.26c-15.12,2.39-24.66-11.93-24.66-11.93-1.6,7.95-11.15,11.93-11.15,11.93s-2.38-7.95,3.19-13.52,9.55-7.17,15.12-7.17,17.5,5.57,17.5,18.31Z"/><circle cx="253.98" cy="161.7" r="1.86"/><circle cx="268.14" cy="161.8" r="1.86"/><path class="cls-10" d="M252.19,181.42h35.74l3.05,8.13h-26.2a7.29,7.29,0,0,1-3.72-1l-9.28-5.61A.8.8,0,0,1,252.19,181.42Z"/><rect class="cls-10" x="260.92" y="165.67" width="36.22" height="23.88" rx="3"/><circle class="cls-8" cx="279.16" cy="177.74" r="2.16"/><path d="M226.18,135.13a2,2,0,0,1,1.87,1.28l6.66,17.25a2,2,0,0,1-1.14,2.58L224,159.93a2,2,0,0,1-2.59-1.15l-6.66-17.24a2,2,0,0,1,1.15-2.59l9.53-3.68a2,2,0,0,1,.71-.14m0-1a3,3,0,0,0-1.07.2L215.57,138a3,3,0,0,0-1.71,3.88l6.66,17.24a3,3,0,0,0,2.8,1.92,3.08,3.08,0,0,0,1.08-.2l9.53-3.68a3,3,0,0,0,1.72-3.88L229,136.05a3,3,0,0,0-2.81-1.92Z"/><rect class="cls-11" x="219.36" y="138.66" width="10.91" height="18.22" rx="1" transform="translate(-38.14 90.91) rotate(-21.12)"/><line class="cls-12" x1="220.28" y1="138.18" x2="221.82" y2="137.58"/><line class="cls-13" x1="229.84" y1="148.17" x2="227.81" y2="153"/><line class="cls-13" x1="228.51" y1="154.79" x2="228.31" y2="155.28"/><line class="cls-13" x1="230.09" y1="150.71" x2="228.82" y2="153.98"/><line class="cls-7" x1="292.56" y1="134.72" x2="292.82" y2="134.31"/><line class="cls-7" x1="290.62" y1="137.71" x2="291.46" y2="136.42"/><line class="cls-7" x1="286.73" y1="143.71" x2="289.05" y2="140.13"/><line class="cls-7" x1="303.92" y1="138.92" x2="305.02" y2="138.12"/><line class="cls-7" x1="298.91" y1="142.57" x2="301.54" y2="140.65"/><line class="cls-7" x1="292.82" y1="147.01" x2="296.28" y2="144.49"/><line class="cls-7" x1="304.24" y1="153.29" x2="305.02" y2="153.36"/><line class="cls-7" x1="298.07" y1="152.7" x2="301.84" y2="153.06"/><line class="cls-7" x1="294.35" y1="152.35" x2="295.67" y2="152.47"/><line class="cls-7" x1="206.97" y1="180.87" x2="204.33" y2="181.42"/><line class="cls-7" x1="217.32" y1="178.72" x2="210.32" y2="180.17"/><line class="cls-7" x1="222.63" y1="177.61" x2="221.29" y2="177.89"/><line class="cls-7" x1="222.4" y1="183.95" x2="216.28" y2="187.01"/><line class="cls-7" x1="227.46" y1="181.42" x2="226.16" y2="182.07"/><line class="cls-7" x1="225.73" y1="191.97" x2="224.66" y2="193.11"/><line class="cls-7" x1="232.54" y1="184.72" x2="228.4" y2="189.13"/><path d="M146,316.14c.54,0,.65-.24.71-1.43a3,3,0,0,0,1,.42c-.14,1.58-.48,2-1.64,2h-2.45c-1.41,0-1.77-.34-1.77-1.64v-2.87l-.68.33-.44-1,1.12-.52v-1.85c-.13.18-.26.35-.4.51a9.39,9.39,0,0,0-.91-.85,5.32,5.32,0,0,0,.63-.83h-2.9c0,.55,0,1.08,0,1.61h2.37s0,.35,0,.51c-.08,4.21-.14,5.69-.48,6.13a.93.93,0,0,1-.78.47,9.13,9.13,0,0,1-1.35,0,3,3,0,0,0-.31-1.08c.48,0,.89,0,1.09,0a.38.38,0,0,0,.39-.18c.19-.26.27-1.47.32-4.82h-1.31c-.17,2.4-.57,4.57-1.65,6a3.45,3.45,0,0,0-.88-.82c1.3-1.78,1.44-4.83,1.49-7.94h-1.34v-1.12H138v-2h1.16v2h2.14v1a10.4,10.4,0,0,0,1.17-3l1.2.24c-.13.51-.28,1-.44,1.5h4.36v1.1h-4.82a9.07,9.07,0,0,1-.79,1.38h1V311l1-.46v-2h1V310l1.16-.53.1-.08.21-.14.74.27,0,.17c0,1.85,0,3.34-.05,3.71a.79.79,0,0,1-.57.79,2.88,2.88,0,0,1-1,.1,2.77,2.77,0,0,0-.23-.91c.21,0,.47,0,.57,0s.2,0,.24-.23,0-1.1,0-2.52l-1.13.54V315h-1v-3.27l-1,.46v3.4c0,.5.1.6.79.6Z"/><path d="M156.75,313.09a10.75,10.75,0,0,0,5.32,2.6,6.17,6.17,0,0,0-.77,1.07,11.42,11.42,0,0,1-4.55-2.39v2.83h-1.28v-2.87a11.31,11.31,0,0,1-4.6,2.49,5.57,5.57,0,0,0-.76-1,10.15,10.15,0,0,0,5.36-2.87v-1h-2.89v2.39h-1.27v-3.42h4.16V310h-5V309h5v-.63l-.42-.26a7,7,0,0,0,.74-.71h-2a6.55,6.55,0,0,1,.53,1.07l-1.08.4a7,7,0,0,0-.66-1.47h-.45A10.16,10.16,0,0,1,151,308.8a6.46,6.46,0,0,0-1-.67,7.89,7.89,0,0,0,2-2.9l1.16.3c-.12.28-.25.56-.39.83h3.09v1a6.64,6.64,0,0,0,1.21-2.09l1.17.27a5.81,5.81,0,0,1-.36.86h3.91v1h-2.42a7.24,7.24,0,0,1,.55,1.06l-1.08.35a8.2,8.2,0,0,0-.72-1.41h-.84a7.54,7.54,0,0,1-.63.83h.13V309h4.83V310h-4.83v.84h4.13v2.29c0,.55-.12.79-.5.95a4.82,4.82,0,0,1-1.66.17,5.17,5.17,0,0,0-.42-1c.48,0,1,0,1.13,0s.21,0,.21-.17v-1.26h-2.89Z"/><path d="M171.5,313.93c.91,1.23,2.48,2,4.66,2.26a4.34,4.34,0,0,0-.72,1.05c-2.54-.43-4.19-1.44-5.19-3.24-.7,1.25-2.13,2.38-5,3.2a4.76,4.76,0,0,0-.74-1c2.39-.61,3.67-1.43,4.36-2.31H164.7v-1.06h4.74a4.77,4.77,0,0,0,.2-1h-3.47v-1h3.48v-1H166v-.75h-1.11v-2.6h4.83v-1.2h1.24v1.2h4.84v2.6h-1v.75h-3.89v1h3.68v1h-3.69a7.25,7.25,0,0,1-.16,1H176v1.06Zm-1.85-5.09v-.92h1.22v.92h3.66v-1.29H166v1.29Z"/><path d="M183.2,308.48a19.26,19.26,0,0,1-1.42,2v6.77h-1.21v-5.43a16.86,16.86,0,0,1-1.29,1.17,6,6,0,0,0-.83-1,13.72,13.72,0,0,0,3.6-3.9Zm-.5-2.73a17,17,0,0,1-3.43,3.29,5.43,5.43,0,0,0-.69-1,11.88,11.88,0,0,0,3-2.79Zm7.8,5h-1.87v5c0,.68-.16,1-.65,1.23a8.16,8.16,0,0,1-2.46.2,4.61,4.61,0,0,0-.39-1.21c.84,0,1.71,0,1.94,0s.33-.07.33-.25v-5h-4.11v-1.16h7.21Zm-.36-3.55h-6.31V306h6.31Z"/><circle class="cls-3" cx="162.37" cy="271.15" r="62.06"/><rect class="cls-10" x="110.02" y="252.59" width="22.03" height="15.31" rx="2" transform="translate(-73.68 49.38) rotate(-17.78)"/><path class="cls-14" d="M120.33,264.07a.6.6,0,0,1-.58-.41L118,258.12a.57.57,0,0,1,.08-.54.64.64,0,0,1,.48-.25l.14,0,5.68,1.23a.59.59,0,0,1,.44.4.58.58,0,0,1-.13.59l-3.9,4.31a.61.61,0,0,1-.44.19Z"/><path d="M118.55,257.83h0l5.68,1.23s.06,0,.08.07a.1.1,0,0,1,0,.1l-3.9,4.3a.09.09,0,0,1-.07,0,.1.1,0,0,1-.1-.07L118.45,258a.08.08,0,0,1,0-.09.1.1,0,0,1,.08-.05m0-1a1.11,1.11,0,0,0-1,1.45l1.77,5.53a1.11,1.11,0,0,0,1.06.76,1.07,1.07,0,0,0,.81-.36l3.91-4.3a1.11,1.11,0,0,0-.59-1.82l-5.68-1.23-.23,0Z"/><path class="cls-3" d="M157.32,238.09s-2,17.4-19.51,8a4.94,4.94,0,0,0,5.33-.84,12.82,12.82,0,0,1-3.3-3.58,5.75,5.75,0,0,0,2.18-.07,5.32,5.32,0,0,1-3.09-4.85,9.26,9.26,0,0,0,2.46.85,8.41,8.41,0,0,1-1.19-5.83s5.05,6,8.56,5.76c0,0,0-5.19,4.7-4.84,0,0,2.6,0,3.58,1.9l2.46.84-1.9,1,1.69.28Z"/><rect class="cls-3" x="141.2" y="269.09" width="15.13" height="15.13" rx="2" transform="translate(114.59 -35.6) rotate(22.02)"/><circle class="cls-15" cx="148.06" cy="277.97" r="4.11"/><circle class="cls-15" cx="154.24" cy="274.08" r="1.32"/><path class="cls-10" d="M179.74,283.92,167,258.67a3.16,3.16,0,0,1,2-4.46l25.46-7a3.16,3.16,0,0,1,3.68,1.65l16.66,35.78c1,2.28,2.29,4.32-2.54,5.33l-25.11,5.23"/><path class="cls-3" d="M187.93,249s-6.55-7.65-7.65-8.19c-.57-.29-1.81.73-2,1.35a2,2,0,0,0,.66,1.66l4.31,5.1"/><line class="cls-3" x1="172.36" y1="257.42" x2="187.11" y2="253.05"/><path class="cls-3" d="M190.66,251.68l2.12-.6a2.23,2.23,0,0,1,2.57,1.06l1.87,3.37"/><circle class="cls-8" cx="188.2" cy="268.35" r="2.73"/><polyline class="cls-8" points="211.21 278.01 185.54 284.62 187.32 292.49 215.52 287.92"/><path class="cls-3" d="M198.1,248.84l16.66,35.78c1,2.28,2.29,4.32-2.54,5.33"/><rect class="cls-8" x="176.95" y="282.92" width="10.96" height="14.06" rx="5.48" transform="translate(-87.18 78.62) rotate(-19.73)"/><path d="M48.46,197.15a13.5,13.5,0,0,1-1.7,5.06,6.64,6.64,0,0,0,2.91,2.32,4.43,4.43,0,0,0-.82,1.06A7.63,7.63,0,0,1,46,203.25a8.82,8.82,0,0,1-3.5,2.43,5.32,5.32,0,0,0-.75-1.07,7.79,7.79,0,0,0,3.56-2.42,14.59,14.59,0,0,1-1.36-3.48,7.31,7.31,0,0,1-.76,1.12,8.54,8.54,0,0,0-.72-.53v.44H41.28v-.46H39.1v2.95c0,.42.09.48.59.48h1.6c.44,0,.52-.2.57-1.45a3.31,3.31,0,0,0,1.08.47c-.14,1.68-.47,2.12-1.54,2.12H39.55c-1.26,0-1.61-.34-1.62-1.61v-4.06h3.36V195.9H37.92v-1.14h4.53v3.88a12.38,12.38,0,0,0,1.95-4.95l1.26.23a18.61,18.61,0,0,1-.57,2.08h4.4v1.16Zm-3.74,0a14.43,14.43,0,0,0,1.31,3.9,12.33,12.33,0,0,0,1.2-3.91Z"/><path d="M63.29,200.42v1l-11.6,0v-1h2.49a4.89,4.89,0,0,0-.61-1.09l.72-.17h-2.2v-.89l4.74,0v-.72H53.25v-.88h3.57V196h-4.4v-.9h2.34a6.12,6.12,0,0,0-.62-1.11l1.09-.3A4.84,4.84,0,0,1,56,195l-.2.07h3.09l-.07,0a10.53,10.53,0,0,0,.73-1.41l1.26.24a11.67,11.67,0,0,1-.74,1.18h2.43v.9H58.05v.7h3.66v.88H58.06v.73h4.86v.9H60.69l.75.14c-.26.43-.5.82-.71,1.12ZM53.45,202l8.13,0v3.51H60.35v-.36H54.66v.41h-1.2Zm1.2.93v1.25h5.69V203Zm.1-3.79a5.08,5.08,0,0,1,.64,1.14l-.43.12h1.87v-1.26Zm3.31,0v1.26h2l-.5-.09a9.47,9.47,0,0,0,.65-1.17Z"/><path d="M75.77,204.47c.54,0,.65-.24.71-1.44a3.06,3.06,0,0,0,1,.43c-.14,1.57-.47,2-1.63,2H73.39c-1.4,0-1.77-.33-1.77-1.63V201l-.67.33-.45-1,1.12-.52V198a5.08,5.08,0,0,1-.41.51,7.42,7.42,0,0,0-.91-.84,6.18,6.18,0,0,0,.64-.84H68c0,.54,0,1.08,0,1.61h2.38s0,.35,0,.5c-.07,4.21-.13,5.7-.47,6.14a.92.92,0,0,1-.78.47,9.13,9.13,0,0,1-1.35,0,2.79,2.79,0,0,0-.31-1.08c.48,0,.9,0,1.09,0a.38.38,0,0,0,.39-.18c.19-.26.27-1.47.31-4.83H67.93c-.16,2.4-.56,4.57-1.64,6.05a3.14,3.14,0,0,0-.88-.82c1.29-1.78,1.43-4.84,1.47-8H65.54v-1.12H67.7v-2h1.16v2H71v1a10.4,10.4,0,0,0,1.17-3l1.19.24c-.13.51-.27,1-.44,1.5l4.37,0v1.11H72.47a8.3,8.3,0,0,1-.79,1.38h1v1.46l1-.46v-2h1v1.49l1.16-.54.1-.08.21-.14.74.27,0,.17c0,1.84,0,3.34,0,3.7a.79.79,0,0,1-.56.8,2.91,2.91,0,0,1-1,.1,3.38,3.38,0,0,0-.23-.91c.2,0,.46,0,.57,0s.19,0,.23-.23,0-1.1,0-2.52l-1.13.54v3.76h-1V200l-1,.47v3.4c0,.5.1.59.79.59Z"/><path d="M86.17,201.4A10.73,10.73,0,0,0,91.5,204a6.17,6.17,0,0,0-.77,1.07,11.22,11.22,0,0,1-4.55-2.38v2.83H84.9v-2.88a11.22,11.22,0,0,1-4.6,2.51,4.81,4.81,0,0,0-.75-1,10.07,10.07,0,0,0,5.35-2.89v-1H82v2.4H80.73V199.2h4.16v-.85l-5,0V197.3h5v-.62l-.41-.26a8.22,8.22,0,0,0,.74-.72h-2a6,6,0,0,1,.54,1.07l-1.08.4A8.22,8.22,0,0,0,82,195.7h-.46a10.26,10.26,0,0,1-1.15,1.42,5.54,5.54,0,0,0-1-.67,7.84,7.84,0,0,0,2-2.91l1.16.3c-.12.29-.25.56-.39.83h3.09v1a6.86,6.86,0,0,0,1.2-2.1l1.17.27a5.81,5.81,0,0,1-.36.86h3.91v1H88.75a6.71,6.71,0,0,1,.54,1.07l-1.07.35a7.86,7.86,0,0,0-.72-1.41h-.85a7.47,7.47,0,0,1-.62.83h.13v.77H91v1.05H86.17v.85h4.12v2.28c0,.55-.11.8-.49.95a4.78,4.78,0,0,1-1.66.18,5.17,5.17,0,0,0-.42-1c.48,0,1,0,1.13,0s.21,0,.21-.17v-1.26H86.17Z"/><path d="M54.19,218.24v3.37c0,.6-.11.92-.45,1.11a3.88,3.88,0,0,1-1.69.24,3.55,3.55,0,0,0-.33-1.12h1.15c.15,0,.22,0,.22-.24v-3l-1.36.42-.28-1.17,1.64-.45v-2.61H51.56v-1.12h1.51v-2.51h1.11v2.51h1.38v1.12H54.18v2.28l1.25-.36.17,1.09ZM60,221.75a6.46,6.46,0,0,0,1.08.06c.38,0,2.07,0,2.55,0a3.91,3.91,0,0,0-.33,1.07H61.06c-1.81,0-3.16-.32-4-2a5.66,5.66,0,0,1-1.46,2.22,5.16,5.16,0,0,0-.91-.72,5.92,5.92,0,0,0,1.88-4.19l1.1.12a13.38,13.38,0,0,1-.25,1.37,3,3,0,0,0,1.46,1.79v-3.8H55.74v-1l7.5,0v1H60V219h2.6v1H60Zm2.56-5.91-6.21,0v-4.32h6.21Zm-1.16-3.43H57.45v.86H61.4Zm0,1.68H57.45V215H61.4Z"/><path d="M73,220a12.29,12.29,0,0,0,4.62,1.88,5.45,5.45,0,0,0-.76,1,11.71,11.71,0,0,1-4.79-2.47V223H70.88v-2.56a11.77,11.77,0,0,1-4.67,2.42,5.32,5.32,0,0,0-.75-1A11.64,11.64,0,0,0,70,220H65.72v-1h5.15v-1h1.21v1h5.26v1Zm-5.47-3.45c.34-.37.72-.84,1.12-1.33H65.93v-1h3.48l.82-1.12,1.13.32c-.18.26-.38.52-.58.8l6.33,0v1H74.72a4.24,4.24,0,0,1-1.23,1.59c1.17.31,2.23.65,3,.94l-.73.85a29.84,29.84,0,0,0-3.46-1.11,17.92,17.92,0,0,1-5.66,1.07,3.21,3.21,0,0,0-.4-.94,25.42,25.42,0,0,0,4.37-.57c-.6-.15-1.18-.28-1.74-.4l-.22.26Zm-.37-2.58H66.06V212l4.82,0v-.92h1.21V212H77v1.91H75.82V213l-8.65,0ZM70,215.17c-.16.23-.35.45-.51.67.83.15,1.74.34,2.65.56a3.11,3.11,0,0,0,1.26-1.23Z"/><circle class="cls-3" cx="63.06" cy="170.18" r="62.06"/><polygon class="cls-2" points="98.78 141.28 85.07 157.08 69.56 160.18 71.36 145.67 78.42 136.64 98.78 141.28"/><line class="cls-16" x1="78.4" y1="125.3" x2="78.45" y2="147.97"/><line class="cls-16" x1="77.55" y1="129.08" x2="79.26" y2="129.08"/><line class="cls-16" x1="77.57" y1="136.64" x2="79.28" y2="136.64"/><line class="cls-16" x1="77.56" y1="132.86" x2="79.27" y2="132.86"/><line class="cls-16" x1="77.58" y1="140.42" x2="79.29" y2="140.41"/><line class="cls-16" x1="77.59" y1="144.2" x2="79.3" y2="144.19"/><line class="cls-16" x1="56.97" y1="141.03" x2="78.55" y2="147.98"/><line class="cls-16" x1="60.31" y1="143" x2="60.83" y2="141.38"/><line class="cls-16" x1="67.5" y1="145.32" x2="68.02" y2="143.7"/><line class="cls-16" x1="63.9" y1="144.16" x2="64.43" y2="142.54"/><line class="cls-16" x1="71.1" y1="146.48" x2="71.62" y2="144.85"/><line class="cls-16" x1="74.69" y1="147.64" x2="75.21" y2="146.01"/><line class="cls-16" x1="65.13" y1="166.3" x2="78.41" y2="147.93"/><line class="cls-16" x1="68.04" y1="163.74" x2="66.66" y2="162.74"/><line class="cls-16" x1="72.46" y1="157.61" x2="71.08" y2="156.61"/><line class="cls-16" x1="70.25" y1="160.68" x2="68.87" y2="159.68"/><line class="cls-16" x1="74.68" y1="154.55" x2="73.29" y2="153.55"/><line class="cls-16" x1="76.89" y1="151.49" x2="75.51" y2="150.49"/><line class="cls-16" x1="91.75" y1="166.23" x2="78.38" y2="147.93"/><line class="cls-16" x1="90.21" y1="162.68" x2="88.84" y2="163.68"/><line class="cls-16" x1="85.76" y1="156.58" x2="84.38" y2="157.58"/><line class="cls-16" x1="87.99" y1="159.63" x2="86.61" y2="160.63"/><line class="cls-16" x1="83.53" y1="153.53" x2="82.15" y2="154.53"/><line class="cls-16" x1="81.3" y1="150.48" x2="79.92" y2="151.48"/><line class="cls-16" x1="99.9" y1="140.92" x2="78.36" y2="147.98"/><line class="cls-16" x1="96.04" y1="141.29" x2="96.57" y2="142.91"/><line class="cls-16" x1="88.86" y1="143.64" x2="89.39" y2="145.26"/><line class="cls-16" x1="92.45" y1="142.47" x2="92.98" y2="144.09"/><line class="cls-16" x1="85.27" y1="144.82" x2="85.8" y2="146.44"/><line class="cls-16" x1="81.68" y1="146" x2="82.21" y2="147.62"/><path class="cls-17" d="M76.62,126.51l-18.06,13.2a3,3,0,0,0-1.08,3.35l7,21.25a3,3,0,0,0,2.86,2.07l22.37-.06a3,3,0,0,0,2.84-2.08L99.37,143a3,3,0,0,0-1.1-3.35L80.15,126.5A3,3,0,0,0,76.62,126.51Z"/><line class="cls-3" x1="96.12" y1="132.83" x2="96.36" y2="128"/><line class="cls-3" x1="99.08" y1="133.48" x2="103.13" y2="127.88"/><line class="cls-3" x1="101.07" y1="136.43" x2="104.87" y2="133.88"/><polygon class="cls-2" points="18.17 173.78 39.48 160.77 60.34 171.39 32.18 187.98 18.17 173.78"/><polyline class="cls-3" points="23.43 160.76 23.49 182.11 57.28 182.02"/><path class="cls-3" d="M26.4,175.77s3-7.67,10.09-8c5.6-.27,6.63,4.06,10.29,4.9s7.86-2.72,9.92-9.46"/><line class="cls-3" x1="80.8" y1="164.28" x2="95.32" y2="187.18"/><rect class="cls-3" x="77.27" y="158.67" width="3.8" height="6.08" rx="1.9" transform="translate(-74.4 67.71) rotate(-32.44)"/><path class="cls-18" d="M242.62,51A37.51,37.51,0,0,1,274,69a4.3,4.3,0,0,0,4.25,2.1l5.83-.76a1.72,1.72,0,0,1,1.72,2.57L276.7,88.79a5.06,5.06,0,0,1-2.05,2.3c-1.32.59-2.85,0-4.16-.66l-18.93-9a1.37,1.37,0,0,1,.32-2.59c3.24-.63,7.08-1.27,8.52-2.89,2.22-2.47-2.28-17-18.11-23.19A.9.9,0,0,1,242.62,51Z"/><path class="cls-19" d="M284.05,247.57A37.52,37.52,0,0,1,266,279a4.27,4.27,0,0,0-2.1,4.24l.76,5.83a1.72,1.72,0,0,1-2.57,1.72l-15.87-9.13a5.06,5.06,0,0,1-2.3-2c-.59-1.32,0-2.84.66-4.16l9-18.93a1.37,1.37,0,0,1,2.59.32c.63,3.25,1.27,7.08,2.89,8.53,2.47,2.21,17-2.28,23.19-18.12A.91.91,0,0,1,284.05,247.57Z"/><path class="cls-20" d="M85.41,289A37.5,37.5,0,0,1,54,271a4.31,4.31,0,0,0-4.25-2.09l-5.83.76a1.73,1.73,0,0,1-1.72-2.57l9.13-15.88a5.09,5.09,0,0,1,2.05-2.29c1.32-.6,2.85,0,4.16.66l18.93,9a1.37,1.37,0,0,1-.32,2.59c-3.25.63-7.08,1.26-8.52,2.88-2.22,2.48,2.28,17,18.11,23.2A.9.9,0,0,1,85.41,289Z"/><path class="cls-21" d="M44,92.44A37.52,37.52,0,0,1,62,61a4.28,4.28,0,0,0,2.1-4.24L63.33,51a1.73,1.73,0,0,1,2.57-1.72l15.87,9.13a5.06,5.06,0,0,1,2.3,2c.59,1.33,0,2.85-.66,4.16l-9,18.94a1.38,1.38,0,0,1-2.59-.33c-.63-3.24-1.27-7.07-2.89-8.52-2.47-2.22-17,2.28-23.19,18.11A.9.9,0,0,1,44,92.44Z"/></g></g></svg>