<svg xmlns="http://www.w3.org/2000/svg" viewBox="0 0 270 200.62"><defs><style>.cls-1{fill:#fff;stroke-linecap:round;stroke-linejoin:round;}.cls-1,.cls-2{stroke:#000;stroke-width:2px;}.cls-2{fill:#ff8b00;stroke-miterlimit:10;}.cls-3{isolation:isolate;}</style></defs><g id="レイヤー_2" data-name="レイヤー 2"><g id="レイヤー_1-2" data-name="レイヤー 1"><path id="長方形_74" data-name="長方形 74" class="cls-1" d="M7.69,1H262.31A6.78,6.78,0,0,1,269,7.87V192.74a6.78,6.78,0,0,1-6.69,6.88H7.69A6.78,6.78,0,0,1,1,192.74V7.87A6.78,6.78,0,0,1,7.69,1Z"/><circle id="楕円形_31" data-name="楕円形 31" class="cls-2" cx="42.49" cy="89.74" r="6.34"/><circle id="楕円形_32" data-name="楕円形 32" class="cls-2" cx="42.1" cy="117.76" r="6.34"/><circle id="楕円形_33" data-name="楕円形 33" class="cls-2" cx="42.1" cy="145.77" r="6.34"/><circle id="楕円形_34" data-name="楕円形 34" class="cls-2" cx="42.1" cy="173.78" r="6.34"/><g id="施策実行" class="cls-3"><g class="cls-3"><path d="M33.23,33.28v6c0,.46.09.67.32.76a6.76,6.76,0,0,0,2,.18c3.22,0,3.78,0,4.1-.32s.41-.83.46-2.51a8.58,8.58,0,0,0,2.3.72c-.19,2.13-.51,3.15-1.2,3.7s-1.49.66-5.2.66c-4.09,0-5-.41-5-2.2V33.9a6.34,6.34,0,0,0-.76.3l-.57-2.34.25-.05A6.84,6.84,0,0,0,31,31.56V30.43c0-.34,0-.55,0-.89-.21.27-.3.39-.58.73a7.11,7.11,0,0,0-1.75-1.79,14.36,14.36,0,0,0,1-1.22,14.6,14.6,0,0,0-1.61-.05H25.64c0,2.14,0,2.14-.05,2.49h2.16a11.69,11.69,0,0,0,1.75-.1c0,.19,0,1,0,1.18v1c0,1.45-.1,4.44-.19,5.77-.18,2.51-.44,3.73-.94,4.33a2.59,2.59,0,0,1-2,.59l-.83,0a5.27,5.27,0,0,0-.62,0A7.57,7.57,0,0,0,24.37,40a2.49,2.49,0,0,0,.33.07,8.21,8.21,0,0,0,1.26.14c.64,0,.76-.19,1-1.47a55.53,55.53,0,0,0,.39-6.86H25.5a33.83,33.83,0,0,1-.78,5.68,14.62,14.62,0,0,1-2.28,5.29,8.65,8.65,0,0,0-1.75-2.09,13.24,13.24,0,0,0,2.23-6.51,44.59,44.59,0,0,0,.42-7.06h-.25a12.56,12.56,0,0,0-1.89.12V24.84a10.41,10.41,0,0,0,2.12.14h1.31V23.79a13,13,0,0,0-.14-2H27.2a12.7,12.7,0,0,0-.11,2V25h1a13.07,13.07,0,0,0,2.09-.11v1.77a16.18,16.18,0,0,0,2.25-5l2.6.51a4.2,4.2,0,0,0-.39.87L34,24.36H39.9a14.71,14.71,0,0,0,2.36-.14v2.49c-.55-.05-1.51-.1-2.34-.1h-7c-.44.74-.76,1.27-1.29,2.05h1.7a9.52,9.52,0,0,0-.11,1.79V31L35,30.48V29.24A16.76,16.76,0,0,0,35,27.33h2.37a8.88,8.88,0,0,0-.14,1.79v.78l2.32-.64c.12,0,.4-.12.81-.25l.55-.19a2.56,2.56,0,0,0,.71-.23c-.11,5.59-.23,7-.59,7.82s-.81.9-2.1.9l-.89,0a7.52,7.52,0,0,0-.53-2.16,4.79,4.79,0,0,0,1.1.14c.48,0,.55-.14.65-1.1.06-.81.09-1.61.09-2.6l-2.12.6v4.09a14.06,14.06,0,0,0,.09,1.91H35A13.51,13.51,0,0,0,35,36.25v-3.5Z"/><path d="M50.36,25.53A13.28,13.28,0,0,1,48,28a10.14,10.14,0,0,0-1.63-1.73A9.48,9.48,0,0,0,50,21.6l2.46.44c-.09.16-.32.62-.74,1.38h3.08A15.84,15.84,0,0,0,57,23.28v1.61a7.75,7.75,0,0,0,1.74-3.29l2.46.44c-.46,1-.46,1-.66,1.4h4.53a18.17,18.17,0,0,0,2.53-.14v2.37a18.57,18.57,0,0,0-2.42-.11H63.29c.34.55.64,1.1,1,1.75l-2.32.61a15.17,15.17,0,0,0-1.1-2.36H59.31A11.34,11.34,0,0,1,58,27.19h.35a7.55,7.55,0,0,0-.12,1.24H65a13.18,13.18,0,0,0,2.46-.16v2.39A18.14,18.14,0,0,0,65,30.55H58.2V31.7h5.22c1.15,0,1.87-.05,2.14-.1a14.42,14.42,0,0,0-.09,1.91v2.16a1.55,1.55,0,0,1-.67,1.5,3.73,3.73,0,0,1-1.7.25c-.41,0-1,0-1.61-.07a6,6,0,0,0-.46-2,12.13,12.13,0,0,0,1.45.14c.48,0,.65-.09.65-.44V33.72H58.2v.83a14.73,14.73,0,0,0,4.53,3.65,24.4,24.4,0,0,0,5.06,1.89,9.25,9.25,0,0,0-1.65,2.28,23.84,23.84,0,0,1-4.49-2.12,14.44,14.44,0,0,1-2.09-1.56,7.81,7.81,0,0,1-1.45-1.54c0,.76,0,1.05,0,1.68l0,1.74A11.17,11.17,0,0,0,58.37,43H55.56a13.39,13.39,0,0,0,.18-2.16v-.25l0-1.68c0-.3,0-1,.07-1.61a12.92,12.92,0,0,1-3.59,3.2,25.68,25.68,0,0,1-3.86,1.91,8.8,8.8,0,0,0-1.77-2.21,26,26,0,0,0,4.83-2A16.82,16.82,0,0,0,54,36.3a9,9,0,0,0,1.68-1.75v-.83H51.24v2a12.46,12.46,0,0,0,.09,1.87H48.75a17.51,17.51,0,0,0,.12-2.12v-2a15.21,15.21,0,0,0-.09-1.87,16.32,16.32,0,0,0,2,.1h4.94V30.55H49.44c-.94,0-1.72,0-2.43.11V28.27a14.09,14.09,0,0,0,2.43.16h6.28a8.44,8.44,0,0,0-.11-1.24h1.54A8.32,8.32,0,0,0,55.84,26c.25-.21.32-.28.5-.44a8.13,8.13,0,0,0-1,0H54c.39.67.53.95.92,1.73l-2.25.64a17.69,17.69,0,0,0-1-2.37Z"/><path d="M76.74,29.79a13,13,0,0,0-2.16.11V28.68H72.47a9.11,9.11,0,0,0,.11-1.7v-1.7a14,14,0,0,0-.09-1.72,24.92,24.92,0,0,0,2.53.09h6v-.53a7.36,7.36,0,0,0-.14-1.45h2.83a7.08,7.08,0,0,0-.12,1.45v.53h6.3c1.18,0,1.77,0,2.56-.09a12.86,12.86,0,0,0-.1,1.68V27a12.25,12.25,0,0,0,.1,1.7H90.31V29.9a13.35,13.35,0,0,0-2.18-.11H83.5c0,.73,0,.73,0,1.26h4.3a14.17,14.17,0,0,0,2-.09v2.19a14.61,14.61,0,0,0-2-.1H83.32c-.07.58-.09.76-.18,1.25h7.17a15.84,15.84,0,0,0,2.37-.12v2.41a20.66,20.66,0,0,0-2.48-.13H84.33a7.86,7.86,0,0,0,2.14,1.93,14.57,14.57,0,0,0,4,1.56c.57.16,1.29.3,2.55.53A9,9,0,0,0,91.88,43a21.83,21.83,0,0,1-4.3-1.33,12.08,12.08,0,0,1-5.45-4.37,9,9,0,0,1-3.36,3.61,15,15,0,0,1-5.61,2.07,7.6,7.6,0,0,0-1.22-2.39,14.21,14.21,0,0,0,5-1.4,6.82,6.82,0,0,0,2.92-2.69H74.77a21.5,21.5,0,0,0-2.46.13V34.18a14.92,14.92,0,0,0,2.32.12h6a11.17,11.17,0,0,0,.21-1.25H77a14.75,14.75,0,0,0-2.07.1V31a14.58,14.58,0,0,0,2.07.09h4c0-.64,0-.64,0-1.26Zm4.33-2c0-.73,0-1-.09-1.47h2.66a7.29,7.29,0,0,0-.09,1.47h4.58c.87,0,1.24,0,1.81-.06V25.81H75V27.7c.42,0,.92.06,1.77.06Z"/><path d="M100.37,36c0-1,0-1.1,0-2.67a11.5,11.5,0,0,1-2.09,2,10.76,10.76,0,0,0-1.15-2.46,16.68,16.68,0,0,0,5.66-6.07L105,28.13a8.67,8.67,0,0,0-.76,1c-.53.76-.74,1.06-1.34,1.8V40a18.94,18.94,0,0,0,.17,2.9H100.2a19.14,19.14,0,0,0,.17-2.92Zm4.27-12.85c-.25.27-.25.27-.69.78a21.81,21.81,0,0,1-5.29,4.6,10.19,10.19,0,0,0-1.45-2.16,14.58,14.58,0,0,0,4.12-3.15,7.7,7.7,0,0,0,1.1-1.61ZM107.75,31a22.67,22.67,0,0,0-2.83.14V28.57a23.92,23.92,0,0,0,2.83.14h7.82a20.49,20.49,0,0,0,2.8-.14v2.58a22.09,22.09,0,0,0-2.74-.14h-1v9.15c0,2-.67,2.46-3.45,2.46-.79,0-1.48,0-2.56-.07A8.93,8.93,0,0,0,108,40a27.09,27.09,0,0,0,3.12.25c.92,0,1,0,1-.55V31Zm-1.91-8.28a19.87,19.87,0,0,0,2.69.14h6.21a19.74,19.74,0,0,0,2.62-.14v2.55a23.22,23.22,0,0,0-2.58-.14h-6.25a23.94,23.94,0,0,0-2.69.14Z"/></g></g><g id="戦略に基づいた緻密な運用を行います" class="cls-3"><g class="cls-3"><path d="M26.16,63.87v1.86h-1V63.87H22.77V63h2.41v-.81h-2v-4h5v4h-2V63h2.36v.92ZM23.5,58a6.39,6.39,0,0,0-.71-1.84l.84-.26a5.71,5.71,0,0,1,.76,1.78ZM24,59.78h1.22V59H24Zm0,1.58h1.22v-.84H24Zm1.24-3.63a8.2,8.2,0,0,0-.46-1.87l.86-.2a7.7,7.7,0,0,1,.52,1.84ZM27.31,59H26.1v.82h1.21Zm0,1.56H26.1v.84h1.21ZM28.63,56a19.69,19.69,0,0,1-1.18,2.11l-.82-.27a10.74,10.74,0,0,0,.95-2.14Zm3.95,4.2a11.11,11.11,0,0,1-1.54,3c.25.83.54,1.32.87,1.34s.35-.55.43-1.57a2.89,2.89,0,0,0,.74.57c-.25,1.75-.72,2.22-1.17,2.19-.69,0-1.21-.61-1.6-1.64a7.68,7.68,0,0,1-2.08,1.65A3.12,3.12,0,0,0,27.5,65,7.3,7.3,0,0,0,30,63a24.87,24.87,0,0,1-.5-3.34l-1.08.14-.12-1,1.12-.13c-.06-1-.12-2-.15-3h1c0,1,.05,2,.12,2.93l2.45-.3.12.95-2.48.3a22.87,22.87,0,0,0,.31,2.4,9.39,9.39,0,0,0,1-2.22Zm-.66-2.11a7.34,7.34,0,0,0-1.16-1.87l.78-.41a8,8,0,0,1,1.21,1.82Z"/><path d="M44.54,57a8.31,8.31,0,0,1-1.8,2.81,8,8,0,0,0,2.5,1.41,3.57,3.57,0,0,0-.66.86l-.23-.1v3.66h-1v-.34h-2.7v.35h-1V62.05l-.41.19a4,4,0,0,0-.32-.48v1.75H36.05v.95h-.77V56.27H39V58.5A7.6,7.6,0,0,0,41,55.6l.95.28c-.12.29-.26.59-.41.88H43.7l.18,0Zm-8.49.13v2.17h.72V57.17Zm0,5.46h.72V60.2h-.72Zm2.12-5.46h-.74v2.17h.74Zm0,5.46V60.2h-.74v2.43Zm.8-1.31a9.11,9.11,0,0,0,2.42-1.48,9,9,0,0,1-1-1.34,7.74,7.74,0,0,1-1,1c-.1-.12-.28-.29-.46-.46Zm4.78.4a9.07,9.07,0,0,1-1.69-1.21,10.76,10.76,0,0,1-1.73,1.21Zm-.39,2.72V62.62h-2.7v1.82Zm-2.31-6.82-.1.14a7.77,7.77,0,0,0,1.1,1.44,7.06,7.06,0,0,0,1.16-1.58Z"/><path d="M49.51,56.55a7,7,0,0,0-.23.84,25.33,25.33,0,0,0-.54,4.1,8.83,8.83,0,0,0,.07,1.14c.17-.44.39-1,.55-1.36l.58.44a19.24,19.24,0,0,0-.78,2.54,1.75,1.75,0,0,0-.06.5c0,.11,0,.27,0,.4l-1,.07a13.62,13.62,0,0,1-.42-3.52,31,31,0,0,1,.48-4.35,8.54,8.54,0,0,0,.1-.9ZM52,61.87a4.19,4.19,0,0,0-.14,1c0,.5.37.88,1.69.88a12.81,12.81,0,0,0,2.72-.28l0,1.16a14.15,14.15,0,0,1-2.77.22c-1.84,0-2.7-.64-2.7-1.69A6.55,6.55,0,0,1,51,61.79ZM56,57.33v1.12a27.89,27.89,0,0,1-4.57,0V57.34A19.94,19.94,0,0,0,56,57.33Z"/><path d="M66.53,61.69a6.09,6.09,0,0,0,2.33,1.49,4,4,0,0,0-.67.8,7.18,7.18,0,0,1-2.78-2.29H62.14a7.71,7.71,0,0,1-1,1.11h2V62h1v.83h2.17v.81H64.22v1h3.69v.85H59.63v-.85h3.55v-1h-2.1v-.72a7.9,7.9,0,0,1-1.82,1.21,3.11,3.11,0,0,0-.66-.78A6.62,6.62,0,0,0,61,61.69H58.71v-.85h2.14v-3.4h-1.6V56.6h1.6v-1h1v1h3.74v-.94h1v.94h1.57v.84H66.66v3.4h2.07v.85Zm-4.66-4.25v.62h3.74v-.62Zm0,2h3.74v-.62H61.87Zm0,1.41h3.74v-.66H61.87Z"/><path d="M72,58.86a17.18,17.18,0,0,1,4.66-1.07c1.87,0,3.36,1.09,3.36,3,0,2.56-2.5,4-6.06,4.15l-.49-1.15c2.89-.07,5.32-.93,5.32-3a1.93,1.93,0,0,0-2.17-1.93,17.53,17.53,0,0,0-5.38,1.55l-.49-1.21C71.13,59.1,71.58,59,72,58.86Zm7.43-1.2L78.7,58a15,15,0,0,0-.89-1.54l.72-.3C78.8,56.55,79.2,57.23,79.42,57.66Zm1.27-.48L80,57.5a11.27,11.27,0,0,0-.9-1.52l.7-.3A12.78,12.78,0,0,1,80.69,57.18Z"/><path d="M84.4,58.31a23.6,23.6,0,0,0,.08,2.45c.16,1.72.6,2.86,1.33,2.86.55,0,1-1.19,1.26-2.19l.88,1C87.26,64.33,86.59,65,85.79,65c-1.1,0-2.12-1.06-2.41-3.93a29,29,0,0,1-.12-2.92,5.18,5.18,0,0,0-.08-1l1.33,0A9.77,9.77,0,0,0,84.4,58.31ZM92,62.84l-1.14.44A10.82,10.82,0,0,0,89,57.77l1.09-.36A11.59,11.59,0,0,1,92,62.84Z"/><path d="M99.88,58.48c-.68.15-1.44.27-2.19.36-.1.47-.22,1-.34,1.42a32.29,32.29,0,0,1-1.72,5l-1.21-.4A24.08,24.08,0,0,0,96.27,60c.1-.33.19-.69.26-1l-.87,0c-.5,0-.9,0-1.29,0l0-1.08a11.19,11.19,0,0,0,1.33.08c.35,0,.71,0,1.09,0,.06-.32.11-.6.14-.8a5.74,5.74,0,0,0,0-1l1.33.1c-.08.27-.16.71-.21.93l-.13.64c.66-.09,1.33-.22,2-.37Zm-.34,3.7a4,4,0,0,0-.16,1c0,.49.27.93,1.65.93a11.43,11.43,0,0,0,2.18-.22l0,1.11a14.69,14.69,0,0,1-2.16.16c-1.77,0-2.68-.58-2.68-1.66a8,8,0,0,1,.16-1.37Zm-.43-2.68a18,18,0,0,1,2-.11,17.33,17.33,0,0,1,1.91.1l0,1a15.78,15.78,0,0,0-3.9,0Z"/><path d="M106.71,62.06a10.74,10.74,0,0,1-.56,2.78,5.17,5.17,0,0,0-.71-.34,9.24,9.24,0,0,0,.49-2.57Zm1.09-.9v4.57H107v-4.5l-1.41.1-.09-.9.7,0c.18-.27.38-.59.58-.92A9.86,9.86,0,0,0,105.54,58l.45-.71.27.27a17.15,17.15,0,0,0,.67-1.88l.87.28c-.31.73-.68,1.59-1,2.18.15.19.28.38.4.55.33-.6.64-1.22.86-1.74l.81.36c-.55,1-1.25,2.16-1.88,3.08L108,60.3c-.12-.3-.26-.59-.4-.87l.71-.26a8.77,8.77,0,0,1,.88,2.24l-.75.31c0-.18-.09-.39-.15-.62Zm.87.74a12.42,12.42,0,0,1,.56,2l-.74.24a11.77,11.77,0,0,0-.52-2Zm6.6-3.22a15.48,15.48,0,0,1-.92,4.14A5.65,5.65,0,0,0,115.82,65a3,3,0,0,0-.68.78,5.83,5.83,0,0,1-1.26-1.91,5.29,5.29,0,0,1-1.75,1.93,3.56,3.56,0,0,0-.68-.73,4.06,4.06,0,0,0,.69-.48c-1.15.22-2.32.44-3.22.59l-.22-.94,1.57-.21V62.4H109v-.86h1.23V60.27h.89v1.27h1.19v.86h-1.19v1.47l1.34-.21,0,.52a5.79,5.79,0,0,0,.93-1.46,20.06,20.06,0,0,1-.55-2.42,5.71,5.71,0,0,1-.45.85,5.56,5.56,0,0,0-.67-.72l.13-.21-.15.06c0-.13-.07-.29-.12-.44l-2.73.31-.15-.88.56,0c.17-.6.37-1.4.49-2.09h-1V56.3h3.62v.84h-1.66c-.19.68-.41,1.43-.64,2l1.2-.09a9.56,9.56,0,0,0-.47-1l.74-.27a12.77,12.77,0,0,1,.69,1.5,15.53,15.53,0,0,0,.69-3.61l.93.12c-.08.67-.18,1.33-.3,2h2.07v.91Zm-1.87.2a18.71,18.71,0,0,0,.51,2.64,16.08,16.08,0,0,0,.55-2.84h-1Z"/><path d="M122.08,61.81a2.52,2.52,0,0,1-1.14-.18,18.28,18.28,0,0,1-2.72,1,4.08,4.08,0,0,0-.58-.84,18.16,18.16,0,0,0,2.9-.92v-2.2h.92V60.4A8.61,8.61,0,0,0,124.53,58l.88.39A9.91,9.91,0,0,1,122.24,61h1.83c.47,0,.55-.13.59-1a2.93,2.93,0,0,0,.84.32c-.11,1.16-.39,1.45-1.33,1.45Zm-2-2.73a4,4,0,0,1-1.49,2.11l-.79-.52a3.55,3.55,0,0,0,1.43-1.91Zm-1-.36h-1v-2.2h4.08v-.88h1v.88h4.16v2.2h-1.05V57.44h-7.24Zm6.45,3.81h1v3.18h-1v-.43H120v.46h-1V62.53h1v1.81h2.18V62h1v2.39h2.32ZM122.9,59.2A8.28,8.28,0,0,0,121,58.06l.49-.59a8.25,8.25,0,0,1,1.92,1.07Zm3-.37a9.73,9.73,0,0,1,1.89,2l-.78.55a10.33,10.33,0,0,0-1.85-2.08Z"/><path d="M135.63,58.35a15,15,0,0,1-1.94.39,19.21,19.21,0,0,1-2.36,4.63l-1.06-.54a16.13,16.13,0,0,0,2.28-4l-.78,0c-.42,0-.87,0-1.31,0l-.08-1c.43,0,1,.06,1.39.06s.73,0,1.12,0a9,9,0,0,0,.32-1.85l1.2.11c-.09.37-.23,1-.4,1.59a9.6,9.6,0,0,0,1.58-.37ZM137,59.49c0,.46,0,.83,0,1.27s0,1,.08,1.6a7.31,7.31,0,0,1,2.25,1.37l-.58.94a8.42,8.42,0,0,0-1.63-1.21v.29c0,.93-.56,1.68-2,1.68-1.27,0-2.29-.54-2.29-1.68s.92-1.74,2.28-1.74a5.41,5.41,0,0,1,.91.07c0-.85-.1-1.88-.12-2.59ZM136,63a3.51,3.51,0,0,0-1-.13c-.72,0-1.2.32-1.2.76s.38.78,1.13.78a1,1,0,0,0,1.09-1A2.75,2.75,0,0,0,136,63Zm3-3.12a13.45,13.45,0,0,0-2.54-1.52l.55-.85A18.53,18.53,0,0,1,139.62,59Z"/><path d="M144,63.42a2.93,2.93,0,0,0,2.57,1.16c1.24.06,3.79,0,5.19-.08a4.51,4.51,0,0,0-.33,1c-1.27.06-3.6.08-4.88,0a3.68,3.68,0,0,1-3-1.27c-.46.45-.94.89-1.48,1.37l-.51-1a13.45,13.45,0,0,0,1.44-1.12V60.85h-1.32v-.94H144Zm-.53-5.1a7.69,7.69,0,0,0-1.69-1.84l.78-.57a8.23,8.23,0,0,1,1.74,1.76Zm4,5.08h-3v-.77h3v-.54h-2.3V59h2.3V58.4h-2.6v-.74h2.6V57h1v.68h2.64v.74h-2.64V59h2.38v3.14h-2.38v.54h3.1v.77h-3.1v.91h-1Zm-2-5.95h-.9V56h6.79v1.45h-1v-.69h-4.94Zm.53,2.75h1.42v-.59H146.1Zm1.42,1.23v-.61H146.1v.61Zm1-1.82v.59H150v-.59ZM150,60.82h-1.46v.61H150Z"/><path d="M163.09,64.45c0,.59-.14.9-.53,1a5.93,5.93,0,0,1-2.06.18,4.15,4.15,0,0,0-.34-1c.7,0,1.43,0,1.64,0s.27-.06.27-.27v-2h-2.66v3.14h-1V62.47h-2.53a6.36,6.36,0,0,1-1.38,3.33,3.24,3.24,0,0,0-.8-.67c1.2-1.33,1.31-3.28,1.31-4.83V56.38h8.1Zm-4.7-3V59.87H156v.44c0,.38,0,.78,0,1.19ZM156,57.36v1.56h2.39V57.36Zm6.07,0h-2.66v1.56h2.66Zm0,4.14V59.87h-2.66V61.5Z"/><path d="M170.89,63.34c0-.38.05-1,.05-1.53-.93.52-1.51,1-1.51,1.65s.7.89,1.8.89a17.93,17.93,0,0,0,3-.29l0,1.11a27.47,27.47,0,0,1-3,.19c-1.63,0-2.89-.37-2.89-1.73s1.31-2.19,2.56-2.82a.84.84,0,0,0-.88-.54,2.75,2.75,0,0,0-1.8.78,10.69,10.69,0,0,0-1,1.17l-.94-.71a11.38,11.38,0,0,0,2.47-3.18h-.32c-.45,0-1.21,0-1.82-.06v-1a15.28,15.28,0,0,0,1.87.12h.64a6.44,6.44,0,0,0,.25-1.31l1.14.09c-.07.29-.16.71-.31,1.18a23.73,23.73,0,0,0,3.22-.32v1a31.2,31.2,0,0,1-3.59.3,8.05,8.05,0,0,1-.82,1.42,3.19,3.19,0,0,1,1.39-.32,1.44,1.44,0,0,1,1.45.92c.67-.32,1.23-.55,1.75-.78.36-.16.68-.3,1-.48l.43,1c-.3.09-.77.26-1.1.4-.56.21-1.26.5-2,.85,0,.62,0,1.49,0,2Z"/><path d="M181,58.34a15,15,0,0,1-1.2,1.69v5.73h-1v-4.6c-.37.36-.74.7-1.09,1a5.64,5.64,0,0,0-.71-.87A11.61,11.61,0,0,0,180,58ZM180.55,56a14.75,14.75,0,0,1-2.9,2.79,4.32,4.32,0,0,0-.59-.83,9.81,9.81,0,0,0,2.51-2.36Zm6.6,4.23h-1.58v4.23c0,.59-.13.88-.55,1.05a7.09,7.09,0,0,1-2.08.16,4.65,4.65,0,0,0-.33-1c.7,0,1.44,0,1.64,0s.27,0,.27-.21V60.26h-3.47v-1h6.1Zm-.31-3h-5.33v-1h5.33Z"/><path d="M191.13,58.31a23.6,23.6,0,0,0,.08,2.45c.17,1.72.61,2.86,1.33,2.86.55,0,1-1.19,1.27-2.19l.88,1c-.7,1.87-1.37,2.52-2.17,2.52-1.1,0-2.11-1.06-2.41-3.93a29,29,0,0,1-.12-2.92,5.18,5.18,0,0,0-.08-1l1.33,0A9.77,9.77,0,0,0,191.13,58.31Zm7.64,4.53-1.14.44a10.82,10.82,0,0,0-1.9-5.51l1.09-.36A11.48,11.48,0,0,1,198.77,62.84Z"/><path d="M208.86,64.81a8.17,8.17,0,0,0-2.44-1.58c0,.22,0,.4,0,.56,0,.82-.59,1.58-2,1.58-1.65,0-2.54-.6-2.54-1.7s1-1.76,2.61-1.76c.27,0,.54,0,.8,0,0-.41,0-.85,0-1.24h-.6c-.69,0-1.92-.06-2.68-.14v-1a18.84,18.84,0,0,0,2.68.21h.56V58.36h-.53a21.54,21.54,0,0,1-2.48-.16v-1a16.66,16.66,0,0,0,2.46.21h.57v-.62c0-.2,0-.52-.05-.69h1.17c0,.2-.06.44-.07.73,0,.13,0,.33,0,.54A26.34,26.34,0,0,0,209,57.1v1c-.79.08-1.71.18-2.74.22v1.39c1.08-.06,2-.16,3-.29v1c-1,.13-1.91.19-3,.24,0,.49.05,1,.08,1.48a8.75,8.75,0,0,1,3.11,1.68Zm-3.54-1.91a5.18,5.18,0,0,0-1-.09c-.92,0-1.41.35-1.41.8s.4.78,1.34.78c.61,0,1.06-.17,1.06-.88C205.33,63.36,205.33,63.15,205.32,62.9Z"/><path d="M221.09,58.49c-.65,0-1.67-.06-3.26-.06,0,.58,0,1.22,0,1.71a2.68,2.68,0,0,1,.39,1.45c0,1.45-.77,3.16-3.36,3.9l-.93-.92a4.33,4.33,0,0,0,2.8-1.57,2,2,0,0,1-.76.15,1.83,1.83,0,0,1-1.83-1.9,2,2,0,0,1,2-2,2,2,0,0,1,.61.08v-.93c-1.65,0-3.44.09-4.79.18l0-1.06c1.23,0,3.25-.07,4.8-.1,0-.23,0-.43,0-.55a6.23,6.23,0,0,0-.09-.79h1.26c0,.14-.06.64-.06.79s0,.32,0,.54h3.26Zm-4.91,3.7c.56,0,1-.45.84-1.48a.91.91,0,0,0-.85-.51,1,1,0,0,0-1,1A.94.94,0,0,0,216.18,62.19Z"/></g></g><g id="広告運用_メディア運営_SNS運用_チャンネル運用" data-name="広告運用 メディア運営 SNS運用 チャンネル運用" class="cls-3"><g class="cls-3"><path d="M64.58,85.09a2.42,2.42,0,0,0,0-.57h1.23a2.34,2.34,0,0,0-.05.59v.48h2.48a8.3,8.3,0,0,0,1.16-.06v1.16a8.37,8.37,0,0,0-1.16,0H62.26c0,3.75-.3,5.4-1.25,7a4.83,4.83,0,0,0-.88-.94c.78-1.29,1-2.61,1-5.76,0-.75,0-1.08,0-1.43a7.7,7.7,0,0,0,1,0h2.45ZM62,92.21h.25l.71,0A20,20,0,0,0,64.63,87l1.27.31c-.08.26-.09.31-.16.54a23.88,23.88,0,0,1-1.6,4.31,31.22,31.22,0,0,0,3.26-.41,17.75,17.75,0,0,0-1.27-2l.94-.53a20.93,20.93,0,0,1,2.25,3.88l-1,.64c-.2-.52-.27-.69-.46-1.1-1.39.27-1.47.28-2.55.42l-2.79.3-.36.06Z"/><path d="M73.18,86.77A6.11,6.11,0,0,1,72.1,88a4.13,4.13,0,0,0-.87-.75,4.93,4.93,0,0,0,1.52-1.86,3.31,3.31,0,0,0,.3-.84l1.16.31-.44.9h1.36v-.35a4.74,4.74,0,0,0-.06-.93H76.3a4.94,4.94,0,0,0-.07.94v.34h2a7.57,7.57,0,0,0,1.09-.06v1.13a7.61,7.61,0,0,0-1.08-.06h-2V88h2.69A8.47,8.47,0,0,0,80.06,88v1.14a9.06,9.06,0,0,0-1.13-.06H72.27a9.58,9.58,0,0,0-1.14.06V88a8.66,8.66,0,0,0,1.1.06h2.9V86.77Zm-1,6.9a8.19,8.19,0,0,0,.06-1.11V90.71a7.56,7.56,0,0,0,0-.95,9.06,9.06,0,0,0,1,0H78a9,9,0,0,0,1,0,7.56,7.56,0,0,0,0,.95v1.86a7.54,7.54,0,0,0,.06,1.1H77.86v-.43H73.38v.43Zm1.16-1.44h4.49V90.8H73.38Z"/><path d="M81.76,88.29a4.61,4.61,0,0,0,.8,0h.73a4.4,4.4,0,0,0,.76,0c0,.31,0,.55,0,1.09v2.24a1.51,1.51,0,0,0,1,.78,9.38,9.38,0,0,0,2.31.15,33.62,33.62,0,0,0,3.77-.16,4.15,4.15,0,0,0-.3,1.06c-1.35,0-2.19.07-3.35.07-.6,0-1.45,0-1.86,0a2.65,2.65,0,0,1-2.12-1.06,8.12,8.12,0,0,1-1.16.94l-.29.23-.49-1.13a6.17,6.17,0,0,0,1.43-1V89.32h-.53a3.89,3.89,0,0,0-.68.05Zm.85-3.71a9.83,9.83,0,0,1,1.49,1.76l-.78.86a8.22,8.22,0,0,0-1.51-1.88Zm3,2.39a5.31,5.31,0,0,0-.74,0v-.36h-.67a3,3,0,0,0,0-.61v-.62a3.39,3.39,0,0,0,0-.66,8.7,8.7,0,0,0,1,0h4.66a8.89,8.89,0,0,0,1,0,3.9,3.9,0,0,0,0,.64V86a3.06,3.06,0,0,0,0,.65h-.72V87a4.81,4.81,0,0,0-.73,0H87.93v.43h1.53a8.09,8.09,0,0,0,.82,0,5.22,5.22,0,0,0,0,.74v1.51a5,5,0,0,0,0,.73c-.33,0-.51,0-.82,0H87.94v.45h2a4,4,0,0,0,.8,0v.94a6,6,0,0,0-.83,0h-2a4.77,4.77,0,0,0,.06.73H86.88a5,5,0,0,0,.06-.73H85.09a4.54,4.54,0,0,0-.8,0v-1a6.43,6.43,0,0,0,.79,0H87v-.45H85.52a6.53,6.53,0,0,0-.8,0,4.68,4.68,0,0,0,0-.73V88.11a4.48,4.48,0,0,0,0-.74c.24,0,.42,0,.8,0h1.42V87Zm1.32-1.31H85.26v.48h1.68ZM85.73,88.1v.44h1.21V88.1Zm0,1.09v.42h1.21v-.42Zm3.72-3h.27v-.49H87.93v.49Zm-1.52,2.39h1.31V88.1H87.93Zm0,1.07h1.31v-.42H87.93Z"/><path d="M94.21,90.55a6.71,6.71,0,0,1-1,3.16,6,6,0,0,0-1-.79A4.57,4.57,0,0,0,93,91.23a10.12,10.12,0,0,0,.2-1.53c0-.84.09-2.26.09-3.44a13.51,13.51,0,0,0,0-1.45c.35,0,.6,0,1.14,0h5.61a11.12,11.12,0,0,0,1.15,0c0,.34,0,.59,0,1.13v6.57c0,.82-.3,1-1.44,1-.31,0-.82,0-1.12,0a4.09,4.09,0,0,0-.28-1c.5,0,.94.08,1.26.08s.5,0,.5-.25V90.55h-2.4v1.64a8.87,8.87,0,0,0,.05,1.19H96.44a8.24,8.24,0,0,0,.06-1.18V90.55Zm2.29-2.36H94.29v.63c0,.47,0,.54,0,.74H96.5Zm0-2.29H94.33v1.31H96.5ZM100,87.21V85.9h-2.4v1.31Zm0,2.35V88.19h-2.4v1.37Z"/></g><g class="cls-3"><path d="M67.54,112.33a6.11,6.11,0,0,0-.35.72,16.65,16.65,0,0,1-1.41,2.83A24,24,0,0,1,68,118l-1,1a14.87,14.87,0,0,0-2-2.11,11.47,11.47,0,0,1-1.56,1.67,12.7,12.7,0,0,1-2.38,1.65,2.87,2.87,0,0,0-.87-1,10.88,10.88,0,0,0,3.85-3.09,18.38,18.38,0,0,0-2.64-1.8l.87-.88c.73.43,1.16.71,1.65,1.06l.83.59a12.22,12.22,0,0,0,1.41-3.22Z"/><path d="M75,115.83a4.57,4.57,0,0,1-3.3,4.66,3.18,3.18,0,0,0-.82-1.11c2-.62,2.73-1.61,2.8-3.55H71.21a8.78,8.78,0,0,0-1.27,0v-1.19a6.54,6.54,0,0,0,1.29.07h5.84a6.54,6.54,0,0,0,1.29-.07v1.19a8.78,8.78,0,0,0-1.27,0Zm1.51-2.45a8.18,8.18,0,0,0-1.27,0h-3a8.18,8.18,0,0,0-1.26,0v-1.22a6.41,6.41,0,0,0,1.29.07h2.93a6.29,6.29,0,0,0,1.29-.07Zm.58-1.87a7.06,7.06,0,0,1,.89,1.58l-.75.28a7.37,7.37,0,0,0-.88-1.6Zm1.43,1.42a7.26,7.26,0,0,0-.86-1.55l.72-.26a6.13,6.13,0,0,1,.88,1.52Z"/><path d="M87,114.14a2,2,0,0,0-.34.33,13.38,13.38,0,0,1-1.86,1.64v3.4a5.91,5.91,0,0,0,0,1H83.6a6,6,0,0,0,.05-.95v-2.68a14,14,0,0,1-2.82,1.27,4.09,4.09,0,0,0-.62-1,10.58,10.58,0,0,0,2.36-.9,11.41,11.41,0,0,0,2.84-2,3.75,3.75,0,0,0,.61-.72Z"/><path d="M93.59,114.24a4.59,4.59,0,0,0,0,.81,5.42,5.42,0,0,1-1,3.54,5.74,5.74,0,0,1-2.57,1.8,3.53,3.53,0,0,0-.79-1.14A4.61,4.61,0,0,0,91,118.4c1-.81,1.33-1.67,1.33-3.56a2.53,2.53,0,0,0,0-.6ZM97.65,113a2.78,2.78,0,0,0-.4.7,6.35,6.35,0,0,1-1.54,2,6.25,6.25,0,0,1-1.2.83,3.38,3.38,0,0,0-.9-.91,4.64,4.64,0,0,0,1.46-.92,4.15,4.15,0,0,0,1-1.27H90.78a9.61,9.61,0,0,0-1.36.06v-1.25a7.92,7.92,0,0,0,1.37.08H96a2.75,2.75,0,0,0,1-.09Z"/><path d="M99.16,115.29a4.61,4.61,0,0,0,.8,0h.74a4.47,4.47,0,0,0,.76,0,10.08,10.08,0,0,0,0,1.09v2.24a1.47,1.47,0,0,0,1,.78,9.38,9.38,0,0,0,2.31.15,33.62,33.62,0,0,0,3.77-.16,4.15,4.15,0,0,0-.3,1.06c-1.35,0-2.19.07-3.35.07-.6,0-1.45,0-1.86,0a2.65,2.65,0,0,1-2.12-1.06,8.12,8.12,0,0,1-1.16.94l-.29.23-.49-1.13a6.17,6.17,0,0,0,1.43-1v-2.15h-.53a3.89,3.89,0,0,0-.68.05Zm.85-3.71a9.83,9.83,0,0,1,1.49,1.76l-.78.86a8.22,8.22,0,0,0-1.51-1.88Zm3,2.39a5.07,5.07,0,0,0-.73,0v-.36h-.67a3.91,3.91,0,0,0,0-.61v-.62a4.41,4.41,0,0,0,0-.66,8.62,8.62,0,0,0,1,0h4.66a8.89,8.89,0,0,0,1,0,3.9,3.9,0,0,0,0,.64v.6a3.06,3.06,0,0,0,0,.65h-.72V114a4.81,4.81,0,0,0-.73,0h-1.42v.43h1.53a8.09,8.09,0,0,0,.82,0,5.22,5.22,0,0,0,0,.74v1.51a5,5,0,0,0,0,.73c-.33,0-.51,0-.82,0h-1.52v.45h2a4,4,0,0,0,.8,0v.94a6,6,0,0,0-.83,0h-2a4.77,4.77,0,0,0,.06.73h-1.12a5,5,0,0,0,.06-.73H102.5a4.4,4.4,0,0,0-.8,0v-1a6.26,6.26,0,0,0,.78,0h1.87v-.45h-1.43a6.28,6.28,0,0,0-.79,0,4.68,4.68,0,0,0,0-.73v-1.51a4.48,4.48,0,0,0,0-.74c.24,0,.41,0,.79,0h1.42V114Zm1.32-1.31h-1.67v.48h1.67Zm-1.21,2.44v.44h1.21v-.44Zm0,1.09v.42h1.21v-.42Zm3.72-3h.27v-.49h-1.79v.49Zm-1.52,2.39h1.31v-.44h-1.31Zm0,1.07h1.31v-.42h-1.31Z"/><path d="M111.9,112.77a5.39,5.39,0,0,0-.64-1l1.1-.23a8.26,8.26,0,0,1,.74,1.24H114a9.23,9.23,0,0,0-.56-1.15l1.12-.18a13.28,13.28,0,0,1,.61,1.33h.72a6.85,6.85,0,0,0,.71-1.34l1.16.26c-.17.31-.47.8-.66,1.08h.6a10.13,10.13,0,0,0,1.07,0,7.52,7.52,0,0,0,0,.89v.8a6.31,6.31,0,0,0,0,.79h-1.1V113.7h-6.43v1.51h-1.1a6.53,6.53,0,0,0,0-.78v-.79a9,9,0,0,0,0-.91c.33,0,.61,0,1.06,0Zm.76,4a9.26,9.26,0,0,0-1,0,7,7,0,0,0,0-.9v-1a5.08,5.08,0,0,0,0-.76,5.53,5.53,0,0,0,.76,0h4.25a5.16,5.16,0,0,0,.73,0,5.06,5.06,0,0,0,0,.79v.92a6.35,6.35,0,0,0,0,.9,10.33,10.33,0,0,0-1,0h-1.42a6.59,6.59,0,0,1-.34.71h2.66a7.46,7.46,0,0,0,1,0,7.54,7.54,0,0,0,0,1v1.3a6.28,6.28,0,0,0,0,1H117v-.38h-5.12v.38H110.8c0-.34,0-.64,0-1v-1.3a7.63,7.63,0,0,0,0-1,7.61,7.61,0,0,0,.93,0h1.65a4.74,4.74,0,0,0,.36-.71Zm-.75,2.56H117v-1h-5.13Zm.77-3.4h3.59v-.85h-3.59Z"/></g><g class="cls-3"><path d="M61.72,144.51a1.37,1.37,0,0,0,.28.88,1.75,1.75,0,0,0,1.45.59c1,0,1.6-.45,1.6-1.2a1,1,0,0,0-.5-.92,6.31,6.31,0,0,0-1.74-.49,3.54,3.54,0,0,1-1.5-.61,2,2,0,0,1-.77-1.62c0-1.39,1.12-2.29,2.83-2.29a3,3,0,0,1,2.49,1,2.7,2.7,0,0,1,.49,1.16l-1.43.17a1.29,1.29,0,0,0-.3-.71,1.58,1.58,0,0,0-1.25-.48c-.87,0-1.45.44-1.45,1.09a.94.94,0,0,0,.67.91,8.51,8.51,0,0,0,1.41.36,4.4,4.4,0,0,1,1.63.61,2,2,0,0,1,.83,1.72,2.33,2.33,0,0,1-.63,1.7,3.31,3.31,0,0,1-2.39.76,4,4,0,0,1-2.09-.52,2.35,2.35,0,0,1-.88-1.14,3.42,3.42,0,0,1-.19-.83Z"/><path d="M73.64,147a10,10,0,0,0-.64-1.07L70.42,142c-.18-.3-.43-.73-.67-1.2a3.53,3.53,0,0,0,0,.51c0,.19,0,.64,0,.87v3.28a9.63,9.63,0,0,0,.08,1.5H68.44a10.82,10.82,0,0,0,.08-1.51v-5.16a8.33,8.33,0,0,0-.08-1.29H70a4.82,4.82,0,0,0,.6,1.06l2.53,3.81c.24.36.56.88.78,1.28,0-.39-.07-1-.07-1.41v-3.36a8.74,8.74,0,0,0-.08-1.38h1.46a8.74,8.74,0,0,0-.08,1.38v5.29a7.55,7.55,0,0,0,.08,1.29Z"/><path d="M78.58,144.51a1.37,1.37,0,0,0,.28.88,1.75,1.75,0,0,0,1.45.59c1,0,1.6-.45,1.6-1.2a1,1,0,0,0-.5-.92,6.31,6.31,0,0,0-1.74-.49,3.48,3.48,0,0,1-1.5-.61,2,2,0,0,1-.77-1.62c0-1.39,1.12-2.29,2.83-2.29a3,3,0,0,1,2.49,1,2.7,2.7,0,0,1,.49,1.16l-1.43.17a1.29,1.29,0,0,0-.3-.71,1.58,1.58,0,0,0-1.25-.48c-.86,0-1.45.44-1.45,1.09a1,1,0,0,0,.68.91,7.84,7.84,0,0,0,1.4.36,4.4,4.4,0,0,1,1.63.61,2,2,0,0,1,.83,1.72,2.33,2.33,0,0,1-.63,1.7,3.31,3.31,0,0,1-2.39.76,4,4,0,0,1-2.09-.52,2.35,2.35,0,0,1-.88-1.14,3.42,3.42,0,0,1-.19-.83Z"/><path d="M85,142.29a4.61,4.61,0,0,0,.8.05h.73a4.4,4.4,0,0,0,.76-.05c0,.31,0,.55,0,1.09v2.24a1.51,1.51,0,0,0,1,.78,9.38,9.38,0,0,0,2.31.15,33.62,33.62,0,0,0,3.77-.16,4.15,4.15,0,0,0-.3,1.06c-1.35.05-2.19.07-3.35.07-.6,0-1.45,0-1.86-.05a2.62,2.62,0,0,1-2.12-1.06,8.12,8.12,0,0,1-1.16.94l-.29.23-.49-1.13a6.17,6.17,0,0,0,1.43-1v-2.15H85.7a3.89,3.89,0,0,0-.68.05Zm.85-3.71a9.83,9.83,0,0,1,1.49,1.76l-.78.86a8.5,8.5,0,0,0-1.51-1.88Zm3,2.39a5.31,5.31,0,0,0-.74,0v-.36h-.67a3.91,3.91,0,0,0,0-.61v-.62a4.41,4.41,0,0,0,0-.66,8.7,8.7,0,0,0,1,0H93.1a8.89,8.89,0,0,0,1,0,3.9,3.9,0,0,0,0,.64v.6a3.06,3.06,0,0,0,0,.65h-.72V141a4.81,4.81,0,0,0-.73,0H91.19v.43h1.53a8.09,8.09,0,0,0,.82,0,5.22,5.22,0,0,0,0,.74v1.51a5,5,0,0,0,0,.73c-.33,0-.51,0-.82,0H91.2v.45h2a4,4,0,0,0,.8-.05v.94a6,6,0,0,0-.83,0h-2a4.77,4.77,0,0,0,.06.73H90.14a5,5,0,0,0,.06-.73H88.35a4.54,4.54,0,0,0-.8,0v-.95a6.43,6.43,0,0,0,.79.05h1.87v-.45H88.78a6.53,6.53,0,0,0-.8,0,4.68,4.68,0,0,0,0-.73v-1.51a4.48,4.48,0,0,0,0-.74c.24,0,.42,0,.8,0H90.2V141Zm1.32-1.31H88.52v.48H90.2ZM89,142.1v.44H90.2v-.44Zm0,1.09v.42H90.2v-.42Zm3.72-3H93v-.49H91.19v.49Zm-1.52,2.39H92.5v-.44H91.19Zm0,1.07H92.5v-.42H91.19Z"/><path d="M97.46,144.55a6.6,6.6,0,0,1-1,3.16,6,6,0,0,0-1-.79,4.57,4.57,0,0,0,.73-1.69,10.12,10.12,0,0,0,.2-1.53c0-.84.09-2.26.09-3.44a13.51,13.51,0,0,0,0-1.45c.35,0,.61,0,1.14,0h5.61a11.12,11.12,0,0,0,1.15,0c0,.34,0,.59,0,1.13v6.57c0,.82-.3,1-1.44,1-.31,0-.82,0-1.12-.05a4.09,4.09,0,0,0-.28-1c.5.05.94.08,1.26.08s.5,0,.5-.25v-1.75h-2.4v1.64a8.87,8.87,0,0,0,0,1.19H99.7a8.24,8.24,0,0,0,.06-1.18v-1.65Zm2.3-2.36h-2.2c0,.29,0,.49,0,.63v.74h2.22Zm0-2.29H97.58v1.31h2.18Zm3.47,1.31V139.9h-2.4v1.31Zm0,2.35v-1.37h-2.4v1.37Z"/></g><g class="cls-3"><path d="M68,166.77l-.84.27a12.37,12.37,0,0,1-1.67.41c0,1.35,0,1.35,0,1.69h2.12a6.2,6.2,0,0,0,1.22-.07v1.2a9.14,9.14,0,0,0-1.2-.05H65.38a5.24,5.24,0,0,1-.67,2.18A5.17,5.17,0,0,1,63.08,174a6.05,6.05,0,0,1-.92.5,3.24,3.24,0,0,0-.87-1.06,4.66,4.66,0,0,0,1.54-.84,3.19,3.19,0,0,0,1.15-1.7,5.75,5.75,0,0,0,.11-.67H61.63a9.14,9.14,0,0,0-1.2.05v-1.2a6.2,6.2,0,0,0,1.22.07H64.2c0-.42,0-.81,0-1.51a22.36,22.36,0,0,1-2.76.23,4.2,4.2,0,0,0-.37-1.08c.31,0,.47,0,.62,0a17.25,17.25,0,0,0,4.27-.58,5.26,5.26,0,0,0,1.21-.47Z"/><path d="M72.49,168.24a3,3,0,0,0-.2-.75l1.19-.18a3.93,3.93,0,0,0,.1.77l.15.77,3-.5a2.52,2.52,0,0,0,.66-.17l.7.63a2.29,2.29,0,0,0-.25.48,5.68,5.68,0,0,1-2,2.6,2.82,2.82,0,0,0-.93-.71,4.71,4.71,0,0,0,1.7-1.79l-.37.07-2.35.39.71,3.7a3.85,3.85,0,0,0,.19.8l-1.25.23a4.1,4.1,0,0,0-.08-.81L72.8,170l-.85.14a5.14,5.14,0,0,0-.88.22l-.21-1.14a5.61,5.61,0,0,0,1-.09l.82-.14Z"/><path d="M80,172.67a9.47,9.47,0,0,0,3-.74,6.68,6.68,0,0,0,3-2.45,8.35,8.35,0,0,0,1-2,4.31,4.31,0,0,0,1.06,1,8.78,8.78,0,0,1-3.17,3.92,10.82,10.82,0,0,1-3.8,1.5,3.54,3.54,0,0,0-.66.17Zm.85-6.21a14.06,14.06,0,0,1,2.57,1.93l-.85,1.09a10.5,10.5,0,0,0-2.55-2Z"/><path d="M93.07,174.5a5.8,5.8,0,0,0,.06-.88V171a1.72,1.72,0,0,1-.3.19A15.69,15.69,0,0,1,90,172.32a4.13,4.13,0,0,0-.59-1.09,12.45,12.45,0,0,0,2.78-.93,10.81,10.81,0,0,0,3.09-2.12h-.21l-3.65,0a7.38,7.38,0,0,0-1.06,0v-1.21a5.14,5.14,0,0,0,1.07.09h1.66v-.82a4.13,4.13,0,0,0,0-.72H94.4a3.23,3.23,0,0,0-.05.7v.83H96a2.11,2.11,0,0,0,.68-.09l.58.68a2.35,2.35,0,0,0-.44.43,12.9,12.9,0,0,1-2,1.87,16.32,16.32,0,0,1,3.49,1.57l-.66,1A17.84,17.84,0,0,0,94.6,171l-.25-.11c0,.12,0,.4,0,.49v2.2a4.32,4.32,0,0,0,0,.88Z"/><path d="M102.84,166.12a20.9,20.9,0,0,0-.1,2.24,9.22,9.22,0,0,1-.81,4.11,6.32,6.32,0,0,1-1.37,1.85,3.56,3.56,0,0,0-1-1,4.11,4.11,0,0,0,1-1.15c.71-1.15,1-2.44,1-5.24a5,5,0,0,0,0-.91Zm2.65-.12a5.42,5.42,0,0,0-.07.95l0,5.69a4,4,0,0,0,1.53-1.14,4.89,4.89,0,0,0,1-1.83,4.19,4.19,0,0,0,.94.94,6.21,6.21,0,0,1-1.59,2.33,6.6,6.6,0,0,1-2.13,1.2,2.79,2.79,0,0,0-.43.18l-.64-.68a4.48,4.48,0,0,0,.09-1.06l0-5.64v-.3a4.33,4.33,0,0,0,0-.66Z"/><path d="M110.18,169.29a4.61,4.61,0,0,0,.8.05h.74a4.47,4.47,0,0,0,.76-.05,10.08,10.08,0,0,0,0,1.09v2.24a1.51,1.51,0,0,0,1,.78,9.23,9.23,0,0,0,2.3.15,33.62,33.62,0,0,0,3.77-.16,4.15,4.15,0,0,0-.3,1.06c-1.35.05-2.19.07-3.35.07-.6,0-1.45,0-1.86-.05a2.63,2.63,0,0,1-2.12-1.06,8.12,8.12,0,0,1-1.16.94l-.29.23-.49-1.13a6.17,6.17,0,0,0,1.43-1v-2.15h-.53a3.89,3.89,0,0,0-.68.05Zm.85-3.71a10.36,10.36,0,0,1,1.5,1.76l-.79.86a8.22,8.22,0,0,0-1.51-1.88Zm3,2.39a5.41,5.41,0,0,0-.74,0v-.36h-.67a3,3,0,0,0,0-.61v-.62a3.39,3.39,0,0,0,0-.66,8.7,8.7,0,0,0,1,0h4.66a8.89,8.89,0,0,0,.95,0,3.9,3.9,0,0,0,0,.64v.6a3.06,3.06,0,0,0,0,.65h-.72V168a4.81,4.81,0,0,0-.73,0h-1.42v.43h1.53a8.09,8.09,0,0,0,.82,0,5.22,5.22,0,0,0,0,.74v1.51a5,5,0,0,0,0,.73c-.33,0-.51,0-.82,0h-1.52v.45h2a4,4,0,0,0,.8-.05v.94a6,6,0,0,0-.83,0h-2a4.77,4.77,0,0,0,.06.73H115.3a5,5,0,0,0,.06-.73h-1.85a4.68,4.68,0,0,0-.8,0v-.95a6.56,6.56,0,0,0,.79.05h1.87v-.45h-1.43a6.61,6.61,0,0,0-.8,0,4.68,4.68,0,0,0,0-.73v-1.51a4.48,4.48,0,0,0,0-.74c.24,0,.42,0,.8,0h1.42V168Zm1.32-1.31h-1.68v.48h1.68Zm-1.21,2.44v.44h1.21v-.44Zm0,1.09v.42h1.21v-.42Zm3.72-3h.27v-.49h-1.79v.49Zm-1.52,2.39h1.31v-.44h-1.31Zm0,1.07h1.31v-.42h-1.31Z"/><path d="M122.63,171.55a6.71,6.71,0,0,1-1,3.16,6,6,0,0,0-1-.79,4.57,4.57,0,0,0,.73-1.69,10.12,10.12,0,0,0,.2-1.53c.05-.84.09-2.26.09-3.44a13.51,13.51,0,0,0,0-1.45c.35,0,.61,0,1.14,0h5.61a11.12,11.12,0,0,0,1.15,0c0,.34,0,.59,0,1.13v6.57c0,.82-.3,1-1.44,1-.31,0-.82,0-1.12-.05a4.09,4.09,0,0,0-.28-1c.5.05.94.08,1.26.08s.5,0,.5-.25v-1.75H126v1.64a8.87,8.87,0,0,0,.05,1.19h-1.18a8.24,8.24,0,0,0,.06-1.18v-1.65Zm2.29-2.36h-2.2c0,.29,0,.49,0,.63,0,.47,0,.54,0,.74h2.22Zm0-2.29h-2.17v1.31h2.18Zm3.47,1.31V166.9H126v1.31Zm0,2.35v-1.37H126v1.37Z"/></g></g></g></g></svg>