<svg xmlns="http://www.w3.org/2000/svg" viewBox="0 0 270 224.47"><defs><style>.cls-1{fill:#fff;stroke-linecap:round;stroke-linejoin:round;}.cls-1,.cls-3{stroke:#000;stroke-width:2px;}.cls-2{isolation:isolate;}.cls-3{fill:#ff8b00;stroke-miterlimit:10;}</style></defs><g id="レイヤー_2" data-name="レイヤー 2"><g id="レイヤー_1-2" data-name="レイヤー 1"><path id="長方形_76" data-name="長方形 76" class="cls-1" d="M7.69,1H262.31A6.78,6.78,0,0,1,269,7.87V216.6a6.77,6.77,0,0,1-6.69,6.87H7.69A6.77,6.77,0,0,1,1,216.6V7.87A6.78,6.78,0,0,1,7.69,1Z"/><g id="ターゲットペルソナ設計_活用する媒体の選定_コミュニケーションプラン設計_KPI_ロードマップ設計" data-name="ターゲットペルソナ設計 活用する媒体の選定 コミュニケーションプラン設計 KPI ロードマップ設計" class="cls-2"><g class="cls-2"><path d="M68.22,109.45a1.79,1.79,0,0,0-.31.67,16.77,16.77,0,0,1-1.28,2.75,9.79,9.79,0,0,1-4.55,3.82,3.31,3.31,0,0,0-.83-1,10.27,10.27,0,0,0,1.94-1,7.26,7.26,0,0,0,1.64-1.39,11.61,11.61,0,0,0-2-1.43l.75-.89a13,13,0,0,1,2,1.34,9.55,9.55,0,0,0,1.12-2.36l-3.11,0a10.3,10.3,0,0,1-2.33,2.69,3.17,3.17,0,0,0-1-.8,8.52,8.52,0,0,0,2.5-2.84,6.29,6.29,0,0,0,.58-1.39l1.3.29a5.27,5.27,0,0,0-.3.56,4.41,4.41,0,0,1-.24.47l2.6,0a2.91,2.91,0,0,0,.88-.12Z"/><path d="M70.29,111.43a9.82,9.82,0,0,0,1.62.07h5.32a9.82,9.82,0,0,0,1.62-.07v1.39a11,11,0,0,0-1.63,0h-5.3a11,11,0,0,0-1.63,0Z"/><path d="M86.86,110.89V111A5.77,5.77,0,0,1,83,116.55a2.94,2.94,0,0,0-.82-1.1,4.85,4.85,0,0,0,3-2.42,6.22,6.22,0,0,0,.48-2.27h-2.4a8.22,8.22,0,0,1-1.65,2,3.12,3.12,0,0,0-1-.79,7.59,7.59,0,0,0,2.11-2.74,6,6,0,0,0,.5-1.43l1.29.31-.08.15c0,.1,0,.11-.3.71-.09.21-.19.43-.3.64h4.37a7.74,7.74,0,0,0,1.26-.07v1.23l-.32,0H86.87Zm1-3.19a6.47,6.47,0,0,1,.89,1.57l-.74.29a6.54,6.54,0,0,0-.88-1.59Zm1.41,1.36a6.69,6.69,0,0,0-.86-1.54l.71-.28a5.57,5.57,0,0,1,.88,1.52Z"/><path d="M92.62,110.21a11,11,0,0,1,1,2.37l-1.12.36a10,10,0,0,0-.91-2.42Zm5.73.07a2.1,2.1,0,0,0-.14.51,8.54,8.54,0,0,1-1.38,3.33,7.71,7.71,0,0,1-3,2.41,3.83,3.83,0,0,0-.8-1,6.59,6.59,0,0,0,1.69-.92A5.75,5.75,0,0,0,97,111.15a4.44,4.44,0,0,0,.18-1.15Zm-3.61-.48a9.82,9.82,0,0,1,1,2.3l-1.11.35a11,11,0,0,0-.91-2.35Z"/><path d="M101.58,116.41a5.66,5.66,0,0,0,.07-1.12v-6.4a5.24,5.24,0,0,0-.07-1H103a8.92,8.92,0,0,0,0,1v1.85a29.74,29.74,0,0,1,4.53,2.11l-.7,1.18a23.66,23.66,0,0,0-3.54-1.91,2,2,0,0,1-.33-.17c0,.28,0,.4,0,.68v2.64c0,.52,0,.78,0,1.11Z"/><path d="M109.16,112.76a13.09,13.09,0,0,0,2.15-2.43,3.3,3.3,0,0,1,.74-.78,1.2,1.2,0,0,1,.68-.2c.5,0,.73.16,1.49,1a33.18,33.18,0,0,0,3.24,3.19,7.17,7.17,0,0,0,1,.76l-.63,1.37a52.73,52.73,0,0,1-4.23-4.23c-.64-.7-.64-.7-.81-.7s-.2,0-.61.58-1.24,1.59-1.78,2.23L110,114Zm8.55-3.08a1.16,1.16,0,1,1-2.31,0,1.16,1.16,0,0,1,2.31,0Zm-1.81,0a.66.66,0,1,0,1.31,0,.66.66,0,0,0-1.31,0Z"/><path d="M122.91,108.22a21.79,21.79,0,0,0-.11,2.23,9.24,9.24,0,0,1-.8,4.11,6.37,6.37,0,0,1-1.38,1.85,3.56,3.56,0,0,0-1-1,4.11,4.11,0,0,0,1-1.15c.72-1.15,1-2.44,1-5.24a5,5,0,0,0,0-.9Zm2.64-.12a5.33,5.33,0,0,0-.07,1l0,5.68a4,4,0,0,0,1.53-1.14,4.89,4.89,0,0,0,1-1.83,4.19,4.19,0,0,0,.94.94,6.21,6.21,0,0,1-1.59,2.33,6.6,6.6,0,0,1-2.13,1.2,4.35,4.35,0,0,0-.43.18l-.64-.68a4.48,4.48,0,0,0,.09-1.06l0-5.63v-.3a4.33,4.33,0,0,0,0-.66Z"/><path d="M131.23,108.5a14.91,14.91,0,0,1,1.35,3.18l-1.3.46a12.65,12.65,0,0,0-1.27-3.22Zm6.29.3a4.36,4.36,0,0,0-.27,1,10.3,10.3,0,0,1-2.22,4.61,9.19,9.19,0,0,1-2.87,2.18,3.74,3.74,0,0,0-.92-1.08,7.65,7.65,0,0,0,2.77-1.91,7.55,7.55,0,0,0,1.63-2.84,8.89,8.89,0,0,0,.5-2.26Z"/><path d="M146.51,110.27a7.16,7.16,0,0,0,1.3-.07v1.26a10.27,10.27,0,0,0-1.28,0h-2.05a5.52,5.52,0,0,1-.72,2.82,6,6,0,0,1-2.54,2.24,3.11,3.11,0,0,0-.91-1.08,4.55,4.55,0,0,0,2.4-2,4.31,4.31,0,0,0,.5-2h-2.48a10.27,10.27,0,0,0-1.28,0V110.2a7.23,7.23,0,0,0,1.3.07h2.51c0-.42,0-.59,0-.78v-.58a6.22,6.22,0,0,0-.05-1h1.38a6.31,6.31,0,0,0,0,1v.6c0,.65,0,.65,0,.76Z"/><path d="M149.47,109.19a4.46,4.46,0,0,0,.81,0h2.05a7.73,7.73,0,0,0,.81,0v1a4.52,4.52,0,0,0-.76,0h-2.1a6,6,0,0,0-.81,0Zm8.64,3.06a3,3,0,0,0-.2.41,7.38,7.38,0,0,1-1.35,2.11,7,7,0,0,0,2.23.91,5.44,5.44,0,0,0-.5,1.07,7.75,7.75,0,0,1-2.5-1.25,8.09,8.09,0,0,1-2.4,1.28,3.48,3.48,0,0,0-.51-.85,4.78,4.78,0,0,0,0,.71h-1v-.34h-1.17v.48h-1a7.63,7.63,0,0,0,.06-1v-1.47a4.63,4.63,0,0,0-.05-.79c.25,0,.46,0,.77,0h1.72a3.61,3.61,0,0,0,.67,0,3.57,3.57,0,0,0,0,.73v1.5a7,7,0,0,0,2.13-1,5.71,5.71,0,0,1-1.29-2.07,2.89,2.89,0,0,0-.45,0V111.7a3.08,3.08,0,0,0,.64,0h3a3.52,3.52,0,0,0,.7,0Zm-8.32-4.46a4.83,4.83,0,0,0,.84,0h1.44a4.9,4.9,0,0,0,.84,0v1a5.43,5.43,0,0,0-.84,0h-1.44a5.18,5.18,0,0,0-.84,0Zm0,2.92a5.51,5.51,0,0,0,.66,0h1.78a4.64,4.64,0,0,0,.63,0v.93a5.53,5.53,0,0,0-.63,0h-1.78a5.62,5.62,0,0,0-.66,0Zm0,1.41a5.51,5.51,0,0,0,.66,0h1.78a4.64,4.64,0,0,0,.63,0v.93a4,4,0,0,0-.65,0h-1.77a5.67,5.67,0,0,0-.65,0Zm1,3.3h1.17v-1h-1.17Zm4.2-6.58a4.06,4.06,0,0,1-.41,1.9,2.92,2.92,0,0,1-.74,1A5.2,5.2,0,0,0,153,111a2.6,2.6,0,0,0,1-2.49,3.45,3.45,0,0,0-.05-.67,6.41,6.41,0,0,0,.79,0h1.53a7,7,0,0,0,.85,0,6.35,6.35,0,0,0,0,.84v1.48c0,.13.07.17.31.17.4,0,.4,0,.46-1.19a3.91,3.91,0,0,0,.9.35c-.12,1.64-.23,1.76-1.5,1.76-1,0-1.18-.12-1.18-.65v-1.76Zm-.21,3.87a4.16,4.16,0,0,0,1,1.44,5.06,5.06,0,0,0,1-1.44Z"/><path d="M160.27,109.23a4.84,4.84,0,0,0,.85.07h2.56a4.73,4.73,0,0,0,.85-.06v1a6,6,0,0,0-.85,0h-2.57a5.58,5.58,0,0,0-.84,0Zm.42-1.38a4.94,4.94,0,0,0,.86.05h1.73a5,5,0,0,0,.85-.05v1a7,7,0,0,0-.85,0h-1.73a7,7,0,0,0-.86,0Zm1.06,8.94h-1.06a6.79,6.79,0,0,0,.05-1v-1.51a6.24,6.24,0,0,0,0-.78,5.7,5.7,0,0,0,.7,0h2.14a5.43,5.43,0,0,0,.65,0,7.47,7.47,0,0,0,0,.77v1.47a5.14,5.14,0,0,0,.06.87h-1.08v-.31h-1.38Zm-1.05-6.1a5.62,5.62,0,0,0,.66,0h2.11a3.72,3.72,0,0,0,.64,0v1a4,4,0,0,0-.64,0h-2.11a4.17,4.17,0,0,0-.66,0Zm0,1.42a5.07,5.07,0,0,0,.66,0h2.11a3.72,3.72,0,0,0,.64,0v1a5.21,5.21,0,0,0-.65,0h-2.11a5.55,5.55,0,0,0-.65,0Zm1,3.34h1.42v-1h-1.42Zm4.62-6.65a6.77,6.77,0,0,0-.07-1.2h1.25a7.72,7.72,0,0,0-.07,1.2v1.8h.71a9.57,9.57,0,0,0,1.21-.06v1.15a11.18,11.18,0,0,0-1.22-.06h-.7v3.65a11.89,11.89,0,0,0,.07,1.51h-1.25a11.38,11.38,0,0,0,.07-1.51v-3.65h-.62a11.18,11.18,0,0,0-1.22.06v-1.15a9.57,9.57,0,0,0,1.21.06h.63Z"/></g><g class="cls-2"><path d="M60.77,137.14a11.8,11.8,0,0,1,1.86,1.17l-.6.91A10.47,10.47,0,0,0,60.16,138Zm1.87,3.39a20,20,0,0,1-1.47,3.09l-1-.77a2.23,2.23,0,0,0,.36-.44,10.87,10.87,0,0,0,1.22-2.51Zm-1.48-5.91a12.58,12.58,0,0,1,1.76,1.31l-.64.85a12,12,0,0,0-1.8-1.39Zm4.27,1.62c-1,.11-1.2.14-2.06.19a3.17,3.17,0,0,0-.37-1,15.81,15.81,0,0,0,5.37-.88l.73,1a2.84,2.84,0,0,1-.49.13,20.72,20.72,0,0,1-2.09.42v1.32h1.74a8.25,8.25,0,0,0,1.12-.06v1.14a8.19,8.19,0,0,0-1.11-.06H66.52v1.29H68a5.28,5.28,0,0,0,.79,0,7.49,7.49,0,0,0,0,.9v2.15a9.84,9.84,0,0,0,0,1H67.71v-.5H64.36v.5h-1.1c0-.27,0-.65,0-1v-2.18a7.64,7.64,0,0,0,0-.86,5.63,5.63,0,0,0,.79,0h1.38v-1.29H63.88a8.6,8.6,0,0,0-1.09.06v-1.14a8,8,0,0,0,1.09.06h1.55Zm-1.07,6h3.35v-1.54H64.36Z"/><path d="M72.71,140.64a6.71,6.71,0,0,1-1,3.16,6,6,0,0,0-1-.79,4.57,4.57,0,0,0,.73-1.69,10.12,10.12,0,0,0,.2-1.53c0-.84.09-2.26.09-3.44a13.41,13.41,0,0,0,0-1.44c.35,0,.6,0,1.14,0h5.61a11.12,11.12,0,0,0,1.15,0c0,.34,0,.59,0,1.13v6.56c0,.83-.3,1-1.44,1-.31,0-.82,0-1.12,0a4,4,0,0,0-.28-1c.5.05.94.08,1.26.08s.5,0,.5-.25v-1.75h-2.4v1.64a8.78,8.78,0,0,0,.05,1.19H74.94a8.24,8.24,0,0,0,.06-1.18v-1.65ZM75,138.28H72.79v.63c0,.47,0,.54,0,.74H75ZM75,136H72.83v1.3H75Zm3.47,1.3V136h-2.4v1.3Zm0,2.35v-1.37h-2.4v1.37Z"/><path d="M87.25,138.5s0,.12,0,.24a3,3,0,0,1,.32,1.41,3.21,3.21,0,0,1-1.49,2.7,7.05,7.05,0,0,1-1.8.82,3.44,3.44,0,0,0-.71-1.13,4.73,4.73,0,0,0,1.69-.58,2.1,2.1,0,0,0,1.16-1.46,1.65,1.65,0,0,1-1.47.71,1.84,1.84,0,0,1-1.16-.36,1.55,1.55,0,0,1-.68-1.35,1.84,1.84,0,0,1,2-1.82,1.67,1.67,0,0,1,1,.3.41.41,0,0,1,0-.12s0-.58,0-.85c-1.43,0-2.37.07-2.8.1-1.51.11-1.51.11-1.78.15l0-1.18H82l1.7,0c.64,0,.74,0,1.56,0l.85,0a5.37,5.37,0,0,0-.06-1.2H87.3a7.78,7.78,0,0,0,0,1.18c1.74,0,2.52,0,2.89-.06V137c-.37,0-.85-.05-1.68-.05l-1.21,0v1.51Zm-2,.1a.87.87,0,0,0-.92.8.78.78,0,0,0,.84.79.91.91,0,0,0,1-.9C86.11,138.87,85.76,138.6,85.21,138.6Z"/><path d="M94.76,138.83a4.88,4.88,0,0,1,2.1-.46c1.71,0,2.81.88,2.81,2.25a2.44,2.44,0,0,1-1.36,2.21,5,5,0,0,1-2.42.57,3.33,3.33,0,0,1-1.93-.46,1.43,1.43,0,0,1-.6-1.15,1.53,1.53,0,0,1,1.71-1.43,2.15,2.15,0,0,1,1.73.82,2.69,2.69,0,0,1,.46.9c.83-.31,1.19-.74,1.19-1.45s-.77-1.29-2-1.29A6.12,6.12,0,0,0,92.36,141l-.68-1.08a8.57,8.57,0,0,0,1.4-.94,33.39,33.39,0,0,0,3-2.6l.18-.18h0c-.38,0-1,.08-2.82.17a2.39,2.39,0,0,0-.48,0l-.06-1.19a9,9,0,0,0,1.18.06c.85,0,2.07-.05,3-.12a1.47,1.47,0,0,0,.62-.13l.62.88a1.91,1.91,0,0,0-.52.41c-.5.45-1.23,1.1-1.57,1.39-.18.15-.9.69-1.1.82a3.92,3.92,0,0,1-.41.26Zm.3,2.49c-.36,0-.59.18-.59.46s.45.63,1.19.63a2.71,2.71,0,0,0,.52,0C96,141.68,95.62,141.32,95.06,141.32Z"/><path d="M104.23,136.52a7,7,0,0,0,.89,0c-.07.88-.12,1.44-.16,1.68a12.24,12.24,0,0,1-.74,2.7,8.29,8.29,0,0,1,.84.77l-.63.91c-.35-.4-.48-.55-.69-.75a7.46,7.46,0,0,1-1.59,1.83,4.85,4.85,0,0,0-.74-.89,5.93,5.93,0,0,0,1.59-1.62,9.39,9.39,0,0,0-1.28-1,12.76,12.76,0,0,0,.76-2.62h-.18a4.24,4.24,0,0,0-.71,0v-1.07a5.23,5.23,0,0,0,.82.05h.23a11,11,0,0,0,.17-1.85v-.11l1.14.09a5,5,0,0,0-.12.73c-.07.46-.12.76-.18,1.14Zm-.78,3.73a9.11,9.11,0,0,0,.63-2.76h-.62a16.65,16.65,0,0,1-.59,2.33Zm4.75-.42h1.52a6,6,0,0,0,1-.05v1.05a6.34,6.34,0,0,0-1-.05h-1.06a6.08,6.08,0,0,0,2.27,1.75,4.1,4.1,0,0,0-.53,1,6.5,6.5,0,0,1-2.23-2.15c0,.32,0,.53,0,.75V143a4.48,4.48,0,0,0,0,.85h-1.14a4.67,4.67,0,0,0,0-.86v-.81c0-.23,0-.45,0-.76a5.21,5.21,0,0,1-1,1.19,6.34,6.34,0,0,1-1.24.93,3.91,3.91,0,0,0-.66-.84,6.53,6.53,0,0,0,2.4-1.91h-1a5.76,5.76,0,0,0-.86,0v-1a5.5,5.5,0,0,0,.86,0h1.42v-.61h-.63a5.57,5.57,0,0,0-.77,0c0-.25,0-.45,0-.67v-2.19a3.22,3.22,0,0,0-.73,0v-1a4.18,4.18,0,0,0,.73.05,5.06,5.06,0,0,0,0-.83h1.11a5.21,5.21,0,0,0,0,.83h1.93a6.18,6.18,0,0,0,0-.83h1.11a4.77,4.77,0,0,0,0,.83H110a3.86,3.86,0,0,0,.77-.06v1a4.42,4.42,0,0,0-.77,0h-.21v2.19a4.55,4.55,0,0,0,0,.67c-.29,0-.51,0-.8,0h-.79Zm.53-2.87v-.57H106.8V137Zm-1.93,1.41h1.93v-.59H106.8Z"/><path d="M114.34,142.63a8.7,8.7,0,0,0,.06,1.16h-1.18a9.76,9.76,0,0,0,.06-1.17v-2.76c0-.53,0-.69,0-1.13a5.57,5.57,0,0,1-.78,1.07,5.88,5.88,0,0,0-.44-1.21,8.28,8.28,0,0,0,2.09-4.08l1.11.3a20.64,20.64,0,0,1-.94,2.33v3.92a8.55,8.55,0,0,0,2.63-3.62H115.9a9.28,9.28,0,0,0-1.06.06v-1.11c.31,0,.7,0,1.09,0h1.46v-.9a5.69,5.69,0,0,0-.07-.94h1.19a7.12,7.12,0,0,0-.06.95v.89h1.85c.44,0,.83,0,1.15-.05v1.12a10,10,0,0,0-1.12-.06h-1.47a8.72,8.72,0,0,0,1.17,2,7.94,7.94,0,0,0,1.7,1.67,5,5,0,0,0-.69,1,9.83,9.83,0,0,1-1.12-1.16v.95a5,5,0,0,0-.73,0h-.75v.8a7.68,7.68,0,0,0,.07,1.09h-1.19a8,8,0,0,0,.07-1.09v-.8h-.7a5,5,0,0,0-.71,0V141a7.15,7.15,0,0,1-1,1.09,3.85,3.85,0,0,0-.59-.82Zm3-2.93c0-.52,0-.73,0-1.2a8.85,8.85,0,0,1-1.34,2.39,6,6,0,0,0,.66,0h.66Zm1.78,1.22a6.59,6.59,0,0,0,.67,0,10.87,10.87,0,0,1-1.42-2.42c0,.56,0,.8,0,1.2v1.25Z"/><path d="M127.16,140.63c-.57,1.29-1.21,1.88-2,1.88-1.13,0-1.95-1.16-1.95-2.77a4.3,4.3,0,0,1,1.1-2.91,4.5,4.5,0,0,1,3.43-1.39c2.4,0,4,1.45,4,3.7a3.85,3.85,0,0,1-2.43,3.73,6.54,6.54,0,0,1-1.57.42,3.19,3.19,0,0,0-.61-1.17,5.31,5.31,0,0,0,2-.55,2.8,2.8,0,0,0,1.39-2.5,2.48,2.48,0,0,0-1.23-2.22,2.31,2.31,0,0,0-1-.3A14.47,14.47,0,0,1,127.16,140.63Zm-1.47-3.58a3.37,3.37,0,0,0-1.35,2.7c0,.82.35,1.47.79,1.47s.66-.42,1-1.28a13.18,13.18,0,0,0,.83-3.38A2.55,2.55,0,0,0,125.69,137.05Z"/><path d="M135.68,141.62a1.53,1.53,0,0,0,1.24.89,3.74,3.74,0,0,0-.66-.69,4.1,4.1,0,0,0,1.51-.78h-1.13a3.94,3.94,0,0,0-.76.05v-.92a3.63,3.63,0,0,0,.76.05h.75v-.62h-.22a6.65,6.65,0,0,0-.92,0v-.88a6.46,6.46,0,0,0,.92,0h.21c0-.24,0-.34,0-.51h1.1c0,.16,0,.29,0,.51h1.35c0-.24,0-.34,0-.51h1.1a3.38,3.38,0,0,0-.05.51h.53a6.72,6.72,0,0,0,.93,0v.88a7.09,7.09,0,0,0-.94,0h-.52v.62h.77a7.05,7.05,0,0,0,1,0v.9a7.34,7.34,0,0,0-1,0h-1.07a5.24,5.24,0,0,0,1.86.7,3.65,3.65,0,0,0-.58.76c.27,0,.27,0,1-.12a4.4,4.4,0,0,0-.3,1.15c-.88,0-2.16.06-3.44.06a8.81,8.81,0,0,1-2.64-.21,2.38,2.38,0,0,1-1.22-.91,10.17,10.17,0,0,1-1,.84l-.45.36-.49-1.14a5.25,5.25,0,0,0,1.38-1V139.4h-.52a3.71,3.71,0,0,0-.67,0v-1.08a4.54,4.54,0,0,0,.8,0H135a5.38,5.38,0,0,0,.75,0,9.82,9.82,0,0,0,0,1.08Zm-1.39-6.9a11.68,11.68,0,0,1,1.53,1.59l-.83.81a7.74,7.74,0,0,0-1.5-1.65Zm4.56,1.54a4,4,0,0,0,0,.54c-.25,0-.4,0-.64,0H137v.3c0,.21,0,.23.42.23.78,0,.79,0,.82-.47a2.2,2.2,0,0,0,.82.32c-.06.55-.16.75-.43.85a4.65,4.65,0,0,1-1.32.09c-1,0-1.23-.1-1.23-.64v-.85a5.25,5.25,0,0,0,0-.59,4,4,0,0,0,.69,0h1.19v-.41h-1.15a4.38,4.38,0,0,0-.81,0v-.88a6.34,6.34,0,0,0,.81,0H138a8,8,0,0,0,.88,0,3.58,3.58,0,0,0,0,.55Zm-.1,5.18a5,5,0,0,1-1.62,1.1,16.76,16.76,0,0,0,1.72.07c.73,0,1.61,0,2.52-.08a5.43,5.43,0,0,1-1.89-1.07l.61-.42h-2Zm-.35-1.22h1.36v-.62H138.4Zm3.8-4a4,4,0,0,0,0,.54c-.25,0-.4,0-.64,0h-1.27v.3c0,.14,0,.17.09.2a1.49,1.49,0,0,0,.46,0c.72,0,.74,0,.76-.49a3,3,0,0,0,.88.33c-.08.55-.15.72-.37.82a4.13,4.13,0,0,1-1.38.12,2.85,2.85,0,0,1-1.1-.1c-.21-.09-.29-.26-.29-.57v-.77a1.85,1.85,0,0,0,0-.43,1.55,1.55,0,0,1,0-.21,4,4,0,0,0,.69,0h1.2v-.41h-1.11a4.49,4.49,0,0,0-.81,0v-.88a6.5,6.5,0,0,0,.82,0h1.22a8,8,0,0,0,.88,0,3.73,3.73,0,0,0,0,.55Z"/><path d="M148.31,138.42h-1.47a7.05,7.05,0,0,0-1,.05v-1.06a6.64,6.64,0,0,0,1,.05h3.83a7,7,0,0,0,1-.05v1.06a7.17,7.17,0,0,0-1-.05h-1.31v1.28h1.89a5.13,5.13,0,0,0,1-.06v1.07a6.75,6.75,0,0,0-1-.05h-1.89v1.72a11.69,11.69,0,0,0,1.63.1c.58,0,1.26,0,2.28-.12a3.89,3.89,0,0,0-.28,1.14c-.82,0-1.34,0-2.13,0-2.34,0-3.65-.51-4.46-1.72a7.08,7.08,0,0,1-1.37,2,2.72,2.72,0,0,0-.86-.82,5.92,5.92,0,0,0,1.72-2.83,6.2,6.2,0,0,0,.2-1.08l1.11.21a3.76,3.76,0,0,0-.15.59,9,9,0,0,1-.26.9,2.93,2.93,0,0,0,1.52,1.39Zm-.17-3.2a3.24,3.24,0,0,0-.06-.64h1.23a3,3,0,0,0-.05.63v.38H152c.4,0,.74,0,1.11,0a5.35,5.35,0,0,0,0,.73v.78a6.46,6.46,0,0,0,0,.78H152v-1.25h-6.45v1.25h-1.11a4.42,4.42,0,0,0,0-.79v-.77c0-.26,0-.51,0-.73.36,0,.7,0,1.1,0h2.6Z"/></g><g class="cls-2"><path d="M62,169.47a11.18,11.18,0,0,0-1.23,0v-1.29a6.37,6.37,0,0,0,1.24.07h4.55v-4.36H62.13a9.7,9.7,0,0,0-1.27,0v-1.3a5.81,5.81,0,0,0,1.29.08H67c.52,0,.52,0,.87,0a5.9,5.9,0,0,0,0,.82v5.49a6.6,6.6,0,0,0,0,1H66.5v-.61Z"/><path d="M70.84,167.54a31.36,31.36,0,0,1,6.63,1.58L77,170.38a18.35,18.35,0,0,0-3.54-1.12,27.67,27.67,0,0,0-3.13-.58Zm.79-2.82a31.42,31.42,0,0,1,5.21,1.16l-.39,1.23a17.19,17.19,0,0,0-2.75-.8,21.8,21.8,0,0,0-2.52-.44Zm.16-2.75a33.44,33.44,0,0,1,5.4,1.08l-.4,1.22a26.36,26.36,0,0,0-5.46-1.14Z"/><path d="M86.06,169.08A4.46,4.46,0,0,0,87,169v1.14a7.64,7.64,0,0,0-.92,0H80.88a7.43,7.43,0,0,0-.92,0V169a4.52,4.52,0,0,0,.92.06h2.94c.17-.89.38-2.3.48-3.21H81.83a6.42,6.42,0,0,0-.89,0v-1.13a5.58,5.58,0,0,0,.91.06h2.53a2.23,2.23,0,0,0,.74-.09l.55.48a3.6,3.6,0,0,0-.23,1.14c-.15,1.1-.26,1.81-.43,2.71Z"/><path d="M89.08,167.92a7,7,0,0,0,1.28.07h5.73a7,7,0,0,0,1.28-.07v1.34a9.91,9.91,0,0,0-1.26,0H90.33a9.83,9.83,0,0,0-1.25,0Zm1-4.87a6,6,0,0,0,1.17.08h3.93a6.07,6.07,0,0,0,1.18-.08v1.32a8.63,8.63,0,0,0-1.17-.05h-4a8.55,8.55,0,0,0-1.16.05Z"/><path d="M105,164.69c0,.1,0,.1,0,.26a6,6,0,0,1-1.29,3.7,6.91,6.91,0,0,1-2.59,1.83,3.08,3.08,0,0,0-.83-1.1,5.68,5.68,0,0,0,2-1.15,4.64,4.64,0,0,0,1.43-3.54h-2.4a8,8,0,0,1-1.65,2,3.12,3.12,0,0,0-1-.79,7.42,7.42,0,0,0,2.11-2.75,4.61,4.61,0,0,0,.49-1.42l1.3.31c-.08.16-.08.16-.38.86l-.3.64h4.37a9.91,9.91,0,0,0,1.26-.05v1.22a3.58,3.58,0,0,0-.61,0H105Z"/><path d="M109.3,165.43a9.82,9.82,0,0,0,1.62.07h5.32a9.82,9.82,0,0,0,1.62-.07v1.39a11,11,0,0,0-1.63,0h-5.3a11,11,0,0,0-1.63,0Z"/><path d="M120.69,164.44a14.35,14.35,0,0,1,2.65,1.36l-.62,1.13a11.62,11.62,0,0,0-2.7-1.47Zm-.45,4.48a9.1,9.1,0,0,0,2.88-.65,6.11,6.11,0,0,0,2.89-2.2,7.4,7.4,0,0,0,1.16-2.21,5.16,5.16,0,0,0,1,.89,8.73,8.73,0,0,1-1.5,2.53,9.09,9.09,0,0,1-5.42,2.84,6.46,6.46,0,0,0-.7.16Zm1.22-6.89a16.3,16.3,0,0,1,2.65,1.28l-.64,1.1a11.83,11.83,0,0,0-2.66-1.37Z"/><path d="M131.5,170.12a6.24,6.24,0,0,0-.89,0v-1.11a4.52,4.52,0,0,0,.89.07h3.84v-1.51h-3.47a6.22,6.22,0,0,0-.9,0v-1.09a4.43,4.43,0,0,0,.9.07h3.47v-1.39h-3.73a6.5,6.5,0,0,0-.9,0v-1.11a4.56,4.56,0,0,0,.9.07h3.93a8.74,8.74,0,0,0,.93,0c0,.36,0,.61,0,1.05v4.58a5,5,0,0,0,0,.76h-1.15v-.47Z"/><path d="M139.51,168.76a9.47,9.47,0,0,0,3-.74,6.68,6.68,0,0,0,3-2.45,8.35,8.35,0,0,0,1-2,4.31,4.31,0,0,0,1.06,1,8.78,8.78,0,0,1-3.17,3.92,10.82,10.82,0,0,1-3.8,1.5,3.54,3.54,0,0,0-.66.17Zm.85-6.21a14.53,14.53,0,0,1,2.57,1.93l-.85,1.09a10.22,10.22,0,0,0-2.55-2Z"/><path d="M155.08,162.7c.3,0,.42,0,.59,0a1.16,1.16,0,1,1,1.15,1.14l-.19,0a9,9,0,0,1-5.73,6.63,3.68,3.68,0,0,0-.88-1.19,7.26,7.26,0,0,0,5.21-5.38h-4.75a7.2,7.2,0,0,0-1.26.06v-1.29a7.86,7.86,0,0,0,1.28.07Zm1.09,0a.66.66,0,0,0,1.31,0,.66.66,0,0,0-1.31,0Z"/><path d="M167.15,165.13a4.51,4.51,0,0,0-.28.63,7.07,7.07,0,0,1-2.32,3.38,9,9,0,0,1-2.61,1.36,3.48,3.48,0,0,0-.78-1.16,6.4,6.4,0,0,0,2.77-1.32,5.2,5.2,0,0,0,1.61-2.34h-4.86a10.17,10.17,0,0,0-1.28,0v-1.22a7.1,7.1,0,0,0,1.3.07h4.75a4.37,4.37,0,0,0,1.13-.09Zm-6.9-3a5.69,5.69,0,0,0,1.17.07h3.48a5.69,5.69,0,0,0,1.17-.07v1.23a7.31,7.31,0,0,0-1.15-.06H161.4a7.31,7.31,0,0,0-1.15.06Z"/><path d="M169.17,168.76a9.53,9.53,0,0,0,3-.74,6.66,6.66,0,0,0,3-2.45,8.35,8.35,0,0,0,1-2,4.31,4.31,0,0,0,1.06,1,8.78,8.78,0,0,1-3.17,3.92,10.75,10.75,0,0,1-3.8,1.5,3.54,3.54,0,0,0-.66.17Zm.85-6.21a14.16,14.16,0,0,1,2.57,1.93l-.85,1.09a10.22,10.22,0,0,0-2.55-2Z"/><path d="M178.81,163.19a4.46,4.46,0,0,0,.81.05h2.06a7.73,7.73,0,0,0,.81,0v1a4.52,4.52,0,0,0-.76,0h-2.11a6,6,0,0,0-.81,0Zm8.64,3.06a3,3,0,0,0-.2.41,7.38,7.38,0,0,1-1.35,2.11,7,7,0,0,0,2.23.91,5.44,5.44,0,0,0-.5,1.07,7.75,7.75,0,0,1-2.5-1.25,8.15,8.15,0,0,1-2.39,1.28,3.48,3.48,0,0,0-.51-.85,4.78,4.78,0,0,0,0,.71h-1v-.34h-1.17v.48h-1a7.63,7.63,0,0,0,.06-1v-1.47a4.63,4.63,0,0,0-.05-.79c.25,0,.46,0,.77,0h1.72a3.43,3.43,0,0,0,.66,0,7.1,7.1,0,0,0,0,.73v1.5a7,7,0,0,0,2.12-1,5.71,5.71,0,0,1-1.29-2.07,2.87,2.87,0,0,0-.44,0V165.7a3,3,0,0,0,.63.05h2.95a3.52,3.52,0,0,0,.7,0Zm-8.32-4.46a4.83,4.83,0,0,0,.84.05h1.44a4.83,4.83,0,0,0,.84-.05v1a5.3,5.3,0,0,0-.84,0H180a5.18,5.18,0,0,0-.84,0Zm0,2.92a5.51,5.51,0,0,0,.66,0h1.78a5,5,0,0,0,.64,0v.93a5.85,5.85,0,0,0-.64,0h-1.78a5.62,5.62,0,0,0-.66,0Zm0,1.41a5.51,5.51,0,0,0,.66,0h1.78a5,5,0,0,0,.64,0v.93a4.17,4.17,0,0,0-.66,0H179.8a5.67,5.67,0,0,0-.65,0Zm1,3.3h1.17v-1h-1.17Zm4.2-6.58a4.06,4.06,0,0,1-.41,1.9,3,3,0,0,1-.73.95,5.3,5.3,0,0,0-.88-.69,2.58,2.58,0,0,0,1-2.49,3.45,3.45,0,0,0-.05-.67,6.41,6.41,0,0,0,.79,0h1.53a7,7,0,0,0,.85,0,6.35,6.35,0,0,0,0,.84v1.48c0,.13.07.17.31.17.4,0,.4,0,.46-1.19a3.91,3.91,0,0,0,.9.35c-.12,1.64-.23,1.76-1.5,1.76-1,0-1.18-.12-1.18-.65v-1.76Zm-.21,3.87a4.16,4.16,0,0,0,1,1.44,5.06,5.06,0,0,0,1-1.44Z"/><path d="M189.61,163.23a4.84,4.84,0,0,0,.85.07H193a4.8,4.8,0,0,0,.85-.06v1a6.13,6.13,0,0,0-.85,0h-2.58a5.58,5.58,0,0,0-.84.05Zm.42-1.38a4.94,4.94,0,0,0,.86.05h1.73a4.76,4.76,0,0,0,.84-.05v1a6.64,6.64,0,0,0-.84,0h-1.73a7,7,0,0,0-.86,0Zm1.06,8.94H190a6.79,6.79,0,0,0,.05-1v-1.51a6.24,6.24,0,0,0,0-.78,5.7,5.7,0,0,0,.7,0h2.15a5.55,5.55,0,0,0,.65,0,4.24,4.24,0,0,0,0,.77v1.47a5.45,5.45,0,0,0,0,.87h-1.06v-.31h-1.39Zm-1.05-6.1a5.62,5.62,0,0,0,.66,0h2.12a3.72,3.72,0,0,0,.64,0v.95a4,4,0,0,0-.64,0H190.7a4.17,4.17,0,0,0-.66,0Zm0,1.42a5.07,5.07,0,0,0,.66,0h2.12a3.72,3.72,0,0,0,.64,0v.95a5.7,5.7,0,0,0-.67,0h-2.1a5.55,5.55,0,0,0-.65,0Zm1,3.34h1.42v-1h-1.42Zm4.62-6.65a6.77,6.77,0,0,0-.07-1.2h1.25a7.72,7.72,0,0,0-.07,1.2v1.8h.71a9.57,9.57,0,0,0,1.21-.06v1.15a11.18,11.18,0,0,0-1.22-.06h-.7v3.65a11.89,11.89,0,0,0,.07,1.51h-1.25a11.38,11.38,0,0,0,.07-1.51v-3.65h-.62a11.18,11.18,0,0,0-1.22.06v-1.15a9.57,9.57,0,0,0,1.21.06h.63Z"/></g><g class="cls-2"><path d="M66.48,195.81a13.59,13.59,0,0,0,1,1.27H65.63A9.4,9.4,0,0,0,65,196l-2-2.8-1.09,1.09v1.47a6.68,6.68,0,0,0,.1,1.29H60.54a8.58,8.58,0,0,0,.08-1.29v-5.38a8.2,8.2,0,0,0-.08-1.28H62a6.88,6.88,0,0,0-.1,1.28v2.33l2.55-2.65a4.63,4.63,0,0,0,.78-1h1.89l-1.06,1.05-2.14,2.19Z"/><path d="M69.09,197.08a8.09,8.09,0,0,0,.08-1.29v-5.4a9,9,0,0,0-.08-1.29c.43,0,.74,0,1.27,0h2.08a2.84,2.84,0,0,1,2.13.71,2.3,2.3,0,0,1,.62,1.71,2.57,2.57,0,0,1-.67,1.84,2.83,2.83,0,0,1-2.13.72h-1.9v1.67a7.05,7.05,0,0,0,.08,1.3Zm3.3-4.12a1.26,1.26,0,0,0,1.42-1.37,1.31,1.31,0,0,0-.33-1,1.37,1.37,0,0,0-1.09-.37h-1.9V193Z"/><path d="M78.47,189.13a7.34,7.34,0,0,0-.08,1.28v5.38a7.55,7.55,0,0,0,.08,1.29H77a7.55,7.55,0,0,0,.08-1.29v-5.38a7.42,7.42,0,0,0-.08-1.28Z"/><path d="M83.6,193.16A1.19,1.19,0,1,1,82.41,192,1.19,1.19,0,0,1,83.6,193.16Z"/><path d="M88,196.38v.7H86.74a6.68,6.68,0,0,0,0-.86v-5.73a6.47,6.47,0,0,0,0-.83c.24,0,.45,0,.84,0h5.68c.43,0,.61,0,.84,0,0,.26,0,.45,0,.82v5.72a6.85,6.85,0,0,0,0,.87H92.82v-.69Zm4.8-5.57H88v4.43h4.8Z"/><path d="M96.64,192.43a9.75,9.75,0,0,0,1.61.07h5.33a9.82,9.82,0,0,0,1.62-.07v1.39a11,11,0,0,0-1.63,0h-5.3a11,11,0,0,0-1.63,0Z"/><path d="M108.29,197.41a7.64,7.64,0,0,0,0-1.12v-6.4a6.91,6.91,0,0,0,0-1h1.36a8.29,8.29,0,0,0,0,1v1.85a29.09,29.09,0,0,1,4.54,2.11l-.7,1.18a24.29,24.29,0,0,0-3.54-1.91l-.34-.17a5.71,5.71,0,0,1,0,.68v2.64a10.26,10.26,0,0,0,0,1.11Zm4.11-8a6.2,6.2,0,0,1,1,1.46l-.7.37a6.68,6.68,0,0,0-1-1.48Zm1.55,1.2a7.6,7.6,0,0,0-1-1.44l.67-.35a5.78,5.78,0,0,1,1,1.41Z"/><path d="M118.42,192.16a16.19,16.19,0,0,1,1.24,1.11c.55.56.55.56.62.62a12.28,12.28,0,0,0,1.31-1.26,13.23,13.23,0,0,0,1.22-1.63l.06-.09,0,0a4,4,0,0,1-.46,0h-4.76a9.52,9.52,0,0,0-1.28,0v-1.26a8.4,8.4,0,0,0,1.3.07l5.55,0a2.35,2.35,0,0,0,.83-.08l.7.79a3.12,3.12,0,0,0-.44.59,15.47,15.47,0,0,1-3.23,3.79c.42.48.8,1,1.32,1.67l-1,.84a16.46,16.46,0,0,0-1.93-2.52,16.84,16.84,0,0,0-2-1.93Z"/><path d="M127.74,191.21a11,11,0,0,1,1,2.37l-1.12.36a10,10,0,0,0-.91-2.42Zm5.73.07a2.1,2.1,0,0,0-.14.51,8.54,8.54,0,0,1-1.38,3.33,7.71,7.71,0,0,1-3,2.41,3.83,3.83,0,0,0-.8-1,6.59,6.59,0,0,0,1.69-.92,5.75,5.75,0,0,0,2.27-3.47,4.44,4.44,0,0,0,.18-1.15Zm-3.61-.48a9.82,9.82,0,0,1,1,2.3l-1.11.35a11,11,0,0,0-.91-2.35Z"/><path d="M141.43,189.7c.3,0,.42,0,.59,0a1.16,1.16,0,1,1,1.15,1.14l-.19,0a9,9,0,0,1-5.73,6.63,3.68,3.68,0,0,0-.88-1.19,7.26,7.26,0,0,0,5.21-5.38h-4.75a7.2,7.2,0,0,0-1.26.06v-1.29a7.86,7.86,0,0,0,1.28.07Zm1.09,0a.66.66,0,0,0,1.31,0,.66.66,0,0,0-1.31,0Z"/><path d="M145.56,190.19a4.46,4.46,0,0,0,.81.05h2a7.73,7.73,0,0,0,.81,0v1a4.52,4.52,0,0,0-.76,0h-2.1a6,6,0,0,0-.81,0Zm8.64,3.06a3,3,0,0,0-.2.41,7.38,7.38,0,0,1-1.35,2.11,7,7,0,0,0,2.23.91,5.44,5.44,0,0,0-.5,1.07,7.75,7.75,0,0,1-2.5-1.25,8.09,8.09,0,0,1-2.4,1.28,3.48,3.48,0,0,0-.51-.85,4.78,4.78,0,0,0,0,.71h-1v-.34h-1.17v.48h-1a7.63,7.63,0,0,0,.06-1v-1.47a4.63,4.63,0,0,0-.05-.79c.25,0,.46,0,.77,0h1.71a3.55,3.55,0,0,0,.67,0,4.75,4.75,0,0,0,0,.73v1.5a7,7,0,0,0,2.13-1,5.71,5.71,0,0,1-1.29-2.07,2.89,2.89,0,0,0-.45,0V192.7a3.08,3.08,0,0,0,.64.05H153a3.52,3.52,0,0,0,.7,0Zm-8.32-4.46a4.83,4.83,0,0,0,.84.05h1.44a4.9,4.9,0,0,0,.84-.05v1a5.43,5.43,0,0,0-.84,0h-1.44a5.18,5.18,0,0,0-.84,0Zm0,2.92a5.51,5.51,0,0,0,.66,0h1.77a4.81,4.81,0,0,0,.64,0v.93a5.72,5.72,0,0,0-.64,0h-1.77a5.62,5.62,0,0,0-.66,0Zm0,1.41a5.51,5.51,0,0,0,.66,0h1.77a4.81,4.81,0,0,0,.64,0v.93a4,4,0,0,0-.65,0h-1.77a5.67,5.67,0,0,0-.65,0Zm1,3.3H148v-1h-1.17Zm4.2-6.58a4.06,4.06,0,0,1-.41,1.9,2.92,2.92,0,0,1-.74.95A5.25,5.25,0,0,0,149,192a2.58,2.58,0,0,0,1-2.49,3.45,3.45,0,0,0-.05-.67,6.41,6.41,0,0,0,.79,0h1.53a7,7,0,0,0,.85,0,6.35,6.35,0,0,0,0,.84v1.48c0,.13.07.17.31.17.4,0,.4,0,.46-1.19a3.91,3.91,0,0,0,.9.35c-.12,1.64-.23,1.76-1.5,1.76-1,0-1.18-.12-1.18-.65v-1.76Zm-.21,3.87a4.16,4.16,0,0,0,1,1.44,5.06,5.06,0,0,0,1-1.44Z"/><path d="M156.36,190.23a4.84,4.84,0,0,0,.85.07h2.56a4.73,4.73,0,0,0,.85-.06v1a6,6,0,0,0-.85,0H157.2a5.58,5.58,0,0,0-.84.05Zm.42-1.38a4.94,4.94,0,0,0,.86.05h1.73a4.83,4.83,0,0,0,.84-.05v1a6.74,6.74,0,0,0-.84,0h-1.73a7,7,0,0,0-.86,0Zm1.06,8.94h-1.06a6.79,6.79,0,0,0,.05-1v-1.51a6.24,6.24,0,0,0,0-.78,5.7,5.7,0,0,0,.7,0h2.14a5.43,5.43,0,0,0,.65,0,5.41,5.41,0,0,0,0,.77v1.47a5.29,5.29,0,0,0,0,.87h-1.07v-.31h-1.38Zm-1.05-6.1a5.62,5.62,0,0,0,.66,0h2.11a3.72,3.72,0,0,0,.64,0v.95a4,4,0,0,0-.64,0h-2.11a4.17,4.17,0,0,0-.66,0Zm0,1.42a5.07,5.07,0,0,0,.66,0h2.11a3.72,3.72,0,0,0,.64,0v.95a5.39,5.39,0,0,0-.66,0h-2.1a5.55,5.55,0,0,0-.65,0Zm1,3.34h1.42v-1h-1.42Zm4.62-6.65a6.77,6.77,0,0,0-.07-1.2h1.25a7.72,7.72,0,0,0-.07,1.2v1.8h.71a9.57,9.57,0,0,0,1.21-.06v1.15a11.18,11.18,0,0,0-1.22-.06h-.7v3.65a11.89,11.89,0,0,0,.07,1.51h-1.25a11.38,11.38,0,0,0,.07-1.51v-3.65h-.62a11.18,11.18,0,0,0-1.22.06v-1.15a9.57,9.57,0,0,0,1.21.06h.63Z"/></g></g><circle id="楕円形_38" data-name="楕円形 38" class="cls-3" cx="42.49" cy="113.24" r="6.34"/><circle id="楕円形_39" data-name="楕円形 39" class="cls-3" cx="42.1" cy="141.25" r="6.34"/><circle id="楕円形_40" data-name="楕円形 40" class="cls-3" cx="42.1" cy="169.26" r="6.34"/><circle id="楕円形_41" data-name="楕円形 41" class="cls-3" cx="42.1" cy="197.27" r="6.34"/><g id="戦略設計" class="cls-2"><g class="cls-2"><path d="M41.64,32.54c-.09.16-.09.16-.32.51a3.16,3.16,0,0,1-.18.34,23.23,23.23,0,0,1-2.6,4.07c.53,1.5,1.17,2.67,1.47,2.67s.53-1.06.76-2.94a7.61,7.61,0,0,0,1.91,1.49c-.49,3-1.27,4.46-2.42,4.46a3.11,3.11,0,0,1-2-1.24,9.64,9.64,0,0,1-1.47-2.53,22.05,22.05,0,0,1-4.69,3.52A8.38,8.38,0,0,0,30.49,41,21.19,21.19,0,0,0,33,39.6a19.74,19.74,0,0,0-2-.09H28.6v1.36a16.38,16.38,0,0,0,.14,2.43H26.19a16.65,16.65,0,0,0,.14-2.46V39.51H23.8a19.42,19.42,0,0,0-2.53.14V37.19a19.13,19.13,0,0,0,2.48.14h2.58V35.67H24.19a15.7,15.7,0,0,0-2.12.09,17.42,17.42,0,0,0,.07-1.95V28.7a18.08,18.08,0,0,0-.07-2,12.41,12.41,0,0,0,1.77.09h4.95A18.06,18.06,0,0,0,31,22.17l2.32.83a23.8,23.8,0,0,1-2.11,3.82,11.86,11.86,0,0,0,1.67-.09,17.74,17.74,0,0,0-.09,2.11v4.88a16.41,16.41,0,0,0,.09,2,18.82,18.82,0,0,0-2.16-.09H28.6v1.66H31a17.25,17.25,0,0,0,2.34-.12v2.14A19.68,19.68,0,0,0,36,37a36.26,36.26,0,0,1-.92-6.15,13.47,13.47,0,0,0-1.79.26l-.16-2.42h.39c.39,0,.87,0,1.42-.07-.06-1.21-.11-2.69-.13-4.37a16.94,16.94,0,0,0-.14-2h2.64a10.86,10.86,0,0,0-.11,2.17c0,1.17,0,2.55,0,4l2.79-.25a12.65,12.65,0,0,0,2-.31l.13,2.4H42c-.53,0-.85,0-1.82.11l-2.78.28a41.55,41.55,0,0,0,.48,4.16,12.38,12.38,0,0,0,1.66-3.5ZM23.45,22.4a19.25,19.25,0,0,1,1.71,3.43L23,26.59a13.94,13.94,0,0,0-1.56-3.41Zm.88,6.44v1.45h2V28.84Zm0,3.34v1.54h2V32.18ZM27.59,22.1A19.64,19.64,0,0,1,29,25.78l-2.19.62a14.75,14.75,0,0,0-1.28-3.61Zm1,8.19h2V28.84h-2Zm0,3.43h2V32.18h-2ZM40,27.55a17.76,17.76,0,0,0-2.35-3.74l1.66-1.06a19.74,19.74,0,0,1,2.46,3.63Z"/><path d="M56.13,35.14a8.91,8.91,0,0,0-.75-1.49V38a16.22,16.22,0,0,0,.11,2.3H53.42V39.28H49.31v1.79H47.08a22.17,22.17,0,0,0,.13-2.73V25.44c0-1,0-1.82-.09-2.33.51.05,1.29.07,2.21.07h3.86c1.1,0,1.63,0,2.26-.07-.05.37-.07,1.34-.07,2.26v2a11.56,11.56,0,0,0,3.77-5.65l2.37.78a5.07,5.07,0,0,0-.33.66,3.82,3.82,0,0,1-.2.46h2.89a10.45,10.45,0,0,0,1.84-.11L66.94,25c-.11.19-.16.26-.27.46a21,21,0,0,1-3.31,4.74,20.38,20.38,0,0,0,5,2.37A9.45,9.45,0,0,0,67.29,35l-.92-.41c0,.34,0,.62,0,1.24v4.92a17,17,0,0,0,.12,2.51H63.93V42.13H59.26v1.15H56.78a24.15,24.15,0,0,0,.11-2.51V35.85c0-.43,0-.64,0-1ZM49.31,30h1.1V25.39h-1.1Zm0,7h1.1v-4.9h-1.1Zm3-7h1.1V25.39h-1.1Zm0,7h1.1v-4.9h-1.1Zm3.06-4.16A16.55,16.55,0,0,0,60,30.29,14.66,14.66,0,0,1,58.11,28a16.55,16.55,0,0,1-1.77,1.79c-.41-.59-.55-.8-1-1.33Zm9.22,1.45c.62,0,.85,0,1.19,0a21,21,0,0,1-4.11-2.5,20.07,20.07,0,0,1-3.82,2.53H64.6ZM59.26,40h4.67V36.52H59.26Zm.58-14.21c-.19.27-.26.36-.39.57a9.55,9.55,0,0,0,2.09,2.55,12.83,12.83,0,0,0,2.18-3.12Z"/><path d="M72,25.83a10.49,10.49,0,0,0,1.86.11h4.74a12.06,12.06,0,0,0,1.86-.09v2.37a10.26,10.26,0,0,0-1.74-.09H73.89a13.79,13.79,0,0,0-1.86.09Zm19.89,7a6.24,6.24,0,0,0-.46,1,17.1,17.1,0,0,1-3.1,4.85,16.06,16.06,0,0,0,5.12,2.09,13.64,13.64,0,0,0-1.15,2.46,17.71,17.71,0,0,1-5.74-2.87,18.61,18.61,0,0,1-5.52,2.94,7.84,7.84,0,0,0-1.18-2A10.67,10.67,0,0,0,80,43H77.71v-.78H75v1.1H72.67A16.18,16.18,0,0,0,72.81,41V37.62a10.84,10.84,0,0,0-.11-1.81c.57,0,1,.07,1.77.07h4A8,8,0,0,0,80,35.81a10.7,10.7,0,0,0-.07,1.68v3.45a16.15,16.15,0,0,0,4.9-2.23,13.17,13.17,0,0,1-3-4.76,6.3,6.3,0,0,0-1,.09V31.6a7.22,7.22,0,0,0,1.47.12h6.79a7.9,7.9,0,0,0,1.61-.1ZM72.77,22.59a11.31,11.31,0,0,0,1.93.11H78a11.38,11.38,0,0,0,1.93-.11v2.23A15.53,15.53,0,0,0,78,24.73H74.7a15,15,0,0,0-1.93.09Zm0,6.73a11.86,11.86,0,0,0,1.52.07h4.09a10.52,10.52,0,0,0,1.47-.07v2.14a14.61,14.61,0,0,0-1.47-.07H74.33a14.34,14.34,0,0,0-1.52.07Zm0,3.25a14.06,14.06,0,0,0,1.52.07h4.09a12.37,12.37,0,0,0,1.47-.07V34.7a10.82,10.82,0,0,0-1.51-.06H74.31a15,15,0,0,0-1.5.06ZM75,40.15h2.69V37.88H75ZM84.7,25a9.47,9.47,0,0,1-.94,4.37,6.83,6.83,0,0,1-1.7,2.19,12.53,12.53,0,0,0-2-1.59c1.81-1.33,2.39-2.73,2.39-5.75a8.09,8.09,0,0,0-.12-1.54,14.68,14.68,0,0,0,1.82.09h3.52a16,16,0,0,0,2-.09,14.77,14.77,0,0,0-.09,2v3.4c0,.3.16.39.71.39.92,0,.92,0,1.06-2.76a9.14,9.14,0,0,0,2.07.83c-.28,3.77-.53,4.05-3.45,4.05-2.23,0-2.71-.28-2.71-1.5V25Zm-.48,8.9a9.38,9.38,0,0,0,2.3,3.31,11.38,11.38,0,0,0,2.27-3.31Z"/><path d="M97.45,25.92a11.5,11.5,0,0,0,2,.14h5.91a10.33,10.33,0,0,0,2-.12v2.3a15.3,15.3,0,0,0-2-.09H99.38a13,13,0,0,0-1.93.12Zm1-3.2a10.62,10.62,0,0,0,2,.12h4a10.52,10.52,0,0,0,1.95-.12V25a15.67,15.67,0,0,0-1.95-.09h-4a16,16,0,0,0-2,.09Zm2.44,20.58H98.41a15.73,15.73,0,0,0,.12-2.2V37.62a14.08,14.08,0,0,0-.1-1.79,12.33,12.33,0,0,0,1.61.07H105a11.64,11.64,0,0,0,1.49-.07,12.38,12.38,0,0,0-.09,1.77V41a12.37,12.37,0,0,0,.11,2H104v-.71h-3.19Zm-2.42-14a14.49,14.49,0,0,0,1.52.07h4.88a8.4,8.4,0,0,0,1.47-.07v2.18a9,9,0,0,0-1.47-.07H100a9.48,9.48,0,0,0-1.52.07Zm0,3.26a11.06,11.06,0,0,0,1.52.07h4.88a8.4,8.4,0,0,0,1.47-.07v2.19a11.86,11.86,0,0,0-1.52-.07H99.93a12,12,0,0,0-1.5.07Zm2.37,7.68h3.27V38H100.8Zm10.65-15.31a15.37,15.37,0,0,0-.16-2.76h2.87a18.42,18.42,0,0,0-.16,2.76v4.16h1.63a22.37,22.37,0,0,0,2.79-.14v2.65a26.38,26.38,0,0,0-2.81-.14H114v8.39a28.24,28.24,0,0,0,.16,3.47h-2.87a27,27,0,0,0,.16-3.47V31.44H110a26,26,0,0,0-2.8.14V28.93a22.19,22.19,0,0,0,2.78.14h1.45Z"/></g></g><g id="企業の様々な課題に合わせて_柔軟な戦略立案をします" data-name="企業の様々な課題に合わせて 柔軟な戦略立案をします" class="cls-2"><g class="cls-2"><path d="M30.25,56A12.68,12.68,0,0,0,35,60.09a5,5,0,0,0-.68.92,15.2,15.2,0,0,1-4.56-4,14.13,14.13,0,0,1-4.44,4.07,4.47,4.47,0,0,0-.65-.83A12.44,12.44,0,0,0,29.2,56Zm.18,8.91h4v.92H25.2v-.92h1.29v-4h1v4h1.85V59h1.08v2.47h3v.92h-3Z"/><path d="M43.3,63.55A10.11,10.11,0,0,0,47,65a4.38,4.38,0,0,0-.68.92,10,10,0,0,1-3.94-2.07V66.1h-1V64a10.79,10.79,0,0,1-3.91,2,4.53,4.53,0,0,0-.67-.86,10.83,10.83,0,0,0,3.71-1.53h-3.4v-.86h4.27V62H38.17v-.77h3.24v-.66H37.63v-.82h2.25a6.36,6.36,0,0,0-.46-1l.26,0H37.19v-.86h1.62a8.09,8.09,0,0,0-.8-1.49l.89-.29a7.39,7.39,0,0,1,.88,1.57l-.56.21h1.21V56h1v1.88h1.09V56h1v1.88h1.18l-.41-.13A10.56,10.56,0,0,0,45,56.11l1,.26a15.19,15.19,0,0,1-.91,1.5h1.58v.86H44.59c-.21.37-.43.74-.62,1h2.34v.82h-3.9v.66h3.38V62H42.41v.67h4.34v.86Zm-2.83-4.82a4.62,4.62,0,0,1,.48,1l-.32.06H43a8.35,8.35,0,0,0,.48-1Z"/><path d="M53.62,64.56a6.88,6.88,0,0,0,1-.15,3.14,3.14,0,0,0,2.64-3.1,2.88,2.88,0,0,0-2.62-3A23.94,23.94,0,0,1,54,61.34c-.66,2.22-1.56,3.46-2.65,3.46s-2.07-1.22-2.07-3a4.74,4.74,0,0,1,4.88-4.52,4,4,0,0,1,4.27,4.12c0,2.27-1.46,3.86-4.12,4.23Zm-.77-3.46a14.47,14.47,0,0,0,.59-2.8,3.66,3.66,0,0,0-3.1,3.37c0,1.25.56,1.82,1,1.82S52.34,62.79,52.85,61.1Z"/><path d="M64,62.53c-.14-.34-.46-.93-.75-1.45v5h-1V61.43a10.32,10.32,0,0,1-1.17,2.65,5.08,5.08,0,0,0-.49-.89,11.7,11.7,0,0,0,1.58-3.92H60.83v-1h1.42V56h1v2.32h1.18v1H63.2v.6c.3.4,1.11,1.63,1.29,1.92Zm2.93,1.55c-.83.48-1.73,1-2.46,1.38L64,64.6c.68-.31,1.67-.83,2.65-1.36Zm2.1-.83a4.57,4.57,0,0,0,1.94,1.54,4.25,4.25,0,0,0-.63.82,5.43,5.43,0,0,1-2.23-2.27V65c0,.5-.1.76-.41.92a3.74,3.74,0,0,1-1.5.17,3.56,3.56,0,0,0-.27-.92c.42,0,.87,0,1,0s.17,0,.17-.18V61.07H64.38v-.86h2.69v-.68H64.92v-.78h2.15v-.62H64.61v-.82h1.27a7.9,7.9,0,0,0-.5-1l.8-.28a5.44,5.44,0,0,1,.64,1.24l-.12.05h1.62A10.86,10.86,0,0,0,68.89,56l1,.27c-.22.38-.44.75-.64,1.06h1.29v.82h-2.5v.62h2.25v.78H68.06v.68h2.67v.86H68.06v.46a7.79,7.79,0,0,0,.57,1.2,10.2,10.2,0,0,0,1.22-1.35l.78.55a13.2,13.2,0,0,1-1.49,1.44Zm-3.59-1.83A8.08,8.08,0,0,1,66.5,62.8l-.75.52a9.18,9.18,0,0,0-1.06-1.43Z"/><path d="M81.66,59.06a17.8,17.8,0,0,1-2.32,4.3,9.52,9.52,0,0,1,1.45,1.14l-.73,1a15.22,15.22,0,0,0-4.17-2.8l.65-.86a16.38,16.38,0,0,1,1.85,1,15.6,15.6,0,0,0,1.74-3.06H76.67a13,13,0,0,1-2.37,3.34,6.7,6.7,0,0,0-1-.59,13.7,13.7,0,0,0,3.43-6l1.15.26c-.21.62-.45,1.26-.74,1.9h3.52l.2,0Z"/><path d="M90.12,58.72a17.13,17.13,0,0,1-1.94.38,19.21,19.21,0,0,1-2.36,4.63l-1.06-.54a15.78,15.78,0,0,0,2.28-4l-.78,0c-.42,0-.87,0-1.31,0l-.08-1c.43,0,.95.07,1.39.07s.73,0,1.12,0a8.87,8.87,0,0,0,.32-1.85l1.2.11c-.09.38-.23,1-.4,1.6a10.73,10.73,0,0,0,1.58-.38Zm1.34,1.13c0,.46,0,.84,0,1.28s0,1,.08,1.59a7.14,7.14,0,0,1,2.25,1.38L93.2,65a8.85,8.85,0,0,0-1.63-1.21v.3c0,.92-.56,1.67-2,1.67-1.27,0-2.29-.54-2.29-1.67s.92-1.75,2.28-1.75a4.53,4.53,0,0,1,.91.08c0-.86-.1-1.88-.12-2.6Zm-.95,3.54a3.9,3.9,0,0,0-1-.13c-.72,0-1.2.32-1.2.76s.38.78,1.13.78a1,1,0,0,0,1.09-1A2.89,2.89,0,0,0,90.51,63.39Zm3-3.12A13.86,13.86,0,0,0,91,58.75l.55-.85a17.09,17.09,0,0,1,2.61,1.47Z"/><path d="M100.05,58.63h-3.9v-.81h3.9Zm-.27,6.86h-2.3V66h-.86v-3.7h3.16Zm0-5.39H96.63v-.79h3.14Zm-3.14.67h3.14v.81H96.63Zm3.1-3.6H96.67v-.81h3.06Zm-2.25,5.92v1.58h1.43V63.09Zm6.62-.61a7.66,7.66,0,0,0,2.28,2.32,4.27,4.27,0,0,0-.7.77,9.25,9.25,0,0,1-2.05-2.33v2.85h-1V63.34a7.76,7.76,0,0,1-2.17,2.3,3.89,3.89,0,0,0-.68-.78,6.69,6.69,0,0,0,2.41-2.38h-2v-.91h2.46v-.8h-2.08V56.43h5.22v4.34h-2.15v.8h2.46v.91Zm-2.63-4.28h1.22v-.94h-1.22Zm0,1.75h1.22V59h-1.22Zm3.37-2.69h-1.26v.94h1.26Zm0,1.73h-1.26v1h1.26Z"/><path d="M111.34,64.69a8.61,8.61,0,0,0,2.92.34c.61,0,3.43,0,4.17,0a3,3,0,0,0-.34.86h-3.83c-2.23,0-3.73-.24-4.66-1.6a4.21,4.21,0,0,1-.81,1.87,2.9,2.9,0,0,0-.62-.69A6,6,0,0,0,109,62h.84a12.29,12.29,0,0,1-.08,1.23,2.82,2.82,0,0,0,.71,1V61.45h-2.1v-.78h4.9v.78h-1.92v1h1.72v.77h-1.72Zm1.34-4.75h-3.74v-3.5h3.74Zm-1-2.78h-1.89v.69h1.89Zm0,1.36h-1.89v.7h1.89Zm3.6,4.74a6.78,6.78,0,0,1-1.92,1.61,5,5,0,0,0-.68-.62A5.07,5.07,0,0,0,114.48,63ZM115,58c.08-.23.14-.47.21-.72h-2V56.5h5v.75h-2.06c-.09.25-.19.5-.29.72h2v4.88h-4.21V58Zm1.86.72h-2.33v.69h2.33Zm0,1.37h-2.33v.68h2.33Zm0,1.37h-2.33v.7h2.33ZM116.72,63a8.85,8.85,0,0,1,1.66,1.4l-.74.46A9.2,9.2,0,0,0,116,63.34Z"/><path d="M122.89,56.91a7,7,0,0,0-.23.84,25.48,25.48,0,0,0-.54,4.1,9,9,0,0,0,.07,1.15c.17-.44.39-1,.55-1.37l.58.44a19.7,19.7,0,0,0-.78,2.54,1.84,1.84,0,0,0-.06.5c0,.11,0,.27,0,.41l-1,.06a13.56,13.56,0,0,1-.42-3.52,30.87,30.87,0,0,1,.48-4.34,9,9,0,0,0,.1-.91Zm2.51,5.33a4,4,0,0,0-.14,1c0,.49.37.88,1.69.88a12,12,0,0,0,2.71-.29l0,1.17a15.06,15.06,0,0,1-2.77.22c-1.84,0-2.7-.64-2.7-1.7a6.55,6.55,0,0,1,.19-1.34Zm3.94-4.55v1.13a27.77,27.77,0,0,1-4.56,0V57.7A19.85,19.85,0,0,0,129.34,57.69Z"/><path d="M137.54,56a12.27,12.27,0,0,0,4.76,3.84,5,5,0,0,0-.67.91,13.31,13.31,0,0,1-1.78-1.11v.78h-5.48V59.7a15.52,15.52,0,0,1-1.77,1.12A3.69,3.69,0,0,0,132,60a12.14,12.14,0,0,0,4.52-4Zm-3.8,5.67h6.78v4.42h-1v-.43h-4.73v.43h-1Zm5.92-2.16A12.43,12.43,0,0,1,137.07,57a11.46,11.46,0,0,1-2.48,2.51Zm-4.91,3.08v2.16h4.73V62.61Z"/><path d="M148.35,58.52c-.14.2-.34.5-.52.78,0,.18,0,.36,0,.54a5.41,5.41,0,0,1,3.35-1.25,2.8,2.8,0,0,1,2.92,2.82c0,2.2-1.49,3.42-4,3.92l-.5-1c1.87-.27,3.39-1.09,3.39-2.89a1.84,1.84,0,0,0-2-1.79,4.83,4.83,0,0,0-3.26,1.47c0,.4,0,.78,0,1.12,0,1,0,1.73,0,2.72,0,.2,0,.52.06.74H146.6c0-.19,0-.54,0-.72,0-1,0-1.64,0-2.85-.51.75-1.14,1.7-1.61,2.33l-.68-1c.61-.75,1.8-2.32,2.38-3.2l0-1-2,.28-.11-1.13c.27,0,.5,0,.81,0s.9-.09,1.43-.16c0-.48.06-.83.06-1a4.49,4.49,0,0,0-.06-.88l1.29,0a15.37,15.37,0,0,0-.22,1.56Z"/><path d="M164.09,56.71a7.12,7.12,0,0,0-.05.86c0,.46,0,.94,0,1.37.37,0,.72-.06,1-.08s.66,0,.94-.07v1.08c-.18,0-.66,0-.94,0l-1.06.06a16.1,16.1,0,0,1-.16,2.24c-.1.52-.35.66-.88.66a13.9,13.9,0,0,1-1.52-.16l0-1a6.77,6.77,0,0,0,1.05.13c.24,0,.35,0,.38-.26A12.16,12.16,0,0,0,163,60c-1,.08-2.23.2-3.24.3,0,1.07,0,2.15,0,2.59,0,1.12.07,1.46,1.84,1.46a21.91,21.91,0,0,0,3.25-.26l0,1.17c-.74.08-2.07.18-3.15.18-2.65,0-2.94-.59-3-2.39,0-.46,0-1.57,0-2.64l-1,.11-1.19.17-.12-1.11c.33,0,.78,0,1.23-.07l1.06-.1V58.09a7.31,7.31,0,0,0-.07-1.05h1.21a9.61,9.61,0,0,0,0,1c0,.31,0,.78,0,1.29L163,59v-1.4a7.85,7.85,0,0,0-.07-.9Z"/><path d="M169,57.76l4.75-.43c1.16-.09,2.25-.15,3-.17v1.1a9.81,9.81,0,0,0-2.11.16,3.58,3.58,0,0,0-2.41,3.27c0,2,1.85,2.64,3.65,2.72l-.4,1.17c-2.13-.11-4.38-1.25-4.38-3.66A4.32,4.32,0,0,1,173,58.39c-1,.11-3.63.37-4.84.62L168,57.82Z"/></g><g class="cls-2"><path d="M31.21,79.19A9.87,9.87,0,0,0,34.92,81a4.53,4.53,0,0,0-.67.86,10.32,10.32,0,0,1-3.92-2.3V82.1h-1V79.57a10.4,10.4,0,0,1-3.86,2.37,6,6,0,0,0-.68-.85,10.17,10.17,0,0,0,3.65-1.9H25V78.3h4.3v-.56h-.9a4.67,4.67,0,0,0-.31-.81c.55,0,1.11,0,1.25,0s.21,0,.21-.16V75.48h-.1a10.17,10.17,0,0,1-3.84,2.35,3.32,3.32,0,0,0-.63-.78,11,11,0,0,0,3.22-1.57h-3v-.82h4.58a17.26,17.26,0,0,0-2.22-.57l.58-.58a12,12,0,0,1,1.75.42,11.75,11.75,0,0,0,1.48-.7H26.13v-.81h6.38l.22-.06.66.52A10.69,10.69,0,0,1,31,74.29a6.74,6.74,0,0,1,.78.3l-.06.07h1.93l.2,0,.78.26a12.78,12.78,0,0,1-1.77,2.21l-.91-.35A8.64,8.64,0,0,0,33,75.48H30.59v1.34c0,.47-.11.69-.49.8l-.15,0h.38v.63h4.35v.89Z"/><path d="M44.67,76.67a5.5,5.5,0,0,0,2.46,4.55c-.17.22-.47.64-.63.88a5.75,5.75,0,0,1-2.34-3.66,5.59,5.59,0,0,1-2.6,3.67,5.12,5.12,0,0,0-.58-.85,5.42,5.42,0,0,0,2.7-4.59V74.92h-.56a8.51,8.51,0,0,1-1,2.12,4.45,4.45,0,0,0-.57-.42v2H39.87v.74h2v.9h-2v1.84h-1V80.25h-2v-.9h2v-.74H37.24V74.73h1.67V74H37v-.89h1.87V72h1v1.12h1.86V74H39.88v.73h1.7V76A11,11,0,0,0,42.73,72l1,.14c-.1.64-.21,1.26-.35,1.85H46l.17,0,.68.17a27.24,27.24,0,0,1-.71,3l-.81-.21c.13-.51.29-1.28.41-2H44.67ZM38,76.31h1v-.84H38Zm0,1.55h1V77H38Zm2.7-2.39h-1v.84h1Zm0,1.54h-1v.85h1Z"/><path d="M54.84,74.72a17.37,17.37,0,0,1-1.93.38,19.24,19.24,0,0,1-2.37,4.63l-1.06-.54a15.19,15.19,0,0,0,2.28-4c-.26,0-.52,0-.78,0-.42,0-.87,0-1.31,0l-.08-1c.43,0,.95.07,1.39.07s.74,0,1.12-.05a8.26,8.26,0,0,0,.32-1.85l1.2.11c-.09.38-.23,1-.4,1.6a11.19,11.19,0,0,0,1.59-.38Zm1.34,1.13c0,.46,0,.84,0,1.28s0,1,.08,1.59A7,7,0,0,1,58.5,80.1l-.58.93a8.85,8.85,0,0,0-1.63-1.21v.3c0,.92-.56,1.67-2,1.67C53,81.79,52,81.25,52,80.12s.93-1.75,2.28-1.75a4.47,4.47,0,0,1,.91.08c0-.86-.09-1.88-.12-2.6Zm-.94,3.54a4,4,0,0,0-1-.13c-.73,0-1.2.32-1.2.76s.37.78,1.12.78a1,1,0,0,0,1.09-1C55.25,79.67,55.25,79.55,55.24,79.39Zm3-3.12a13.78,13.78,0,0,0-2.54-1.52l.55-.85a17,17,0,0,1,2.6,1.47Z"/><path d="M64.26,80.23v1.86h-1V80.23H60.87v-.91h2.41V78.5h-2v-4h5v4h-2v.82h2.36v.91Zm-2.65-5.88a6.58,6.58,0,0,0-.72-1.83l.84-.27A6,6,0,0,1,62.5,74Zm.5,1.8h1.22v-.83H62.11Zm0,1.57h1.22v-.84H62.11Zm1.24-3.63a8.32,8.32,0,0,0-.46-1.87l.86-.2a7.7,7.7,0,0,1,.52,1.84Zm2.06,1.23H64.2v.83h1.21Zm0,1.56H64.2v.84h1.21Zm1.32-4.53a20.56,20.56,0,0,1-1.17,2.11l-.83-.27a11.11,11.11,0,0,0,1-2.14Zm4,4.2a11.31,11.31,0,0,1-1.54,3c.25.82.54,1.32.87,1.34s.35-.55.43-1.57a3.13,3.13,0,0,0,.74.57c-.25,1.75-.72,2.21-1.17,2.19-.69,0-1.21-.62-1.59-1.64a8.44,8.44,0,0,1-2.08,1.65,3.66,3.66,0,0,0-.74-.73,7.43,7.43,0,0,0,2.5-2,24.31,24.31,0,0,1-.51-3.33l-1.08.13-.12-1,1.12-.13c-.06-1-.12-2-.15-3h1c0,1,0,2,.12,2.93l2.45-.3.12,1-2.48.31a23,23,0,0,0,.32,2.4,10,10,0,0,0,1-2.23ZM70,74.44a7.76,7.76,0,0,0-1.15-1.87l.77-.4A7.72,7.72,0,0,1,70.85,74Z"/><path d="M82.64,73.41a8.4,8.4,0,0,1-1.79,2.8,7.79,7.79,0,0,0,2.49,1.41,4.36,4.36,0,0,0-.66.86l-.23-.1V82h-1V81.7H78.77v.36h-1V78.41a3.75,3.75,0,0,1-.41.19,3.93,3.93,0,0,0-.32-.47v1.75H74.16v.94h-.77V72.64h3.68v2.22A7.57,7.57,0,0,0,79.13,72l1,.27a8.89,8.89,0,0,1-.42.88H81.8l.18,0Zm-8.48.12v2.18h.71V73.53Zm0,5.47h.71V76.57h-.71Zm2.11-5.47h-.74v2.18h.74Zm0,5.47V76.57h-.74V79Zm.8-1.31a9,9,0,0,0,2.42-1.49,10.69,10.69,0,0,1-1-1.34,8.63,8.63,0,0,1-1,1,4.86,4.86,0,0,0-.46-.47Zm4.78.39a8.63,8.63,0,0,1-1.69-1.21,10.08,10.08,0,0,1-1.72,1.21Zm-.39,2.72V79H78.77V80.8ZM79.15,74l-.1.14a7.45,7.45,0,0,0,1.1,1.44A7.06,7.06,0,0,0,81.31,74Z"/><path d="M95.06,80.62v1H85.23v-1h5.49a32.31,32.31,0,0,0,1.39-5.13l1.17.22a44.31,44.31,0,0,1-1.48,4.91Zm-.33-5.57H85.59V74h4V72h1.07v2h4.09ZM88,80.17a17.3,17.3,0,0,0-1-4.36l1-.27a17.06,17.06,0,0,1,1,4.36Z"/><path d="M103.51,79.51a10.38,10.38,0,0,0,3.9,1.6,4.62,4.62,0,0,0-.65.86,10.25,10.25,0,0,1-4.05-2.1v2.22h-1V79.92a9.9,9.9,0,0,1-4,2,4.13,4.13,0,0,0-.63-.83,9.68,9.68,0,0,0,3.84-1.62H97.33v-.84h4.36v-.85h1v.85h4.45v.84Zm-4.63-2.93c.29-.31.61-.71,1-1.13H97.52v-.82h3c.24-.33.48-.65.69-.95l1,.28c-.15.22-.32.44-.5.67H107v.82h-2a3.52,3.52,0,0,1-1,1.35c1,.26,1.89.55,2.57.8l-.62.72a25.47,25.47,0,0,0-2.93-.95,15,15,0,0,1-4.79.89,3,3,0,0,0-.33-.79A22.63,22.63,0,0,0,101.5,77c-.5-.14-1-.25-1.47-.35l-.19.22Zm-.3-2.18h-1V72.78h4.08V72h1v.78h4.13V74.4h-1v-.76H98.58Zm2.41,1-.44.56c.7.14,1.47.3,2.24.49a2.64,2.64,0,0,0,1.07-1Z"/><path d="M114.31,79.7c0-.37,0-1,0-1.53-.92.52-1.51,1-1.51,1.65s.71.89,1.81.89a18.86,18.86,0,0,0,3-.28l0,1.11a27.44,27.44,0,0,1-3,.19c-1.63,0-2.9-.38-2.9-1.73s1.31-2.19,2.57-2.83a.87.87,0,0,0-.88-.54,2.76,2.76,0,0,0-1.81.78,11.73,11.73,0,0,0-1,1.17l-.93-.71a11.18,11.18,0,0,0,2.46-3.18h-.32c-.45,0-1.21,0-1.81-.06v-1a17.56,17.56,0,0,0,1.87.12h.63a6.82,6.82,0,0,0,.26-1.31l1.13.09c-.07.28-.15.7-.31,1.17a23.73,23.73,0,0,0,3.22-.32v1a33.26,33.26,0,0,1-3.58.29,7.75,7.75,0,0,1-.83,1.42,3.19,3.19,0,0,1,1.39-.32,1.43,1.43,0,0,1,1.45.93c.67-.32,1.23-.55,1.75-.78.36-.17.68-.31,1-.49l.43,1c-.29.09-.77.27-1.1.4-.56.21-1.26.51-2,.86,0,.62,0,1.48,0,2Z"/><path d="M123.13,72.63a10.61,10.61,0,0,0-.12,1.24c-.05,1.21-.13,3.72-.13,5.24,0,1.14.72,1.54,1.66,1.54a4.45,4.45,0,0,0,3.83-2.25l.78,1a5.56,5.56,0,0,1-4.63,2.44c-1.67,0-2.78-.71-2.78-2.52,0-1.55.11-4.35.11-5.41a6,6,0,0,0-.11-1.25Z"/><path d="M139.08,81.18a8.13,8.13,0,0,0-2.43-1.59c0,.22,0,.41,0,.56,0,.83-.59,1.59-2,1.59-1.65,0-2.55-.61-2.55-1.71s1-1.76,2.61-1.76a7.19,7.19,0,0,1,.81,0c0-.41,0-.85-.05-1.25h-.59c-.7,0-1.93,0-2.69-.14v-1a17.71,17.71,0,0,0,2.69.21h.56V74.73h-.54a21.47,21.47,0,0,1-2.48-.17v-1a16.91,16.91,0,0,0,2.47.21h.56v-.61c0-.2,0-.52,0-.7h1.16c0,.2-.05.44-.06.74,0,.12,0,.32,0,.54a26,26,0,0,0,2.71-.28v1c-.79.08-1.7.18-2.74.22v1.39c1.08-.06,2-.15,3-.29l0,1c-1,.12-1.92.19-3,.23,0,.49,0,1,.07,1.48a8.74,8.74,0,0,1,3.12,1.69Zm-3.53-1.92a6.26,6.26,0,0,0-1-.09c-.92,0-1.42.35-1.42.81s.41.78,1.34.78c.62,0,1.07-.18,1.07-.88C135.56,79.72,135.56,79.51,135.55,79.26Z"/><path d="M151.31,74.85c-.65,0-1.67-.06-3.25-.06,0,.59,0,1.22,0,1.71a2.7,2.7,0,0,1,.38,1.45c0,1.45-.77,3.16-3.35,3.91l-.94-.93A4.29,4.29,0,0,0,147,79.36a1.87,1.87,0,0,1-2.6-1.75,2,2,0,0,1,2-2,2.29,2.29,0,0,1,.6.08v-.92c-1.65,0-3.43.08-4.79.17l0-1c1.23,0,3.26-.08,4.81-.1,0-.24,0-.43,0-.55,0-.28-.06-.64-.09-.8h1.25c0,.15,0,.64,0,.8s0,.31,0,.54h3.25Zm-4.9,3.71c.56,0,1-.45.83-1.49a.88.88,0,0,0-.85-.5,1,1,0,0,0-1,1A1,1,0,0,0,146.41,78.56Z"/></g></g></g></g></svg>