<svg xmlns="http://www.w3.org/2000/svg" viewBox="0 0 270.64 225.26"><defs><style>.cls-1{fill:#fff;stroke-linecap:round;stroke-linejoin:round;}.cls-1,.cls-2{stroke:#000;stroke-width:2px;}.cls-2{fill:#ff8b00;stroke-miterlimit:10;}.cls-3{isolation:isolate;}</style></defs><g id="レイヤー_2" data-name="レイヤー 2"><g id="レイヤー_1-2" data-name="レイヤー 1"><path id="長方形_73" data-name="長方形 73" class="cls-1" d="M7.67,1.78,262.29,1A6.79,6.79,0,0,1,269,7.85l.64,208.73a6.78,6.78,0,0,1-6.67,6.89l-254.62.79a6.8,6.8,0,0,1-6.71-6.86L1,8.68A6.79,6.79,0,0,1,7.67,1.78Z"/><circle id="楕円形_27" data-name="楕円形 27" class="cls-2" cx="42.81" cy="111.82" r="6.34"/><circle id="楕円形_28" data-name="楕円形 28" class="cls-2" cx="42.42" cy="139.83" r="6.34"/><circle id="楕円形_29" data-name="楕円形 29" class="cls-2" cx="42.42" cy="167.84" r="6.34"/><circle id="楕円形_30" data-name="楕円形 30" class="cls-2" cx="42.42" cy="195.85" r="6.34"/><g id="改善施策提案" class="cls-3"><g class="cls-3"><path d="M41.9,29.51A9.25,9.25,0,0,0,40,29.4,17.68,17.68,0,0,1,38.91,35a14.14,14.14,0,0,1-1.63,3.28,14,14,0,0,0,4.86,3.49,8.06,8.06,0,0,0-1.36,2.49,18.42,18.42,0,0,1-5-4,19,19,0,0,1-5.69,4.07A8,8,0,0,0,28.59,42a13.09,13.09,0,0,0,5.74-3.65,15.71,15.71,0,0,1-2.13-5.17,13.63,13.63,0,0,1-1.3,1.78,7.29,7.29,0,0,0-1.52-1.54c-.5,0-1,0-1.76,0H24.54v5.19c0,.77.2.86,1.74.86,1.36,0,1.85-.13,2-.57a9,9,0,0,0,.2-2.49V36a8.65,8.65,0,0,0,2.36.86c-.09,2-.31,3.17-.71,3.7-.57.74-1.76,1-4.13,1-3.17,0-3.81-.39-3.81-2.31V33.45a20.06,20.06,0,0,0-.09-2.36,20.72,20.72,0,0,0,2.27.09h3.23v-4H24.39a22.68,22.68,0,0,0-2.4.11V24.89a17.52,17.52,0,0,0,2.4.13h3.28A17.52,17.52,0,0,0,30,24.91a17.89,17.89,0,0,0-.11,2.27v3.89c0,.57,0,.82,0,1.28a17.07,17.07,0,0,0,2.67-5.57,16.42,16.42,0,0,0,.55-3.19l2.57.42a3.37,3.37,0,0,0-.24.9c-.2.88-.38,1.5-.62,2.33h4.86a17.55,17.55,0,0,0,2.18-.11Zm-7.79-.11c-.19.44-.22.53-.41,1a14.63,14.63,0,0,0,2.13,5.94,14,14,0,0,0,1.8-6.89Z"/><path d="M51.45,25.75a16.45,16.45,0,0,0-1.34-1.81l2.42-.44A14,14,0,0,1,54,25.75h3.65A9.8,9.8,0,0,0,59,23.5l2.51.49a20,20,0,0,1-1.3,1.76H62.8A12.06,12.06,0,0,0,65,25.62v2.11a15.5,15.5,0,0,0-2.22-.11H56.86v1h5.08A15.88,15.88,0,0,0,64,28.52v2a14.85,14.85,0,0,0-2.07-.09H56.86v1.06h6.67a15.19,15.19,0,0,0,2.24-.11v2.09a14.27,14.27,0,0,0-2.24-.11H56.86v2h2.25a11.85,11.85,0,0,0,1.18-1.91l2.2.83-.63.82-.25.26h1.87a13.75,13.75,0,0,0,2.23-.11v2.13a12.76,12.76,0,0,0-2.23-.13H48.17a12.51,12.51,0,0,0-2.22.13V35.23a13.61,13.61,0,0,0,2.22.11H50a10.55,10.55,0,0,0-1-1.25l2.22-.71a9.4,9.4,0,0,1,1.13,2h2.11v-2H48.24a14.76,14.76,0,0,0-2.23.11V31.34a15,15,0,0,0,2.23.11h6.29V30.39H49.86a15,15,0,0,0-2.09.09v-2a16.14,16.14,0,0,0,2.09.09h4.67v-1H48.94a15.71,15.71,0,0,0-2.2.11V25.62a11.94,11.94,0,0,0,2.2.13ZM48.17,44.12a16.08,16.08,0,0,0,.13-2.2v-2a11.09,11.09,0,0,0-.11-1.83,14.25,14.25,0,0,0,1.83.09H61.64a12.67,12.67,0,0,0,1.84-.09,11.68,11.68,0,0,0-.11,1.76v2.11a15.24,15.24,0,0,0,.14,2.18H61v-.86H50.68v.86Zm2.51-2.79H61V40H50.68Z"/><path d="M81.39,34.9v5.76c0,.45.09.64.31.73a6.26,6.26,0,0,0,2,.18c3.08,0,3.61,0,3.91-.31s.4-.79.44-2.4a7.92,7.92,0,0,0,2.2.68c-.17,2.05-.48,3-1.14,3.55s-1.43.63-5,.63c-3.92,0-4.82-.39-4.82-2.11V35.5a3.84,3.84,0,0,0-.73.28L78,33.54l.24,0a6.34,6.34,0,0,0,1-.24V32.17c0-.33,0-.53,0-.86-.2.27-.29.38-.55.71A6.89,6.89,0,0,0,77,30.3a10.51,10.51,0,0,0,1-1.16,13.26,13.26,0,0,0-1.54-.05H74.13c0,2.05,0,2.05,0,2.38h2.06a11.13,11.13,0,0,0,1.68-.09c0,.18,0,1,0,1.12v1c0,1.39-.08,4.25-.17,5.52-.18,2.4-.42,3.57-.91,4.14-.33.4-.94.57-2,.57l-.8,0a4.81,4.81,0,0,0-.59,0,7.21,7.21,0,0,0-.44-2.33c.13,0,.24,0,.31.06a7.57,7.57,0,0,0,1.21.14c.61,0,.72-.18.92-1.41a53,53,0,0,0,.38-6.56H74A32.86,32.86,0,0,1,73.25,39a14,14,0,0,1-2.18,5.07,8.15,8.15,0,0,0-1.67-2,12.72,12.72,0,0,0,2.13-6.22,42.41,42.41,0,0,0,.4-6.76h-.24a13.25,13.25,0,0,0-1.81.11V26.83a10.42,10.42,0,0,0,2,.13h1.25V25.81A11.86,11.86,0,0,0,73,23.88h2.6a11.45,11.45,0,0,0-.11,1.93V27h.94a11.86,11.86,0,0,0,2-.11v1.69a15.41,15.41,0,0,0,2.16-4.82l2.49.49a4.24,4.24,0,0,0-.38.83c-.06.16-.22.51-.57,1.32h5.61A15.05,15.05,0,0,0,90,26.23v2.38c-.53-.05-1.45-.09-2.25-.09H81.11c-.42.7-.73,1.21-1.24,2H81.5a8.66,8.66,0,0,0-.11,1.71v.49l1.74-.46V31A15.54,15.54,0,0,0,83,29.2h2.27a8.37,8.37,0,0,0-.13,1.72v.75l2.22-.62c.11,0,.37-.11.77-.24l.53-.18a3,3,0,0,0,.68-.22c-.11,5.35-.22,6.69-.57,7.48s-.77.86-2,.86l-.85,0a6.91,6.91,0,0,0-.51-2.07,5,5,0,0,0,1.06.13c.46,0,.52-.13.61-1s.09-1.54.09-2.49l-2,.57v3.92a13.31,13.31,0,0,0,.08,1.83H83a12.52,12.52,0,0,0,.09-1.83V34.4Z"/><path d="M97.78,27.49a12.41,12.41,0,0,1-2.22,2.37A10.46,10.46,0,0,0,94,28.21a9,9,0,0,0,3.38-4.49l2.36.42c-.09.16-.31.6-.71,1.32h3a14.6,14.6,0,0,0,2.14-.13v1.54a7.49,7.49,0,0,0,1.67-3.15l2.35.42-.63,1.34h4.33a18.24,18.24,0,0,0,2.42-.13v2.27a16.89,16.89,0,0,0-2.31-.11h-1.8c.33.53.61,1,.92,1.67l-2.22.59a13.61,13.61,0,0,0-1.06-2.26h-1.45a10.28,10.28,0,0,1-1.28,1.56h.33a8.47,8.47,0,0,0-.11,1.19h6.49a12.92,12.92,0,0,0,2.36-.16v2.29a16.72,16.72,0,0,0-2.36-.11h-6.49v1.1h5a18.8,18.8,0,0,0,2-.09,15.31,15.31,0,0,0-.08,1.83v2.07a1.48,1.48,0,0,1-.64,1.43,3.49,3.49,0,0,1-1.63.24c-.4,0-.92,0-1.54-.06a5.64,5.64,0,0,0-.44-1.92,10.9,10.9,0,0,0,1.39.13c.46,0,.61-.09.61-.42V35.32h-4.71v.79a14.16,14.16,0,0,0,4.34,3.5,23.09,23.09,0,0,0,4.84,1.8,9.07,9.07,0,0,0-1.59,2.18,23.25,23.25,0,0,1-4.29-2,13.49,13.49,0,0,1-2-1.5,7.1,7.1,0,0,1-1.38-1.47c0,.72,0,1,0,1.6l0,1.68a11.07,11.07,0,0,0,.18,2.28h-2.69a12.24,12.24,0,0,0,.18-2.06v-.25l0-1.6c0-.29,0-1,.06-1.54a12.37,12.37,0,0,1-3.43,3.06,23.56,23.56,0,0,1-3.7,1.82,8.41,8.41,0,0,0-1.69-2.11,25.36,25.36,0,0,0,4.62-1.89,16.15,16.15,0,0,0,2.53-1.81,8.25,8.25,0,0,0,1.61-1.67v-.79H98.62v1.93A13.2,13.2,0,0,0,98.7,39H96.24a16.16,16.16,0,0,0,.11-2V35.08a14,14,0,0,0-.09-1.79,15.26,15.26,0,0,0,1.92.09h4.73v-1.1h-6c-.9,0-1.65,0-2.33.11V30.1a13.94,13.94,0,0,0,2.33.16h6a9.15,9.15,0,0,0-.11-1.19h1.47A8,8,0,0,0,103,28c.24-.2.3-.27.48-.42a9.34,9.34,0,0,0-1,0h-1.27c.37.63.5.9.88,1.65l-2.16.61a18.82,18.82,0,0,0-1-2.26Z"/><path d="M132.76,41.44a20.56,20.56,0,0,0,2.36.11c1.36,0,2.48,0,3.65-.16a9.45,9.45,0,0,0-.57,2.33c-.75,0-1.59,0-2.23,0-3.14,0-4.88-.27-6.22-.93a8,8,0,0,1-2.47-2A14.46,14.46,0,0,1,125,44.23a8,8,0,0,0-1.67-1.52c-.22,1-.81,1.32-2.57,1.32-.49,0-1,0-1.83-.06a6.65,6.65,0,0,0-.51-2.27,17.37,17.37,0,0,0,1.87.13c.64,0,.77-.11.77-.66v-5c-.5.2-.77.29-1.18.42s-.84.31-1.15.44l-.35-2.44a15,15,0,0,0,2.68-.71V30h-.94a15.23,15.23,0,0,0-1.59.08V27.75a7.81,7.81,0,0,0,1.63.13h.9V26.14a12.17,12.17,0,0,0-.13-2.24h2.62a11.93,11.93,0,0,0-.13,2.22v1.76h.72l1,0a1.34,1.34,0,0,1,.2,0l.17-.05v2.29c-.46,0-.79-.06-1.29-.06h-.75V33.1c.81-.31,1-.4,1.91-.8v1a13.4,13.4,0,0,0,1.83.09h9.15a12.85,12.85,0,0,0,2-.11V35.5a13.47,13.47,0,0,0-2-.11h-3.52v1.82h2.75a11.41,11.41,0,0,0,2-.11v2.14a11.84,11.84,0,0,0-2-.11h-2.75Zm-3.94-4.78c-.06.18-.15.44-.39,1.28-.09.28-.16.48-.27.86a5.52,5.52,0,0,0,2.31,2.06V35.39h-3.56a13,13,0,0,0-1.7.08v-.9c-.74.33-1,.44-1.82.77v6.54c0,.19,0,.3,0,.55A9.65,9.65,0,0,0,125.28,40a10.51,10.51,0,0,0,1.25-3.89Zm-.77-4.38c-.88,0-1.23,0-1.85,0,0-.33,0-1.08.07-2.25V26.61c0-.86,0-1.52-.07-2.07.67.06,1.3.09,2.14.09h6.56a20.77,20.77,0,0,0,2.11-.09,12.1,12.1,0,0,0-.11,2v3.63c0,.81,0,.88.09,2.2-.58-.05-1.28-.07-2.18-.07Zm.46-4.73h6.14v-1h-6.14Zm0,2.86h6.14V29.36h-6.14Z"/><path d="M159.91,36.64a21.28,21.28,0,0,0,2.51-.13v2.22a23.88,23.88,0,0,0-2.51-.11h-4.49a19.36,19.36,0,0,0,7.48,3.19,9.47,9.47,0,0,0-1.21,2.2,20.46,20.46,0,0,1-4.88-2,17.51,17.51,0,0,1-3.3-2.42c0,.64.06,1.46.06,1.74v1a11.59,11.59,0,0,0,.11,1.85h-2.55a8.73,8.73,0,0,0,.13-1.85v-1c0-.26,0-.35,0-.7v-.55a3,3,0,0,1,0-.46A20.18,20.18,0,0,1,143.52,44a7,7,0,0,0-1.37-2.11,20.09,20.09,0,0,0,7.22-3.3h-4.05a18.83,18.83,0,0,0-2.48.11V36.51a20.74,20.74,0,0,0,2.44.13h6v-.15a7.16,7.16,0,0,0-.11-1.43h2.53a7.7,7.7,0,0,0-.11,1.43v.15Zm-2-5.94a9,9,0,0,1-2,2,47.3,47.3,0,0,1,5.57,1.63L160,36.09A47.23,47.23,0,0,0,153.68,34c-2.37,1.05-5.28,1.6-9.5,1.82a5.48,5.48,0,0,0-.93-1.89h.69a31.91,31.91,0,0,0,6.35-.7c-.79-.13-1.18-.2-4.22-.6a16,16,0,0,0,2-1.91H145.5a23.94,23.94,0,0,0-2.42.11v-2a13,13,0,0,0,2.22.11h4.22a12.07,12.07,0,0,0,1.15-1.84l2.35.55a5.37,5.37,0,0,0-.44.57,3.84,3.84,0,0,1-.28.39,3.24,3.24,0,0,1-.24.33H160a13.74,13.74,0,0,0,2.24-.11v2a18,18,0,0,0-2.42-.11Zm-6.55-5.61a9.86,9.86,0,0,0-.11-1.48h2.68a6.75,6.75,0,0,0-.11,1.48h5.9A22.16,22.16,0,0,0,162,25a11.69,11.69,0,0,0-.08,1.56v.64a12,12,0,0,0,.06,1.3h-2.35V27H145.74v1.48h-2.38a7,7,0,0,0,.09-1.24v-.7a11,11,0,0,0-.09-1.54c.77.07,1.46.09,2.42.09Zm-.69,5.61c-.24.28-.37.42-.72.79,1.63.29,2,.35,3.34.64a7.94,7.94,0,0,0,1.92-1.43Z"/></g></g><g id="既存の戦略を疑い_インサイトを見つけて次の戦略に繋げます" data-name="既存の戦略を疑い インサイトを見つけて次の戦略に繋げます" class="cls-3"><g class="cls-3"><path d="M29.15,69.59a5.91,5.91,0,0,0-.29-.67L25.33,70l-.26-1,.72-.19V61.32h3.74v4.75H26.77v2.46c.53-.14,1.08-.3,1.65-.47-.23-.4-.48-.78-.72-1.12l.84-.38a10.84,10.84,0,0,1,1.52,2.6Zm-2.38-7.34v1h1.77v-1Zm1.77,2.88v-1H26.77v1ZM34.2,70c.22,0,.26-.19.28-1.53a2.68,2.68,0,0,0,.86.39c-.08,1.63-.31,2-1,2h-.84c-.85,0-1-.3-1-1.24V68.16A7.62,7.62,0,0,1,29.33,71a4.63,4.63,0,0,0-.82-.75A7,7,0,0,0,32.32,66H29.8v-1h.81V62.26H30v-1h5v1h-.87a23,23,0,0,1-.49,2.81H35.2v1H33.37v0h0v3.54c0,.31,0,.34.23.34Zm-1.59-4.88a20.6,20.6,0,0,0,.5-2.81H31.56v2.81Z"/><path d="M41.19,63.33a13.07,13.07,0,0,1-1.38,2.41V71H38.76V67a9.4,9.4,0,0,1-1.13,1,7.6,7.6,0,0,0-.52-1A9.14,9.14,0,0,0,40,63.33H37.45v-1h3a11.37,11.37,0,0,0,.47-1.43l1.07.26q-.18.59-.39,1.17h5.46v1Zm6.05,4.8H44.48v1.74c0,.54-.11.83-.52,1A6.33,6.33,0,0,1,42,71a4.77,4.77,0,0,0-.3-1c.66,0,1.3,0,1.49,0s.24,0,.24-.2V68.13h-3v-1h3v-1h.36a8.69,8.69,0,0,0,1-.89H41.41v-.92h4.34l.21-.06.65.51a12.51,12.51,0,0,1-2.13,1.89v.43h2.76Z"/><path d="M53.94,69.48a6.44,6.44,0,0,0,1-.15,3.14,3.14,0,0,0,2.64-3.1,2.88,2.88,0,0,0-2.62-3,23.45,23.45,0,0,1-.65,3c-.66,2.23-1.56,3.47-2.65,3.47s-2.07-1.22-2.07-3a4.74,4.74,0,0,1,4.88-4.52,4,4,0,0,1,4.28,4.12c0,2.27-1.47,3.86-4.13,4.23ZM53.17,66a14.47,14.47,0,0,0,.6-2.8,3.65,3.65,0,0,0-3.11,3.36c0,1.26.56,1.83,1,1.83S52.66,67.71,53.17,66Z"/><path d="M64.38,69.15V71h-1V69.15H61v-.91H63.4v-.82h-2v-4h5v4h-2v.82h2.37v.91Zm-2.65-5.88A6.58,6.58,0,0,0,61,61.44l.84-.27A6,6,0,0,1,62.62,63Zm.51,1.8h1.22v-.83H62.24Zm0,1.57h1.22V65.8H62.24ZM63.48,63A8.9,8.9,0,0,0,63,61.14l.85-.2a6.87,6.87,0,0,1,.52,1.84Zm2.06,1.23H64.32v.83h1.22Zm0,1.56H64.32v.84h1.22Zm1.32-4.53a22.55,22.55,0,0,1-1.18,2.11l-.83-.27a10.53,10.53,0,0,0,1-2.14Zm4,4.2a11.62,11.62,0,0,1-1.54,3c.25.82.53,1.32.86,1.34s.36-.55.43-1.57a3.59,3.59,0,0,0,.74.57c-.24,1.75-.72,2.21-1.17,2.19-.69,0-1.21-.62-1.59-1.64A8.26,8.26,0,0,1,66.46,71a3.42,3.42,0,0,0-.74-.73,7.33,7.33,0,0,0,2.5-2A24.56,24.56,0,0,1,67.71,65l-1.07.13-.13-1L67.64,64c-.07-1-.12-2-.16-3.05h1c0,1,.06,2,.12,2.93l2.46-.3.12,1-2.49.31c.08.89.19,1.7.32,2.4A10,10,0,0,0,70,65Zm-.66-2.11A7.64,7.64,0,0,0,69,61.49l.77-.41A8,8,0,0,1,71,62.9Z"/><path d="M82.76,62.33A8.1,8.1,0,0,1,81,65.13a7.73,7.73,0,0,0,2.5,1.41,4,4,0,0,0-.66.86l-.24-.1V71h-1v-.34H78.89V71h-1V67.33a3,3,0,0,1-.41.19,2.92,2.92,0,0,0-.31-.47V68.8H74.28v.94h-.77V61.56H77.2v2.22a7.65,7.65,0,0,0,2-2.89l1,.27a7.85,7.85,0,0,1-.42.88h2.14l.17,0Zm-8.48.12v2.18H75V62.45Zm0,5.47H75V65.49h-.71Zm2.11-5.47h-.73v2.18h.73Zm0,5.47V65.49h-.73v2.43Zm.81-1.31a9.59,9.59,0,0,0,2.42-1.49,9.91,9.91,0,0,1-1-1.34,7.79,7.79,0,0,1-.94,1c-.1-.12-.29-.3-.46-.47ZM82,67a8.27,8.27,0,0,1-1.68-1.21A11.22,11.22,0,0,1,78.56,67Zm-.39,2.72V67.91H78.89v1.81ZM79.27,62.9l-.09.14a6.73,6.73,0,0,0,1.1,1.44,7,7,0,0,0,1.15-1.58Z"/><path d="M90.23,68.62c0-.37,0-1,0-1.53-.92.52-1.5,1-1.5,1.65s.7.89,1.8.89a19.08,19.08,0,0,0,3-.28l0,1.11a27.28,27.28,0,0,1-3,.19c-1.63,0-2.89-.38-2.89-1.73s1.3-2.19,2.56-2.83a.86.86,0,0,0-.88-.54,2.8,2.8,0,0,0-1.81.78,13.23,13.23,0,0,0-1,1.17l-.93-.71a11.31,11.31,0,0,0,2.46-3.18h-.32c-.45,0-1.21,0-1.81-.06v-1a17.56,17.56,0,0,0,1.87.12h.64a6.69,6.69,0,0,0,.25-1.31l1.13.08a9.6,9.6,0,0,1-.31,1.18,23.88,23.88,0,0,0,3.23-.32v1a33.67,33.67,0,0,1-3.59.29A7.71,7.71,0,0,1,88.32,65a3.15,3.15,0,0,1,1.38-.32,1.45,1.45,0,0,1,1.46.93c.67-.32,1.23-.55,1.74-.78s.69-.31,1-.49l.43,1c-.3.09-.77.27-1.1.4-.56.21-1.27.51-2,.86,0,.62,0,1.48.05,2Z"/><path d="M99.35,68.27a13.26,13.26,0,0,1,1.51,1.43l-.64.66c-.26-.32-.72-.79-1.16-1.22A4.2,4.2,0,0,1,97.13,71a3.7,3.7,0,0,0-.66-.65,3.32,3.32,0,0,0,2-2.29H96.59v-.85h.54a4.23,4.23,0,0,0-.72-.5,5.53,5.53,0,0,0,1.09-2.18l.88.19c-.06.23-.13.45-.21.67h2.7v.82H99.46v1h1.66v.85H99.38Zm-1-3.69c-1.1,0-1.35-.25-1.35-1.16V61H98v1.1a13.34,13.34,0,0,0,2.24-.78l.66.67a18,18,0,0,1-2.9.89v.53c0,.29.09.34.54.34h1.44c.34,0,.41-.12.45-1a3.69,3.69,0,0,0,.84.34c-.12,1.17-.37,1.46-1.2,1.46Zm.14,2.67v-1h-.72a5.35,5.35,0,0,1-.63,1Zm5.7,2.7a3.73,3.73,0,0,0,1,.11h1.35a3.68,3.68,0,0,0-.28.85h-1.14a3,3,0,0,1-3-1.66,4.7,4.7,0,0,1-.94,1.82,5.39,5.39,0,0,0-.78-.56c.94-.91,1.16-2.41,1.21-4.27l.9,0a16,16,0,0,1-.15,1.81,3,3,0,0,0,.9,1.42V65.58h-2.1v-.84h3.28a14.68,14.68,0,0,0-2.65-1.54l.58-.62c.36.16.76.33,1.16.54a8.16,8.16,0,0,0,1.22-1h-3.41v-.81h4.11l.19-.05.61.39a8.06,8.06,0,0,1-1.91,2,9.15,9.15,0,0,1,.89.59l-.53.58h1l.16,0,.62.17a14.18,14.18,0,0,1-.73,2l-.75-.23a8.24,8.24,0,0,0,.38-1h-1.2v1.71h1.9v.85h-1.9Z"/><path d="M110.47,63.59a23.87,23.87,0,0,0,.08,2.46c.16,1.71.6,2.86,1.33,2.86.55,0,1-1.19,1.26-2.19l.88,1c-.69,1.87-1.36,2.52-2.16,2.52-1.1,0-2.12-1.06-2.41-3.93a28.72,28.72,0,0,1-.12-2.91,6.11,6.11,0,0,0-.08-1l1.33,0A10.16,10.16,0,0,0,110.47,63.59Zm7.64,4.54-1.14.44a10.86,10.86,0,0,0-1.9-5.52l1.09-.36A11.63,11.63,0,0,1,118.11,68.13Z"/><path d="M122.41,70.82a20.45,20.45,0,0,0-2.4-2.43l.9-.79A20.65,20.65,0,0,1,123.34,70Z"/></g><g class="cls-3"><path d="M30.9,85.26a9.11,9.11,0,0,0,.07,1.3H29.61c0-.24.07-.85.07-1.3V81.34a20.56,20.56,0,0,1-4,1.62l-.62-1.07a17.27,17.27,0,0,0,5-2,11.89,11.89,0,0,0,2.87-2.47l.93.85a18,18,0,0,1-2.93,2.37Z"/><path d="M40.58,83.77a10.5,10.5,0,0,0,3.81-4.14l.68,1.2a11.42,11.42,0,0,1-3.87,4A12.14,12.14,0,0,1,37,86.45l-.74-1.14A11.37,11.37,0,0,0,40.58,83.77Zm-.38-3.52-.87.89a24.48,24.48,0,0,0-2.75-2.33l.81-.86A22,22,0,0,1,40.2,80.25Z"/><path d="M55.14,79.74a6.51,6.51,0,0,0,1.1-.07v1.17a8.74,8.74,0,0,0-1.09,0h-1v.38c0,2.83-.64,4.41-3.22,5.56L50,85.86c2.06-.76,3-1.7,3-4.62V80.8H50.08v1.65c0,.46,0,.92,0,1.07H48.91A9.79,9.79,0,0,0,49,82.45V80.8H47.89c-.52,0-1,0-1.14,0V79.66a9,9,0,0,0,1.14.08H49V78.47a6.71,6.71,0,0,0-.06-.88h1.24a4.81,4.81,0,0,0-.07.88v1.27H53V78.46a7.86,7.86,0,0,0-.06-1h1.24a8,8,0,0,0-.06,1v1.28Z"/><path d="M64,85.26a7.67,7.67,0,0,0,.08,1.3H62.74a10.88,10.88,0,0,0,.07-1.3V81.34a20.56,20.56,0,0,1-4,1.62l-.62-1.07a17.27,17.27,0,0,0,5-2A11.89,11.89,0,0,0,66,77.42l.94.85A18.53,18.53,0,0,1,64,80.64Z"/><path d="M75.87,83.45a29.62,29.62,0,0,0-4.16-1.71v3.4c0,.34,0,1,.08,1.41H70.44a10.67,10.67,0,0,0,.09-1.41V78.78a7.46,7.46,0,0,0-.1-1.23h1.35c0,.36-.07.84-.07,1.23V80.5a37.91,37.91,0,0,1,4.65,1.75Z"/><path d="M83.62,84.62c0-.37,0-1,0-1.53-.92.52-1.5,1-1.5,1.65s.7.89,1.8.89a19.08,19.08,0,0,0,3-.28l0,1.11a27.28,27.28,0,0,1-3,.19c-1.63,0-2.9-.38-2.9-1.73s1.31-2.19,2.57-2.83a.86.86,0,0,0-.88-.54,2.78,2.78,0,0,0-1.81.78,13.23,13.23,0,0,0-1,1.17L79,82.79a11.31,11.31,0,0,0,2.46-3.18h-.32c-.45,0-1.21,0-1.81-.06v-1a17.56,17.56,0,0,0,1.87.12h.64a6.69,6.69,0,0,0,.25-1.31l1.13.08a9.6,9.6,0,0,1-.31,1.18,23.88,23.88,0,0,0,3.23-.32v1a33.67,33.67,0,0,1-3.59.29A7.75,7.75,0,0,1,81.7,81a3.23,3.23,0,0,1,1.39-.32,1.43,1.43,0,0,1,1.45.93c.67-.32,1.24-.55,1.75-.78s.69-.31,1-.49l.43,1c-.3.09-.77.27-1.1.4-.57.21-1.27.51-2,.86,0,.62,0,1.48.05,2Z"/><path d="M98.48,86c.43,0,.5-.17.54-1.51a2.68,2.68,0,0,0,1,.42c-.12,1.65-.41,2.06-1.4,2.06H97c-1.15,0-1.44-.31-1.44-1.34v-2H93.93c-.26,1.74-.94,2.87-3.51,3.45a3.25,3.25,0,0,0-.59-.9c2.26-.44,2.8-1.24,3-2.55H91.42V77.28h7v6.31H96.56v2c0,.33.07.37.51.37Zm-6.07-6.83h5V78.2h-5Zm0,1.77h5V80h-5Zm0,1.79h5v-.94h-5Z"/><path d="M103.19,80a17.42,17.42,0,0,1,4.65-1.06c1.87,0,3.36,1.09,3.36,3,0,2.55-2.49,4-6.06,4.15l-.5-1.16c2.89-.06,5.34-.92,5.34-3a2,2,0,0,0-2.18-1.94c-1.71,0-4.39,1.16-5.38,1.57l-.5-1.21C102.32,80.21,102.78,80.08,103.19,80Z"/><path d="M115.84,77.7c-.08.23-.17.57-.22.79a14.35,14.35,0,0,0-.33,5.34c.15-.41.36-1,.55-1.49l.57.37c-.29.83-.6,1.93-.73,2.52a2.2,2.2,0,0,0-.05.49c0,.11,0,.28,0,.41l-1,.11a12.12,12.12,0,0,1-.59-3.49,28.85,28.85,0,0,1,.39-4.36c0-.27,0-.59.06-.81Zm7.14,3c-.47.07-1.06.12-1.7.16v.41c0,2.53-.08,4.23-2.33,5.6l-1-.79a3.87,3.87,0,0,0,1.15-.77c1-1,1.14-2.06,1.14-4.05v-.34l-1.31,0c-.51,0-1.22,0-1.73-.06v-1.1a13.12,13.12,0,0,0,1.71.1l1.31,0c0-.66,0-1.31-.06-1.59a5.38,5.38,0,0,0-.11-.68h1.27a4.83,4.83,0,0,0,0,.68c0,.24,0,.88,0,1.53.63-.06,1.22-.14,1.71-.23Z"/><path d="M126.23,78.68l4.75-.43c1.16-.09,2.25-.15,3-.17v1.09a9.81,9.81,0,0,0-2.11.17,3.58,3.58,0,0,0-2.41,3.27c0,2,1.85,2.64,3.65,2.72l-.4,1.17c-2.13-.11-4.38-1.25-4.38-3.66a4.32,4.32,0,0,1,1.85-3.53c-1,.11-3.63.37-4.84.62l-.12-1.19Z"/><path d="M139.5,82.91c-.79.89-1.69,1.82-2.43,2.56l-.67-.87C137,84,138,83,138.93,82ZM138.67,80a11.1,11.1,0,0,0-1.93-1.67l.71-.74a10.67,10.67,0,0,1,2,1.59Zm4.54,1.1a5.59,5.59,0,0,0,3.42,5c-.19.25-.51.69-.65.93a6,6,0,0,1-3.31-4.1A6.31,6.31,0,0,1,139,87a5.66,5.66,0,0,0-.63-.85,5.6,5.6,0,0,0,3.8-5V79.87H141A9.4,9.4,0,0,1,139.82,82a7,7,0,0,0-1-.56A10.09,10.09,0,0,0,140.79,77l1.06.2a14.42,14.42,0,0,1-.47,1.69h4.14l.2,0,.76.43a14.78,14.78,0,0,1-1.23,2.94c-.22-.11-.62-.32-.87-.42a12,12,0,0,0,.79-1.87h-2Z"/><path d="M153.17,85.48a6.44,6.44,0,0,0,1-.15,3.14,3.14,0,0,0,2.64-3.1,2.87,2.87,0,0,0-2.62-3,23.45,23.45,0,0,1-.65,3c-.66,2.23-1.56,3.47-2.65,3.47s-2.07-1.22-2.07-3a4.74,4.74,0,0,1,4.88-4.52A4,4,0,0,1,158,82.28c0,2.27-1.47,3.86-4.13,4.23ZM152.4,82a14.47,14.47,0,0,0,.6-2.8,3.65,3.65,0,0,0-3.11,3.36c0,1.26.57,1.83,1,1.83S151.9,83.71,152.4,82Z"/><path d="M163.61,85.15V87h-1V85.15h-2.41v-.91h2.41v-.82h-2v-4h5v4h-2v.82H166v.91ZM161,79.27a6.58,6.58,0,0,0-.72-1.83l.84-.27a6,6,0,0,1,.77,1.78Zm.51,1.8h1.22v-.83h-1.22Zm0,1.57h1.22V81.8h-1.22ZM162.71,79a8.32,8.32,0,0,0-.46-1.87l.86-.2a7.21,7.21,0,0,1,.51,1.84Zm2.06,1.23h-1.21v.83h1.21Zm0,1.56h-1.21v.84h1.21Zm1.32-4.53a22.55,22.55,0,0,1-1.18,2.11l-.83-.27A10.53,10.53,0,0,0,165,77Zm3.95,4.2a11.62,11.62,0,0,1-1.54,3c.25.82.54,1.32.87,1.34s.35-.55.42-1.57a3.59,3.59,0,0,0,.74.57c-.24,1.75-.71,2.21-1.16,2.19-.7,0-1.21-.62-1.6-1.64A8.26,8.26,0,0,1,165.69,87a3.21,3.21,0,0,0-.74-.73,7.24,7.24,0,0,0,2.5-2A24.7,24.7,0,0,1,167,81l-1.08.13-.12-1,1.12-.13c-.07-1-.12-2-.16-3.05h1c0,1,.06,2,.12,2.93l2.46-.3.12,1-2.49.31c.08.89.19,1.7.32,2.4A10.55,10.55,0,0,0,169.27,81Zm-.66-2.11a7.64,7.64,0,0,0-1.16-1.87l.77-.41a8,8,0,0,1,1.21,1.82Z"/><path d="M182,78.33a8.1,8.1,0,0,1-1.79,2.8,7.84,7.84,0,0,0,2.5,1.41,4,4,0,0,0-.66.86l-.23-.1V87h-1v-.34h-2.7V87h-1V83.33a3.62,3.62,0,0,1-.4.19,3.93,3.93,0,0,0-.32-.47V84.8h-2.92v.94h-.77V77.56h3.69v2.22a7.65,7.65,0,0,0,2-2.89l1,.27A7.85,7.85,0,0,1,179,78h2.14l.17,0Zm-8.48.12v2.18h.72V78.45Zm0,5.47h.72V81.49h-.72Zm2.11-5.47h-.73v2.18h.73Zm0,5.47V81.49h-.73v2.43Zm.81-1.31a9.59,9.59,0,0,0,2.42-1.49,9.91,9.91,0,0,1-1-1.34,7.79,7.79,0,0,1-.94,1c-.1-.12-.29-.3-.46-.47Zm4.77.39a8.56,8.56,0,0,1-1.68-1.21A10.76,10.76,0,0,1,177.79,83Zm-.38,2.72V83.91h-2.7v1.81Zm-2.31-6.82-.1.14a7.07,7.07,0,0,0,1.1,1.44,6.72,6.72,0,0,0,1.15-1.58Z"/><path d="M187,77.83c-.07.21-.18.64-.23.84a26.72,26.72,0,0,0-.53,4.1,9,9,0,0,0,.07,1.15c.17-.44.39-1,.55-1.37l.57.44a23.49,23.49,0,0,0-.78,2.54,2.29,2.29,0,0,0-.05.5c0,.11,0,.27,0,.41l-1,.06a13.56,13.56,0,0,1-.42-3.52,29.26,29.26,0,0,1,.48-4.34,9,9,0,0,0,.09-.91Zm2.51,5.33a4.56,4.56,0,0,0-.13,1c0,.49.36.87,1.68.87a12.13,12.13,0,0,0,2.72-.28l0,1.17a14.86,14.86,0,0,1-2.76.22c-1.85,0-2.7-.64-2.7-1.7a6.51,6.51,0,0,1,.18-1.34Zm3.95-4.55v1.13a27.77,27.77,0,0,1-4.56,0V78.62A19.85,19.85,0,0,0,193.42,78.61Z"/><path d="M199.76,85.53a11.24,11.24,0,0,1-2.8,1.38,5.92,5.92,0,0,0-.73-.67,10,10,0,0,0,2.62-1.06Zm5.79-5.83a3.77,3.77,0,0,1-1.31,1.75,7.79,7.79,0,0,0,2,.45,2.77,2.77,0,0,0-.53.75,7.07,7.07,0,0,1-2.34-.71,8.08,8.08,0,0,1-1.82.56,2.17,2.17,0,0,0-.34-.63v0h-.87l.74.35a13.8,13.8,0,0,1-1.52,1,7.44,7.44,0,0,1,.65.39,22.38,22.38,0,0,0,2.24-1.35l.83.49a25.42,25.42,0,0,1-2.79,1.52l3,0c-.29-.17-.59-.32-.87-.45l.66-.52a13,13,0,0,1,2.62,1.56l-.7.58a5.92,5.92,0,0,0-.61-.48l-3,.09v2h-1v-2c-1.57,0-3,.07-4.17.08l-.05-.83h2.44a5.27,5.27,0,0,0,.49-.22,17.18,17.18,0,0,0-1.79-1l.66-.52a7.1,7.1,0,0,1,.69.33,11.66,11.66,0,0,0,1.28-1h-1v.61h-.88V81.9h-2v-.61h2v-.4h-1.71V78.46h1.71v-.38h-1.94v-.6h1.94v-.57h.88v.57h2v.6h-2v.38h1.74v2.43H199.2v.4h2v.48a8.19,8.19,0,0,0,1.4-.35,4,4,0,0,1-.86-1l.56-.15h-.87v-.61a2.77,2.77,0,0,0-.51-.55c.75-.36.87-.75.87-1.17v-.67h3v.94c0,.16,0,.25,0,.28a.2.2,0,0,0,.14,0h.26a.34.34,0,0,0,.15,0,.21.21,0,0,0,.11-.15,3.22,3.22,0,0,0,0-.58,2,2,0,0,0,.65.35,2.45,2.45,0,0,1-.13.77.6.6,0,0,1-.32.29,1.48,1.48,0,0,1-.49.08h-.49a.83.83,0,0,1-.61-.21c-.16-.15-.21-.33-.21-.87V78h-1.24a1.89,1.89,0,0,1-.75,1.6h2.92l.17,0Zm-8.14-.28h.91V79h-.91Zm.91,1v-.46h-.91v.46ZM199.2,79v.44h.92V79Zm.92.93h-.92v.46h.92Zm3.18,5.23A13.48,13.48,0,0,1,206,86.3l-.78.59a14.16,14.16,0,0,0-2.63-1.23Zm-.7-4.9a2.83,2.83,0,0,0,.84.81,3.14,3.14,0,0,0,.92-.81Z"/><path d="M210.66,78c-.08.23-.17.57-.22.78a13.89,13.89,0,0,0-.33,5.25c.15-.41.36-1,.55-1.49l.57.37c-.28.83-.6,1.93-.73,2.5a3.49,3.49,0,0,0-.05.51c0,.11,0,.27,0,.41l-.94.09a11.5,11.5,0,0,1-.61-3.48,26.92,26.92,0,0,1,.4-4.25c0-.28.05-.58.06-.81Zm5.35-.17a5.05,5.05,0,0,0-.06.67c0,.25,0,.9,0,1.52a14.45,14.45,0,0,0,1.85-.24v1.13c-.51.08-1.14.14-1.83.18v.32c0,2.54-.1,4.23-2.33,5.6l-1-.79a4.18,4.18,0,0,0,1.15-.76c1-.95,1.13-2.07,1.13-4v-.27l-1.18,0c-.51,0-1.22,0-1.73-.07V80a11.47,11.47,0,0,0,1.71.12l1.17,0c0-.64,0-1.28,0-1.58a5.7,5.7,0,0,0-.11-.68Zm.88,1.38a13.68,13.68,0,0,0-.61-1.56l.63-.19a11.08,11.08,0,0,1,.61,1.53Zm1.14-2.1a15.84,15.84,0,0,1,.63,1.53l-.64.2a12.36,12.36,0,0,0-.62-1.52Z"/><path d="M228.42,86.09A8.17,8.17,0,0,0,226,84.51c0,.22,0,.41,0,.56,0,.83-.59,1.59-2,1.59-1.65,0-2.54-.61-2.54-1.71s1-1.76,2.61-1.76a7,7,0,0,1,.8,0c0-.41,0-.85,0-1.25h-.6c-.69,0-1.92,0-2.68-.14v-1a17.48,17.48,0,0,0,2.68.21h.56V79.65h-.53a21.47,21.47,0,0,1-2.48-.17v-1a16.66,16.66,0,0,0,2.46.21h.57v-.61c0-.2,0-.52-.05-.7h1.17c0,.2-.06.44-.07.74,0,.12,0,.32,0,.54a26.42,26.42,0,0,0,2.72-.28v1c-.79.08-1.71.18-2.74.22V81c1.08-.06,2-.15,3-.29v1c-1,.12-1.91.18-3,.23,0,.49,0,1,.08,1.48a8.68,8.68,0,0,1,3.11,1.69Zm-3.53-1.91a6.15,6.15,0,0,0-1-.09c-.92,0-1.42.35-1.42.81s.41.78,1.35.78c.61,0,1.06-.18,1.06-.88C224.9,84.64,224.9,84.43,224.89,84.18Z"/><path d="M240.66,79.77c-.65,0-1.67-.06-3.26-.06,0,.59,0,1.22,0,1.71a2.7,2.7,0,0,1,.39,1.45c0,1.45-.77,3.16-3.36,3.91l-.93-.93a4.29,4.29,0,0,0,2.8-1.57,1.86,1.86,0,0,1-2.59-1.75,2,2,0,0,1,2-2,2,2,0,0,1,.61.08l0-.92c-1.65,0-3.43.08-4.78.17l0-1.06c1.23,0,3.25-.07,4.8-.09,0-.24,0-.43,0-.55a6.42,6.42,0,0,0-.09-.8h1.26c0,.15-.06.64-.06.8s0,.31,0,.54h3.26Zm-4.91,3.71c.56,0,1-.45.84-1.49a.9.9,0,0,0-.85-.5,1,1,0,0,0-1,1A1,1,0,0,0,235.75,83.48Z"/></g></g><g id="施策の数値分析_分析レポート作成_翌月以降の運用戦略_コンテンツ編集会議" data-name="施策の数値分析 分析レポート作成 翌月以降の運用戦略 コンテンツ編集会議" class="cls-3"><g class="cls-3"><path d="M65.87,111.23v2.61c0,.21,0,.3.14.33a2.54,2.54,0,0,0,.89.08c1.4,0,1.64,0,1.78-.13s.18-.37.2-1.09a3.34,3.34,0,0,0,1,.3c-.08.93-.22,1.38-.52,1.61s-.65.3-2.26.3c-1.78,0-2.19-.18-2.19-1V111.5a2.06,2.06,0,0,0-.33.13l-.25-1,.11,0a3.23,3.23,0,0,0,.47-.11V110c0-.15,0-.24,0-.39l-.25.32a3.14,3.14,0,0,0-.76-.78,5.58,5.58,0,0,0,.45-.53,6.87,6.87,0,0,0-.7,0H62.57c0,.93,0,.93,0,1.08h.94a5.26,5.26,0,0,0,.76,0c0,.08,0,.45,0,.51v.45c0,.63,0,1.93-.08,2.51a3.67,3.67,0,0,1-.41,1.88,1.11,1.11,0,0,1-.89.26h-.63a3,3,0,0,0-.2-1.06l.14,0a2.72,2.72,0,0,0,.55.07c.28,0,.33-.09.42-.64a23.44,23.44,0,0,0,.17-3h-.79a14.87,14.87,0,0,1-.34,2.47,6.18,6.18,0,0,1-1,2.3,3.71,3.71,0,0,0-.76-.91,5.79,5.79,0,0,0,1-2.83,21,21,0,0,0,.17-3.07h-.11a5.51,5.51,0,0,0-.81,0v-1.08a4.63,4.63,0,0,0,.92.06h.56v-.52a4.55,4.55,0,0,0-.06-.88h1.18a5.34,5.34,0,0,0,0,.88v.52h.43a5.52,5.52,0,0,0,.91-.05v.77a7.07,7.07,0,0,0,1-2.19l1.13.22a1.8,1.8,0,0,0-.17.38l-.26.6h2.55a6.93,6.93,0,0,0,1-.06v1.08c-.24,0-.66,0-1,0h-3c-.19.32-.33.55-.56.89h.74a4,4,0,0,0,0,.78v.22l.79-.21v-.54a7.68,7.68,0,0,0,0-.83h1a3.83,3.83,0,0,0-.06.78v.34l1-.28.35-.11.24-.08a1.25,1.25,0,0,0,.31-.1c0,2.43-.1,3-.26,3.4s-.35.39-.91.39h-.39a3.16,3.16,0,0,0-.23-.94,2.32,2.32,0,0,0,.48.06c.21,0,.24-.06.28-.48s0-.7,0-1.13l-.92.26v1.78a5.46,5.46,0,0,0,0,.83h-1a5.9,5.9,0,0,0,0-.83V111Z"/><path d="M73.07,107.86a6,6,0,0,1-1,1.08,4.53,4.53,0,0,0-.71-.75,4.15,4.15,0,0,0,1.53-2l1.07.19-.32.6H75a6.7,6.7,0,0,0,1-.06v.7a3.38,3.38,0,0,0,.76-1.43l1.07.19-.29.61h2a8.44,8.44,0,0,0,1.1-.06v1a7.83,7.83,0,0,0-1,0h-.82c.15.24.28.48.42.76l-1,.27a6.18,6.18,0,0,0-.48-1H77a5,5,0,0,1-.58.71h.15a3.09,3.09,0,0,0,0,.54h3a5.91,5.91,0,0,0,1.07-.07v1a7.71,7.71,0,0,0-1.07,0h-3v.5h2.27c.5,0,.81,0,.93,0a6.28,6.28,0,0,0,0,.83v.94a.67.67,0,0,1-.29.65,1.6,1.6,0,0,1-.74.11l-.7,0a2.63,2.63,0,0,0-.2-.87,5.3,5.3,0,0,0,.63.06c.21,0,.28,0,.28-.19v-.58H76.48v.36a6.44,6.44,0,0,0,2,1.59,10.78,10.78,0,0,0,2.2.81,4,4,0,0,0-.72,1,9.85,9.85,0,0,1-2-.92,5.24,5.24,0,0,1-.91-.67,3.32,3.32,0,0,1-.63-.67c0,.33,0,.46,0,.73v.76a5,5,0,0,0,.08,1H75.33a5.46,5.46,0,0,0,.08-.93v-.84c0-.13,0-.44,0-.7a5.56,5.56,0,0,1-1.56,1.38,10.39,10.39,0,0,1-1.67.83,4,4,0,0,0-.77-1,13.22,13.22,0,0,0,2.09-.86,7.24,7.24,0,0,0,1.15-.82,3.77,3.77,0,0,0,.73-.76v-.36h-2v.88a5.41,5.41,0,0,0,0,.81H72.37a6,6,0,0,0,0-.92v-.88a6.65,6.65,0,0,0,0-.81,7.27,7.27,0,0,0,.87,0H75.4V110H72.67c-.4,0-.74,0-1,0v-1a6.35,6.35,0,0,0,1,.07H75.4a3.31,3.31,0,0,0-.05-.54H76a3.56,3.56,0,0,0-.57-.51l.22-.19a3.87,3.87,0,0,0-.45,0h-.58c.17.29.23.41.4.75l-1,.28a8.05,8.05,0,0,0-.45-1Z"/><path d="M86.31,112.27c-.57,1.29-1.21,1.88-2,1.88-1.13,0-2-1.16-2-2.77a4.3,4.3,0,0,1,1.1-2.91,4.49,4.49,0,0,1,3.44-1.4c2.4,0,4,1.46,4,3.71a3.83,3.83,0,0,1-2.43,3.72,5.72,5.72,0,0,1-1.57.42,3.27,3.27,0,0,0-.61-1.17,5.15,5.15,0,0,0,2-.54,2.8,2.8,0,0,0,1.39-2.5,2.48,2.48,0,0,0-1.23-2.22,2.19,2.19,0,0,0-1-.3A14.47,14.47,0,0,1,86.31,112.27Zm-1.47-3.58a3.34,3.34,0,0,0-1.35,2.7c0,.82.34,1.47.78,1.47s.67-.42,1-1.28a13.18,13.18,0,0,0,.83-3.38A2.55,2.55,0,0,0,84.84,108.69Z"/><path d="M96.9,108.06a4.61,4.61,0,0,0,.64,0V109a4.81,4.81,0,0,0-.64,0h-.67a2.71,2.71,0,0,0,.88.64,3.22,3.22,0,0,0-.58.82,3.62,3.62,0,0,1-.89-.95c0,.21,0,.33,0,.41v.36a1.5,1.5,0,0,0,0,.37H94.64a1.84,1.84,0,0,0,0-.33v-.38c0-.09,0-.25,0-.43A5.68,5.68,0,0,1,93.07,111a3.36,3.36,0,0,0-.64-.83A3.89,3.89,0,0,0,94,108.92h-.53a4.57,4.57,0,0,0-.83,0v-1a4.7,4.7,0,0,0,.83,0h1.19v-1.18a3.2,3.2,0,0,0-.05-.68h1.09a3.93,3.93,0,0,0,0,.66v1.2Zm-.51,6.79a5.92,5.92,0,0,0-.93-.6,5.24,5.24,0,0,1-2.39,1.18,4.14,4.14,0,0,0-.51-.92,5.31,5.31,0,0,0,2-.73c-.5-.22-.77-.33-1.47-.59a9.66,9.66,0,0,0,.64-1h-.29a4.42,4.42,0,0,0-.79,0v-1a4.22,4.22,0,0,0,.79.05h.75a7.24,7.24,0,0,0,.26-.71l1,.2c-.09.25-.13.32-.21.51h1.58a3.54,3.54,0,0,0,.74-.05v1a4,4,0,0,0-.81,0,3.71,3.71,0,0,1-.6,1.28,5.15,5.15,0,0,1,.81.44Zm-2.64-8.55a5,5,0,0,1,.7,1.32l-.88.33a5.5,5.5,0,0,0-.66-1.33Zm1,5.9c-.14.24-.17.29-.35.56.42.15.55.2.85.33a2.58,2.58,0,0,0,.45-.89Zm2.71-5.55a8.61,8.61,0,0,1-.76,1.35l-.85-.38a4.94,4.94,0,0,0,.71-1.34Zm4.35,2.27a5.11,5.11,0,0,0-.7,0,8.17,8.17,0,0,1-1,3.92,5.19,5.19,0,0,0,1.9,1.55,4.8,4.8,0,0,0-.58,1.06,6.67,6.67,0,0,1-2-1.71,8.1,8.1,0,0,1-2.27,1.79,3.09,3.09,0,0,0-.54-1,7.67,7.67,0,0,0,.79-.43,6.45,6.45,0,0,0,1.42-1.25,6.83,6.83,0,0,1-.84-2.35c-.18.28-.25.38-.46.66a3.51,3.51,0,0,0-.72-.72,7.34,7.34,0,0,0,1.35-2.88,7.25,7.25,0,0,0,.24-1.36l1.1.22c0,.12-.06.21-.14.55s-.15.6-.26,1h1.74a5.42,5.42,0,0,0,.94,0Zm-3,0c-.08.18-.08.18-.13.31a7.87,7.87,0,0,0,.8,2.63,7.24,7.24,0,0,0,.62-2.94Z"/><path d="M104.18,111.3c0-.38,0-.62,0-1.11a7.77,7.77,0,0,1-.69,1,6.33,6.33,0,0,0-.45-1.19,7.18,7.18,0,0,0,1.47-2.49,5.79,5.79,0,0,0,.39-1.42l1.13.27a13.11,13.11,0,0,1-.84,2.25v5.6c0,.46,0,.78,0,1.16h-1.15a8.39,8.39,0,0,0,.06-1.16Zm1.72,4.13a9.76,9.76,0,0,0,0-1.23v-4.4a8.31,8.31,0,0,0-.06-1.13H107a8.67,8.67,0,0,0-.05,1.14V114h4.41a8.1,8.1,0,0,0,1.1,0V115c-.34,0-.65-.06-1.11-.06H107v.48ZM107,108a8.46,8.46,0,0,0-.94,0v-1a7,7,0,0,0,1.06,0h1.78c0-.35,0-.44.08-.83l1.1.06c-.09.51-.09.51-.13.77h1.51a6.05,6.05,0,0,0,1-.06v1a8.91,8.91,0,0,0-.92,0H109.8l-.14.66h1.43a8.37,8.37,0,0,0,.85,0,8.78,8.78,0,0,0,0,1v3c0,.41,0,.59,0,.88l-.85,0h-2.57c-.3,0-.46,0-.84,0,0-.23,0-.47,0-.78v-3.28a7.82,7.82,0,0,0,0-.82c.23,0,.39,0,.81,0h.15c.07-.28.1-.41.15-.66Zm1.67,2h2.18v-.52h-2.18Zm0,1.28h2.18v-.53h-2.18Zm0,1.34h2.18V112h-2.18Z"/><path d="M116.73,110.64a7,7,0,0,0-.85,0V110a9.29,9.29,0,0,1-1.25,1.11,3.43,3.43,0,0,0-.76-1,7.76,7.76,0,0,0,2.62-2.87,3.11,3.11,0,0,0,.4-1l1.2.43a2.83,2.83,0,0,0-.27.51,11.12,11.12,0,0,1-1.61,2.43l.52,0H121a10,10,0,0,1-1.65-2.51,4.1,4.1,0,0,0-.21-.42l1.11-.43a3.74,3.74,0,0,0,.39.87,7.75,7.75,0,0,0,2.77,2.9,4.66,4.66,0,0,0-.76,1.08,10.2,10.2,0,0,1-1.24-1v.34a13.64,13.64,0,0,1-.42,4.18c-.22.43-.58.58-1.47.58l-1-.05a4.14,4.14,0,0,0-.3-1.16,9.88,9.88,0,0,0,1.21.13c.37,0,.48,0,.57-.19a9.82,9.82,0,0,0,.31-2.66v-.58h-1.92a5.32,5.32,0,0,1-.78,2.56,5.79,5.79,0,0,1-2.54,2.2,3.53,3.53,0,0,0-.72-1,4.75,4.75,0,0,0,1.54-.91,3.87,3.87,0,0,0,1.31-2.28,5,5,0,0,0,.06-.58Z"/><path d="M127.5,109a5.31,5.31,0,0,0,1.21,1.7,3.28,3.28,0,0,0-.57.92,8.21,8.21,0,0,1-.75-1.27c0,.23,0,.86,0,1.48v2.48a7.76,7.76,0,0,0,.06,1.09h-1.16a6.26,6.26,0,0,0,.07-1.08v-2c0-.61,0-.61,0-1.37a10.17,10.17,0,0,1-1.13,2.2,2.9,2.9,0,0,0-.67-.9,8.44,8.44,0,0,0,1.09-1.81,11,11,0,0,0,.55-1.42h-.58a3.11,3.11,0,0,0-.66,0V108a3.18,3.18,0,0,0,.7,0h.65v-.9a5.8,5.8,0,0,0-.06-.92h1.16a4.82,4.82,0,0,0-.06.92v.9H128a3,3,0,0,0,.63,0v1.1a3.12,3.12,0,0,0-.62,0Zm5.35.28a9.48,9.48,0,0,0,1.18-.06v1.17a10.12,10.12,0,0,0-1.19-.06h-.28v3.87a10.43,10.43,0,0,0,.06,1.2h-1.21a10.93,10.93,0,0,0,.07-1.2v-3.87h-1.43c-.1,2.51-.47,3.84-1.42,5.06a4.42,4.42,0,0,0-.91-.79c1-1.15,1.28-2.46,1.28-5.93a13.09,13.09,0,0,0-.06-1.64h.21a10.79,10.79,0,0,0,3.89-.87l.78,1-1,.28a14.92,14.92,0,0,1-2.76.52v1.29Z"/></g><g class="cls-3"><path d="M63.35,137.64a7,7,0,0,0-.85.05V137a9.29,9.29,0,0,1-1.25,1.11,3.43,3.43,0,0,0-.76-1,7.76,7.76,0,0,0,2.62-2.87,3.11,3.11,0,0,0,.4-1l1.2.43a2.83,2.83,0,0,0-.27.51,11.12,11.12,0,0,1-1.61,2.43l.52,0h4.3A10,10,0,0,1,66,134.1a4.1,4.1,0,0,0-.21-.42l1.11-.43a3.74,3.74,0,0,0,.39.87,7.75,7.75,0,0,0,2.77,2.9,4.66,4.66,0,0,0-.76,1.08,10.2,10.2,0,0,1-1.24-1v.34a13.64,13.64,0,0,1-.42,4.18c-.22.43-.58.58-1.47.58l-1-.05a4.14,4.14,0,0,0-.3-1.16,9.88,9.88,0,0,0,1.21.13c.37,0,.48,0,.57-.19a9.82,9.82,0,0,0,.31-2.66v-.58H65a5.32,5.32,0,0,1-.78,2.56,5.82,5.82,0,0,1-2.53,2.2,3.8,3.8,0,0,0-.73-1,4.75,4.75,0,0,0,1.54-.91,3.87,3.87,0,0,0,1.31-2.28,5,5,0,0,0,.06-.58Z"/><path d="M74.12,136a5.31,5.31,0,0,0,1.21,1.7,3.28,3.28,0,0,0-.57.92,8.21,8.21,0,0,1-.75-1.27c0,.23,0,.86,0,1.48v2.48a7.76,7.76,0,0,0,.06,1.09H72.93a6.26,6.26,0,0,0,.07-1.08v-2c0-.61,0-.61,0-1.37a10.17,10.17,0,0,1-1.13,2.2,2.9,2.9,0,0,0-.67-.9,8.06,8.06,0,0,0,1.09-1.81,11,11,0,0,0,.55-1.42H72.3a3.11,3.11,0,0,0-.66.05V135a3.18,3.18,0,0,0,.7.05H73v-.9a5.8,5.8,0,0,0-.06-.92h1.16a4.82,4.82,0,0,0-.06.92v.9h.58a3,3,0,0,0,.63-.05v1.1a3.12,3.12,0,0,0-.62-.05Zm5.35.28a9.48,9.48,0,0,0,1.18-.06v1.17a10.12,10.12,0,0,0-1.19-.06h-.28v3.87a10.43,10.43,0,0,0,.06,1.2H78a10.93,10.93,0,0,0,.07-1.2v-3.87H76.67c-.1,2.51-.47,3.84-1.42,5.06a4.42,4.42,0,0,0-.91-.79c1-1.15,1.28-2.46,1.28-5.93a13.09,13.09,0,0,0-.06-1.64h.21a10.79,10.79,0,0,0,3.89-.87l.78,1-1,.28a14.92,14.92,0,0,1-2.76.52v1.29Z"/><path d="M84.57,133.74a7.74,7.74,0,0,0-.06,1l-.05,5.71a7.19,7.19,0,0,0,2.73-1.1,5.91,5.91,0,0,0,2-2.29,4.7,4.7,0,0,0,1,1A7.31,7.31,0,0,1,88,140.41a9,9,0,0,1-3.64,1.37,3.63,3.63,0,0,0-.6.17l-.64-.77a3.45,3.45,0,0,0,.09-1l0-5.4a6.06,6.06,0,0,0,0-1Z"/><path d="M94.59,137.37c0,.06,0,.12,0,.14s0,.08,0,.17a10.64,10.64,0,0,1-1.68,3.89,4.48,4.48,0,0,0-1.15-.66,8,8,0,0,0,1.68-3.84Zm4.55-2.14h.55A1.15,1.15,0,0,1,100,133a1.15,1.15,0,0,1,.4,2.24v1.18a8.61,8.61,0,0,0-1.27,0H96.85v4.84a7.88,7.88,0,0,0,.05,1.13H95.54a7.6,7.6,0,0,0,.06-1.14v-4.83H93.38a8.62,8.62,0,0,0-1.26,0v-1.23a6.48,6.48,0,0,0,1.28.07h2.2v-.56a5.67,5.67,0,0,0-.06-1h1.35a8,8,0,0,0,0,1.06v.53ZM99,137.07a11,11,0,0,0,1.77,3.81,6.61,6.61,0,0,0-1.15.69A13.34,13.34,0,0,1,98,137.83a2.56,2.56,0,0,0-.16-.46Zm.35-2.95a.66.66,0,1,0,.65-.65A.65.65,0,0,0,99.38,134.12Z"/><path d="M102.61,137.07a9.75,9.75,0,0,0,1.61.07h5.33a9.82,9.82,0,0,0,1.62-.07v1.39a11,11,0,0,0-1.63-.05h-5.3a11,11,0,0,0-1.63.05Z"/><path d="M114.33,142.05a6.8,6.8,0,0,0,.06-1.13v-6.4a6.43,6.43,0,0,0-.06-1h1.37a6.7,6.7,0,0,0,0,1.05v1.86a29.38,29.38,0,0,1,4.54,2.11l-.7,1.18a23.66,23.66,0,0,0-3.54-1.91l-.34-.17a5.17,5.17,0,0,1,0,.68v2.64a11,11,0,0,0,0,1.11Z"/><path d="M125.35,133.46c-.11.25-.14.32-.23.56-.16.43-.16.43-.68,1.6v5.54a9.33,9.33,0,0,0,.07,1.24h-1.19a9.18,9.18,0,0,0,.06-1.24v-2.85c0-.25,0-.3,0-1.14a9.38,9.38,0,0,1-1,1.15,4.73,4.73,0,0,0-.53-1.17,8.15,8.15,0,0,0,1.89-2.76,5.63,5.63,0,0,0,.42-1.32ZM127,135.6a10.87,10.87,0,0,1-1.64,2.44,4.05,4.05,0,0,0-.72-.94,7.81,7.81,0,0,0,1.68-2.55,6.45,6.45,0,0,0,.45-1.45l1.13.33c-.1.24-.13.33-.2.53-.15.42-.16.45-.25.67h2.72a7.41,7.41,0,0,0,1.08-.06v1.08a10.45,10.45,0,0,0-1.08-.05h-1.9v1.28h1.63a6.9,6.9,0,0,0,1-.06v1.08a7.68,7.68,0,0,0-1-.06h-1.62v1.28h1.64a5.76,5.76,0,0,0,1-.06v1.09a7.79,7.79,0,0,0-1-.06h-1.64v1.15a6.63,6.63,0,0,0,.07,1.19h-1.21a6.89,6.89,0,0,0,.06-1.19V135.6Z"/><path d="M141.43,136.68l-.22.53a10.87,10.87,0,0,1-1.35,2.5,4.62,4.62,0,0,0,.6.86,1.37,1.37,0,0,0,.45.35s.08,0,.13-.18a6.21,6.21,0,0,0,.19-1.17,3,3,0,0,0,.9.67c-.23,1.34-.58,1.93-1.13,1.93s-1.3-.67-1.88-1.6a9.2,9.2,0,0,1-2.42,1.75,3.38,3.38,0,0,0-.76-.88,7.61,7.61,0,0,0,2.69-1.83,12.4,12.4,0,0,1-.75-4h-3.1c0,1,0,1,0,1.32h1.84a4.37,4.37,0,0,0,.71,0c0,.18,0,.46-.06.85a9.5,9.5,0,0,1-.33,2.75c-.16.4-.52.55-1.29.55a6.92,6.92,0,0,1-.76,0,4,4,0,0,0-.25-1,5.91,5.91,0,0,0,1,.08c.31,0,.4-.06.45-.31a10.87,10.87,0,0,0,.15-1.81h-1.46a14.41,14.41,0,0,1-.31,2.51,5.34,5.34,0,0,1-.81,1.94,4.09,4.09,0,0,0-.87-.85,4.52,4.52,0,0,0,.68-1.57,18,18,0,0,0,.31-3.95,11.67,11.67,0,0,0-.06-1.42c.36,0,.76,0,1.28,0h2.9c0-.08,0-.34,0-.78a3.1,3.1,0,0,0-.05-.63H139a8.25,8.25,0,0,0,0,.95v.46h1.32a4.73,4.73,0,0,0-.88-.92l.77-.49a5.6,5.6,0,0,1,1,1.05l-.52.36h.3a5.57,5.57,0,0,0,1.06-.06v1.1c-.33,0-.71,0-1.22,0h-1.8a13.55,13.55,0,0,0,.46,3,6.9,6.9,0,0,0,1-2.34Z"/></g><g class="cls-3"><path d="M69.49,163.94a1,1,0,0,1-.33.82,1.56,1.56,0,0,1-.93.16l-.84,0a4.6,4.6,0,0,0-.15-.8c-.47.22-.53.24-1,.44a3.74,3.74,0,0,0-.42.18,2.37,2.37,0,0,0,0,.45v.29h2.28a6.14,6.14,0,0,0,1.09-.06v1.07a8.35,8.35,0,0,0-1.07-.05H66.86l.94.3c-.22.5-.42.92-.68,1.4H68.5a10.74,10.74,0,0,0,1.17-.06v1.13a11.76,11.76,0,0,0-1.21-.06H62a11.87,11.87,0,0,0-1.2.06v-1.13c.31,0,.69.06,1.16.06h1.34a5.69,5.69,0,0,0-.57-1.39l.89-.31h-1.2a8.49,8.49,0,0,0-1.09.05v-1.07a8,8,0,0,0,1.06.06h2.31v-.29a3.67,3.67,0,0,0,0-.46,1.79,1.79,0,0,1-1,.16c-.23,0-.36,0-.66,0a3.24,3.24,0,0,0-.14-.77,15.16,15.16,0,0,1-1.42.65l-.28.14-.38-1.06a9.12,9.12,0,0,0,2.87-1.16l0,1c-.28.16-.35.2-.52.28a5,5,0,0,0,.58,0c.2,0,.27-.06.27-.24v-2.17H61.93a7.8,7.8,0,0,1,1.37.9l-.7.74a7,7,0,0,0-1.42-1l.6-.62a4,4,0,0,0-.87.06V160.5a7,7,0,0,0,1,.06h2.16a8,8,0,0,0,1,0,7.45,7.45,0,0,0,0,1v2.34a.91.91,0,0,1-.23.74h.88l-.3-.93a5,5,0,0,0,1.17-.33,11.92,11.92,0,0,0,1.54-.7l0,1-.61.31a5.68,5.68,0,0,0,.59,0c.29,0,.34,0,.34-.24v-2.21H66.24a9.07,9.07,0,0,1,1.38.89l-.66.7a8.5,8.5,0,0,0-1.44-1l.57-.59a5.46,5.46,0,0,0-.73.05V160.5a5.51,5.51,0,0,0,1.06.07h2.15a5.26,5.26,0,0,0,1,0,8.86,8.86,0,0,0,0,1Zm-5.73,2.47a9,9,0,0,1,.58,1.39l-.79.31H66a9.52,9.52,0,0,0,.72-1.7Z"/><path d="M73.65,166.29a7.41,7.41,0,0,1-.29,1.19,5.6,5.6,0,0,1-1.17,2,4,4,0,0,0-.93-.91,3.69,3.69,0,0,0,1.06-1.76,15.79,15.79,0,0,0,.4-4.7,14.09,14.09,0,0,0,0-1.51,10.09,10.09,0,0,0,1.17.05H78a9,9,0,0,0,1.16-.05,7.54,7.54,0,0,0,0,1.13v6.47c0,.5-.11.8-.36,1a2,2,0,0,1-1.16.21c-.32,0-.65,0-1.16-.05a3.77,3.77,0,0,0-.29-1.12,9,9,0,0,0,1.47.13c.3,0,.37,0,.37-.28v-1.72Zm4.34-1v-1.34H73.85c0,.31,0,.53-.08,1.34Zm0-2.36v-1.25H73.86v1.25Z"/><path d="M82.53,161.64a11.35,11.35,0,0,0-.08-1.19h1.26a8.83,8.83,0,0,0,0,1v.22l0,4.77a20.9,20.9,0,0,0,2.57-1.36l.24,1.05a25.87,25.87,0,0,1-3.93,2l-.69.32-.32-1.21a6.14,6.14,0,0,0,1-.32Zm7.35-1.2c0,.11,0,.11-.1,1.39a13.42,13.42,0,0,1-.48,2.79,7.16,7.16,0,0,1-.63,1.46,5.77,5.77,0,0,0,2.18,2.15,4.51,4.51,0,0,0-.7,1.13,7.76,7.76,0,0,1-2.15-2.3,7.87,7.87,0,0,1-3.35,2.38,4.75,4.75,0,0,0-.64-1,6.65,6.65,0,0,0,3.57-2.67,8.88,8.88,0,0,0,1.08-4.71,4.08,4.08,0,0,0,0-.66Zm-4.39.59a15,15,0,0,1,2,2.45l-1,.71a11.55,11.55,0,0,0-1.91-2.55Z"/><path d="M101,161.26c-.11.15-.11.15-.22.32a8.68,8.68,0,0,1-1.36,1.47,8.45,8.45,0,0,0,2.29.62,3.47,3.47,0,0,0-.4,1,9.9,9.9,0,0,1-2.76-1,10.74,10.74,0,0,1-2.63,1.19,2.72,2.72,0,0,0-.49-.94,9.19,9.19,0,0,0,2.22-.85,8.33,8.33,0,0,1-.79-.74,7.8,7.8,0,0,1-1,.7,3.33,3.33,0,0,0-.43-.6,10.26,10.26,0,0,1-.52,1,3.67,3.67,0,0,1,.84,2.24c0,.72-.25,1.12-.78,1.25a3.75,3.75,0,0,1-.83.08H94a2.3,2.3,0,0,0-.19-1,2.18,2.18,0,0,0,.5.05c.33,0,.43-.1.43-.46a2.82,2.82,0,0,0-.19-1,3.5,3.5,0,0,0-.69-1.06,10.12,10.12,0,0,0,.9-2.13h-1v6.8c0,.49,0,.82,0,1.14H92.62a10,10,0,0,0,.06-1.15v-6.86c0-.34,0-.62,0-.93a6.45,6.45,0,0,0,.75,0h1.44a3.5,3.5,0,0,0,.66,0l.5.64-.15.35c-.06.17-.12.32-.24.6a4.59,4.59,0,0,0,1.87-2l1.11.17a3.3,3.3,0,0,1-.18.32c0,.1-.08.14-.15.26h1.5a4.65,4.65,0,0,0,.73,0ZM96.6,166a4.39,4.39,0,0,0-.58,0v-1a3.81,3.81,0,0,0,.69,0h1.9v-.1a6,6,0,0,0,0-.66h1.11a5,5,0,0,0,0,.66v.1h.64a6.67,6.67,0,0,0,.91,0v1a7,7,0,0,0-.91,0h-.64v1h1a5.52,5.52,0,0,0,.91,0V168a9.35,9.35,0,0,0-1-.05h-.88v.6a5.44,5.44,0,0,0,.06.88H98.55a5.71,5.71,0,0,0,.06-.9v-.58H96.4a9.55,9.55,0,0,0-1.07.05v-1.05a3.25,3.25,0,0,0,.6,0h.67Zm.94-4.24a4.33,4.33,0,0,0,1,.83,4.79,4.79,0,0,0,1-.89H97.59ZM98.61,167v-1h-1v1Z"/><path d="M107.16,166.27c-.57,1.29-1.21,1.88-2,1.88-1.14,0-1.95-1.16-1.95-2.77a4.3,4.3,0,0,1,1.1-2.91,4.45,4.45,0,0,1,3.43-1.4c2.4,0,4,1.46,4,3.71a3.83,3.83,0,0,1-2.43,3.72,5.72,5.72,0,0,1-1.57.42,3.27,3.27,0,0,0-.61-1.17,5.15,5.15,0,0,0,2-.54,2.8,2.8,0,0,0,1.39-2.5,2.48,2.48,0,0,0-1.23-2.22,2.19,2.19,0,0,0-1-.3A14.47,14.47,0,0,1,107.16,166.27Zm-1.47-3.58a3.35,3.35,0,0,0-1.36,2.7c0,.82.35,1.47.79,1.47s.67-.42,1-1.28a13.18,13.18,0,0,0,.83-3.38A2.55,2.55,0,0,0,105.69,162.69Z"/><path d="M113.43,164a4.61,4.61,0,0,0,.8,0H115a4.4,4.4,0,0,0,.76,0c0,.31,0,.55,0,1.09v2.24a1.51,1.51,0,0,0,1,.78,9.61,9.61,0,0,0,2.31.14,34.05,34.05,0,0,0,3.77-.15,4.09,4.09,0,0,0-.3,1c-1.35.07-2.19.08-3.35.08-.6,0-1.45,0-1.86-.06a2.64,2.64,0,0,1-2.12-1.05,9.78,9.78,0,0,1-1.16.94l-.29.24-.49-1.15a6.06,6.06,0,0,0,1.43-1v-2.15h-.53a3.89,3.89,0,0,0-.68,0Zm.85-3.71a10.26,10.26,0,0,1,1.49,1.76l-.78.86a8.5,8.5,0,0,0-1.51-1.88Zm3,2.39a5.31,5.31,0,0,0-.74,0v-.36h-.67a3.91,3.91,0,0,0,0-.61v-.62a4.41,4.41,0,0,0,0-.66,8.7,8.7,0,0,0,1,0h4.66a8.89,8.89,0,0,0,.95,0,3.9,3.9,0,0,0,0,.64v.6a3.06,3.06,0,0,0,0,.65h-.72v.36a4.81,4.81,0,0,0-.73,0H119.6v.43h1.53a8.09,8.09,0,0,0,.82,0,5.22,5.22,0,0,0,0,.74v1.51a5,5,0,0,0,0,.73c-.33,0-.51,0-.82,0h-1.52v.45h2a4,4,0,0,0,.8-.05v.94a6,6,0,0,0-.83,0h-2a5,5,0,0,0,.06.73h-1.12a5,5,0,0,0,.06-.73h-1.85a4.54,4.54,0,0,0-.8.05v-1a6.43,6.43,0,0,0,.79.05h1.87v-.45h-1.43a6.53,6.53,0,0,0-.8,0,4.68,4.68,0,0,0,0-.73v-1.51a4.48,4.48,0,0,0,0-.74c.24,0,.42,0,.8,0h1.42v-.43Zm1.32-1.31h-1.68v.48h1.68Zm-1.21,2.44v.44h1.21v-.44Zm0,1.09v.42h1.21v-.42Zm3.72-3h.27v-.49H119.6v.49Zm-1.52,2.39h1.31v-.44H119.6Zm0,1.07h1.31v-.42H119.6Z"/><path d="M125.87,166.28a6.52,6.52,0,0,1-1,3.15,5.44,5.44,0,0,0-1-.78,4.57,4.57,0,0,0,.73-1.69,11.58,11.58,0,0,0,.2-1.53c.05-.84.09-2.26.09-3.44a13.51,13.51,0,0,0,0-1.45c.34,0,.6,0,1.14,0h5.61a11.12,11.12,0,0,0,1.15,0c0,.34,0,.59,0,1.13v6.57c0,.83-.3,1-1.44,1l-1.12,0a3.84,3.84,0,0,0-.28-1c.5.05.94.07,1.26.07s.5,0,.5-.24v-1.75h-2.4v1.63a8.6,8.6,0,0,0,0,1.19h-1.18a8.14,8.14,0,0,0,.06-1.18v-1.64Zm2.3-2.36H126c0,.29,0,.49,0,.63v.74h2.22Zm0-2.29H126v1.31h2.18Zm3.47,1.31v-1.31h-2.4v1.31Zm0,2.35v-1.37h-2.4v1.37Z"/><path d="M143.59,164.75l-.14.22-.08.15a10.1,10.1,0,0,1-1.13,1.77c.23.65.51,1.16.64,1.16s.23-.47.33-1.28a3.09,3.09,0,0,0,.83.64c-.21,1.32-.55,1.94-1,1.94a1.32,1.32,0,0,1-.87-.53,4.37,4.37,0,0,1-.64-1.1,10.36,10.36,0,0,1-2,1.53,3.52,3.52,0,0,0-.7-.84,8.29,8.29,0,0,0,1.09-.59,8.71,8.71,0,0,0-.87,0h-1v.59a7,7,0,0,0,.06,1h-1.11a7.08,7.08,0,0,0,.06-1.07v-.57h-1.1a10.67,10.67,0,0,0-1.09.05v-1.06a8.11,8.11,0,0,0,1.08.06h1.11v-.72H136a6.57,6.57,0,0,0-.91,0,8.1,8.1,0,0,0,0-.85v-2.22a8.47,8.47,0,0,0,0-.86,4.82,4.82,0,0,0,.77,0H138a7.81,7.81,0,0,0,1-2l1,.36a10.47,10.47,0,0,1-.92,1.66,4.65,4.65,0,0,0,.73,0,6.93,6.93,0,0,0,0,.92v2.12a6.42,6.42,0,0,0,0,.89,8.34,8.34,0,0,0-.94,0h-.93v.72h1a7.45,7.45,0,0,0,1-.05v.93a9.46,9.46,0,0,0,1.17-1,15.63,15.63,0,0,1-.4-2.67,6.26,6.26,0,0,0-.78.11l-.07-1h.17l.62,0c0-.53-.05-1.17-.06-1.9a6.82,6.82,0,0,0-.06-.87h1.15a4.54,4.54,0,0,0-.05.94c0,.51,0,1.11,0,1.74l1.21-.11a5.06,5.06,0,0,0,.87-.13l.06,1h-.09c-.23,0-.37,0-.79.05l-1.21.12a17,17,0,0,0,.21,1.81,5.39,5.39,0,0,0,.72-1.52Zm-7.9-4.41a9,9,0,0,1,.73,1.49l-.92.33a5.71,5.71,0,0,0-.68-1.48Zm.38,2.8v.63h.86v-.63Zm0,1.45v.67h.86v-.67Zm1.41-4.38a8.76,8.76,0,0,1,.59,1.6l-.95.27a6.37,6.37,0,0,0-.56-1.57Zm.44,3.56h.88v-.63h-.88Zm0,1.49h.88v-.67h-.88Zm5-2.68a7.73,7.73,0,0,0-1-1.63l.72-.46a8.64,8.64,0,0,1,1.07,1.58Z"/><path d="M149.64,165.88a4.41,4.41,0,0,0-.33-.65v1.91a6.88,6.88,0,0,0,.05,1h-.9v-.47h-1.79v.79h-1a11.81,11.81,0,0,0,.06-1.19v-5.61c0-.43,0-.79,0-1,.22,0,.55,0,1,0h1.68c.48,0,.71,0,1,0,0,.16,0,.58,0,1v.88a5,5,0,0,0,1.64-2.46l1,.34a2.64,2.64,0,0,0-.14.29l-.09.2H153a4.47,4.47,0,0,0,.8,0l.53.65-.12.2a9.06,9.06,0,0,1-1.44,2.06,8.8,8.8,0,0,0,2.18,1,4.19,4.19,0,0,0-.47,1l-.4-.18c0,.15,0,.27,0,.54v2.14a7.42,7.42,0,0,0,0,1.09H153v-.5h-2v.5h-1.08a10.45,10.45,0,0,0,.05-1.08v-2.14c0-.19,0-.28,0-.45Zm-3-2.22h.48v-2h-.48Zm0,3.05h.48v-2.13h-.48Zm1.31-3.05h.48v-2H148Zm0,3.05h.48v-2.13H148Zm1.33-1.81a7.15,7.15,0,0,0,2-1.13,6.16,6.16,0,0,1-.82-1,8.06,8.06,0,0,1-.77.78c-.18-.26-.24-.35-.42-.58Zm4,.63h.52a9.39,9.39,0,0,1-1.79-1.09,8.69,8.69,0,0,1-1.66,1.1h2.93ZM151,168h2v-1.49h-2Zm.25-6.18-.17.25a4.33,4.33,0,0,0,.91,1.11,5.66,5.66,0,0,0,.95-1.36Z"/></g><g class="cls-3"><path d="M62.38,195.11a11,11,0,0,0-1.22,0v-1.29a6.31,6.31,0,0,0,1.24.07H67v-4.36H62.57a10,10,0,0,0-1.28.05v-1.3a6.72,6.72,0,0,0,1.29.07h4.81c.52,0,.52,0,.87,0a6.07,6.07,0,0,0,0,.83v5.49a6.68,6.68,0,0,0,0,1H66.94v-.61Z"/><path d="M70.9,194.4a9.54,9.54,0,0,0,2.95-.74,6.68,6.68,0,0,0,3-2.45,8.35,8.35,0,0,0,1-2,4.31,4.31,0,0,0,1.06,1,8.78,8.78,0,0,1-3.17,3.92,10.8,10.8,0,0,1-3.81,1.49,3.39,3.39,0,0,0-.65.17Zm.84-6.21a14.16,14.16,0,0,1,2.58,1.93l-.86,1.09a10.5,10.5,0,0,0-2.55-2Z"/><path d="M85.58,191.52a5.43,5.43,0,0,1-.7,2.69,4.74,4.74,0,0,1-2.61,2,3.14,3.14,0,0,0-.81-1.09,3.72,3.72,0,0,0,2.37-1.67,4.25,4.25,0,0,0,.44-1.89H81.83a9.72,9.72,0,0,0-1.26,0v-1.19a6.92,6.92,0,0,0,1.28.07H87.7a7.1,7.1,0,0,0,1.29-.07v1.19a9.89,9.89,0,0,0-1.27,0Zm-4-3.66a6.78,6.78,0,0,0,1.29.07H86.7a6.78,6.78,0,0,0,1.29-.07v1.22a9.42,9.42,0,0,0-1.27-.05H82.84a9.42,9.42,0,0,0-1.27.05Z"/><path d="M90.91,194.4a9.46,9.46,0,0,0,3-.74,6.68,6.68,0,0,0,3-2.45,8.35,8.35,0,0,0,1-2,4.31,4.31,0,0,0,1.06,1,8.78,8.78,0,0,1-3.17,3.92A10.82,10.82,0,0,1,92,195.6a3.48,3.48,0,0,0-.67.17Zm.85-6.21a14.16,14.16,0,0,1,2.58,1.93l-.86,1.09a10.45,10.45,0,0,0-2.54-2Z"/><path d="M101.66,188.41a12.33,12.33,0,0,1,1.21,2.94l-1.22.38a12.1,12.1,0,0,0-1.14-3Zm7.11.05a4.46,4.46,0,0,0-.25,1,8.92,8.92,0,0,1-5.3,6.67,3.8,3.8,0,0,0-.88-1.11,7.79,7.79,0,0,0,2.81-1.74,6.57,6.57,0,0,0,1.75-2.75,7.88,7.88,0,0,0,.5-2.35Zm-4.5-.53a12.81,12.81,0,0,1,1.2,2.83l-1.22.39a12.62,12.62,0,0,0-1.12-2.9Z"/><path d="M111.49,192.92a12.49,12.49,0,0,1-.37,3l-.84-.41a10.59,10.59,0,0,0,.38-2.72Zm1.92-.34c0-.2,0-.26-.09-.42l-.67.07v3a7,7,0,0,0,.06,1.21h-1a7.13,7.13,0,0,0,.07-1.21V192.3l-.71.06a4,4,0,0,0-.66.07l-.09-1a3.39,3.39,0,0,0,.46,0H111l.17-.25q.16-.21.3-.42a10.91,10.91,0,0,0-1.14-1.47l.48-.85c.1.11.19.23.3.34a6.56,6.56,0,0,0,.72-1.65l1,.39a3.21,3.21,0,0,0-.21.37,15.42,15.42,0,0,1-.91,1.61,4.88,4.88,0,0,1,.33.45,9.43,9.43,0,0,0,.92-1.71l.94.48c-.08.11-.13.19-.33.52-.31.52-1.07,1.63-1.49,2.16.49,0,.68,0,1-.08a7.13,7.13,0,0,0-.29-.77l.69-.26a9.53,9.53,0,0,1,.58,1.69c0-.72.06-1.34.06-2.15a7.26,7.26,0,0,0,0-1c.25,0,.45,0,.92,0h3.28c.48,0,.71,0,.92,0,0,.23,0,.44,0,.84v.64c0,.41,0,.63,0,.85-.13,0-.51,0-.82,0h-3.3s0,.21,0,.47h3.4a7.26,7.26,0,0,0,1,0c0,.27,0,.48,0,1v2.84c0,.65-.23.87-1,.87h-.13a2.16,2.16,0,0,0-.18-.91.62.62,0,0,0,.2,0c.19,0,.22,0,.22-.19v-.92h-.47v.93c0,.55,0,.74,0,1h-.81c0-.25,0-.45,0-1v-.93h-.47v.93c0,.57,0,.73,0,1h-.81c0-.25,0-.45,0-1v-.93h-.45v1.24c0,.37,0,.64,0,.86h-.89c0-.27,0-.49,0-.87V193a9.12,9.12,0,0,1-.84,3.36,2.68,2.68,0,0,0-.8-.77,5.41,5.41,0,0,0,.43-.9l-.48.14a10,10,0,0,0-.26-1.92l.68-.14a8.38,8.38,0,0,1,.23,1.36,10.78,10.78,0,0,0,.27-1.78Zm.34-5.09a7.41,7.41,0,0,0,1.08.06h3.59a7.23,7.23,0,0,0,1.08-.06v1a6,6,0,0,0-1-.05h-4a5.26,5.26,0,0,0-.8,0Zm1.36,2.47v.36h3.07v-.55h-3.07Zm1,2.6h-.45v.88h.45Zm1.22.88v-.88h-.47v.88Zm1.22,0v-.88h-.47v.88Z"/><path d="M126.5,191.82h2.35a8,8,0,0,0,1,0v.87a6.06,6.06,0,0,0-1-.05h-2.64v.53h2.84a7.53,7.53,0,0,0,1.14,0v1a7.23,7.23,0,0,0-1.14-.06h-2a8.64,8.64,0,0,0,3.31,1.26,2.85,2.85,0,0,0-.37.59l-.11.24-.09.2a9.93,9.93,0,0,1-2-.74,5.72,5.72,0,0,1-1.62-1.11c0,.28,0,.54,0,.66v.58a2.53,2.53,0,0,0,.06.71h-1.19a2.75,2.75,0,0,0,.06-.7v-.59c0-.23,0-.42,0-.66a5.56,5.56,0,0,1-1.81,1.21,9.84,9.84,0,0,1-1.77.63,4.18,4.18,0,0,0-.56-1,7.83,7.83,0,0,0,2.15-.65,4.16,4.16,0,0,0,1.08-.63h-1.93a7,7,0,0,0-1.12.06v-1a7.31,7.31,0,0,0,1.12,0h2.81v-.53h-2c-.39,0-.6,0-.85,0a4.61,4.61,0,0,0,.05-.8v-1.24a8.05,8.05,0,0,1,0-.87,5.52,5.52,0,0,1-.92.87,3.93,3.93,0,0,0-.52-1,6.21,6.21,0,0,0,1.82-1.93,3.24,3.24,0,0,0,.32-.65l1.16.19a9.27,9.27,0,0,1-.55.84h1.79a4,4,0,0,0,.52-1l1.13.14a9.85,9.85,0,0,1-.52.87h2.15a6.42,6.42,0,0,0,1-.05v.93a6.28,6.28,0,0,0-.83,0H126.5v.48h1.92a5.92,5.92,0,0,0,1,0v.82a5.82,5.82,0,0,0-1,0H126.5v.48h1.92a5.92,5.92,0,0,0,1-.05v.82a7.07,7.07,0,0,0-1,0H126.5Zm-1-2.92H123.4v.48h2.06Zm0,1.21H123.4v.48h2.06Zm-2.06,1.21v.5h2.06v-.5Z"/><path d="M133.93,190.47a9.31,9.31,0,0,1-1.59.86,4.64,4.64,0,0,0-.58-1,9.42,9.42,0,0,0,2.5-1.39,6.58,6.58,0,0,0,1.58-1.68H137a6.07,6.07,0,0,0,1.69,1.66,10.57,10.57,0,0,0,2.57,1.35,4.45,4.45,0,0,0-.55,1.12,10.66,10.66,0,0,1-1.71-.91v.78a7.6,7.6,0,0,0-.9,0h-3.34a8,8,0,0,0-.86,0Zm-.55,2.58a9.09,9.09,0,0,0-1.17.06V192a9.53,9.53,0,0,0,1.17.06h6.23a9.42,9.42,0,0,0,1.17-.06v1.16a9.3,9.3,0,0,0-1.17-.06h-3.44a10.87,10.87,0,0,1-1,1.94c1.77-.1,1.77-.1,3.17-.25-.32-.35-.49-.53-1.05-1.11l1-.44a21.08,21.08,0,0,1,2.31,2.66l-1,.64-.6-.88c-.83.12-1.43.19-1.8.22l-3.37.31a12.89,12.89,0,0,0-1.29.13l-.15-1.21c.27,0,.44,0,.57,0s.37,0,.88,0a10.35,10.35,0,0,0,1.07-2Zm4.74-2.89h.44a8.15,8.15,0,0,1-2.09-1.94,8.54,8.54,0,0,1-2.08,1.94h3.73Z"/><path d="M145.73,189.9a5,5,0,0,0-.74,0h-1.6a4.55,4.55,0,0,0-.74,0v-1a3.71,3.71,0,0,0,.74.05H145a5.21,5.21,0,0,0,.78,0Zm-2.88,6.53a7.1,7.1,0,0,0,.06-1V194a6.74,6.74,0,0,0,0-.84,4.37,4.37,0,0,0,.66,0h1.34a4.72,4.72,0,0,0,.67,0,7.6,7.6,0,0,0,0,.82v1.41c0,.34,0,.53,0,.82h-.87v-.32h-.9v.51Zm.09-9a3.51,3.51,0,0,0,.71,0h1.2a3.51,3.51,0,0,0,.71,0v1a4.53,4.53,0,0,0-.71,0h-1.2a4.45,4.45,0,0,0-.71,0Zm0,2.9a5.7,5.7,0,0,0,.7,0h1.09a6.73,6.73,0,0,0,.74,0v.93a7.12,7.12,0,0,0-.74,0h-1.09a6,6,0,0,0-.7,0Zm0,1.39a5.81,5.81,0,0,0,.7,0h1.09a6.61,6.61,0,0,0,.74,0v.93a5,5,0,0,0-.74,0h-1.09a6.16,6.16,0,0,0-.7,0Zm.81,3.32h.9v-1h-.9Zm7.76-1.21c-.23.27-.78.84-1,1,.2.28.37.43.49.43s.25-.26.33-.9a2.14,2.14,0,0,0,.72.5,2.58,2.58,0,0,1-.31,1.08.68.68,0,0,1-.57.34,1.75,1.75,0,0,1-1.36-.87,8.53,8.53,0,0,1-1.33.8,5.21,5.21,0,0,0-.59-.77,6.8,6.8,0,0,0,1.48-.82,5.41,5.41,0,0,1-.42-1.34h-1.26v.47l1-.22,0,.79c-.23,0-.3.06-.71.16l-.35.08v.87c0,.36-.08.58-.26.7s-.4.18-.94.18a4.9,4.9,0,0,1-.5,0,3.35,3.35,0,0,0-.18-.85,3.94,3.94,0,0,0,.7.06c.22,0,.28-.05.28-.22v-.55l-1,.18-.14-.89h.09a7.39,7.39,0,0,0,1-.12v-.62h-.37a4,4,0,0,0-.74,0v-.93a4.52,4.52,0,0,0,.76,0h.35v-.36l-.74.08a2,2,0,0,0-.3-.64,5.87,5.87,0,0,0,2.34-.47l.52.6-.12.05a6.59,6.59,0,0,1-.8.21v.53h1.16c0-.22,0-.29,0-.48a4.73,4.73,0,0,0-.07-.75h1a2.83,2.83,0,0,0,0,.41c0,.18,0,.5.05.82h1.11a4,4,0,0,0,.85-.06v.95a4.48,4.48,0,0,0-.85,0h-1a3.42,3.42,0,0,0,.23.76,3,3,0,0,0,.63-.75ZM147.25,188a3.84,3.84,0,0,0-.43-.71l1-.25a5.84,5.84,0,0,1,.51,1h.9a4.77,4.77,0,0,0,.43-1l1,.23c-.13.26-.24.48-.39.73h.46a4.38,4.38,0,0,0,.82,0v.86a6.71,6.71,0,0,0-.82,0h-1.59v.38h1.25a6,6,0,0,0,.81,0v.8a6.65,6.65,0,0,0-.81,0h-1.25v.37h1.74a4.41,4.41,0,0,0,.86-.05v.86a5.86,5.86,0,0,0-.85,0h-4.21a5.52,5.52,0,0,0-.85,0v-.85a5.69,5.69,0,0,0,.85,0h1.52v-.37h-1.11a5.41,5.41,0,0,0-.81,0v-.8a6.14,6.14,0,0,0,.81,0h1.11v-.38h-1.36a6.78,6.78,0,0,0-.83,0V188a4.57,4.57,0,0,0,.83,0Zm3.29,3.09a7.75,7.75,0,0,1,1,.8l-.67.49a3.92,3.92,0,0,0-.93-.87Z"/></g></g></g></g></svg>