<svg xmlns="http://www.w3.org/2000/svg" viewBox="0 0 270 197.51"><defs><style>.cls-1{fill:#fff;stroke-linecap:round;stroke-linejoin:round;}.cls-1,.cls-3{stroke:#000;stroke-width:2px;}.cls-2{isolation:isolate;}.cls-3{fill:#ff8b00;stroke-miterlimit:10;}</style></defs><g id="レイヤー_2" data-name="レイヤー 2"><g id="レイヤー_1-2" data-name="レイヤー 1"><path id="長方形_75" data-name="長方形 75" class="cls-1" d="M7.69,1H262.31A6.78,6.78,0,0,1,269,7.87V189.63a6.78,6.78,0,0,1-6.69,6.88H7.69A6.78,6.78,0,0,1,1,189.63V7.87A6.78,6.78,0,0,1,7.69,1Z"/><g id="サイト作成_クリエイティブ作成_動画作成" data-name="サイト作成 クリエイティブ作成 動画作成" class="cls-2"><g class="cls-2"><path d="M65.83,107.13v-.77a6.37,6.37,0,0,0,0-1.11h1.29a3.69,3.69,0,0,0,0,.67c0,.61,0,.61,0,1.21h.64a7.1,7.1,0,0,0,1.3-.07v1.22a10.17,10.17,0,0,0-1.28,0H67a12.12,12.12,0,0,1-.07,1.65,4,4,0,0,1-1.44,2.87,5.56,5.56,0,0,1-2,1,2.85,2.85,0,0,0-.75-1.06,4.64,4.64,0,0,0,1.91-.95,3.12,3.12,0,0,0,1.06-2.4c0-.23,0-.47,0-1.16H63.23v1.5a6.16,6.16,0,0,0,0,.84H62c0-.22,0-.49,0-.86v-1.48h-.61a10.17,10.17,0,0,0-1.28,0v-1.22a7.1,7.1,0,0,0,1.3.07H62v-1a5.15,5.15,0,0,0-.06-.89h1.31a5,5,0,0,0,0,.86v1Z"/><path d="M78.53,106a4.12,4.12,0,0,0-.37.35,17.68,17.68,0,0,1-2.36,2.06v4.27a7.56,7.56,0,0,0,0,1.11h-1.4a5.62,5.62,0,0,0,.06-1.08v-3.52A16.09,16.09,0,0,1,71,110.78a3.76,3.76,0,0,0-.67-1.14,14.56,14.56,0,0,0,5.24-2.6,8,8,0,0,0,1.86-1.87Z"/><path d="M81.58,113.74a5.66,5.66,0,0,0,.07-1.12v-6.41a5.24,5.24,0,0,0-.07-1H83a8.92,8.92,0,0,0,0,1v1.86a29.74,29.74,0,0,1,4.53,2.11l-.7,1.18a23.66,23.66,0,0,0-3.54-1.91,2,2,0,0,1-.33-.17c0,.28,0,.4,0,.68v2.64c0,.52,0,.78,0,1.11Z"/><path d="M92.6,105.15a5,5,0,0,0-.22.56c-.17.43-.17.43-.68,1.6v5.54a9.36,9.36,0,0,0,.06,1.24H90.57a8.84,8.84,0,0,0,.07-1.24V110c0-.25,0-.3,0-1.14a10.42,10.42,0,0,1-1,1.15,4.73,4.73,0,0,0-.53-1.17,8.17,8.17,0,0,0,1.9-2.76,6.15,6.15,0,0,0,.42-1.32Zm1.63,2.14a10.87,10.87,0,0,1-1.64,2.44,4.3,4.3,0,0,0-.71-.94,7.94,7.94,0,0,0,1.67-2.55,6.45,6.45,0,0,0,.45-1.45l1.13.33c-.1.24-.13.33-.2.53-.15.42-.16.45-.25.67H97.4a7.41,7.41,0,0,0,1.08-.06v1.08a10.45,10.45,0,0,0-1.08,0H95.5v1.28h1.63a6.9,6.9,0,0,0,1-.06v1.08a7.68,7.68,0,0,0-1-.06H95.5v1.28h1.64a5.76,5.76,0,0,0,1-.06v1.09a7.79,7.79,0,0,0-1-.06H95.5v1.15a6.77,6.77,0,0,0,.07,1.2H94.36a7,7,0,0,0,.06-1.2v-5.64Z"/><path d="M108.68,108.37l-.22.53a10.87,10.87,0,0,1-1.35,2.5,4.31,4.31,0,0,0,.6.86,1.45,1.45,0,0,0,.45.36s.08-.06.13-.19a5.82,5.82,0,0,0,.19-1.17,3,3,0,0,0,.9.67c-.23,1.35-.58,1.94-1.13,1.94s-1.3-.67-1.88-1.61A9.2,9.2,0,0,1,104,114a3.32,3.32,0,0,0-.76-.87,7.51,7.51,0,0,0,2.69-1.84,12.4,12.4,0,0,1-.75-4H102c0,1,0,1,0,1.32h1.83a4.37,4.37,0,0,0,.71,0c0,.18,0,.46-.06.85a9.5,9.5,0,0,1-.33,2.75c-.16.4-.52.55-1.29.55-.28,0-.43,0-.75,0a3.74,3.74,0,0,0-.26-1.06,6,6,0,0,0,1,.08c.31,0,.4-.06.45-.31a10.87,10.87,0,0,0,.15-1.81H102a15.45,15.45,0,0,1-.31,2.51,5.41,5.41,0,0,1-.82,1.95,3.67,3.67,0,0,0-.87-.85,4.68,4.68,0,0,0,.69-1.58,18.79,18.79,0,0,0,.3-4,9.9,9.9,0,0,0-.06-1.42c.36,0,.77,0,1.29,0h2.89c0-.08,0-.34,0-.78a3.1,3.1,0,0,0,0-.63h1.19a8.25,8.25,0,0,0,0,1v.46h1.32a4.73,4.73,0,0,0-.88-.92l.77-.49a5.6,5.6,0,0,1,1,1l-.52.36h.3a5.57,5.57,0,0,0,1.06-.06v1.1c-.33,0-.71,0-1.22,0h-1.8a13.55,13.55,0,0,0,.46,3,6.9,6.9,0,0,0,1-2.34Z"/></g><g class="cls-2"><path d="M68.16,133.89a1.88,1.88,0,0,0-.25.6,10.37,10.37,0,0,1-2,3.86,10.1,10.1,0,0,1-3.56,2.54,2.94,2.94,0,0,0-.84-1,8.92,8.92,0,0,0,2.18-1.18,7.92,7.92,0,0,0,2.92-4.22l-3,.05a9.75,9.75,0,0,1-2.33,2.56,2.66,2.66,0,0,0-1-.86,7.59,7.59,0,0,0,2.58-2.9,3.73,3.73,0,0,0,.51-1.32l1.37.27a2,2,0,0,0-.17.31,2,2,0,0,0-.13.28l-.13.26a2.36,2.36,0,0,1-.16.32l.48,0,2.19,0a1.77,1.77,0,0,0,.73-.1Z"/><path d="M72.18,132.41a5.08,5.08,0,0,0,0,.9v2.76a4.83,4.83,0,0,0,0,.88H70.82a7.21,7.21,0,0,0,.05-.9V133.3a6.31,6.31,0,0,0,0-.9Zm4.54,0a4.74,4.74,0,0,0,0,.93v1.35a11.81,11.81,0,0,1-.26,3,3.83,3.83,0,0,1-2,2.33,8.46,8.46,0,0,1-2,.77,3.42,3.42,0,0,0-.7-1.19,5.39,5.39,0,0,0,2.16-.8,2.83,2.83,0,0,0,1.38-2.55c0-.43,0-.87,0-1.67v-1.25a5.27,5.27,0,0,0,0-1Z"/><path d="M84,138.54h2.42a7.16,7.16,0,0,0,1.3-.07v1.26a10.27,10.27,0,0,0-1.28,0h-6a10.27,10.27,0,0,0-1.28,0v-1.26a7.16,7.16,0,0,0,1.3.07h2.25v-4.11H81.24a10.27,10.27,0,0,0-1.28,0v-1.25a7.17,7.17,0,0,0,1.29.07H85.7a7.23,7.23,0,0,0,1.3-.07v1.25a10.17,10.17,0,0,0-1.28,0H84Z"/><path d="M97.22,133a4.12,4.12,0,0,0-.37.35,17.68,17.68,0,0,1-2.36,2.06v4.27a7.56,7.56,0,0,0,.05,1.11h-1.4a5.62,5.62,0,0,0,.06-1.08v-3.52a16.09,16.09,0,0,1-3.56,1.62,3.76,3.76,0,0,0-.67-1.14,14.56,14.56,0,0,0,5.24-2.6,8,8,0,0,0,1.86-1.87Z"/><path d="M104.11,136.21a5.43,5.43,0,0,1-.7,2.69,4.76,4.76,0,0,1-2.6,2,3.17,3.17,0,0,0-.81-1.1,3.69,3.69,0,0,0,2.36-1.67,4.25,4.25,0,0,0,.44-1.89h-2.43a9.89,9.89,0,0,0-1.27,0v-1.19a7,7,0,0,0,1.29.07h5.84a7.1,7.1,0,0,0,1.29-.07v1.19a9.89,9.89,0,0,0-1.27,0Zm-4-3.66a6.73,6.73,0,0,0,1.28.07h3.84a6.78,6.78,0,0,0,1.29-.07v1.22a9.42,9.42,0,0,0-1.27-.05h-3.87a9.42,9.42,0,0,0-1.27.05Z"/><path d="M116.23,134.56a2,2,0,0,0-.34.33,13.38,13.38,0,0,1-1.86,1.64v3.4a5.91,5.91,0,0,0,0,1h-1.29a6,6,0,0,0,0-.95v-2.68a14,14,0,0,1-2.82,1.27,4.09,4.09,0,0,0-.62-1,10.4,10.4,0,0,0,2.36-.9,11.41,11.41,0,0,0,2.84-2,3.75,3.75,0,0,0,.61-.72Z"/><path d="M126,134.07a1.93,1.93,0,0,0-.17.45,8.9,8.9,0,0,1-5.68,6.49,3.68,3.68,0,0,0-.88-1.19,7.26,7.26,0,0,0,5.21-5.38h-4.75a7.2,7.2,0,0,0-1.26.06v-1.3a6.85,6.85,0,0,0,1.28.07h4.58a6.2,6.2,0,0,0,.72,0,5.73,5.73,0,0,0-.62-1l.73-.27a6.18,6.18,0,0,1,.89,1.58l-.4.16Zm.59-.71a6.76,6.76,0,0,0-.86-1.55l.72-.27a5.57,5.57,0,0,1,.88,1.52Z"/><path d="M131.75,132.15c-.11.25-.13.32-.22.56-.16.43-.16.43-.68,1.6v5.54a9.23,9.23,0,0,0,.07,1.24h-1.2a8.84,8.84,0,0,0,.07-1.24V137c0-.25,0-.3,0-1.14a10.42,10.42,0,0,1-1,1.15,4.73,4.73,0,0,0-.53-1.17,8.17,8.17,0,0,0,1.9-2.76,5.63,5.63,0,0,0,.42-1.32Zm1.63,2.14a11.18,11.18,0,0,1-1.63,2.44,4.35,4.35,0,0,0-.72-.94,7.78,7.78,0,0,0,1.67-2.55,6.45,6.45,0,0,0,.45-1.45l1.13.33c-.1.24-.13.33-.2.53-.15.42-.16.45-.25.67h2.72a7.41,7.41,0,0,0,1.08-.06v1.08a10.45,10.45,0,0,0-1.08-.05h-1.9v1.28h1.63a6.9,6.9,0,0,0,1-.06v1.08a7.68,7.68,0,0,0-1-.06h-1.62v1.28h1.64a5.76,5.76,0,0,0,1-.06v1.09a7.79,7.79,0,0,0-1-.06h-1.64v1.15a6.77,6.77,0,0,0,.07,1.2h-1.21a7,7,0,0,0,.06-1.2v-5.64Z"/><path d="M147.83,135.37l-.22.53a10.87,10.87,0,0,1-1.35,2.5,4.31,4.31,0,0,0,.6.86,1.45,1.45,0,0,0,.45.36s.08-.06.13-.19a5.82,5.82,0,0,0,.19-1.17,3,3,0,0,0,.9.67c-.23,1.35-.58,1.94-1.13,1.94s-1.3-.67-1.88-1.61A9.2,9.2,0,0,1,143.1,141a3.32,3.32,0,0,0-.76-.87A7.51,7.51,0,0,0,145,138.3a12.4,12.4,0,0,1-.75-4h-3.09c0,1,0,1,0,1.32H143a4.37,4.37,0,0,0,.71,0c0,.18,0,.46-.06.85a9.5,9.5,0,0,1-.33,2.75c-.16.4-.52.55-1.28.55-.29,0-.44,0-.76,0a3.74,3.74,0,0,0-.26-1.06,6.1,6.1,0,0,0,1,.08c.3,0,.39-.06.44-.31a10.87,10.87,0,0,0,.15-1.81h-1.45a15.45,15.45,0,0,1-.31,2.51,5.41,5.41,0,0,1-.82,1.95,3.67,3.67,0,0,0-.87-.85,4.68,4.68,0,0,0,.69-1.58,18.79,18.79,0,0,0,.3-3.95,9.9,9.9,0,0,0-.06-1.42c.36,0,.77,0,1.29,0h2.89c0-.08,0-.34,0-.78a3.1,3.1,0,0,0-.05-.63h1.19a8.25,8.25,0,0,0,0,1v.46h1.32a4.73,4.73,0,0,0-.88-.92l.77-.49a5.6,5.6,0,0,1,1,1.05l-.52.36h.3a5.57,5.57,0,0,0,1.06-.06v1.1c-.33,0-.71-.05-1.22-.05h-1.8a13.55,13.55,0,0,0,.46,3,6.9,6.9,0,0,0,1-2.34Z"/></g><g class="cls-2"><path d="M62.45,160.08c-.7.06-1,.08-1.72.12a3.3,3.3,0,0,0-.35-.8,13.29,13.29,0,0,0,4.35-.54l.6.82-.55.09c-.37.07-.87.15-1.37.22v.56h1a5.28,5.28,0,0,0,.93-.05v.91a3.44,3.44,0,0,0-.72,0H63.41v.43h1a7.88,7.88,0,0,0,.84,0,8,8,0,0,0,0,.88V164c0,.48,0,.78,0,.91-.23,0-.43,0-.9,0h-.93v.44h.88a6.8,6.8,0,0,0,.94,0v.94a2.91,2.91,0,0,0-.7,0H63.41v.49c.52,0,.86-.09,1.8-.22v.43a6.89,6.89,0,0,0,1-2.3,14.86,14.86,0,0,0,.26-2.64,6.09,6.09,0,0,0-.83,0V160.9a4.37,4.37,0,0,0,.71,0h.15c0-.25,0-.42,0-.73a6.38,6.38,0,0,0-.06-1.27h1.15a12,12,0,0,0-.08,2h.87a7.9,7.9,0,0,0,.94,0c0,.36,0,.44-.07,1.88a16.37,16.37,0,0,1-.43,4.57c-.18.44-.5.59-1.25.59l-.8,0a3,3,0,0,0-.23-1.08,6.5,6.5,0,0,1-.8,1.31,3,3,0,0,0-.79-.79c-1.37.2-2.1.28-3.92.42l-.58.08-.18-1.07a4.43,4.43,0,0,0,.52,0c.45,0,.64,0,1.7-.07v-.55h-1a9,9,0,0,0-.93,0v-.94a5.93,5.93,0,0,0,.94.05h1v-.44h-.87c-.45,0-.69,0-1,0,0-.25,0-.46,0-.95v-1.29c0-.47,0-.66,0-.91.28,0,.54,0,1,0h.87v-.43H61.23a6,6,0,0,0-.93,0v-.92a6,6,0,0,0,.93.05h1.22Zm-.87,2.47V163h.87v-.42Zm0,1.15v.44h.87v-.44Zm1.83-.73h.87v-.42h-.87Zm0,1.17h.87v-.44h-.87Zm4-2.2a11.71,11.71,0,0,1-.94,4.88,5.25,5.25,0,0,0,.88.1c.45,0,.52-.12.64-1a19.89,19.89,0,0,0,.14-2.07c0-.35,0-.35,0-1.16,0-.31,0-.37,0-.7Z"/><path d="M72.31,160.16a12.07,12.07,0,0,0-1.23.06v-1.1a10.86,10.86,0,0,0,1.21.06h6.59a11.78,11.78,0,0,0,1.23-.06v1.1a11.73,11.73,0,0,0-1.22-.06H76.07v.89h1.19a6.11,6.11,0,0,0,.82,0,5.28,5.28,0,0,0,0,.75v3.58a4.71,4.71,0,0,0,0,.74,6.44,6.44,0,0,0-.88,0H74a6.42,6.42,0,0,0-.89,0,5,5,0,0,0,0-.74v-3.58a5.56,5.56,0,0,0,0-.75,6,6,0,0,0,.81,0h1.16v-.89Zm7.57,1a10.51,10.51,0,0,0-.06,1.12v4.48a10.86,10.86,0,0,0,.07,1.34H78.73v-.47h-6.3v.47H71.29a13.11,13.11,0,0,0,.06-1.33v-4.5a9.79,9.79,0,0,0-.06-1.11h1.16a6.42,6.42,0,0,0,0,.89v4.61h6.35v-4.63a5.14,5.14,0,0,0-.05-.87Zm-5.8.78V163h1V162Zm0,2v1.22h1v-1.22Zm2-.9h1V162h-1Zm0,2.12h1v-1.22h-1Z"/><path d="M85,159.15c-.11.25-.14.32-.23.56-.16.43-.16.43-.67,1.6v5.54a9.36,9.36,0,0,0,.06,1.24H83a8.84,8.84,0,0,0,.07-1.24V164c0-.25,0-.3,0-1.14a10.42,10.42,0,0,1-1,1.15,4.73,4.73,0,0,0-.53-1.17,8.17,8.17,0,0,0,1.9-2.76,6.15,6.15,0,0,0,.42-1.32Zm1.63,2.14A10.87,10.87,0,0,1,85,163.73a4.05,4.05,0,0,0-.72-.94,7.81,7.81,0,0,0,1.68-2.55,6.45,6.45,0,0,0,.45-1.45l1.13.33c-.1.24-.13.33-.2.53-.15.42-.16.45-.25.67h2.72a7.41,7.41,0,0,0,1.08-.06v1.08a10.45,10.45,0,0,0-1.08-.05h-1.9v1.28h1.63a6.9,6.9,0,0,0,1-.06v1.08a7.68,7.68,0,0,0-1-.06H87.88v1.28h1.64a5.76,5.76,0,0,0,1-.06v1.09a7.79,7.79,0,0,0-1-.06H87.88v1.15a6.77,6.77,0,0,0,.07,1.2H86.74a7,7,0,0,0,.06-1.2v-5.64Z"/><path d="M101.06,162.37l-.22.53a10.87,10.87,0,0,1-1.35,2.5,4.31,4.31,0,0,0,.6.86,1.45,1.45,0,0,0,.45.36s.08-.06.13-.19a5.82,5.82,0,0,0,.19-1.17,3,3,0,0,0,.9.67c-.23,1.35-.58,1.94-1.13,1.94s-1.3-.67-1.88-1.61A9.2,9.2,0,0,1,96.33,168a3.32,3.32,0,0,0-.76-.87,7.51,7.51,0,0,0,2.69-1.84,12.4,12.4,0,0,1-.75-4H94.42c0,1,0,1,0,1.32h1.83a4.37,4.37,0,0,0,.71,0c0,.18,0,.46-.06.85a9.5,9.5,0,0,1-.33,2.75c-.16.4-.52.55-1.29.55-.28,0-.43,0-.76,0a3.42,3.42,0,0,0-.25-1.06,6,6,0,0,0,1,.08c.31,0,.4-.06.45-.31a10.87,10.87,0,0,0,.15-1.81H94.36a14.25,14.25,0,0,1-.32,2.51,5.22,5.22,0,0,1-.81,1.95,3.67,3.67,0,0,0-.87-.85,4.68,4.68,0,0,0,.69-1.58,18.79,18.79,0,0,0,.3-3.95,9.9,9.9,0,0,0-.06-1.42c.36,0,.77,0,1.29,0h2.89c0-.08,0-.34,0-.78a3.1,3.1,0,0,0,0-.63h1.19a8.25,8.25,0,0,0,0,1v.46h1.32a4.73,4.73,0,0,0-.88-.92l.77-.49a5.6,5.6,0,0,1,1,1.05l-.52.36h.3a5.57,5.57,0,0,0,1.06-.06v1.1c-.33,0-.71-.05-1.22-.05h-1.8a13.55,13.55,0,0,0,.46,3,6.9,6.9,0,0,0,1-2.34Z"/></g></g><circle id="楕円形_35" data-name="楕円形 35" class="cls-3" cx="42.49" cy="110.56" r="6.34"/><circle id="楕円形_36" data-name="楕円形 36" class="cls-3" cx="42.1" cy="138.57" r="6.34"/><circle id="楕円形_37" data-name="楕円形 37" class="cls-3" cx="42.1" cy="166.58" r="6.34"/><g id="コンテンツ制作" class="cls-2"><g class="cls-2"><path d="M25,37.65a26.87,26.87,0,0,0-2.7.08V34.9a14.37,14.37,0,0,0,2.75.15h10V25.46H25.41a21.24,21.24,0,0,0-2.82.11V22.71a15.15,15.15,0,0,0,2.84.15H36c1.15,0,1.15,0,1.92,0a12.48,12.48,0,0,0-.07,1.82V36.72A14.32,14.32,0,0,0,38,39H35V37.65Z"/><path d="M44.26,36.08a21.27,21.27,0,0,0,6.52-1.62,14.76,14.76,0,0,0,6.53-5.39,18.27,18.27,0,0,0,2.25-4.41,9.24,9.24,0,0,0,2.33,2.16,19.32,19.32,0,0,1-7,8.63,23.91,23.91,0,0,1-8.38,3.3,7,7,0,0,0-1.45.37Zm1.87-13.66a30.9,30.9,0,0,1,5.68,4.25l-1.89,2.4a22.9,22.9,0,0,0-5.61-4.47Z"/><path d="M77.13,29.75a11.87,11.87,0,0,1-1.54,5.91c-1.16,1.94-2.77,3.15-5.74,4.34a7,7,0,0,0-1.78-2.42c2.64-.81,4.29-2,5.21-3.68a9.4,9.4,0,0,0,1-4.15H68.88a21.37,21.37,0,0,0-2.79.11V27.24a15.73,15.73,0,0,0,2.84.15H81.8a16,16,0,0,0,2.84-.15v2.62a21.54,21.54,0,0,0-2.8-.11Zm-8.82-8.06a14.92,14.92,0,0,0,2.84.16H79.6a15.05,15.05,0,0,0,2.84-.16v2.69a20.53,20.53,0,0,0-2.8-.11H71.1a20.35,20.35,0,0,0-2.79.11Z"/><path d="M89.41,36.08a21.21,21.21,0,0,0,6.51-1.62,14.79,14.79,0,0,0,6.54-5.39,18.62,18.62,0,0,0,2.24-4.41A9.41,9.41,0,0,0,107,26.82a19.37,19.37,0,0,1-7,8.63,24,24,0,0,1-8.39,3.3,7.16,7.16,0,0,0-1.45.37Zm1.87-13.66A31.25,31.25,0,0,1,97,26.67l-1.9,2.4a22.71,22.71,0,0,0-5.61-4.47Z"/><path d="M113.61,22.9a28.19,28.19,0,0,1,2.66,6.47l-2.71.84a26.54,26.54,0,0,0-2.5-6.56Zm15.64.11a10,10,0,0,0-.55,2.14c-1.56,7.06-5.06,11.48-11.66,14.7a8.26,8.26,0,0,0-1.94-2.47,17.1,17.1,0,0,0,6.19-3.83,14.45,14.45,0,0,0,3.85-6,17.54,17.54,0,0,0,1.1-5.17Zm-9.9-1.16A28,28,0,0,1,122,28.07l-2.68.86a27.82,27.82,0,0,0-2.47-6.38Z"/><path d="M136.2,25.17a15.1,15.1,0,0,1-.77,1.69,17.25,17.25,0,0,0-2.09-1.07,12.36,12.36,0,0,0,1.74-4.36,3.42,3.42,0,0,0,.11-.86l2.24.42a8.41,8.41,0,0,0-.24.88c0,.24-.17.73-.28,1.17h1.69v-.62a10.82,10.82,0,0,0-.13-2.13H141a9.69,9.69,0,0,0-.14,2.09V23h1.87a14.61,14.61,0,0,0,2.18-.11v2.33a17.93,17.93,0,0,0-2.18-.09h-1.87V27h2.58a16.69,16.69,0,0,0,2-.09v2.33a13.55,13.55,0,0,0-2.11-.11h-2.49v1.74H143a16.21,16.21,0,0,0,2.05-.09,18.73,18.73,0,0,0-.07,2v4.4c0,1.37-.55,1.76-2.44,1.76-.2,0-.4,0-1,0a6.12,6.12,0,0,0-.39-2.09c.35,0,.92.09,1.16.09.42,0,.56-.09.56-.38V33h-2v5.2a16.91,16.91,0,0,0,.11,2.37h-2.48a13.83,13.83,0,0,0,.13-2.4V33h-2.11v3.94a17.33,17.33,0,0,0,.09,2.13h-2.4a12.15,12.15,0,0,0,.11-2.15V32.87a17.69,17.69,0,0,0-.09-2.07,14.91,14.91,0,0,0,2.13.11h2.27V29.17h-2.77a17.17,17.17,0,0,0-2.27.11V26.93a12,12,0,0,0,2,.11h3.08V25.17Zm12.48-3.35a15,15,0,0,0-.11,2.29V33a13.53,13.53,0,0,0,.11,2.33h-2.47a13.52,13.52,0,0,0,.11-2.35v-8.8a12.87,12.87,0,0,0-.13-2.34ZM153,20.37a15.19,15.19,0,0,0-.15,2.67V37.73c0,1.17-.2,1.72-.73,2.09a4.35,4.35,0,0,1-2.66.51l-2.09-.07a6.75,6.75,0,0,0-.66-2.35,20.47,20.47,0,0,0,2.84.22c.79,0,1-.13,1-.66V23.1a20,20,0,0,0-.14-2.73Z"/><path d="M164.67,20.81c-.24.55-.31.71-.51,1.24-.35.94-.35.94-1.49,3.52V37.76a20.24,20.24,0,0,0,.15,2.72h-2.64a19.22,19.22,0,0,0,.16-2.72V31.49c0-.56,0-.67.06-2.51a24.14,24.14,0,0,1-2.11,2.53,10.51,10.51,0,0,0-1.17-2.58,17.86,17.86,0,0,0,4.18-6.07,12.1,12.1,0,0,0,.93-2.9Zm3.59,4.71a24.08,24.08,0,0,1-3.61,5.37,9,9,0,0,0-1.59-2.07,17.08,17.08,0,0,0,3.7-5.61,14.19,14.19,0,0,0,1-3.19l2.49.73c-.22.53-.29.72-.44,1.16-.33.93-.36,1-.55,1.48h6a17.69,17.69,0,0,0,2.38-.13v2.37c-.64-.06-1.41-.11-2.38-.11h-4.18v2.82h3.59a16.57,16.57,0,0,0,2.18-.13v2.37a16.7,16.7,0,0,0-2.2-.13h-3.57v2.82h3.61a13.74,13.74,0,0,0,2.2-.13v2.39a18.74,18.74,0,0,0-2.2-.13h-3.61v2.53a13.79,13.79,0,0,0,.16,2.64h-2.67a15.54,15.54,0,0,0,.13-2.64V25.52Z"/></g></g><g id="HP_動画_クリエイティブなど_マーケティングに欠かせない制作物を作成します" data-name="HP 動画 クリエイティブなど マーケティングに欠かせない制作物を作成します" class="cls-2"><g class="cls-2"><path d="M25.39,56.57h1.28v3.3h3.46v-3.3h1.28v8.1H30.13V61H26.67v3.68H25.39Z"/><path d="M33.26,56.57h2.45c1.81,0,3.09.62,3.09,2.45s-1.28,2.58-3,2.58H34.53v3.07H33.26Zm2.37,4c1.3,0,1.92-.5,1.92-1.56s-.67-1.42-2-1.42H34.53v3Z"/><path d="M41.85,65.34a19.72,19.72,0,0,0-2.4-2.43l.9-.79a20.74,20.74,0,0,1,2.44,2.43Z"/><path d="M54.58,58s0,.35,0,.47C54.45,63,54.35,64.53,54,65a.94.94,0,0,1-.78.47,7.27,7.27,0,0,1-1.35,0,2.52,2.52,0,0,0-.29-1c.51,0,1,0,1.16,0a.42.42,0,0,0,.4-.17c.24-.31.35-1.71.44-5.49h-1.3c-.15,2.92-.64,5.25-2.53,6.71a3.55,3.55,0,0,0-.74-.76l.2-.16c-1.59.19-3.17.36-4.35.46l-.13-.86L47,64.1v-.84H45v-.75h2V62h-2V58.64h2v-.57H44.75v-.76H47v-.62c-.67.06-1.34.09-2,.12a2.91,2.91,0,0,0-.24-.74,35.09,35.09,0,0,0,4.72-.54l.48.77c-.58.12-1.31.23-2.07.31v.7h2.23V58h1.15c0-.75,0-1.53,0-2.36h1c0,.82,0,1.61,0,2.36Zm-8.69,2H47v-.68H45.89ZM47,61.28v-.67H45.89v.67ZM48,64c.69-.07,1.39-.13,2.08-.21a8.81,8.81,0,0,0,1.27-4.9H50.13v-.83H48v.57h2V62H48v.56H50v.75H48Zm1.18-4v-.68H48V60ZM48,60.61v.67h1.18v-.67Z"/><path d="M65.34,56.13v.95H61v1.08h2.12v4.91H57.85V58.16h2.08V57.08h-4.3v-.95ZM64,58h1v7.5H64v-.64H57v.66H56V58h1V63.9h7ZM58.71,60.2H60V59H58.71Zm0,2H60V61H58.71ZM62.19,59h-1.3v1.2h1.3Zm0,2h-1.3v1.21h1.3Z"/><path d="M68.52,65.34a19.66,19.66,0,0,0-2.39-2.43l.9-.79a20.65,20.65,0,0,1,2.43,2.43Z"/><path d="M80.34,57.81a3.77,3.77,0,0,0-.31.67,11,11,0,0,1-1.93,3.74,10.09,10.09,0,0,1-4.4,3l-1-.91a8.87,8.87,0,0,0,4.41-2.75,8.21,8.21,0,0,0,1.68-3.24H75.32A11.55,11.55,0,0,1,72.53,61l-1-.72A9.26,9.26,0,0,0,75,56.68a4.54,4.54,0,0,0,.41-1l1.28.42c-.22.33-.45.76-.57,1s-.1.19-.16.28h2.64a2.83,2.83,0,0,0,.83-.11Z"/><path d="M83.33,56.33c0,.23,0,.51,0,.82v3.68c0,.29,0,.67,0,.89H82c0-.18.06-.57.06-.89V57.15a8,8,0,0,0,0-.82Zm5.08-.09c0,.29,0,.62,0,1v2c0,2.52-.4,3.46-1.21,4.38a6.18,6.18,0,0,1-2.63,1.61l-.91-1a5.07,5.07,0,0,0,2.66-1.44c.77-.87.91-1.73.91-3.65V57.26a9.51,9.51,0,0,0-.06-1Z"/><path d="M98.21,63.14a8.62,8.62,0,0,0,1-.07v1.25c-.29,0-.72,0-1,0H91c-.32,0-.67,0-1,0V63.07a7.09,7.09,0,0,0,1,.07h3V58.33H91.59a8.3,8.3,0,0,0-1,.05v-1.2c.29,0,.72,0,1,0h6c.34,0,.69,0,1,0v1.2a8.1,8.1,0,0,0-1-.05h-2.5v4.81Z"/><path d="M105.8,63.78a8.89,8.89,0,0,0,.08,1.3h-1.36c0-.24.06-.85.06-1.3V59.86a20.47,20.47,0,0,1-4,1.62L100,60.41a17.06,17.06,0,0,0,5-2A12.09,12.09,0,0,0,107.81,56l.93.84a17.67,17.67,0,0,1-2.94,2.37Z"/><path d="M117.49,59.25a7.59,7.59,0,0,0,.92-.06v1.13c-.25,0-.64,0-.92,0h-2.83a6.75,6.75,0,0,1-.68,2.94,5.39,5.39,0,0,1-2.19,2.05l-1-.75a4.59,4.59,0,0,0,2-1.64,5.1,5.1,0,0,0,.66-2.6h-3.18c-.33,0-.69,0-1,0V59.19a8,8,0,0,0,1,.06Zm-5.82-1.75c-.37,0-.77,0-1.08,0V56.4a9.13,9.13,0,0,0,1.08.08h4.43a8.26,8.26,0,0,0,1.1-.08v1.13c-.35,0-.76,0-1.1,0Z"/><path d="M125.83,58.73a14.1,14.1,0,0,1-2.49,2v3.8a7.57,7.57,0,0,0,0,1h-1.27c0-.18,0-.7,0-1V61.39a17.16,17.16,0,0,1-3.31,1.31l-.58-1a14.25,14.25,0,0,0,3.85-1.5A11,11,0,0,0,125,57.93Z"/><path d="M134.14,57.1l.61.4a2.83,2.83,0,0,0-.2.64,10.76,10.76,0,0,1-1.65,4,8.47,8.47,0,0,1-4.37,3l-1-1a7.33,7.33,0,0,0,4.31-2.62,7.75,7.75,0,0,0,1.37-3.37h-5.4c-.47,0-.91,0-1.19,0V56.94a11,11,0,0,0,1.19.07h5.33a4.35,4.35,0,0,0,.49,0,12.49,12.49,0,0,0-.73-1.21l.74-.31c.27.4.65,1.05.87,1.46Zm1-1.91a16.56,16.56,0,0,1,.89,1.45l-.74.33a13.49,13.49,0,0,0-.89-1.48Z"/><path d="M141.7,58.16a17.13,17.13,0,0,1-1.94.38,19,19,0,0,1-2.36,4.63l-1.06-.53a16,16,0,0,0,2.28-4l-.78,0c-.42,0-.87,0-1.31,0l-.08-1c.43,0,1,.07,1.39.07s.73,0,1.12-.05a8.76,8.76,0,0,0,.32-1.85l1.2.11c-.09.38-.23,1-.4,1.6a12.74,12.74,0,0,0,1.59-.37ZM143,59.29c0,.46,0,.84,0,1.28s0,1,.08,1.59a7.14,7.14,0,0,1,2.25,1.38l-.58.93a8.85,8.85,0,0,0-1.63-1.21v.3c0,.92-.56,1.67-2,1.67-1.27,0-2.29-.54-2.29-1.67s.92-1.75,2.28-1.75a4.53,4.53,0,0,1,.91.08c0-.86-.1-1.88-.12-2.6Zm-.95,3.54a3.9,3.9,0,0,0-1-.13c-.72,0-1.2.32-1.2.76s.38.78,1.13.78a1,1,0,0,0,1.09-1A2.89,2.89,0,0,0,142.09,62.83Zm3-3.12a13.86,13.86,0,0,0-2.55-1.52l.55-.85a17.09,17.09,0,0,1,2.61,1.47Z"/><path d="M154.06,58.49c-.28.17-.58.33-.93.51a29.07,29.07,0,0,0-2.88,1.58c-1,.63-1.58,1.3-1.58,2.09s.82,1.35,2.44,1.35a16.29,16.29,0,0,0,3.52-.38v1.24a21,21,0,0,1-3.46.27c-2.1,0-3.66-.61-3.66-2.35A3.61,3.61,0,0,1,149.35,60c-.5-.91-1-2.13-1.55-3.3l1.09-.45a23.46,23.46,0,0,0,1.41,3.13c.89-.52,1.78-1,2.34-1.28a5.47,5.47,0,0,0,.87-.57Zm.2-2.46a14.58,14.58,0,0,1,.88,1.52l-.71.32a13.32,13.32,0,0,0-.89-1.54Zm1.24-.46a12.91,12.91,0,0,1,.92,1.5l-.72.32a10,10,0,0,0-.9-1.52Z"/></g><g class="cls-2"><path d="M34,74.72a4.32,4.32,0,0,0-.32.38,17.55,17.55,0,0,1-3.88,4.4c.65.65,1.36,1.42,1.8,2l-1,.81a27.12,27.12,0,0,0-2-2.3,25.4,25.4,0,0,0-2.47-2.14l.9-.74c.42.31,1.26,1,2,1.63a13,13,0,0,0,3.15-3.53H26a11,11,0,0,0-1.19.07V74A8.37,8.37,0,0,0,26,74.1h6.35a2.69,2.69,0,0,0,.85-.1Z"/><path d="M34.9,76.76c.35,0,1,.07,1.63.07h6a10.73,10.73,0,0,0,1.23-.07v1.36c-.24,0-.73-.05-1.22-.05h-6c-.62,0-1.27,0-1.63.05Z"/><path d="M53.3,74.92a8.36,8.36,0,0,0,1.08-.07V76L53.3,76H51.59c-.2,3-1.39,5-3.33,6.18l-1.16-.79a4.58,4.58,0,0,0,.95-.56A6.12,6.12,0,0,0,50.4,76H47.79A9.33,9.33,0,0,1,46,78.35l-1.09-.66a8.54,8.54,0,0,0,1.93-2.32,7.89,7.89,0,0,0,.63-1.53,4.36,4.36,0,0,0,.19-1l1.34.26c-.11.26-.23.6-.32.83s-.22.61-.36,1Z"/><path d="M63,76.25a7.88,7.88,0,0,0,.93-.06v1.13c-.26,0-.64,0-.93,0H60.17a6.89,6.89,0,0,1-.69,2.94,5.33,5.33,0,0,1-2.19,2l-1-.75a4.56,4.56,0,0,0,2-1.64,5.2,5.2,0,0,0,.66-2.6H55.8c-.33,0-.7,0-1,0V76.19a7.91,7.91,0,0,0,1,.06ZM57.17,74.5c-.36,0-.77,0-1.08,0V73.4a9.29,9.29,0,0,0,1.08.08h4.44a8.38,8.38,0,0,0,1.1-.08v1.13c-.36,0-.76,0-1.1,0Z"/><path d="M71.33,75.73a14.1,14.1,0,0,1-2.49,2v3.8a7.33,7.33,0,0,0,.06,1H67.62a9.17,9.17,0,0,0,.06-1V78.39a17.42,17.42,0,0,1-3.31,1.31l-.59-1a14.25,14.25,0,0,0,3.85-1.5,11,11,0,0,0,2.83-2.26Z"/><path d="M76.67,79.3a10.45,10.45,0,0,0,3.81-4.15l.67,1.2a11.3,11.3,0,0,1-3.86,4A12.22,12.22,0,0,1,73.08,82l-.74-1.14A11.55,11.55,0,0,0,76.67,79.3Zm-.38-3.53-.87.89a24.48,24.48,0,0,0-2.75-2.33l.81-.85A21.89,21.89,0,0,1,76.29,75.77Z"/><path d="M88.42,74.63a2.53,2.53,0,0,0,.83-.11l.9.55a4.13,4.13,0,0,0-.31.67,10.71,10.71,0,0,1-1.93,3.74,9.87,9.87,0,0,1-4.4,3l-1-.92a8.77,8.77,0,0,0,4.42-2.73,8.48,8.48,0,0,0,1.67-3.25H85.13a11.58,11.58,0,0,1-2.79,2.69l-1-.72A9.43,9.43,0,0,0,84.83,74a4.75,4.75,0,0,0,.4-1l1.28.42c-.22.33-.45.74-.57,1s-.1.19-.17.29Zm.89-1.85c.27.4.67,1.08.89,1.51l-.73.31a12.9,12.9,0,0,0-.87-1.52Zm1.24-.47a12.78,12.78,0,0,1,.91,1.5l-.71.31a10.43,10.43,0,0,0-.91-1.51Z"/><path d="M93.69,73.35c-.07.21-.18.64-.23.84a26.66,26.66,0,0,0-.54,4.1A9,9,0,0,0,93,79.44c.17-.44.38-1,.55-1.37l.57.44a22.92,22.92,0,0,0-.78,2.55,2.15,2.15,0,0,0,0,.49c0,.11,0,.27,0,.41l-1,.06a13.56,13.56,0,0,1-.42-3.52,31.11,31.11,0,0,1,.47-4.34,6.85,6.85,0,0,0,.1-.91Zm2.51,5.33a4,4,0,0,0-.13,1c0,.49.36.88,1.68.88a12.13,12.13,0,0,0,2.72-.29l0,1.17a14.86,14.86,0,0,1-2.76.22c-1.85,0-2.71-.64-2.71-1.7a6.55,6.55,0,0,1,.19-1.34Zm4-4.54v1.12a27.77,27.77,0,0,1-4.56,0V74.15A21,21,0,0,0,100.15,74.14Z"/><path d="M107.1,76.61c0,1.21.78,3.82,4.41,4.94a7.15,7.15,0,0,0-.72,1,6.56,6.56,0,0,1-4.27-4.19,6.74,6.74,0,0,1-4.29,4.2,4.76,4.76,0,0,0-.7-.9c3.56-1.15,4.4-3.75,4.4-5V75.28H104.1a11,11,0,0,1-1.63,2.63,6.25,6.25,0,0,0-1-.68,10.75,10.75,0,0,0,2.46-4.9l1.15.24c-.16.58-.34,1.15-.55,1.7h5.83l.2-.06.82.28a16.79,16.79,0,0,1-1.5,3.56l-.93-.4a12.62,12.62,0,0,0,1-2.37H107.1Z"/><path d="M116.52,73.08c-.06.23-.11.5-.16.75s-.16.85-.26,1.35c.45,0,.84-.05,1.09-.05,1.06,0,1.86.44,1.86,2a10.5,10.5,0,0,1-.63,4,1.62,1.62,0,0,1-1.68,1,5.83,5.83,0,0,1-1.29-.17l-.19-1.14a6,6,0,0,0,1.35.23.87.87,0,0,0,.89-.52A8.73,8.73,0,0,0,118,77.2c0-.93-.42-1.08-1.11-1.08-.22,0-.58,0-1,0A23.34,23.34,0,0,1,113.64,82l-1.14-.45a17,17,0,0,0,2.25-5.27l-1.18.13c-.29,0-.78.1-1.09.16l-.1-1.19c.37,0,.68,0,1.05,0s.93-.06,1.55-.11a12.34,12.34,0,0,0,.25-2.33Zm3.75,1.09a19.45,19.45,0,0,1,2,4l-1.08.52a13,13,0,0,0-1.9-4Z"/><path d="M130.35,73.15a5.43,5.43,0,0,0-.06.86c0,.47,0,.94,0,1.37.37,0,.72-.06,1-.08s.66,0,.94-.06v1.07c-.18,0-.66,0-.94,0l-1,.06a17.56,17.56,0,0,1-.17,2.24c-.1.52-.35.66-.88.66a14.17,14.17,0,0,1-1.52-.16l0-1a6.66,6.66,0,0,0,1,.13c.24,0,.35,0,.39-.26a14.65,14.65,0,0,0,.09-1.57c-1,.07-2.23.19-3.24.29,0,1.07,0,2.15,0,2.59,0,1.12.08,1.46,1.85,1.46a21.89,21.89,0,0,0,3.24-.26l0,1.18c-.74.07-2.07.17-3.15.17-2.65,0-2.93-.59-3-2.39,0-.46,0-1.57,0-2.64l-1,.11-1.19.17L122.61,76c.33,0,.78,0,1.23-.07l1.06-.1V74.53a7.08,7.08,0,0,0-.07-1H126a9.31,9.31,0,0,0-.05,1c0,.3,0,.77,0,1.28,1-.1,2.18-.21,3.27-.3V74.05a7.72,7.72,0,0,0-.08-.9Z"/><path d="M138.76,75.16a17.13,17.13,0,0,1-1.94.38,18.68,18.68,0,0,1-2.36,4.63l-1.06-.53a15.7,15.7,0,0,0,2.28-4c-.26,0-.52,0-.78,0-.42,0-.87,0-1.31,0l-.08-1c.43,0,1,.07,1.39.07s.74,0,1.12,0a8.16,8.16,0,0,0,.32-1.85l1.2.11c-.09.38-.23,1-.4,1.6a12.74,12.74,0,0,0,1.59-.37Zm1.34,1.13c0,.46,0,.84,0,1.28s0,1,.08,1.59a7.14,7.14,0,0,1,2.25,1.38l-.58.93a8.85,8.85,0,0,0-1.63-1.21v.3c0,.92-.56,1.67-2,1.67-1.26,0-2.29-.54-2.29-1.67s.93-1.75,2.28-1.75a4.47,4.47,0,0,1,.91.08c0-.86-.09-1.88-.12-2.6Zm-.94,3.54a4,4,0,0,0-1-.13c-.73,0-1.2.32-1.2.76s.37.78,1.12.78a1,1,0,0,0,1.09-1C139.17,80.11,139.17,80,139.16,79.83Zm3-3.12a14.11,14.11,0,0,0-2.54-1.52l.55-.85a17,17,0,0,1,2.6,1.47Z"/><path d="M145.34,75.11a23.78,23.78,0,0,0,.08,2.46c.16,1.71.6,2.86,1.33,2.86.55,0,1-1.19,1.26-2.19l.88,1c-.69,1.87-1.36,2.52-2.17,2.52-1.09,0-2.11-1-2.4-3.93a29,29,0,0,1-.13-2.91,6.08,6.08,0,0,0-.07-1l1.33,0A8.09,8.09,0,0,0,145.34,75.11ZM153,79.65l-1.13.44a10.86,10.86,0,0,0-1.9-5.52l1.09-.36A11.55,11.55,0,0,1,153,79.65Z"/><path d="M157.15,75.9h2.53v.93h-2.53v1h2.2V80.7c0,.42-.06.69-.35.84a2.84,2.84,0,0,1-1.28.15,2.65,2.65,0,0,0-.27-.87c.4,0,.73,0,.84,0s.14,0,.14-.14v-2h-1.28v3.81h-1V78.72H155v2.94h-.92V77.81h2.11v-1H153.6V75.9h.76a6,6,0,0,0-.86-.36,8.48,8.48,0,0,0,1.06-2.86l.95.2c-.08.36-.18.74-.28,1.09h1V72.51h1V74h2.1v.92h-2.1Zm-1,0v-1H154.9a5.94,5.94,0,0,1-.49,1Zm5.12,3.59h-1V73.41h1Zm2-6.9v8.64c0,.62-.13.9-.49,1.08a4.62,4.62,0,0,1-1.8.2,4.09,4.09,0,0,0-.33-1.05c.62,0,1.21,0,1.4,0s.23,0,.23-.23V72.59Z"/><path d="M167.8,72.79a17.83,17.83,0,0,1-1.09,2.3v7.43h-1V76.71a11.19,11.19,0,0,1-.9,1.08,5.77,5.77,0,0,0-.58-1.06,12.1,12.1,0,0,0,2.62-4.24Zm3.32,2.43v1.4h3v.94h-3V79h3.15v1h-3.15v2.55h-1V75.22h-.62A11.9,11.9,0,0,1,168,77.44a6.17,6.17,0,0,0-.8-.7,11.63,11.63,0,0,0,2.38-4.18l1,.26c-.18.48-.36,1-.57,1.42h4.42v1Z"/><path d="M179.17,78.18c-.42.15-.85.28-1.28.41v3.94h-.95V78.89l-1.73.53-.26-1,2-.54V75.59h-.88a10.12,10.12,0,0,1-.45,1.53,6,6,0,0,0-.75-.47,12.48,12.48,0,0,0,.7-3.58l.86.14c0,.47-.11,1-.18,1.41h.7V72.44h.95v2.18h1v1h-1v2l1.15-.33Zm5.84-4s0,.35,0,.49c-.25,4.94-.46,6.67-.88,7.21a1.09,1.09,0,0,1-.81.49,7,7,0,0,1-1.24,0,2.3,2.3,0,0,0-.29-1c.46,0,.87,0,1.08,0a.41.41,0,0,0,.4-.2c.32-.36.55-1.92.74-6.1h-.3c-.56,2.84-1.74,5.73-3.52,7.16a4.28,4.28,0,0,0-.85-.6c1.77-1.27,2.93-3.9,3.48-6.56h-.74a10.54,10.54,0,0,1-2.61,4.89,4,4,0,0,0-.79-.58,9,9,0,0,0,2.54-4.31h-.78a8.29,8.29,0,0,1-1.19,2,7.35,7.35,0,0,0-.79-.58,9.31,9.31,0,0,0,1.88-4.16l.92.18a14.75,14.75,0,0,1-.45,1.59Z"/><path d="M190.74,80.14c0-.37,0-1,0-1.53-.92.52-1.51,1-1.51,1.65s.71.89,1.81.89a18.86,18.86,0,0,0,3-.28l0,1.11a27.47,27.47,0,0,1-3,.19c-1.62,0-2.89-.38-2.89-1.73s1.31-2.19,2.56-2.83a.85.85,0,0,0-.88-.54,2.75,2.75,0,0,0-1.8.78A11.73,11.73,0,0,0,187,79l-.94-.7a11.33,11.33,0,0,0,2.47-3.18h-.32c-.45,0-1.21,0-1.82-.07v-1a17.9,17.9,0,0,0,1.87.12h.64a6,6,0,0,0,.25-1.31l1.14.09c-.07.28-.16.7-.31,1.17a25.47,25.47,0,0,0,3.22-.31v1a33.48,33.48,0,0,1-3.58.29,7.75,7.75,0,0,1-.83,1.42,3.19,3.19,0,0,1,1.39-.32,1.43,1.43,0,0,1,1.45.93c.67-.32,1.23-.55,1.75-.78.36-.17.68-.31,1-.49l.43,1c-.29.08-.77.26-1.1.39-.56.21-1.26.51-2,.86,0,.62,0,1.49,0,2Z"/><path d="M199.13,72.79a17.83,17.83,0,0,1-1.09,2.3v7.43h-1V76.71a10,10,0,0,1-.91,1.08,5.72,5.72,0,0,0-.57-1.06,12.1,12.1,0,0,0,2.62-4.24Zm3.32,2.43v1.4h3v.94h-3V79h3.15v1h-3.15v2.55h-1V75.22h-.62a11.45,11.45,0,0,1-1.5,2.22,6.06,6.06,0,0,0-.79-.7,11.63,11.63,0,0,0,2.38-4.18l1,.26c-.18.48-.37,1-.57,1.42h4.42v1Z"/><path d="M215.68,76.19a12.56,12.56,0,0,1-1.91,3.72c.37.94.8,1.51,1.27,1.51.28,0,.41-.56.48-2a2.76,2.76,0,0,0,.88.57c-.17,1.94-.54,2.45-1.44,2.45s-1.44-.61-1.94-1.65a10.2,10.2,0,0,1-2.08,1.69,4.87,4.87,0,0,0-.75-.84,8.65,8.65,0,0,0,2.4-1.92,21,21,0,0,1-.78-4.54h-3.52v1.33h2.76v.4c-.05,2.39-.11,3.33-.34,3.64a1,1,0,0,1-.7.35,6.6,6.6,0,0,1-1.3,0,2.32,2.32,0,0,0-.28-1c.46,0,.88.05,1.06.05a.39.39,0,0,0,.34-.13,7.08,7.08,0,0,0,.22-2.44h-1.76a10,10,0,0,1-1.16,5.18,4.4,4.4,0,0,0-.86-.7,8.62,8.62,0,0,0,.95-4.63V74.2h4.53c0-.57-.06-1.17-.06-1.75h1.08c0,.6,0,1.18,0,1.75h2.13a11.55,11.55,0,0,0-1.73-1.15l.61-.63a11.9,11.9,0,0,1,1.91,1.22l-.53.56h1.12v1h-3.45a20.74,20.74,0,0,0,.54,3.48,11.63,11.63,0,0,0,1.25-2.74Z"/><path d="M219.63,73.07c-.06.39-.1.86-.12,1.24,0,1.21-.13,3.72-.13,5.24,0,1.14.73,1.54,1.66,1.54a4.43,4.43,0,0,0,3.83-2.25l.78,1A5.56,5.56,0,0,1,221,82.24c-1.66,0-2.77-.71-2.77-2.52,0-1.55.11-4.35.11-5.41a6.76,6.76,0,0,0-.11-1.25Z"/><path d="M234.21,81.62A8.13,8.13,0,0,0,231.78,80c0,.22,0,.41,0,.56,0,.83-.6,1.59-2,1.59-1.64,0-2.54-.61-2.54-1.71s1-1.76,2.61-1.76a6.87,6.87,0,0,1,.8.05c0-.41,0-.85,0-1.25H230c-.7,0-1.93-.05-2.69-.14v-1a17.61,17.61,0,0,0,2.69.21h.56V75.17H230a21.47,21.47,0,0,1-2.48-.17V74a16.68,16.68,0,0,0,2.47.21h.56V73.6a5.24,5.24,0,0,0-.05-.7h1.17c0,.2-.05.44-.06.74,0,.12,0,.32,0,.54a23.68,23.68,0,0,0,2.72-.28v1c-.79.08-1.7.18-2.74.23v1.38c1.08-.05,2-.15,3-.28v1c-1,.12-1.91.19-2.95.23,0,.5,0,1,.07,1.49a8.59,8.59,0,0,1,3.12,1.68Zm-3.53-1.92a6.26,6.26,0,0,0-1-.09c-.93,0-1.42.36-1.42.81s.41.78,1.34.78c.62,0,1.07-.18,1.07-.88C230.69,80.16,230.69,80,230.68,79.7Z"/><path d="M245.07,75.29c-.65,0-1.68-.05-3.26-.05,0,.58,0,1.22,0,1.7a2.7,2.7,0,0,1,.39,1.45c0,1.45-.77,3.16-3.36,3.91l-.93-.93a4.29,4.29,0,0,0,2.8-1.57A1.81,1.81,0,0,1,240,80a1.84,1.84,0,0,1-1.84-1.91,2,2,0,0,1,2-2,2.23,2.23,0,0,1,.6.08v-.92c-1.65,0-3.43.08-4.78.17l0-1c1.24,0,3.26-.08,4.81-.1,0-.23,0-.43,0-.55a6.42,6.42,0,0,0-.09-.8h1.26a7,7,0,0,0-.06.8c0,.13,0,.32,0,.54h3.26ZM240.16,79c.56,0,1-.45.84-1.49a.9.9,0,0,0-.85-.5,1,1,0,0,0-1,1A.94.94,0,0,0,240.16,79Z"/></g></g></g></g></svg>