<svg id="レイヤー_1" data-name="レイヤー 1" xmlns="http://www.w3.org/2000/svg" xmlns:xlink="http://www.w3.org/1999/xlink" width="2341" height="1080" viewBox="0 0 2341 1080"><defs><style>.cls-1{fill:url(#新規グラデーションスウォッチ_4);}.cls-10,.cls-11,.cls-12,.cls-14,.cls-15,.cls-2,.cls-23,.cls-3,.cls-4,.cls-5{fill-rule:evenodd;}.cls-2{fill:url(#名称未設定グラデーション_3);}.cls-3{fill:url(#名称未設定グラデーション_3-2);}.cls-4,.cls-5{opacity:0.73;}.cls-16,.cls-17,.cls-18,.cls-19,.cls-20,.cls-21,.cls-23,.cls-25,.cls-26,.cls-27,.cls-4,.cls-5{isolation:isolate;}.cls-4{fill:url(#名称未設定グラデーション_46);}.cls-5{fill:url(#名称未設定グラデーション_5);}.cls-6{fill:url(#名称未設定グラデーション_7);}.cls-7{fill:url(#名称未設定グラデーション_6);}.cls-8{fill:url(#名称未設定グラデーション_8);}.cls-9{fill:url(#名称未設定グラデーション_9);}.cls-10{fill:url(#名称未設定グラデーション_13);}.cls-11{fill:url(#名称未設定グラデーション_13-2);}.cls-13{opacity:0.17;}.cls-14{fill:url(#名称未設定グラデーション_13-3);}.cls-15{fill:url(#名称未設定グラデーション_13-4);}.cls-16,.cls-17,.cls-18,.cls-19{opacity:0.43;}.cls-16{fill:url(#名称未設定グラデーション_16);}.cls-17{fill:url(#名称未設定グラデーション_16-2);}.cls-18{fill:url(#名称未設定グラデーション_16-3);}.cls-19{fill:url(#名称未設定グラデーション_17);}.cls-20{opacity:0.22;fill:url(#名称未設定グラデーション_20);}.cls-21{opacity:0.27;fill:url(#名称未設定グラデーション_20-2);}.cls-22{opacity:0.5;}.cls-23{fill:#fff;opacity:0.26;}.cls-24{opacity:0.55;}.cls-25,.cls-26,.cls-27{opacity:0.35;}.cls-25{fill:url(#名称未設定グラデーション_23);}.cls-26{fill:url(#名称未設定グラデーション_23-2);}.cls-27{fill:url(#名称未設定グラデーション_23-3);}</style><linearGradient id="新規グラデーションスウォッチ_4" x1="1170.5" y1="698.3" x2="1170.5" y2="1084.95" gradientUnits="userSpaceOnUse"><stop offset="0" stop-color="#ffa000"/><stop offset="0.29" stop-color="#ff8202"/><stop offset="0.9" stop-color="#ff3805"/><stop offset="1" stop-color="#ff2b06"/></linearGradient><linearGradient id="名称未設定グラデーション_3" x1="701.36" y1="1659.69" x2="701.36" y2="1659.35" gradientTransform="translate(2293937.5 227947.8) rotate(180) scale(3270 137)" gradientUnits="userSpaceOnUse"><stop offset="0" stop-color="#0b22a6"/><stop offset="1"/></linearGradient><linearGradient id="名称未設定グラデーション_3-2" x1="699.74" y1="1659.78" x2="699.74" y2="1659.44" gradientTransform="matrix(3270, 0, 0, -137, -2286146.5, 227965.8)" xlink:href="#名称未設定グラデーション_3"/><linearGradient id="名称未設定グラデーション_46" x1="1167.21" y1="1070.48" x2="1167.21" y2="-674.96" gradientUnits="userSpaceOnUse"><stop offset="0" stop-color="#ff1d1d"/><stop offset="1" stop-color="#e1b044" stop-opacity="0"/></linearGradient><linearGradient id="名称未設定グラデーション_5" x1="700.78" y1="1644.82" x2="700.89" y2="1644.86" gradientTransform="matrix(7092.57, -5344.64, -4373.56, -5803.91, 2223988.48, 13292697.33)" gradientUnits="userSpaceOnUse"><stop offset="0" stop-color="#f8fbff"/><stop offset="1" stop-color="#e1b044" stop-opacity="0"/></linearGradient><linearGradient id="名称未設定グラデーション_7" x1="689.79" y1="1653.93" x2="689.86" y2="1653.68" gradientTransform="matrix(226, 0, 0, -226, -154734.5, 374365)" gradientUnits="userSpaceOnUse"><stop offset="0" stop-color="#ffec00"/><stop offset="1" stop-color="#ff659e" stop-opacity="0"/></linearGradient><radialGradient id="名称未設定グラデーション_6" cx="699.51" cy="1645.93" r="0.17" gradientTransform="matrix(1697, 0, 0, -1697, -1185906, 2793930)" gradientUnits="userSpaceOnUse"><stop offset="0" stop-color="#fff9f9"/><stop offset="1" stop-color="#f8e71c" stop-opacity="0"/></radialGradient><radialGradient id="名称未設定グラデーション_8" cx="704.52" cy="1654.6" r="1.53" gradientTransform="translate(577568.68 328687.78) rotate(180) scale(818.14 198.28)" gradientUnits="userSpaceOnUse"><stop offset="0" stop-color="#f9b48f"/><stop offset="0.14" stop-color="#ee557b"/><stop offset="0.3" stop-color="#9034a8"/><stop offset="1" stop-color="#4a5ecf"/></radialGradient><linearGradient id="名称未設定グラデーション_9" x1="701.42" y1="1641.07" x2="701.42" y2="1641.41" gradientTransform="matrix(-6000, 0, 0, 718, 4209700.5, -1177673)" gradientUnits="userSpaceOnUse"><stop offset="0" stop-color="#38b8f2" stop-opacity="0"/><stop offset="1" stop-color="#041378"/></linearGradient><linearGradient id="名称未設定グラデーション_13" x1="699.04" y1="1665.37" x2="699.04" y2="1665.03" gradientTransform="matrix(1663, 0, 0, -100, -1160944, 167119)" gradientUnits="userSpaceOnUse"><stop offset="0" stop-color="#000c57"/><stop offset="1"/></linearGradient><linearGradient id="名称未設定グラデーション_13-2" x1="699.95" y1="1665.37" x2="699.95" y2="1665.03" gradientTransform="matrix(1663, 0, 0, -100, -1163264, 167119)" xlink:href="#名称未設定グラデーション_13"/><linearGradient id="名称未設定グラデーション_13-3" x1="699.04" y1="1623.32" x2="699.04" y2="1622.97" gradientTransform="translate(-1160944 -161681) scale(1663 100)" xlink:href="#名称未設定グラデーション_13"/><linearGradient id="名称未設定グラデーション_13-4" x1="699.95" y1="1623.32" x2="699.95" y2="1622.97" gradientTransform="translate(-1163264 -161681) scale(1663 100)" xlink:href="#名称未設定グラデーション_13"/><radialGradient id="名称未設定グラデーション_16" cx="693.52" cy="1644.36" r="0.1" gradientTransform="matrix(0, 211, 5551.52, 0, -9128426.67, -145989.5)" gradientUnits="userSpaceOnUse"><stop offset="0" stop-color="#be1919"/><stop offset="1" stop-color="#d58d6d" stop-opacity="0"/></radialGradient><radialGradient id="名称未設定グラデーション_16-2" cx="693.19" cy="1644.27" r="0.1" gradientTransform="matrix(0, 211, 5551.52, 0, -9127662.67, -145883.5)" xlink:href="#名称未設定グラデーション_16"/><radialGradient id="名称未設定グラデーション_16-3" cx="692.14" cy="1644.43" r="0.1" gradientTransform="matrix(0, 211, 5551.52, 0, -9129036.67, -145545.5)" xlink:href="#名称未設定グラデーション_16"/><radialGradient id="名称未設定グラデーション_17" cx="691.81" cy="1643.75" r="0.1" gradientTransform="matrix(0, 211, 5551.52, 0, -9123295.67, -145440.5)" gradientUnits="userSpaceOnUse"><stop offset="0" stop-color="#45019e"/><stop offset="1" stop-color="#7141ba" stop-opacity="0"/></radialGradient><radialGradient id="名称未設定グラデーション_20" cx="692.2" cy="1643.86" r="0.1" gradientTransform="matrix(0, 211, 5551.52, 0, -9124205.67, -145566.5)" gradientUnits="userSpaceOnUse"><stop offset="0" stop-color="#7e19be"/><stop offset="1" stop-color="#7141ba" stop-opacity="0"/></radialGradient><radialGradient id="名称未設定グラデーション_20-2" cx="691.31" cy="1643.84" r="0.1" gradientTransform="matrix(0, 211, 5551.52, 0, -9124064.67, -145279.5)" xlink:href="#名称未設定グラデーション_20"/><radialGradient id="名称未設定グラデーション_23" cx="691.33" cy="1643.93" r="0.1" gradientTransform="matrix(0, 211, 5551.52, 0, -9124828.67, -145285.5)" gradientUnits="userSpaceOnUse"><stop offset="0" stop-color="#fff"/><stop offset="1" stop-color="#306a77" stop-opacity="0"/></radialGradient><radialGradient id="名称未設定グラデーション_23-2" cx="691.33" cy="1644.11" r="0.1" gradientTransform="matrix(0, 211, 5551.52, 0, -9126343.67, -145285.5)" xlink:href="#名称未設定グラデーション_23"/><radialGradient id="名称未設定グラデーション_23-3" cx="691.17" cy="1644.17" r="0.1" gradientTransform="matrix(0, 211, 5551.52, 0, -9126846.67, -145235.5)" xlink:href="#名称未設定グラデーション_23"/></defs><rect class="cls-1" x="-0.5" y="-1.55" width="2342" height="1085.49"/><path id="Combined-Shape-Copy-24" class="cls-2" d="M495.69,592.17c-20.59-1.75-40.58-3.51-51.63-3.5-46,.05-65.41,6.76-92.33,7-39.47.34-94.93,7.6-125.09,8.16Q52.15,607.09-85.85,616.42H1034.31V595.13A801.7,801.7,0,0,0,940,590c-40.69.17-92-8.77-117.08-8.68-29.87.11-94.43-11.87-119.07-11.83-51.16.09-72.77,11.43-102.73,11.83C569.46,581.74,528.61,588.22,495.69,592.17Z"/><path id="Combined-Shape-Copy-25" class="cls-3" d="M1979.21,598.34c20.59-1.76,40.58-3.51,51.63-3.5,46,0,65.41,6.75,92.33,7,39.48.35,94.93,7.61,125.09,8.17q174.49,3.25,312.49,12.59H1440.59v-21.3a806,806,0,0,1,94.34-5.13c40.69.18,92-8.77,117.08-8.68,29.87.11,94.44-11.87,119.07-11.82,51.16.08,72.78,11.42,102.73,11.82C1905.44,587.91,1946.29,594.39,1979.21,598.34Z"/><path id="Path-Copy-7" class="cls-4" d="M1438.59-587.79C895.49-303.91,501.3-223,248-413.92Q-5.33-604.81-460.8-187.15l183.59,804.29q747.63,789,1277.54,204.79c221.49-244.2,442.69,34.74,608.54.08,230.94-48.27,494.87-214.62,715.34-113.61,151.29,69.31,399.63,29.71,461.67-179.88q41.52-140.25-101.55-759.6Q1981.7-871.67,1438.59-587.79Z"/><path id="Path-Copy-8" class="cls-5" d="M849.84-545.27c543.1,283.87,937.3,364.75,1190.61,173.86q253.32-190.89,708.79,226.77l-183.6,804.29q-747.63,789-1277.53,204.8c-221.49-244.2-442.69,34.74-608.54.08-231-48.27-494.87-214.62-715.34-113.62C-187.06,820.22-435.41,780.63-497.45,571Q-539,430.78-395.89-188.57,306.74-829.14,849.84-545.27Z"/><circle id="Oval" class="cls-6" cx="1167.57" cy="612.65" r="38.71"/><circle id="Oval-2" data-name="Oval" class="cls-7" cx="1167.4" cy="785.81" r="290.66"/><rect id="Rectangle-Copy" class="cls-8" x="-0.5" y="616.42" width="2342" height="245.96"/><rect id="Rectangle-Copy-2" class="cls-9" x="1.5" y="616.42" width="2339" height="245.96"/><g id="Group-3"><path id="Combined-Shape-Copy-7" class="cls-10" d="M1554,582.19l22.25,1.64,10.6,2.76,21,.59,17.67,4.61,41.48,3.78,38,6.08,47.77,2.79,17.41,4,31,1.56,31.16,4,6.32,2.42H1269l6.31-2.42,31.17-4,31-1.56,17.4-4,47.78-2.79,38-6.08,41.48-3.78,17.67-4.61,21-.59,10.6-2.76,22.24-1.64v0l.17,0,.17,0Z"/><path id="Combined-Shape-Copy-8" class="cls-11" d="M759.24,582.19l22.24,1.64,10.6,2.76,21,.59,17.67,4.61,41.48,3.78,38,6.08L958,604.44l17.4,4,31,1.56,31.16,4,6.32,2.42H474.23l6.32-2.42,31.16-4,31-1.56,17.41-4,47.77-2.79,38.05-6.08,41.48-3.78,17.67-4.61,21-.59,10.6-2.76,22.25-1.64v0l.17,0,.17,0Z"/><path id="Combined-Shape-Copy-5" class="cls-12" d="M1364.2,574l16.92,2,8.1,3.42,16,.73,13.51,5.71,31.71,4.69,29.08,7.55,36.52,3.45,13.3,5,23.7,1.94,23.82,4.95,4.83,3H1146.33l4.83-3,23.82-4.95,23.7-1.94,13.3-5,36.52-3.45,29.09-7.55,31.7-4.69,13.51-5.71,16-.73,8.1-3.42,16.92-2v0l.18,0,.17,0Z"/><path id="Combined-Shape-Copy-6" class="cls-12" d="M977.11,574,994,576l8.1,3.42,16,.73,13.51,5.71,31.71,4.69,29.08,7.55,36.52,3.45,13.3,5,23.7,1.94,23.82,4.95,4.83,3H759.24l4.83-3,23.82-4.95,23.7-1.94,13.3-5,36.52-3.45,29.08-7.55,31.71-4.69,13.51-5.71,16-.73,8.1-3.42,16.92-2v0l.17,0,.18,0Z"/></g><g id="Group-3-Copy" class="cls-13"><path id="Combined-Shape-Copy-7-2" data-name="Combined-Shape-Copy-7" class="cls-14" d="M1554,650.65l22.25-1.64,10.6-2.76,21-.59,17.67-4.61,41.48-3.78,38-6.08,47.77-2.79,17.41-4,31-1.56,31.16-4,6.32-2.42H1269l6.31,2.42,31.17,4,31,1.56,17.4,4,47.78,2.79,38,6.08,41.48,3.78,17.67,4.61,21,.59,10.6,2.76,22.24,1.64v0l.17,0,.17,0Z"/><path id="Combined-Shape-Copy-8-2" data-name="Combined-Shape-Copy-8" class="cls-15" d="M759.24,650.65,781.48,649l10.6-2.76,21-.59,17.67-4.61,41.48-3.78,38-6.08L958,628.4l17.4-4,31-1.56,31.16-4,6.32-2.42H474.23l6.32,2.42,31.16,4,31,1.56,17.41,4,47.77,2.79,38.05,6.08,41.48,3.78,17.67,4.61,21,.59,10.6,2.76,22.25,1.64v0l.17,0,.17,0Z"/><path id="Combined-Shape-Copy-5-2" data-name="Combined-Shape-Copy-5" class="cls-12" d="M1364.2,658.86l16.92-2,8.1-3.42,16-.73,13.51-5.71,31.71-4.7,29.08-7.54,36.52-3.45,13.3-5,23.7-1.94,23.82-5,4.83-3H1146.33l4.83,3,23.82,5,23.7,1.94,13.3,5,36.52,3.45,29.09,7.54,31.7,4.7,13.51,5.71,16,.73,8.1,3.42,16.92,2v0l.18,0,.17,0Z"/><path id="Combined-Shape-Copy-6-2" data-name="Combined-Shape-Copy-6" class="cls-12" d="M977.11,658.86l16.92-2,8.1-3.42,16-.73,13.51-5.71,31.71-4.7,29.08-7.54,36.52-3.45,13.3-5,23.7-1.94,23.82-5,4.83-3H759.24l4.83,3,23.82,5,23.7,1.94,13.3,5,36.52,3.45,29.08,7.54L922.2,647l13.51,5.71,16,.73,8.1,3.42,16.92,2v0l.17,0,.18,0Z"/></g><ellipse id="Oval-Copy" class="cls-16" cx="262.02" cy="343.23" rx="561.62" ry="36.14"/><ellipse id="Oval-Copy-2" class="cls-17" cx="523.73" cy="379.54" rx="561.62" ry="36.14"/><ellipse id="Oval-Copy-3" class="cls-18" cx="53.06" cy="495.33" rx="561.62" ry="36.14"/><ellipse id="Oval-Copy-4" class="cls-19" cx="2019.68" cy="531.29" rx="561.62" ry="36.14"/><ellipse id="Oval-Copy-6" class="cls-20" cx="1707.95" cy="488.13" rx="561.62" ry="36.14"/><ellipse id="Oval-Copy-7" class="cls-21" cx="1756.25" cy="586.45" rx="561.62" ry="36.14"/><g id="Group-2"><g id="Group" class="cls-22"><polygon id="Wave-Copy-6" class="cls-23" points="219.63 620.83 119.63 624.27 534.23 624.27 427.71 621.09 640.49 621.09 387.16 618.55 463.93 616.42 298.08 616.42 166.91 616.42 242.32 618.55 43.76 620.75 219.63 620.83"/><polygon id="Wave-Copy-7" class="cls-23" points="22.66 628.68 -77.34 632.12 337.26 632.12 230.74 628.93 443.52 628.93 190.19 626.4 266.96 624.27 101.11 624.27 -30.06 624.27 45.34 626.4 -153.21 628.59 22.66 628.68"/><polygon id="Wave-Copy-8" class="cls-23" points="457.37 644.38 357.36 647.81 771.97 647.81 665.45 644.63 878.23 644.63 624.89 642.1 701.66 639.96 535.81 639.96 404.65 639.96 480.05 642.1 281.49 644.29 457.37 644.38"/><polygon id="Wave-Copy-10" class="cls-23" points="371.04 652.23 271.04 655.66 685.64 655.66 579.12 652.48 791.9 652.48 538.57 649.94 615.34 647.81 449.49 647.81 318.32 647.81 393.73 649.94 195.17 652.14 371.04 652.23"/><polygon id="Wave-Copy-12" class="cls-23" points="137.76 667.92 37.76 671.35 452.36 671.35 345.84 668.17 558.62 668.17 305.29 665.64 382.06 663.51 216.21 663.51 85.04 663.51 160.44 665.64 -38.12 667.83 137.76 667.92"/><polygon id="Wave-Copy-13" class="cls-23" points="320.68 675.77 220.68 679.2 635.29 679.2 528.77 676.02 741.55 676.02 488.21 673.49 564.98 671.35 399.13 671.35 267.97 671.35 343.37 673.49 144.81 675.68 320.68 675.77"/><polygon id="Wave-Copy-14" class="cls-23" points="300.47 683.62 200.47 687.05 615.08 687.05 508.56 683.87 721.34 683.87 468 681.33 544.77 679.2 378.92 679.2 247.76 679.2 323.16 681.33 124.6 683.53 300.47 683.62"/><polygon id="Wave-Copy-15" class="cls-23" points="270.33 691.46 170.33 694.9 584.93 694.9 478.41 691.72 691.19 691.72 437.86 689.18 514.63 687.05 348.78 687.05 217.61 687.05 293.01 689.18 94.45 691.37 270.33 691.46"/><polygon id="Wave-Copy-16" class="cls-23" points="270.33 699.31 170.33 702.74 584.93 702.74 478.41 699.57 691.19 699.57 437.86 697.03 514.63 694.9 348.78 694.9 217.61 694.9 293.01 697.03 94.45 699.22 270.33 699.31"/><polygon id="Wave-Copy-11" class="cls-23" points="270.33 660.07 170.33 663.51 584.93 663.51 478.41 660.33 691.19 660.33 437.86 657.79 514.63 655.66 348.78 655.66 217.61 655.66 293.01 657.79 94.45 659.98 270.33 660.07"/><polygon id="Wave-Copy-9" class="cls-23" points="231.96 636.53 131.96 639.96 546.57 639.96 440.04 636.78 652.83 636.78 399.49 634.25 476.26 632.12 310.41 632.12 179.25 632.12 254.65 634.25 56.09 636.44 231.96 636.53"/></g><g id="Group-Copy-2" class="cls-24"><polygon id="Wave-Copy-6-2" data-name="Wave-Copy-6" class="cls-23" points="164.82 706.82 64.82 710.25 479.43 710.25 372.9 707.07 585.68 707.07 332.35 704.53 409.12 702.4 243.27 702.4 112.1 702.4 187.51 704.53 -11.05 706.73 164.82 706.82"/><polygon id="Wave-Copy-7-2" data-name="Wave-Copy-7" class="cls-23" points="-32.15 714.66 -132.15 718.1 282.45 718.1 175.93 714.92 388.71 714.92 135.38 712.38 212.15 710.25 46.3 710.25 -84.87 710.25 -9.46 712.38 -208.02 714.58 -32.15 714.66"/><polygon id="Wave-Copy-8-2" data-name="Wave-Copy-8" class="cls-23" points="402.56 730.36 302.55 733.79 717.16 733.79 610.64 730.61 823.42 730.61 570.09 728.08 646.85 725.95 481 725.95 349.84 725.95 425.24 728.08 226.68 730.27 402.56 730.36"/><polygon id="Wave-Copy-10-2" data-name="Wave-Copy-10" class="cls-23" points="316.23 738.21 216.23 741.64 630.84 741.64 524.31 738.46 737.09 738.46 483.76 735.92 560.53 733.79 394.68 733.79 263.51 733.79 338.92 735.92 140.36 738.12 316.23 738.21"/><polygon id="Wave-Copy-12-2" data-name="Wave-Copy-12" class="cls-23" points="82.95 753.9 -17.05 757.34 397.55 757.34 291.03 754.16 503.81 754.16 250.48 751.62 327.25 749.49 161.4 749.49 30.23 749.49 105.64 751.62 -92.92 753.81 82.95 753.9"/><polygon id="Wave-Copy-13-2" data-name="Wave-Copy-13" class="cls-23" points="265.88 761.75 165.87 765.18 580.48 765.18 473.96 762 686.74 762 433.4 759.47 510.17 757.34 344.32 757.34 213.16 757.34 288.56 759.47 90 761.66 265.88 761.75"/><polygon id="Wave-Copy-14-2" data-name="Wave-Copy-14" class="cls-23" points="245.66 769.6 145.66 773.03 560.27 773.03 453.75 769.85 666.53 769.85 413.19 767.32 489.96 765.18 324.11 765.18 192.95 765.18 268.35 767.32 69.79 769.51 245.66 769.6"/><polygon id="Wave-Copy-15-2" data-name="Wave-Copy-15" class="cls-23" points="215.52 777.45 115.52 780.88 530.12 780.88 423.6 777.7 636.38 777.7 383.05 775.16 459.82 773.03 293.97 773.03 162.8 773.03 238.21 775.16 39.65 777.36 215.52 777.45"/><polygon id="Wave-Copy-16-2" data-name="Wave-Copy-16" class="cls-23" points="230.47 785.29 130.47 788.73 545.08 788.73 438.55 785.55 651.33 785.55 398 783.01 474.77 780.88 308.92 780.88 177.75 780.88 253.16 783.01 54.6 785.2 230.47 785.29"/><polygon id="Wave-Copy-11-2" data-name="Wave-Copy-11" class="cls-23" points="215.52 746.05 115.52 749.49 530.12 749.49 423.6 746.31 636.38 746.31 383.05 743.77 459.82 741.64 293.97 741.64 162.8 741.64 238.21 743.77 39.65 745.97 215.52 746.05"/><polygon id="Wave-Copy-9-2" data-name="Wave-Copy-9" class="cls-23" points="177.15 722.51 77.15 725.95 491.76 725.95 385.23 722.76 598.02 722.76 344.68 720.23 421.45 718.1 255.6 718.1 124.44 718.1 199.84 720.23 1.28 722.42 177.15 722.51"/></g><g id="Group-Copy-3" class="cls-22"><polygon id="Wave-Copy-6-3" data-name="Wave-Copy-6" class="cls-23" points="-13.99 788.35 -114 791.78 300.61 791.78 194.09 788.6 406.87 788.6 153.53 786.06 230.3 783.93 64.45 783.93 -66.71 783.93 8.69 786.06 -189.87 788.26 -13.99 788.35"/><polygon id="Wave-Copy-7-3" data-name="Wave-Copy-7" class="cls-23" points="-210.97 796.19 -310.97 799.63 103.64 799.63 -2.88 796.45 209.9 796.45 -43.44 793.91 33.33 791.78 -132.52 791.78 -263.68 791.78 -188.28 793.91 -386.84 796.1 -210.97 796.19"/><polygon id="Wave-Copy-8-3" data-name="Wave-Copy-8" class="cls-23" points="223.74 811.89 123.74 815.32 538.35 815.32 431.82 812.14 644.6 812.14 391.27 809.61 468.04 807.47 302.19 807.47 171.02 807.47 246.43 809.61 47.87 811.8 223.74 811.89"/><polygon id="Wave-Copy-10-3" data-name="Wave-Copy-10" class="cls-23" points="137.41 819.74 37.41 823.17 452.02 823.17 345.5 819.99 558.28 819.99 304.94 817.45 381.71 815.32 215.86 815.32 84.7 815.32 160.1 817.45 -38.46 819.65 137.41 819.74"/><polygon id="Wave-Copy-12-3" data-name="Wave-Copy-12" class="cls-23" points="-95.87 835.43 -195.87 838.86 218.74 838.86 112.22 835.68 325 835.68 71.66 833.15 148.43 831.02 -17.42 831.02 -148.58 831.02 -73.18 833.15 -271.74 835.34 -95.87 835.43"/><polygon id="Wave-Copy-13-3" data-name="Wave-Copy-13" class="cls-23" points="87.06 843.28 -12.94 846.71 401.66 846.71 295.14 843.53 507.92 843.53 254.59 841 331.36 838.86 165.51 838.86 34.34 838.86 109.75 841 -88.81 843.19 87.06 843.28"/><polygon id="Wave-Copy-14-3" data-name="Wave-Copy-14" class="cls-23" points="66.85 851.13 -33.15 854.56 381.45 854.56 274.93 851.38 487.71 851.38 234.38 848.85 311.15 846.71 145.3 846.71 14.13 846.71 89.53 848.85 -109.02 851.04 66.85 851.13"/><polygon id="Wave-Copy-15-3" data-name="Wave-Copy-15" class="cls-23" points="36.7 858.97 -63.3 862.41 351.31 862.41 244.78 859.23 457.57 859.23 204.23 856.69 281 854.56 115.15 854.56 -16.01 854.56 59.39 856.69 -139.17 858.88 36.7 858.97"/><polygon id="Wave-Copy-11-3" data-name="Wave-Copy-11" class="cls-23" points="36.7 827.58 -63.3 831.02 351.31 831.02 244.78 827.84 457.57 827.84 204.23 825.3 281 823.17 115.15 823.17 -16.01 823.17 59.39 825.3 -139.17 827.49 36.7 827.58"/><polygon id="Wave-Copy-9-3" data-name="Wave-Copy-9" class="cls-23" points="-1.66 804.04 -101.67 807.47 312.94 807.47 206.42 804.29 419.2 804.29 165.87 801.76 242.63 799.63 76.79 799.63 -54.38 799.63 21.02 801.76 -177.54 803.95 -1.66 804.04"/></g></g><g id="Group-2-Copy-2"><g id="Group-2-2" data-name="Group" class="cls-22"><polygon id="Wave-Copy-6-4" data-name="Wave-Copy-6" class="cls-23" points="1039.59 626.23 939.59 630.12 1354.2 630.12 1247.67 626.51 1460.46 626.51 1207.12 623.64 1283.89 621.22 1118.04 621.22 986.88 621.22 1062.28 623.64 863.72 626.12 1039.59 626.23"/><polygon id="Wave-Copy-7-4" data-name="Wave-Copy-7" class="cls-23" points="842.62 634.79 742.62 638.69 1157.23 638.69 1050.7 635.08 1263.48 635.08 1010.15 632.2 1086.92 629.78 921.07 629.78 789.9 629.78 865.31 632.2 666.75 634.69 842.62 634.79"/><polygon id="Wave-Copy-8-4" data-name="Wave-Copy-8" class="cls-23" points="1277.33 652.26 1177.33 656.16 1591.93 656.16 1485.41 652.55 1698.19 652.55 1444.86 649.67 1521.63 647.25 1355.78 647.25 1224.61 647.25 1300.01 649.67 1101.45 652.16 1277.33 652.26"/><polygon id="Wave-Copy-10-4" data-name="Wave-Copy-10" class="cls-23" points="1191 661.17 1091 665.06 1505.61 665.06 1399.09 661.45 1611.87 661.45 1358.53 658.58 1435.3 656.16 1269.45 656.16 1138.29 656.16 1213.69 658.58 1015.13 661.07 1191 661.17"/><polygon id="Wave-Copy-12-4" data-name="Wave-Copy-12" class="cls-23" points="957.72 678.64 857.72 682.53 1272.33 682.53 1165.8 678.92 1378.58 678.92 1125.25 676.05 1202.02 673.63 1036.17 673.63 905 673.63 980.41 676.05 781.85 678.54 957.72 678.64"/><polygon id="Wave-Copy-13-4" data-name="Wave-Copy-13" class="cls-23" points="1140.65 687.54 1040.64 691.44 1455.25 691.44 1348.73 687.83 1561.51 687.83 1308.18 684.95 1384.94 682.53 1219.1 682.53 1087.93 682.53 1163.33 684.95 964.77 687.44 1140.65 687.54"/><polygon id="Wave-Copy-14-4" data-name="Wave-Copy-14" class="cls-23" points="1120.44 696.11 1020.43 700 1435.04 700 1328.52 696.39 1541.3 696.39 1287.97 693.52 1364.73 691.1 1198.88 691.1 1067.72 691.1 1143.12 693.52 944.56 696.01 1120.44 696.11"/><polygon id="Wave-Copy-15-4" data-name="Wave-Copy-15" class="cls-23" points="1090.29 705.01 990.29 708.91 1404.9 708.91 1298.37 705.3 1511.15 705.3 1257.82 702.42 1334.59 700 1168.74 700 1037.58 700 1112.98 702.42 914.42 704.91 1090.29 705.01"/><polygon id="Wave-Copy-16-3" data-name="Wave-Copy-16" class="cls-23" points="1090.29 713.58 990.29 717.47 1404.9 717.47 1298.37 713.87 1511.15 713.87 1257.82 710.99 1334.59 708.57 1168.74 708.57 1037.58 708.57 1112.98 710.99 914.42 713.48 1090.29 713.58"/><polygon id="Wave-Copy-11-4" data-name="Wave-Copy-11" class="cls-23" points="1090.29 670.07 990.29 673.97 1404.9 673.97 1298.37 670.36 1511.15 670.36 1257.82 667.48 1334.59 665.06 1168.74 665.06 1037.58 665.06 1112.98 667.48 914.42 669.97 1090.29 670.07"/><polygon id="Wave-Copy-9-4" data-name="Wave-Copy-9" class="cls-23" points="1051.92 643.7 951.92 647.59 1366.53 647.59 1260.01 643.98 1472.79 643.98 1219.45 641.11 1296.22 638.69 1130.37 638.69 999.21 638.69 1074.61 641.11 876.05 643.6 1051.92 643.7"/></g><g id="Group-Copy-2-2" data-name="Group-Copy-2" class="cls-24"><polygon id="Wave-Copy-6-5" data-name="Wave-Copy-6" class="cls-23" points="1328.15 721.89 1228.14 725.32 1642.75 725.32 1536.23 722.14 1749.01 722.14 1495.68 719.61 1572.44 717.47 1406.6 717.47 1275.43 717.47 1350.83 719.61 1152.27 721.8 1328.15 721.89"/><polygon id="Wave-Copy-7-5" data-name="Wave-Copy-7" class="cls-23" points="1131.18 729.74 1031.17 733.17 1445.78 733.17 1339.26 729.99 1552.04 729.99 1298.71 727.46 1375.47 725.32 1209.63 725.32 1078.46 725.32 1153.86 727.46 955.3 729.65 1131.18 729.74"/><polygon id="Wave-Copy-8-5" data-name="Wave-Copy-8" class="cls-23" points="1565.88 745.43 1465.88 748.87 1880.49 748.87 1773.96 745.68 1986.75 745.68 1733.41 743.15 1810.18 741.02 1644.33 741.02 1513.17 741.02 1588.57 743.15 1390.01 745.34 1565.88 745.43"/><polygon id="Wave-Copy-10-5" data-name="Wave-Copy-10" class="cls-23" points="1479.56 753.28 1379.56 756.71 1794.16 756.71 1687.64 753.53 1900.42 753.53 1647.09 751 1723.86 748.87 1558.01 748.87 1426.84 748.87 1502.24 751 1303.68 753.19 1479.56 753.28"/><polygon id="Wave-Copy-12-5" data-name="Wave-Copy-12" class="cls-23" points="1246.28 768.98 1146.27 772.41 1560.88 772.41 1454.36 769.23 1667.14 769.23 1413.81 766.69 1490.57 764.56 1324.72 764.56 1193.56 764.56 1268.96 766.69 1070.4 768.89 1246.28 768.98"/><polygon id="Wave-Copy-13-5" data-name="Wave-Copy-13" class="cls-23" points="1429.2 776.82 1329.2 780.26 1743.81 780.26 1637.28 777.08 1850.07 777.08 1596.73 774.54 1673.5 772.41 1507.65 772.41 1376.49 772.41 1451.89 774.54 1253.33 776.73 1429.2 776.82"/><polygon id="Wave-Copy-14-5" data-name="Wave-Copy-14" class="cls-23" points="1408.99 784.67 1308.99 788.1 1723.6 788.1 1617.07 784.92 1829.85 784.92 1576.52 782.39 1653.29 780.26 1487.44 780.26 1356.28 780.26 1431.68 782.39 1233.12 784.58 1408.99 784.67"/><polygon id="Wave-Copy-15-5" data-name="Wave-Copy-15" class="cls-23" points="1378.85 792.52 1278.84 795.95 1693.45 795.95 1586.93 792.77 1799.71 792.77 1546.38 790.24 1623.14 788.1 1457.3 788.1 1326.13 788.1 1401.53 790.24 1202.97 792.43 1378.85 792.52"/><polygon id="Wave-Copy-16-4" data-name="Wave-Copy-16" class="cls-23" points="1393.8 800.37 1293.8 803.8 1708.4 803.8 1601.88 800.62 1814.66 800.62 1561.33 798.08 1638.1 795.95 1472.25 795.95 1341.08 795.95 1416.48 798.08 1217.92 800.28 1393.8 800.37"/><polygon id="Wave-Copy-11-5" data-name="Wave-Copy-11" class="cls-23" points="1378.85 761.13 1278.84 764.56 1693.45 764.56 1586.93 761.38 1799.71 761.38 1546.38 758.85 1623.14 756.71 1457.3 756.71 1326.13 756.71 1401.53 758.85 1202.97 761.04 1378.85 761.13"/><polygon id="Wave-Copy-9-5" data-name="Wave-Copy-9" class="cls-23" points="1340.48 737.58 1240.48 741.02 1655.08 741.02 1548.56 737.84 1761.34 737.84 1508.01 735.3 1584.78 733.17 1418.93 733.17 1287.76 733.17 1363.17 735.3 1164.61 737.5 1340.48 737.58"/></g><g id="Group-Copy-3-2" data-name="Group-Copy-3" class="cls-22"><polygon id="Wave-Copy-6-6" data-name="Wave-Copy-6" class="cls-23" points="866.04 790.74 766.03 794.18 1180.64 794.18 1074.12 791 1286.9 791 1033.57 788.46 1110.33 786.33 944.49 786.33 813.32 786.33 888.72 788.46 690.16 790.65 866.04 790.74"/><polygon id="Wave-Copy-7-6" data-name="Wave-Copy-7" class="cls-23" points="669.07 798.59 569.06 802.02 983.67 802.02 877.15 798.84 1089.93 798.84 836.6 796.31 913.36 794.18 747.51 794.18 616.35 794.18 691.75 796.31 493.19 798.5 669.07 798.59"/><polygon id="Wave-Copy-8-6" data-name="Wave-Copy-8" class="cls-23" points="1103.77 814.29 1003.77 817.72 1418.38 817.72 1311.85 814.54 1524.63 814.54 1271.3 812 1348.07 809.87 1182.22 809.87 1051.06 809.87 1126.46 812 927.9 814.2 1103.77 814.29"/><polygon id="Wave-Copy-10-6" data-name="Wave-Copy-10" class="cls-23" points="1017.45 822.13 917.45 825.57 1332.05 825.57 1225.53 822.39 1438.31 822.39 1184.98 819.85 1261.74 817.72 1095.9 817.72 964.73 817.72 1040.13 819.85 841.57 822.04 1017.45 822.13"/><polygon id="Wave-Copy-12-6" data-name="Wave-Copy-12" class="cls-23" points="784.16 837.83 684.16 841.26 1098.77 841.26 992.25 838.08 1205.03 838.08 951.7 835.55 1028.46 833.41 862.61 833.41 731.45 833.41 806.85 835.55 608.29 837.74 784.16 837.83"/><polygon id="Wave-Copy-13-6" data-name="Wave-Copy-13" class="cls-23" points="967.09 845.68 867.09 849.11 1281.7 849.11 1175.17 845.93 1387.95 845.93 1134.62 843.39 1211.39 841.26 1045.54 841.26 914.38 841.26 989.78 843.39 791.22 845.59 967.09 845.68"/><polygon id="Wave-Copy-14-6" data-name="Wave-Copy-14" class="cls-23" points="946.88 853.52 846.88 856.96 1261.48 856.96 1154.96 853.78 1367.74 853.78 1114.41 851.24 1191.18 849.11 1025.33 849.11 894.16 849.11 969.57 851.24 771.01 853.43 946.88 853.52"/><polygon id="Wave-Copy-15-6" data-name="Wave-Copy-15" class="cls-23" points="916.74 861.37 816.73 864.8 1231.34 864.8 1124.82 861.63 1337.6 861.63 1084.27 859.09 1161.03 856.96 995.18 856.96 864.02 856.96 939.42 859.09 740.86 861.28 916.74 861.37"/><polygon id="Wave-Copy-11-6" data-name="Wave-Copy-11" class="cls-23" points="916.74 829.98 816.73 833.41 1231.34 833.41 1124.82 830.24 1337.6 830.24 1084.27 827.7 1161.03 825.57 995.18 825.57 864.02 825.57 939.42 827.7 740.86 829.89 916.74 829.98"/><polygon id="Wave-Copy-9-6" data-name="Wave-Copy-9" class="cls-23" points="878.37 806.44 778.37 809.87 1192.97 809.87 1086.45 806.69 1299.23 806.69 1045.9 804.16 1122.67 802.02 956.82 802.02 825.65 802.02 901.05 804.16 702.5 806.35 878.37 806.44"/></g></g><ellipse id="Oval-Copy-11" class="cls-25" cx="1494.54" cy="584.39" rx="561.62" ry="36.14"/><ellipse id="Oval-Copy-12" class="cls-26" cx="975.56" cy="584.39" rx="561.62" ry="36.14"/><ellipse id="Oval-Copy-13" class="cls-27" cx="803.26" cy="601.52" rx="561.62" ry="36.14"/></svg>